<svg version="1.1" xmlns="http://www.w3.org/2000/svg" xmlns:xlink="http://www.w3.org/1999/xlink" width="982.66727" height="303" viewBox="0,0,982.66727,303"><g transform="translate(251.49999,-28.45)"><g data-paper-data="{&quot;isPaintingLayer&quot;:true}" fill-rule="nonzero" stroke-linecap="butt" stroke-linejoin="miter" stroke-miterlimit="10" stroke-dasharray="" stroke-dashoffset="0" style="mix-blend-mode: normal"><path d="M727.10001,147.35c10.8,31.8 -3,76.6 -5.9,85.3c-1.7,5.2 -3.9,10.4 -6.4,15.3c0.7,0.3 -6,10.3 -6,10.3c-3.1,4.9 -6.7,9.4 -10.5,13.6c-17.7,19.4 -35.9,33.2 -55.8,42.3c-17,7.8 -35.7,13.4 -57.2,17.2h-0.5h-0.5c-9.7,0 -19.3,0 -29,0c-22.3,-0.2 -45.5,-0.2 -68.2,-0.2c-14.4,0 -29,0.2 -43.1,0.2c-6.5,0.1 -13,0.1 -19.5,0.1h-0.1c-1.5,-0.1 -2.9,-0.1 -4.4,-0.1c-3,-0.2 -6.1,-0.2 -9.1,-0.2c-114.5,0 -228.9,0 -343.4,0c-2.1,0.1 -4.1,0.2 -6.2,0.2c-1,0.1 -2,0.1 -3,0.1v0v0c-6,0 -11.9,0 -17.9,0c-12.9,-0.2 -26.3,-0.2 -39.5,-0.2c-24,0.1 -48.5,0.2 -72.1,0.2c-10.1,0 -20.1,0 -30.2,0h-0.2h-0.2c-17.8,-1.5 -34.1,-7 -47.7,-12.2c-22.3,-8.5 -41,-20.5 -55.9,-35.6c-20.9,-21.3 -33.5,-43 -38.6,-66.5c-0.8,-3.6 -2.8,-16.7 -3,-19.9l-4.5,-28.9l3.9,6.4c0,-0.7 0,-1.3 0,-1.8v0c0.8,-34.1 13.6,-64.2 39.5,-92c12.1,-13 27,-23.9 45.8,-33.3c12.9,-6.5 27.1,-11.4 44.7,-15.6c8.3,-2 15.8,-3.6 24,-3.6h35.5c201.4,0 409.7,0.1 614.5,0h0.2c18.3,0 33.4,1.6 47.4,5c25.7,6.3 45.5,14.7 62.4,26.3c32,22.1 52.5,51.6 61,87.7z" fill="#333840" stroke="none" stroke-width="1" opacity="0.5"/><g stroke="none" stroke-width="1"><path d="M712.70001,254.05l-0.3,-0.5l0.7,-0.3c0,0.3 -0.2,0.5 -0.4,0.8z" fill="#505a6d"/><path d="M-242.09999,173.05c0.7,-34.5 14.8,-63.4 37.9,-88.3c12.6,-13.6 27.7,-23.8 44.2,-32.1c13.9,-7 28.5,-11.6 43.5,-15.1c7.5,-1.8 15,-3.4 22.8,-3.4c216.7,0 433.4,0 650,0c15.7,0 31,1.1 46.3,4.9c21.6,5.3 42.2,12.8 60.5,25.5c30.2,20.8 50.4,48.7 58.8,84.7c10,29.2 -2.2,71 -5.9,82.1c-4.6,13.8 -12.2,26.7 -21.8,37.2c-15.3,16.8 -32.9,31.3 -54,41c-17.9,8.2 -36.6,13.4 -55.9,16.8c-32.4,0 -64.8,-0.2 -97.2,-0.2c-20.9,0 -41.7,0.2 -62.6,0.3c-4.5,0 -9,-0.3 -13.6,-0.3c-114.5,0 -228.9,0 -343.4,0c-3.1,0 -6.2,0.2 -9.3,0.3c-19.2,0 -38.3,-0.3 -57.5,-0.2c-34.1,0 -68.2,0.2 -102.3,0.2c-16.1,-1.3 -31.3,-6.1 -46.2,-11.9c-20.3,-7.8 -38.7,-18.9 -53.9,-34.3c-17.6,-17.9 -31.6,-38.4 -37.1,-63.8c-0.9,-4.1 -2.8,-17.6 -2.9,-19.2c0.2,-0.2 -0.6,-8.5 -0.7,-11.8c0.7,-1.9 0,-9.7 0.1,-12zM-216.49999,122.05c-3.4,1 -3.4,4.3 -4.6,6.8c-5.2,12.5 -8.4,25.6 -10,39c-1.7,13.8 -0.3,27.6 1.8,41.1c2.2,14.2 9.5,27 17.6,39c3.6,8.7 11.2,14.6 15.8,22.6c0.9,1.6 2.7,3.1 4.4,3.9c3.5,1.5 6,4.2 8.9,6.3c7.7,5.6 15.5,11.1 23.4,16.6c5.4,3.8 12,4.7 18,6.8c10.4,3.7 20.9,7 32,8.6c11.2,1.6 22.3,2.9 33.6,2.9c207.4,0 414.7,0 622.1,0c12.1,0 24.2,0 36.3,-1.2c21.1,-2.2 40.9,-8.3 59.5,-18c18.1,-9.5 34,-22.2 46.3,-38.8c9.5,-12.7 17.2,-26.4 20.4,-42.2c0.3,-1.4 0.6,-2.9 0.9,-4.3c0.7,-0.6 1,-1.4 0.9,-2.4c3.7,-14.6 4.2,-29.2 2.5,-44.2c-1.9,-16.5 -7.1,-31.7 -15,-46c-4.7,-8.5 -9.9,-16.9 -17.3,-23.5c-1.4,-1.7 -2.7,-3.6 -4.3,-5.2c-24.9,-24.2 -103.9,-45 -107.8,-44.4c-2.5,0.4 -652.7,-0.9 -655.2,0c-3.9,0.2 -7.7,0.4 -11.6,0.5c-1.6,0 -3.93333,0.43333 -7,1.3c-38.1,5.7 -71.2,21.3 -96.8,50.7c-6.2,7.1 -12.5,14.5 -15.2,24h0.2z" fill="#010001"/><path d="M-241.69999,195.15c0.2,0.4 0.4,1.6 0.3,1.8c0,-0.6 -0.2,-1.2 -0.3,-1.8z" fill="#4a515e"/><path d="M710.10001,211.05c-0.3,1.4 -0.6,2.9 -0.9,4.3c-4.3,1.2 -4.8,5.4 -6.2,8.5c-5.7,12.9 -14.8,23.5 -24.6,33.1c-14,13.6 -30.3,23.9 -48.5,31.7c-22.9,9.9 -46.9,14.8 -71.4,14.8c-210.5,0.4 -421.1,0.2 -631.6,0.3c-9.6,0 -19.1,-1.6 -28.6,-2.3c-5.7,-0.4 -11.7,-0.6 -17.5,-2.3c-9,-2.6 -17.7,-5.4 -26.3,-9.1c-22.5,-9.6 -43.9,-20.7 -60.4,-39.4c-1.5,-1.7 -3.2,-3.2 -5.8,-2.7c-8.1,-12 -15.4,-24.8 -17.6,-39c-2.1,-13.5 -3.5,-27.3 -1.8,-41.1c1.6,-13.4 4.7,-26.5 10,-39c3.7,-0.8 4.5,-3.6 4.6,-6.8c0,0 -0.2,0 -0.1,0c2.8,0.6 3.9,-1.3 5.4,-3.1c4,-4.9 8.1,-9.7 12.6,-14.9c0.5,1.6 0.7,2.1 0.8,2.7c1.2,7.4 3.9,8.8 9.8,4.7c1.2,-0.8 2.2,-1.8 3.1,-2.8c5.8,-6.2 4.6,-9.7 -4,-12c-0.7,-0.2 -1,-0.5 -0.6,-1.6c1.9,-2.8 4.7,-5.2 7.5,-7.5c1.8,-1.5 3.6,-2.5 5.5,0.5c3.5,5.4 8.6,4.6 13.6,2.5c7.8,-3.4 14.9,-8 21.4,-13.5c3.6,-3.1 8.3,-5.9 9.4,-10.6c1,-4.2 3.4,-5.6 6.7,-6.3c16.7,-3.7 33.6,-7.2 50.8,-7.2c214.4,-0.1 428.7,0 643.1,-0.2c10.2,0 20.1,1.2 30.1,3.5c27,6.3 51.7,17.5 73.7,34.4c2.6,2 5,4.7 8.9,4.5c7.4,6.6 12.6,15 17.3,23.5c7.9,14.3 13.1,29.5 15,46c1.7,15 1.2,29.6 -2.5,44.2c-0.8,0.6 -1.1,1.4 -0.9,2.4z" fill="#e86e00"/><path d="M-211.69999,247.95c2.6,-0.5 4.3,1 5.8,2.7c16.5,18.7 37.9,29.8 60.4,39.4c8.6,3.7 17.4,6.5 26.3,9.1c5.8,1.7 11.8,1.9 17.5,2.3c9.5,0.7 19,2.3 28.6,2.3c210.5,0 421.1,0 631.6,-0.3c24.5,0 48.5,-4.9 71.4,-14.8c18.1,-7.8 34.5,-18.1 48.5,-31.7c9.8,-9.6 18.9,-20.1 24.6,-33.1c1.4,-3.1 1.9,-7.3 6.2,-8.5c-3.2,15.8 -11,29.5 -20.4,42.2c-12.3,16.6 -28.2,29.4 -46.3,38.8c-18.5,9.7 -38.4,15.8 -59.5,18c-12.1,1.2 -24.2,1.2 -36.3,1.2c-207.4,0 -414.7,0 -622.1,0c-11.3,0 -22.4,-1.3 -33.6,-2.9c-11.1,-1.5 -21.6,-4.9 -32,-8.6c-6.1,-2.1 -12.6,-3 -18,-6.8c-7.8,-5.5 -15.7,-10.9 -23.4,-16.6c-3,-2.1 -5.5,-4.8 -8.9,-6.3c-1.7,-0.8 -3.4,-2.3 -4.4,-3.9c-4.6,-8 -12.2,-13.9 -15.8,-22.6z" fill="#c94300"/><path d="M681.20001,94.95c-3.8,0.2 -6.3,-2.5 -8.9,-4.5c-22.1,-16.9 -46.7,-28.1 -73.7,-34.4c-9.9,-2.3 -19.8,-3.5 -30.1,-3.5c-214.4,0.2 -428.7,0.1 -643.1,0.2c-17.2,0 -34.1,3.5 -50.8,7.2c-3.3,0.7 -5.7,2.1 -6.7,6.3c-1.1,4.6 -5.8,7.5 -9.4,10.6c-6.5,5.5 -13.6,10.1 -21.4,13.5c-5,2.2 -10,2.9 -13.6,-2.5c-1.9,-2.9 -3.7,-1.9 -5.5,-0.5c-2.8,2.3 -5.6,4.7 -7.5,7.5c-0.3,1 0,1.4 0.6,1.6c8.6,2.3 9.7,5.8 4,12c-1,1 -2,2 -3.1,2.8c-5.9,4 -8.7,2.7 -9.8,-4.7c0,-0.5 -0.3,-1.1 -0.8,-2.7c-4.5,5.3 -8.6,10 -12.6,14.9c-1.5,1.8 -2.7,3.7 -5.4,3.1c2.6,-9.5 8.9,-16.9 15.2,-24c25.7,-29.4 58.7,-45 96.8,-50.7c0,0 4.3,-1.4 7,-1.3c3.9,-0.2 7.7,-0.4 11.6,-0.5c3.1,0.1 6.2,-0.5 9.3,-0.5c212.2,0 424.4,0 636.6,0c3.1,0 6.2,0.6 9.3,0.5c3.9,0.2 7.7,0.4 11.6,0.5c26.5,2.9 71.3,19.6 96.2,43.8c1.6,1.6 2.9,3.4 4.3,5.2z" fill="#f9923e"/><path d="M-216.49999,122.05c-0.1,3.2 -0.9,6 -4.6,6.8c1.3,-2.5 1.2,-5.8 4.6,-6.8z" fill="#7d89a2"/><path d="M710.10001,211.05c-0.2,-1 0,-1.8 0.9,-2.4c0.2,1 -0.1,1.8 -0.9,2.4z" fill="#4a515e"/></g><text transform="translate(-35.66639,224.40264) scale(3.70022,3.70022)" font-size="40" xml:space="preserve" fill="#c94300" fill-rule="nonzero" stroke-opacity="0" stroke="#000000" stroke-width="0" stroke-linecap="butt" stroke-linejoin="miter" stroke-miterlimit="10" stroke-dasharray="" stroke-dashoffset="0" font-family="Serif" font-weight="normal" text-anchor="start" style="mix-blend-mode: normal"><tspan x="0" dy="0">Opciones</tspan></text><text transform="translate(-42.66639,229.40264) scale(3.70022,3.70022)" font-size="40" xml:space="preserve" fill="#ffffff" fill-rule="nonzero" stroke-opacity="0" stroke="#000000" stroke-width="0" stroke-linecap="butt" stroke-linejoin="miter" stroke-miterlimit="10" stroke-dasharray="" stroke-dashoffset="0" font-family="Serif" font-weight="normal" text-anchor="start" style="mix-blend-mode: normal"><tspan x="0" dy="0">Opciones</tspan></text></g></g></svg>