<svg version="1.1" xmlns="http://www.w3.org/2000/svg" xmlns:xlink="http://www.w3.org/1999/xlink" width="36.20481" height="34.74432" viewBox="0,0,36.20481,34.74432"><g transform="translate(-221.8976,-162.62784)"><g data-paper-data="{&quot;isPaintingLayer&quot;:true}" fill-rule="nonzero" stroke-linecap="butt" stroke-linejoin="miter" stroke-miterlimit="10" stroke-dasharray="" stroke-dashoffset="0" style="mix-blend-mode: normal"><path d="M228.13879,191.22487c-6.96961,-6.66763 -6.33262,-16.52239 0,-22.58061c6.33262,-6.05822 16.65688,-6.64545 23.6033,0c6.94643,6.64545 6.67977,16.19027 0,22.58061c-6.67977,6.39034 -16.63369,6.66763 -23.6033,0z" fill="#ffffff" stroke="#ff0000" stroke-width="2.5"/><g stroke="none" stroke-width="1"><path d="M232.17352,179.68738c0,0 -0.99039,-0.74331 -0.4954,-1.63369c0.4954,-0.8908 1.38662,-1.2736 1.38662,-1.18157c0,0.09202 8.5668,7.13985 18.22276,-0.32103v-1.01475c0,0 3.61446,1.67571 2.42617,5.04312c0,0 -2.16776,-0.69332 -4.17795,1.48579c-2.01186,2.17869 -3.7943,6.83353 -19.19506,2.42617c0,0 -1.23745,-0.39624 -0.59415,-1.58495c0.64331,-1.18829 2.57577,-2.32785 2.42701,-3.21907z" fill="#458ef9"/><g fill="#1f1287"><path d="M234.72406,178.07973c-1.06517,0.81686 -0.37186,2.00514 -0.43657,2.50223c-0.06513,0.49665 -0.18321,1.60849 -0.82651,2.37533c-0.64331,0.76684 -0.7181,2.1354 -0.7181,2.1354l-1.58454,-0.37816c0.17354,-0.39624 0.14917,-1.13829 1.13956,-2.17867c0.99039,-1.04038 1.03953,-2.29381 1.03953,-2.29381c-0.69331,-2.19465 0.65759,-2.67659 0.65759,-2.67659z"/><path d="M237.62001,179.3924c0,0 -0.2559,0.36135 -0.2559,1.17904c0,0.81769 0.26388,1.62446 -0.21177,2.45014c-0.47523,0.82567 -1.02442,2.83333 -1.02442,2.83333l-1.15427,-0.22102c0,0 0.04495,-0.40044 0.36767,-1.32948c0.3223,-0.92945 1.16393,-1.64504 0.99879,-3.04511c-0.16472,-1.40007 0.32818,-2.46651 0.31388,-2.26061z"/><path d="M240.60124,179.90378c-0.23741,1.10678 -0.19077,1.56688 -0.02606,3.04469c0.16472,1.47781 -0.50298,3.15771 -0.50298,3.15771l-1.10635,-0.07311c0,0 0.88282,-1.82321 0.55339,-3.27537c-0.32985,-1.45259 0.2311,-2.90476 0.2311,-2.96737z"/><path d="M242.79631,179.91175h1.0345c0.96432,3.16739 -0.04412,4.06365 -0.04412,4.06365c0.24707,1.38914 -0.62062,2.1312 -0.62062,2.1312h-0.5933c0.89122,-1.15804 0.34707,-2.25893 0.34707,-2.25893c0.61936,-1.85723 -0.12354,-3.93674 -0.12354,-3.93674z"/><path d="M247.17679,178.97347c1.43284,3.24681 0.46137,4.53132 0.51347,4.69225c0.05253,0.16093 -0.14875,0.61095 -0.14875,0.61095l-0.85886,0.57733c0.34707,-0.67651 0.16554,-1.05593 0.16554,-1.05593c0.70843,-2.55853 -0.79541,-4.44896 -0.79541,-4.44896z"/><path d="M250.2488,177.36036c1.2051,0.84121 1.2051,3.33421 1.2051,3.33421l-0.87484,0.49499c0.34624,-2.39338 -1.05677,-3.40058 -1.05677,-3.40058z"/><path d="M251.28833,175.6107c3.97836,2.26146 2.33667,4.93722 2.33667,4.93722l-0.01134,-0.30591c0.19497,-2.86358 -2.12785,-3.59389 -2.12785,-3.59389z"/></g><path d="M253.90065,180.6454l-0.06345,0.18068l-0.18236,-0.05798c-0.00294,-0.00085 -0.31053,-0.0958 -0.78745,-0.0958c-0.81054,0 -2.02196,0.26514 -3.18588,1.52654c-0.19329,0.20841 -0.38364,0.44078 -0.58491,0.68491c-1.2614,1.53453 -2.99006,3.63673 -8.17814,3.63673c-2.79089,0 -6.36711,-0.61894 -10.63162,-1.83916c-0.03151,-0.00967 -0.63323,-0.20757 -0.84877,-0.74331c-0.13363,-0.33404 -0.08866,-0.71307 0.13488,-1.12568c0.28699,-0.52859 0.79542,-1.02863 1.28747,-1.51268c0.54582,-0.53617 1.10677,-1.08955 1.12106,-1.49671c-0.00714,-0.00546 -0.0147,-0.00883 -0.02185,-0.0143l0.0063,-0.01723c-0.38699,-0.33447 -0.88533,-1.05174 -0.46052,-1.81522c0.46767,-0.84248 1.29965,-1.29712 1.53537,-1.29712h0.19832l0.01345,0.11807c0.36851,0.308 3.77372,2.99721 8.72985,2.99721c3.16318,0 6.22595,-1.11771 9.10802,-3.32202v-1.22737l0.28111,0.13069c0.03739,0.01807 3.76363,1.7921 2.52913,5.28976zM251.48581,175.86449v0.7828l-0.07646,0.05925c-2.97578,2.29843 -6.14822,3.46404 -9.42779,3.46404c-4.62796,0 -8.20293,-2.38079 -8.96431,-3.10814c-0.15758,0.05294 -0.78365,0.39834 -1.1656,1.08703c-0.40422,0.72735 0.40633,1.35344 0.4412,1.37949l0.06345,0.04748l0.00503,0.03067c0.33027,0.24413 1.03787,0.64667 2.43709,0.99628c0,0 -1.33662,0.03865 -2.45853,-0.57776c-0.13404,0.50087 -0.65297,1.01644 -1.20217,1.55681c-0.47145,0.46305 -0.95845,0.94205 -1.21687,1.41856c-0.16429,0.30339 -0.20295,0.56811 -0.11598,0.7866c0.14456,0.36305 0.5929,0.51347 0.59751,0.51516c4.22247,1.20804 7.76257,1.82152 10.51607,1.82152c3.74766,0 5.58095,-1.08703 6.80203,-2.28667c-1.02947,0.26388 -4.19307,0.89542 -6.7079,-0.53574c0,0 3.56068,1.23199 7.17682,0.03907c0.21388,-0.24034 0.41222,-0.47859 0.60214,-0.70927c0.20631,-0.25043 0.40086,-0.48826 0.59919,-0.70212c1.70346,-1.8459 3.58842,-1.70807 4.19391,-1.58621c0.78408,-2.54424 -1.30932,-4.02415 -2.09885,-4.47878z" fill="#000000"/></g><g stroke="none" stroke-width="1"><g><path d="M224.40651,182.498c-0.03269,-0.06379 -0.12856,-0.28272 -0.01026,-0.42107c0.11823,-0.13746 0.31795,-0.06068 0.38372,-0.0359c0.05197,0.03444 0.79406,0.70999 1.95641,1.03324c-0.00081,-0.12859 0.00058,-0.25212 0.00384,-0.37191c-0.56915,-0.0621 -1.61861,-0.67348 -2.2537,-1.31299c-0.05986,-0.10972 -0.14385,-0.33331 -0.0196,-0.46448c0.1255,-0.13064 0.32197,-0.04316 0.38679,-0.01464c0.05,0.03741 0.7671,0.76758 1.9298,1.15167c0.01702,-0.15339 0.03808,-0.30038 0.06214,-0.43846c-0.51269,-0.05929 -1.58192,-0.75489 -2.20417,-1.45489c-0.05329,-0.11301 -0.12631,-0.3409 0.00584,-0.46498c0.13238,-0.12429 0.32312,-0.02474 0.38545,0.0076c0.04928,0.04094 0.7592,0.85304 1.95589,1.29565c0.03407,-0.11672 0.07224,-0.23045 0.11363,-0.34081c-0.47954,-0.1211 -1.37477,-0.79044 -1.94559,-1.47906c-0.03684,-0.04444 -0.07278,-0.08925 -0.10636,-0.13367c-0.04478,-0.11637 -0.09996,-0.35002 0.04094,-0.46403c0.14016,-0.11296 0.32328,0.00031 0.38331,0.03716l0.10069,0.11222c0.17172,0.20715 0.79872,0.90461 1.79783,1.35244c0.06798,-0.11722 0.13411,-0.2167 0.19427,-0.29854c-0.51327,-0.18272 -1.32051,-0.80388 -1.84894,-1.44137c-0.03704,-0.04468 -0.07235,-0.08922 -0.10634,-0.13411c-0.04478,-0.11637 -0.10035,-0.35051 0.04075,-0.46428c0.13973,-0.11299 0.32285,0.00027 0.38351,0.03741l0.09877,0.11184c0.17628,0.21266 0.8326,0.94011 1.87674,1.38674l0.02727,0.01196c0.15909,-0.05895 0.38919,0.03694 0.48537,0.08332l0.17997,0.08754l-0.13825,0.14886c-1.34525,1.4489 -1.15604,4.23359 -1.15438,4.26188l0.01846,0.25025l-0.68589,-0.31596l0.00008,-0.08808c-0.5614,-0.03668 -1.63851,-0.58737 -2.30372,-1.18966l-0.02074,-0.01772z" fill="#1f1287"/><path d="M228.02668,179.51708c0,0 -0.0053,0.00384 -0.01437,0.01141c-0.01964,-0.05048 -0.05475,-0.09479 -0.05872,-0.09957c-0.0004,-0.00048 -0.0004,-0.00048 -0.0004,-0.00048c-1.06391,-0.45488 -1.72999,-1.18489 -1.93084,-1.42717c-0.04258,-0.05137 -0.0639,-0.08096 -0.0639,-0.08096c-0.36294,-0.22447 -0.23469,0.20643 -0.23469,0.20643c0.03279,0.04346 0.06692,0.08656 0.10257,0.12957c0.61875,0.74644 1.62037,1.45401 1.97966,1.4466c0.01097,-0.00138 0.0152,-0.00262 0.02526,-0.00362c-0.11414,0.12437 -0.26317,0.32114 -0.41061,0.60409c-0.01144,-0.01721 -0.0214,-0.03117 -0.02576,-0.03643c-0.00159,-0.00191 -0.00218,-0.00263 -0.00218,-0.00263c-1.06238,-0.45499 -1.72767,-1.18402 -1.92931,-1.42727c-0.04337,-0.05233 -0.06487,-0.08217 -0.06487,-0.08217c-0.36407,-0.22389 -0.23563,0.20725 -0.23563,0.20725c0.03279,0.04346 0.06692,0.08656 0.10238,0.12933c0.61895,0.74669 1.62057,1.45424 1.97966,1.44661c0.0285,-0.0007 0.04758,-0.00591 0.06889,-0.00895c-0.08471,0.19349 -0.16476,0.41842 -0.23211,0.6801c-0.00886,-0.00873 -0.01439,-0.01542 -0.01439,-0.01542c-1.32747,-0.44988 -2.10082,-1.34872 -2.10082,-1.34872c-0.37782,-0.19567 -0.2187,0.22376 -0.2187,0.22376c0.66072,0.74299 1.81362,1.44846 2.19344,1.40979c0.03416,-0.00361 0.05818,-0.01068 0.08145,-0.01669c-0.05047,0.23773 -0.08796,0.50374 -0.11336,0.79463c-1.31579,-0.38123 -2.11438,-1.20872 -2.11438,-1.20872c-0.38918,-0.17331 -0.20825,0.23687 -0.20825,0.23687c0.69925,0.70374 1.88895,1.34253 2.26595,1.28197c0.01626,-0.00232 0.02466,-0.00681 0.03815,-0.01001c-0.01119,0.22178 -0.01325,0.45702 -0.00609,0.7102c-1.32113,-0.31167 -2.15572,-1.08519 -2.15572,-1.08519c-0.3976,-0.15184 -0.19455,0.24756 -0.19455,0.24756c0.73549,0.66319 1.9575,1.23475 2.33067,1.15398c0.01041,-0.00255 0.01365,-0.00498 0.02248,-0.00697l-0.00026,0.14484l0.37975,0.17414c0,0 -0.21356,-2.86079 1.19388,-4.37594c0,0 -0.40665,-0.19635 -0.43431,-0.00223zM228.66993,179.72265c-1.29988,1.39989 -1.1166,4.12041 -1.11484,4.14737l0.03714,0.50028l-0.44444,-0.20443l-0.3784,-0.17493l-0.17055,-0.07763l0.00066,-0.04644c-0.63312,-0.10664 -1.65878,-0.67615 -2.25563,-1.21545l-0.04014,-0.03576l-0.02457,-0.04863c-0.04341,-0.08452 -0.17069,-0.37786 0.00955,-0.58764c0.0829,-0.09729 0.24511,-0.18997 0.54292,-0.07719l0.0299,0.01172c-0.1764,-0.13778 -0.33858,-0.27938 -0.47676,-0.4173l-0.0373,-0.03866l-0.0223,-0.04979c-0.03838,-0.08771 -0.15023,-0.38679 0.03987,-0.58663c0.08931,-0.09344 0.25607,-0.17771 0.54664,-0.04783l0.05007,0.02289l0.03902,0.0388c0.00747,0.00706 0.63411,0.64369 1.66193,1.02579c0.00586,-0.04068 0.01167,-0.0809 0.01765,-0.12045c-0.61612,-0.16166 -1.5993,-0.85819 -2.14546,-1.47223l-0.03654,-0.04017l-0.01794,-0.05281c-0.03349,-0.08912 -0.12825,-0.39537 0.07194,-0.58301c0.0934,-0.08752 0.26506,-0.16249 0.54734,-0.01581l0.049,0.02549l0.03658,0.04218c0.00634,0.00765 0.63986,0.72952 1.71322,1.16659c0.00504,-0.01683 0.01186,-0.0344 0.0167,-0.05145c-0.5604,-0.21522 -1.36695,-0.87209 -1.86825,-1.47685c-0.03803,-0.04588 -0.07472,-0.09209 -0.11012,-0.13821l-0.03279,-0.04346l-0.01555,-0.05284c-0.02763,-0.09179 -0.10044,-0.40372 0.11355,-0.57666c0.09934,-0.08036 0.27527,-0.14091 0.5475,0.02578l0.04648,0.02976l0.03308,0.04526c0.00257,0.00311 0.02145,0.02782 0.05531,0.06868c0.16023,0.1933 0.72782,0.82445 1.63192,1.26043c0.0075,-0.01237 0.01544,-0.02473 0.02236,-0.03538c-0.54836,-0.26012 -1.26966,-0.8614 -1.73154,-1.41861c-0.03822,-0.04611 -0.07492,-0.09233 -0.11033,-0.13845l-0.03279,-0.04346l-0.01535,-0.0526c-0.02763,-0.09179 -0.10064,-0.40395 0.11355,-0.57665c0.09934,-0.08036 0.27528,-0.14091 0.54677,0.02684l0.04691,0.02979l0.03358,0.04441c0.00218,0.00262 0.01972,0.02769 0.05339,0.06831c0.16994,0.20501 0.80045,0.90474 1.80475,1.33934c0.19124,-0.04013 0.41007,0.04461 0.537,0.10567l0.36149,0.17452zM226.59321,182.87671c-0.00056,-0.01189 -0.00051,-0.02352 0.00026,-0.03575c-0.45439,-0.09612 -1.11114,-0.45877 -1.65787,-0.86989c0.09361,0.08127 0.70873,0.6012 1.65761,0.90564z" fill="#000000"/></g><path d="M246.21212,186.65971l-1.48955,-1.34102c-1.17557,-1.3982 -5.03361,-2.58415 -8.79332,-0.95915c-3.76065,1.62582 -9.13173,-0.41361 -9.13173,-0.41361c-0.19246,-3.79157 1.46139,-4.62901 1.46139,-4.62901c6.10601,2.58164 7.45228,0.03452 11.17997,0.35884c3.72699,0.32494 5.80517,3.25237 5.80517,3.25237z" fill="#458ef9"/><g fill="#1f1287"><path d="M230.84729,180.22113c-0.99772,0.74826 -1.27737,4.46716 -1.27737,4.46716l-0.84336,-0.15473c-0.73601,-3.09163 1.16431,-4.57676 1.16431,-4.57676z"/><path d="M233.55321,180.47655c-1.20425,1.53228 -0.61283,4.5255 -0.61283,4.5255l-1.15624,-0.0543c-0.57137,-3.10052 0.71365,-4.45842 0.71365,-4.45842z"/><path d="M235.63498,180.15679c-0.60219,1.20351 0.58915,4.09914 0.58915,4.09914l-1.03852,0.39412c-1.31024,-2.61382 -0.29636,-4.33437 -0.29636,-4.33437z"/><path d="M238.55325,179.65077c-0.29442,0.68823 0.62215,3.95775 0.62215,3.95775l-1.04639,0.1011c-1.33171,-2.53792 -0.44798,-3.98534 -0.44798,-3.98534z"/><path d="M241.42087,180.11927c0.18271,0.11032 1.10938,3.72669 1.10938,3.72669l-1.27715,-0.18263l-0.94968,-3.86136c0,0 0.93474,0.20699 1.11744,0.31732z"/><path d="M243.33233,181.28048l1.19074,0.79201l0.44586,3.46498l-1.03627,-0.91547l-0.60034,-3.34152"/></g><path d="M226.65843,184.05094l-0.00556,-0.09632c-0.19398,-3.84601 1.47163,-4.73553 1.54332,-4.77131l0.05837,-0.02944l0.05985,0.02545c3.89927,1.64875 5.83635,1.18316 7.70857,0.7329c1.02522,-0.24649 2.08548,-0.50233 3.42902,-0.38429c3.17436,0.27639 5.18714,2.42885 5.72825,3.08164c0.11983,0.14456 0.18047,0.23086 0.18047,0.23086l1.11335,4.25367l-1.84707,-1.66321c-1.21078,-1.43873 -5.07341,-2.47725 -8.64282,-0.93493c-3.76983,1.62935 -9.01619,-0.32683 -9.23793,-0.41068zM228.27114,179.4822c-0.26852,0.18413 -1.46948,1.18797 -1.33366,4.35636c0.71162,0.25202 5.53366,1.85512 8.93645,0.38458c3.83437,-1.6572 7.73056,-0.46226 8.95809,0.99766l1.11831,1.00568l-0.84204,-3.24584c-0.00757,-0.00036 -0.0613,-0.0725 -0.14778,-0.17781c-0.52328,-0.63127 -2.4699,-2.71221 -5.53361,-2.97933c-1.29832,-0.11319 -2.28991,0.12565 -3.33901,0.37743c-1.9063,0.45835 -3.87703,0.93205 -7.81674,-0.71873z" fill="#000000"/></g><g stroke="none" stroke-width="1"><path d="M253.52634,180.68468c1.52659,0.88494 0.57241,3.01715 0.57241,3.01715c2.81431,1.24817 1.95569,3.01584 1.95569,3.01584c-1.57475,-0.98953 -2.95802,0.20833 -7.25965,1.19698c-4.30042,0.98865 -8.72269,-1.19698 -8.72269,-1.19698c7.58472,-8.58274 13.45342,-6.03299 13.45424,-6.03299z" fill="#458ef9"/><g fill="#1f1287"><path d="M245.90274,181.85164c0,0 2.24352,1.73853 1.37922,6.32032h-0.68697c0,0 0.63071,-3.88753 -1.32135,-5.92662z"/><path d="M249.3263,180.5024c1.86096,2.62654 1.44197,6.68135 1.44197,6.68135l-0.86185,0.24143c0.36555,-4.93708 -1.58163,-6.63633 -1.58163,-6.63633z"/><path d="M243.31632,183.54604c0,0 1.43145,1.97687 1.0497,4.45998l-0.49226,-0.08386c0,0 -0.39106,-3.38967 -1.08248,-3.8959z"/><path d="M254.64607,186.27189h-0.80235c0.15261,-1.66967 -1.16265,-2.93992 -1.16265,-2.93992c0.25343,-1.90492 -0.84932,-3.00083 -0.84932,-3.00083l1.08856,0.17214c0.49064,0.54598 0.55339,2.79737 0.60521,2.93859c1.16872,0.88406 1.12136,2.83002 1.12055,2.83002z"/></g><path d="M256.22245,186.81521l-0.09229,0.19067l-0.17205,-0.10769c-0.93513,-0.58656 -1.88444,-0.32088 -3.63934,0.23922c-0.90478,0.28864 -2.03057,0.64748 -3.48389,0.98203c-0.75417,0.17302 -1.56221,0.2604 -2.40302,0.2604c-3.41912,0 -6.40872,-1.45739 -6.43827,-1.47238l-0.24654,-0.12137l0.18784,-0.21229c4.71212,-5.33122 8.77774,-6.45097 11.3601,-6.45097c1.4359,0 2.2662,0.35396 2.30222,0.36897c1.25048,0.72294 1.07034,2.24214 0.75417,3.10101c1.02461,0.48859 1.66706,1.10739 1.91156,1.8418c0.25343,0.76135 -0.02834,1.35543 -0.04049,1.38059zM255.90182,185.56659c-0.2093,-0.61393 -0.81288,-1.16166 -1.73141,-1.59772c-1.66624,-0.75163 -3.26772,0.12226 -3.26772,0.12226c1.53346,-1.03014 2.63943,-0.83947 3.10052,-0.67837c0.18176,-0.51594 0.54126,-1.90316 -0.56635,-2.5449c-0.00284,0 -0.79751,-0.32969 -2.14111,-0.32969c-2.47182,0 -6.35568,1.06721 -10.8909,6.10538c0.78009,0.34073 3.26042,1.31923 6.02737,1.31923c0.8137,0 1.59704,-0.08475 2.32449,-0.25203c1.43996,-0.33059 2.55806,-0.68765 3.45595,-0.97365c1.73952,-0.55523 2.75764,-0.82756 3.73731,-0.3147c0.04251,-0.1889 0.07247,-0.49609 -0.04817,-0.8558z" fill="#000000"/></g><g stroke="none" stroke-width="1"><path d="M232.19043,179.80165c0,0 -1.00168,-0.72545 -0.50105,-1.59445c0.50106,-0.86939 1.40245,-1.24299 1.40245,-1.15318c0,0.08981 8.66458,6.96831 18.43076,-0.31331v-0.99037c0,0 3.65572,1.63545 2.45386,4.92195c0,0 -2.19251,-0.67666 -4.22564,1.4501c-2.03483,2.12634 -3.83761,6.66934 -19.41417,2.36787c0,0 -1.25158,-0.38672 -0.60093,-1.54686c0.65065,-1.15974 2.60517,-2.27192 2.45471,-3.14173z" fill="#458ef9"/><g fill="#1f1287"><path d="M234.77009,178.23262c-1.07733,0.79723 -0.37611,1.95696 -0.44155,2.44211c-0.06587,0.48472 -0.1853,1.56984 -0.83595,2.31825c-0.65065,0.74841 -0.7263,2.08409 -0.7263,2.08409l-1.60263,-0.36908c0.17552,-0.38672 0.15087,-1.11093 1.15257,-2.12632c1.00169,-1.01539 1.0514,-2.2387 1.0514,-2.2387c-0.70123,-2.14192 0.6651,-2.61228 0.6651,-2.61228z"/><path d="M237.6991,179.51375c0,0 -0.25882,0.35267 -0.25882,1.15071c0,0.79805 0.2669,1.58542 -0.21418,2.39126c-0.48066,0.80583 -1.03612,2.76525 -1.03612,2.76525l-1.16744,-0.2157c0,0 0.04547,-0.39082 0.37187,-1.29754c0.32598,-0.90712 1.17721,-1.60552 1.01019,-2.97194c-0.1666,-1.36643 0.33192,-2.40725 0.31746,-2.2063z"/><path d="M240.71436,180.01284c-0.24012,1.08019 -0.19295,1.52923 -0.02637,2.97154c0.1666,1.4423 -0.50871,3.08184 -0.50871,3.08184l-1.11898,-0.07135c0,0 0.8929,-1.7794 0.5597,-3.19667c-0.33361,-1.41769 0.23373,-2.83497 0.23373,-2.89607z"/><path d="M242.93449,180.02062h1.04631c0.97533,3.09128 -0.04462,3.96601 -0.04462,3.96601c0.24989,1.35577 -0.62771,2.08 -0.62771,2.08h-0.60007c0.90139,-1.13021 0.35103,-2.20465 0.35103,-2.20465c0.62643,-1.8126 -0.12495,-3.84215 -0.12495,-3.84215z"/><path d="M247.36497,179.10488c1.4492,3.1688 0.46663,4.42245 0.51933,4.57951c0.05313,0.15706 -0.15044,0.59627 -0.15044,0.59627l-0.86866,0.56346c0.35103,-0.66025 0.16743,-1.03056 0.16743,-1.03056c0.71652,-2.49706 -0.80449,-4.34207 -0.80449,-4.34207z"/><path d="M250.47204,177.53054c1.21885,0.821 1.21886,3.2541 1.21886,3.2541l-0.88483,0.4831c0.35019,-2.33588 -1.06883,-3.31888 -1.06883,-3.31888z"/><path d="M251.52344,175.82292c4.02377,2.20713 2.36334,4.81859 2.36334,4.81859l-0.01147,-0.29856c0.1972,-2.79478 -2.15213,-3.50754 -2.15213,-3.50754z"/></g><path d="M254.16558,180.73665l-0.06417,0.17634l-0.18444,-0.05659c-0.00298,-0.00083 -0.31408,-0.09349 -0.79644,-0.09349c-0.8198,0 -2.04504,0.25877 -3.22225,1.48986c-0.1955,0.2034 -0.38801,0.43019 -0.59159,0.66846c-1.2758,1.49765 -3.02419,3.54936 -8.27148,3.54936c-2.82275,0 -6.43979,-0.60407 -10.75298,-1.79497c-0.03186,-0.00944 -0.64046,-0.20258 -0.85847,-0.72545c-0.13515,-0.32601 -0.08968,-0.69594 0.13641,-1.09864c0.29027,-0.51589 0.8045,-1.00391 1.30217,-1.47633c0.55205,-0.52329 1.11941,-1.06337 1.13385,-1.46075c-0.00722,-0.00533 -0.01487,-0.00862 -0.0221,-0.01395l0.00638,-0.01681c-0.39142,-0.32643 -0.89545,-1.02648 -0.46578,-1.7716c0.47301,-0.82224 1.31449,-1.26595 1.5529,-1.26595h0.20059l0.01361,0.11523c0.37272,0.3006 3.81679,2.92519 8.82949,2.92519c3.19928,0 6.29702,-1.09085 9.21199,-3.2422v-1.19788l0.28432,0.12755c0.03782,0.01763 3.8066,1.74903 2.558,5.16266zM251.72318,176.07061v0.76399l-0.07733,0.05783c-3.00976,2.24321 -6.21839,3.38081 -9.5354,3.38081c-4.68078,0 -8.29656,-2.32359 -9.06664,-3.03346c-0.15938,0.05167 -0.7926,0.38877 -1.17891,1.06091c-0.40884,0.70987 0.41097,1.32091 0.44624,1.34634l0.06417,0.04633l0.00508,0.02994c0.33404,0.23827 1.04972,0.63114 2.46491,0.97235c0,0 -1.35188,0.03772 -2.4866,-0.56389c-0.13557,0.48883 -0.66043,0.99202 -1.21589,1.5194c-0.47683,0.45193 -0.96939,0.91942 -1.23075,1.38448c-0.16617,0.2961 -0.20527,0.55446 -0.11731,0.7677c0.14621,0.35433 0.59967,0.50114 0.60434,0.50278c4.27067,1.17902 7.85118,1.77775 10.6361,1.77775c3.79044,0 5.64466,-1.06091 6.87968,-2.23172c-1.04122,0.25755 -4.24094,0.87391 -6.78448,-0.52287c0,0 3.60132,1.20238 7.25875,0.03813c0.21632,-0.23457 0.41692,-0.46709 0.60901,-0.69223c0.20866,-0.24442 0.40544,-0.47653 0.60603,-0.68526c1.7229,-1.80155 3.62938,-1.66702 4.24178,-1.54809c0.79303,-2.48311 -1.32427,-3.92746 -2.12281,-4.37118z" fill="#000000"/></g></g></g></svg>