<svg version="1.1" xmlns="http://www.w3.org/2000/svg" xmlns:xlink="http://www.w3.org/1999/xlink" width="801.03023" height="316.163" viewBox="0,0,801.03023,316.163"><g transform="translate(162.78127,-166.57003)"><g data-paper-data="{&quot;isPaintingLayer&quot;:true}" fill-opacity="0.23047" fill="#0026ff" fill-rule="nonzero" stroke="none" stroke-width="0" stroke-linecap="butt" stroke-linejoin="miter" stroke-miterlimit="10" stroke-dasharray="" stroke-dashoffset="0" style="mix-blend-mode: normal"><path d="M260.003,362.51952c0,10.61692 8.76783,99.39734 -29.25078,114.84403c-53.94451,21.91726 -164.59175,-30.34403 -205.24922,-30.34403c-69.31174,0 -133.5,-89.81876 -133.5,-115.5c0,-18.35223 -81.51952,-133.50064 -45.67702,-162.34139c14.31381,-11.51764 131.39656,42.84139 151.17702,42.84139c26.34248,0 35.67823,76.55156 100.44723,94.76375c47.02065,13.22159 162.05277,39.81537 162.05277,55.73625z"/><path d="M377.51745,305.77726c64.76901,-18.21219 74.10476,-94.76375 100.44723,-94.76375c19.78046,0 136.86321,-54.35902 151.17703,-42.84138c35.8425,28.84074 -45.67703,143.98916 -45.67703,162.34139c0,25.68124 -64.18826,115.5 -133.5,115.5c-40.65746,0 -151.30471,52.26128 -205.24921,30.34402c-38.01861,-15.44669 -29.25079,-104.2271 -29.25079,-114.84402c0,-15.92088 115.03212,-42.51466 162.05277,-55.73625z" data-paper-data="{&quot;index&quot;:null}"/></g></g></svg>