<svg version="1.1" xmlns="http://www.w3.org/2000/svg" xmlns:xlink="http://www.w3.org/1999/xlink" width="90.10367" height="35.59046" viewBox="0,0,90.10367,35.59046"><g transform="translate(-194.94817,-163.19435)"><g data-paper-data="{&quot;isPaintingLayer&quot;:true}" fill-rule="nonzero" stroke="none" stroke-linecap="butt" stroke-linejoin="miter" stroke-miterlimit="10" stroke-dasharray="" stroke-dashoffset="0" style="mix-blend-mode: normal"><path d="M194.94817,196.68266v-33.48831h90.10367v33.48831z" fill-opacity="0.0207" fill="#ffffff" stroke-width="0"/><path d="M239.39852,195.9502c-0.62531,0 -0.97624,-0.00897 -0.99335,-0.0095c-42.69378,-2.40737 -41.90006,-18.40891 -41.84512,-19.08908c0.18252,-2.2663 2.05935,-4.58067 3.44236,-5.99874c2.05575,1.67781 5.96552,2.98058 11.64436,3.87749c5.13098,0.81066 12.88628,2.03615 26.18142,2.10552l0.86652,0.00231c0.3793,0 35.35561,-0.07622 41.47438,-6.24453c1.98566,1.90957 2.85968,5.75348 2.94764,8.18607c-6.24065,16.34079 -37.50022,17.17046 -43.71821,17.17046c0.0009,0 0,0 0,0z" fill="#65cbeb" stroke-width="0.63025"/><path d="M279.8833,172.16844c-8.87159,5.33314 -37.47935,5.51009 -41.18769,5.51009c-0.2999,0 -0.59214,-0.00115 -0.87883,-0.00231c-13.47481,-0.07053 -21.33413,-1.31228 -26.5352,-2.13413c-4.90117,-0.77477 -8.584,-1.85751 -10.99713,-3.23081c-1.08987,1.29096 -2.17583,2.9582 -2.30642,4.58004c-0.06619,0.82016 -0.08991,5.13212 5.93896,9.46646c6.79227,4.88411 18.43753,7.82551 34.61397,8.74481c0.12308,0.00284 0.42103,0.00728 0.86757,0.00728c6.01175,0 36.19946,-0.79334 42.29542,-16.41469c-0.09081,-1.97068 -0.69241,-4.70272 -1.81064,-6.52674M279.8833,172.16844l-79.42204,-3.19502v0c-0.14289,0.30344 -0.10027,0.62483 0.2232,0.95847c1.86843,1.93426 6.29289,3.19173 11.3284,3.9872c5.03551,0.79556 12.71231,2.00817 25.82764,2.0771c0.27903,0.00169 0.56287,0.00222 0.85421,0.00222c13.41793,0 39.82074,-1.5737 40.92847,-6.99309c4.70064,1.89793 4.91543,9.85891 4.91543,9.85891c-6.40066,17.08989 -38.85486,17.92524 -45.14009,17.92524c-0.68115,0 -1.05579,-0.01013 -1.05579,-0.01013c-39.73188,-2.23939 -43.51587,-16.04907 -43.20082,-19.96805c0.31506,-3.91889 5.20302,-7.83786 5.20302,-7.83786h0.11633c0,0.00053 0,0 0,0z" fill="#000000" stroke-width="0.63025"/><g stroke-width="0.63025"><path d="M240.4258,196.24689c-1.27524,0 -2.01207,-0.02514 -2.02813,-0.02567c-43.1753,-2.43428 -42.36552,-18.69166 -42.30968,-19.38302c0.20428,-2.54114 2.47558,-5.12883 3.89176,-6.51102c1.84561,1.79817 5.81032,3.18826 11.78905,4.13279c5.10831,0.80728 12.82864,2.02718 26.06314,2.09602l0.86277,0.00222c0.3859,0 36.92129,-0.07888 41.45262,-6.55241c3.38668,2.1224 3.82362,6.71204 3.45092,8.79971c-2.89285,16.18232 -33.77296,17.44138 -43.17245,17.44138c0.00105,0 0.00105,0 0,0z" fill="#cc7700"/><path d="M280.27881,171.01908c-6.95032,6.02397 -40.04874,6.09956 -41.58515,6.09956c-0.29705,0 -0.58644,-0.00107 -0.87027,-0.00222c-13.35458,-0.07 -21.14396,-1.30055 -26.29865,-2.11512c-5.40265,-0.85374 -9.24623,-2.07754 -11.45884,-3.64574c-1.30646,1.40359 -2.87019,3.48007 -3.0338,5.50947c-0.0692,0.85658 -0.09561,5.35606 6.1536,9.84887c6.96443,5.00722 18.84054,8.0181 35.29797,8.94912c0.14755,0.00444 0.8419,0.02354 1.94213,0.02354c9.197,0 39.42163,-1.22158 42.23118,-16.93932c0.39356,-2.2019 -0.18342,-5.72052 -2.37816,-7.72816M280.27881,171.01908l-79.81755,-2.04565v0c-0.14289,0.30344 -0.10027,0.62483 0.2232,0.95847c1.86843,1.93426 6.29289,3.19173 11.3284,3.9872c5.03551,0.79556 12.71231,2.00817 25.82764,2.0771c0.27903,0.00169 0.56287,0.00222 0.85421,0.00222c13.41793,0 39.82074,-1.5737 40.92847,-6.99309c4.70064,1.89793 5.37143,7.3032 4.91543,9.85891c-3.00633,16.82065 -35.50225,17.94141 -44.11282,17.94141c-1.32342,0 -2.08307,-0.02629 -2.08307,-0.02629c-39.73188,-2.23939 -43.51587,-16.04907 -43.20082,-19.96805c0.31506,-3.91889 5.20302,-7.83786 5.20302,-7.83786h0.11633c0,0.00053 0,0 0,0z" fill="#b16700"/></g><path d="M237.93308,176.18222c-13.26948,-0.07328 -21.01052,-1.37215 -26.13309,-2.23148c-5.54645,-0.93049 -9.268,-2.29091 -10.76358,-3.93461c-0.14004,-0.15394 -0.17216,-0.28328 -0.10492,-0.43278c0.32346,-0.73169 2.71213,-1.60008 4.7952,-2.09833l0.23656,-0.0549c10.0341,-2.10215 21.33128,-3.17485 33.5166,-3.17485c18.24255,0 32.97834,2.41127 36.00373,3.2421c2.98832,0.82132 3.71765,1.693 3.87375,1.95052c-1.33573,4.6456 -24.41326,6.73718 -40.55863,6.73718z" fill="#660000" stroke-width="0.63025"/><path d="M239.47985,165.09445c-11.97353,0 -23.06717,1.0481 -32.97744,3.11445l-0.16181,0.03527l-0.02462,0.00622l-0.04623,0.01173l-0.05404,0.01173c-2.06506,0.49771 -3.46323,1.11641 -3.83592,1.44277c1.37821,1.39738 4.76203,2.57978 9.80805,3.42624c5.04872,0.84708 12.67914,2.12746 25.75859,2.19968c0.27708,0.00169 0.56092,0.00222 0.85136,0.00222c6.57943,0 16.62959,-0.40817 25.10762,-1.55363c7.93317,-1.07155 13.05003,-2.63797 13.94973,-4.24356c-0.29509,-0.25983 -1.069,-0.76651 -2.96955,-1.28883c-2.53997,-0.69758 -17.23884,-3.16428 -35.40574,-3.16428M239.47985,165.09445v-1.6795v0c18.75439,0 33.74655,2.5367 36.60052,3.31991c4.47279,1.2294 4.71865,2.66932 4.71865,2.66932c-1.137,5.90529 -28.23132,7.62005 -42.00213,7.62005c-0.299,0 -0.59229,-0.00053 -0.87793,-0.00222c-13.46055,-0.07444 -21.33894,-1.39622 -26.50684,-2.26346c-5.16805,-0.86715 -9.70884,-2.23655 -11.62635,-4.34438c-0.33112,-0.36393 -0.37465,-0.71383 -0.228,-1.04472c0.6121,-1.38449 4.6316,-2.423 5.63636,-2.66319c0.00465,-0.00107 0.01036,-0.00222 0.01411,-0.00329c0.06724,-0.01572 0.11738,-0.02807 0.15415,-0.03589c0.0057,-0.00169 0.01051,-0.00222 0.01516,-0.00338c0.02747,-0.00666 0.04728,-0.01119 0.04728,-0.01119c11.54499,-2.42016 23.40595,-3.23756 34.055,-3.23756z" fill="#b16700" stroke-width="0.63025"/><text transform="translate(230.46071,193.15981) scale(0.5,0.5)" font-size="40" xml:space="preserve" fill="#995900" fill-rule="nonzero" stroke="none" stroke-width="1" stroke-linecap="butt" stroke-linejoin="miter" stroke-miterlimit="10" stroke-dasharray="" stroke-dashoffset="0" font-family="Sans Serif" font-weight="normal" text-anchor="start" style="mix-blend-mode: normal"><tspan x="0" dy="0">IA</tspan></text></g></g></svg>