<svg version="1.1" xmlns="http://www.w3.org/2000/svg" xmlns:xlink="http://www.w3.org/1999/xlink" width="42.30178" height="34.73697" viewBox="0,0,42.30178,34.73697"><g transform="translate(-218.84911,-162.6866)"><g data-paper-data="{&quot;isPaintingLayer&quot;:true}" fill-rule="nonzero" stroke-linejoin="miter" stroke-miterlimit="10" stroke-dasharray="" stroke-dashoffset="0" style="mix-blend-mode: normal"><path d="M219.35482,196.91738v-26.89413h39.31452v26.89413z" fill="#cea800" stroke="#000000" stroke-width="1" stroke-linecap="butt"/><path d="M260.30886,195.82933c0.27076,1.13236 -4.30435,0.5181 -2.57914,-0.22843c0.04692,-0.09846 0.13384,-0.18077 0.24459,-0.23381c0.30677,-0.43557 2.28292,0.24633 2.33455,0.46223z" fill="#cea800" stroke="none" stroke-width="0.5" stroke-linecap="butt"/><path d="M227.18357,163.34084c0.63872,-0.00322 6.63517,-0.60626 11.05161,0.01988c0.85318,1.96376 2.20659,3.68495 4.08547,4.812c-0.72061,1.09663 -1.75358,1.07178 -3.34109,1.06008c-3.55149,-0.02616 -11.61059,2.12848 -16.00567,-0.0276c-1.10865,-0.54387 -1.57936,1.18546 -1.52144,0.10941c0.05364,-0.01516 -0.05615,-1.74846 -0.00332,-1.7767c1.62816,-0.87031 2.09426,-2.94226 3.53606,-4.13125c0.41177,0.00394 1.99166,-0.06477 2.1984,-0.06581z" fill="#cea800" stroke="none" stroke-width="0.5" stroke-linecap="butt"/><path d="M221.49445,168.38915l-0.1103,-0.8272l3.14338,-4.35662c0,0 4.65267,-0.00626 6.94859,-0.00935c2.25608,-0.00304 6.7095,-0.00903 6.7095,-0.00903l3.14338,4.35662l-0.11029,0.8272" fill="none" stroke="#000000" stroke-width="1" stroke-linecap="round"/><path d="M220.75861,168.63062c0.49392,0.19392 0.42069,2.36476 0.0791,2.55995c-0.08698,0.14737 -0.2474,0.24623 -0.43091,0.24623c-0.27614,0 -0.5,-0.22386 -0.5,-0.5c0,-0.04446 0.0058,-0.08757 0.01669,-0.1286c-0.3601,-0.96743 -0.00285,-2.50659 0.83512,-2.17759z" fill="#cea800" stroke="none" stroke-width="0.5" stroke-linecap="butt"/><path d="M221.33398,195.04238v-26.73387h39.31452v26.73387z" fill="#ffcf00" stroke="#000000" stroke-width="1" stroke-linecap="butt"/><path d="M227.12566,190.30961v-18.79167h26.68361v18.79167z" fill="#baeaf2" stroke="#000000" stroke-width="0.5" stroke-linecap="butt"/><path d="M219.34911,169.78296l2.05128,-2.24359" fill="none" stroke="#000000" stroke-width="1" stroke-linecap="round"/><path d="M219.56336,196.78007l1.83673,-1.83673" fill="none" stroke="#000000" stroke-width="1" stroke-linecap="round"/><path d="M259.00218,196.92358l1.64871,-1.5194" fill="none" stroke="#000000" stroke-width="1" stroke-linecap="round"/><g stroke="none" stroke-linecap="butt"><path d="M239.33613,180.16309c-3.31801,-0.03096 -5.25364,-0.57976 -6.53453,-0.94284c-1.38688,-0.39315 -2.31744,-0.96795 -2.69141,-1.66244c-0.03502,-0.06504 -0.04305,-0.11969 -0.02623,-0.18286c0.08088,-0.30915 0.67816,-0.67606 1.19903,-0.88658l0.05915,-0.02319c2.50901,-0.88819 5.33384,-1.34143 8.38076,-1.34143c4.56151,0 8.24617,1.0188 9.00266,1.36984c0.74722,0.34702 0.92959,0.71532 0.96862,0.82413c-0.334,1.96284 -6.10449,2.84657 -10.1416,2.84657z" fill="#660000" stroke-width="0.63025"/><path d="M239.7229,175.47833c-2.99396,0 -5.7679,0.44284 -8.24594,1.31591l-0.04046,0.0149l-0.00616,0.00263l-0.01156,0.00495l-0.01351,0.00495c-0.51636,0.21029 -0.86597,0.4717 -0.95916,0.60959c0.34462,0.59041 1.19074,1.09 2.45248,1.44764c1.26242,0.3579 3.17039,0.89889 6.44088,0.9294c0.06928,0.00071 0.14026,0.00094 0.21288,0.00094c1.64517,0 4.15819,-0.17246 6.27811,-0.65643c1.98367,-0.45275 3.26313,-1.11458 3.4881,-1.79297c-0.07379,-0.10978 -0.2673,-0.32386 -0.74253,-0.54455c-0.63511,-0.29474 -4.31054,-1.33696 -8.85313,-1.33696M239.7229,175.47833v-0.70962v0c4.6895,0 8.43826,1.0718 9.15189,1.40272c1.11841,0.51944 1.17989,1.12783 1.17989,1.12783c-0.2843,2.49508 -7.05918,3.2196 -10.50255,3.2196c-0.07476,0 -0.1481,-0.00023 -0.21952,-0.00094c-3.36578,-0.03145 -5.33576,-0.58993 -6.62798,-0.95635c-1.29226,-0.36639 -2.42767,-0.94498 -2.90714,-1.83557c-0.0828,-0.15377 -0.09368,-0.30161 -0.05701,-0.44141c0.15306,-0.58497 1.15812,-1.02376 1.40936,-1.12524c0.00116,-0.00045 0.00259,-0.00094 0.00353,-0.00139c0.01681,-0.00664 0.02935,-0.01186 0.03855,-0.01516c0.00143,-0.00071 0.00263,-0.00094 0.00379,-0.00143c0.00687,-0.00281 0.01182,-0.00473 0.01182,-0.00473c2.8868,-1.02256 5.85261,-1.36792 8.51538,-1.36792z" fill="#000000" stroke-width="0.63025"/><g><path d="M228.56478,188.7973v-17.64695h22.87044v17.64695z" fill-opacity="0.0207" fill="#ffffff" stroke-width="0"/><path d="M239.76245,188.48551c-0.15752,0 -0.24593,-0.00382 -0.25024,-0.00405c-10.75516,-1.02474 -10.55521,-7.83612 -10.54137,-8.12564c0.04598,-0.9647 0.51878,-1.94985 0.86718,-2.55348c0.51787,0.71419 1.5028,1.26874 2.93338,1.65053c1.29256,0.34507 3.24623,0.86673 6.59547,0.89626l0.21829,0.00098c0.09555,0 8.90657,-0.03244 10.44798,-2.65811c0.50021,0.81284 0.72039,2.44908 0.74255,3.48456c-1.57211,6.95578 -9.44683,7.30894 -11.01323,7.30894c0.00023,0 0,0 0,0z" fill="#65cbeb" stroke-width="0.63025"/><path d="M249.96114,178.36234c-2.23488,2.27016 -9.44157,2.34548 -10.37576,2.34548c-0.07555,0 -0.14917,-0.00049 -0.22139,-0.00098c-3.39449,-0.03002 -5.37437,-0.5586 -6.68459,-0.90843c-1.23467,-0.3298 -2.16243,-0.79069 -2.77033,-1.37526c-0.27455,0.54952 -0.54812,1.25921 -0.58102,1.94959c-0.01668,0.34912 -0.02265,2.18459 1.49611,4.02958c1.71107,2.07902 4.64467,3.33108 8.71974,3.7224c0.03101,0.00121 0.10606,0.0031 0.21855,0.0031c1.51445,0 9.11915,-0.3377 10.65481,-6.98724c-0.02288,-0.83886 -0.17443,-2.0018 -0.45613,-2.77823M249.96114,178.36234l-20.00753,-1.36002v0c-0.036,0.12917 -0.02526,0.26597 0.05623,0.40799c0.47068,0.82336 1.58527,1.35862 2.85378,1.69723c1.26852,0.33864 3.20241,0.85482 6.50634,0.88416c0.07029,0.00072 0.14179,0.00095 0.21519,0.00095c3.38016,0 10.0314,-0.66988 10.31046,-2.97675c1.18416,0.80789 1.23827,4.19664 1.23827,4.19664c-1.61242,7.27465 -9.78808,7.63023 -11.37142,7.63023c-0.17159,0 -0.26597,-0.00431 -0.26597,-0.00431c-10.00902,-0.95324 -10.96226,-6.8316 -10.88289,-8.49979c0.07937,-1.66815 1.31071,-3.33634 1.31071,-3.33634h0.0293c0,0.00023 0,0 0,0z" fill="#000000" stroke-width="0.63025"/><g stroke-width="0.63025"><path d="M240.02124,188.61181c-0.32125,0 -0.50687,-0.0107 -0.51092,-0.01093c-10.87646,-1.0362 -10.67247,-7.95647 -10.6584,-8.25076c0.05146,-1.08169 0.62363,-2.18319 0.98039,-2.77154c0.46494,0.76543 1.4637,1.35715 2.96983,1.7592c1.28685,0.34364 3.23171,0.86291 6.56567,0.89221l0.21734,0.00095c0.09721,0 9.30099,-0.03358 10.4425,-2.78916c0.85315,0.90344 0.96322,2.85711 0.86934,3.74577c-0.72875,6.88832 -8.50788,7.42427 -10.87574,7.42427c0.00026,0 0.00026,0 0,0z" fill="#cc7700"/><path d="M250.06077,177.87309c-1.75088,2.56422 -10.08884,2.5964 -10.47588,2.5964c-0.07483,0 -0.14773,-0.00045 -0.21923,-0.00095c-3.36421,-0.0298 -5.32646,-0.55361 -6.625,-0.90034c-1.361,-0.36341 -2.32926,-0.88435 -2.88664,-1.55188c-0.32912,0.59747 -0.72304,1.48136 -0.76426,2.34521c-0.01743,0.36462 -0.02409,2.27991 1.55018,4.19236c1.75444,2.13142 4.7462,3.41306 8.89205,3.80937c0.03717,0.00189 0.21209,0.01002 0.48925,0.01002c2.31685,0 9.93086,-0.51999 10.63863,-7.21055c0.09914,-0.93728 -0.04621,-2.43505 -0.59909,-3.28964M250.06077,177.87309l-20.10716,-0.87077v0c-0.036,0.12917 -0.02526,0.26597 0.05623,0.40799c0.47068,0.82336 1.58527,1.35862 2.85378,1.69723c1.26852,0.33864 3.20241,0.85482 6.50634,0.88416c0.07029,0.00072 0.14179,0.00095 0.21519,0.00095c3.38016,0 10.0314,-0.66988 10.31046,-2.97675c1.18416,0.80789 1.35314,3.10875 1.23827,4.19664c-0.75734,7.16004 -8.94352,7.63711 -11.11264,7.63711c-0.33339,0 -0.52475,-0.01119 -0.52475,-0.01119c-10.00902,-0.95324 -10.96226,-6.8316 -10.88289,-8.49979c0.07937,-1.66815 1.31071,-3.33634 1.31071,-3.33634h0.0293c0,0.00023 0,0 0,0z" fill="#b16700"/></g><text transform="translate(236.56518,186.56474) scale(0.18906,0.18906)" font-size="40" xml:space="preserve" fill="#995900" fill-rule="nonzero" stroke="none" stroke-width="1" stroke-linecap="butt" stroke-linejoin="miter" stroke-miterlimit="10" stroke-dasharray="" stroke-dashoffset="0" font-family="Sans Serif" font-weight="normal" text-anchor="start" style="mix-blend-mode: normal"><tspan x="0" dy="0">IA</tspan></text></g></g><path d="M239.36612,180.07573c-3.31801,-0.03096 -5.25364,-0.57976 -6.53453,-0.94284c-1.38688,-0.39315 -2.31744,-0.96795 -2.69141,-1.66244c-0.03502,-0.06504 -0.04305,-0.11969 -0.02623,-0.18286c0.08088,-0.30915 0.67816,-0.67606 1.19903,-0.88658l0.05915,-0.02319c2.50901,-0.88819 5.33384,-1.34143 8.38076,-1.34143c4.56151,0 8.24617,1.0188 9.00266,1.36984c0.74722,0.34702 0.92959,0.71532 0.96862,0.82413c-0.334,1.96284 -6.10449,2.84657 -10.1416,2.84657z" fill="#660000" stroke="none" stroke-width="0.63025" stroke-linecap="butt"/><path d="M239.75289,175.39097c-2.99396,0 -5.7679,0.44284 -8.24594,1.31591l-0.04046,0.0149l-0.00616,0.00263l-0.01156,0.00495l-0.01351,0.00495c-0.51636,0.21029 -0.86597,0.4717 -0.95916,0.60959c0.34462,0.59041 1.19074,1.09 2.45248,1.44764c1.26242,0.3579 3.17039,0.89889 6.44088,0.9294c0.06928,0.00071 0.14026,0.00094 0.21288,0.00094c1.64517,0 4.15819,-0.17246 6.27811,-0.65643c1.98367,-0.45275 3.26313,-1.11458 3.4881,-1.79297c-0.07379,-0.10978 -0.2673,-0.32386 -0.74253,-0.54455c-0.63511,-0.29474 -4.31054,-1.33696 -8.85313,-1.33696M239.75289,175.39097v-0.70962v0c4.6895,0 8.43826,1.0718 9.15189,1.40272c1.11841,0.51944 1.17989,1.12783 1.17989,1.12783c-0.2843,2.49508 -7.05918,3.2196 -10.50255,3.2196c-0.07476,0 -0.1481,-0.00023 -0.21952,-0.00094c-3.36578,-0.03145 -5.33576,-0.58993 -6.62798,-0.95635c-1.29226,-0.36639 -2.42767,-0.94498 -2.90714,-1.83557c-0.0828,-0.15377 -0.09368,-0.30161 -0.05701,-0.44141c0.15306,-0.58497 1.15812,-1.02376 1.40936,-1.12524c0.00116,-0.00045 0.00259,-0.00094 0.00353,-0.00139c0.01681,-0.00664 0.02935,-0.01186 0.03855,-0.01516c0.00143,-0.00071 0.00263,-0.00094 0.00379,-0.00143c0.00687,-0.00281 0.01182,-0.00473 0.01182,-0.00473c2.8868,-1.02256 5.85261,-1.36792 8.51538,-1.36792z" fill="#000000" stroke="none" stroke-width="0.63025" stroke-linecap="butt"/><path d="M228.50956,188.83978v-17.73217h22.98089v17.73217z" fill-opacity="0.0207" fill="#ffffff" stroke="none" stroke-width="0" stroke-linecap="butt"/><path d="M239.76131,188.52649c-0.15829,0 -0.24712,-0.00384 -0.25145,-0.00407c-10.80711,-1.02969 -10.60619,-7.87396 -10.59228,-8.16489c0.0462,-0.96936 0.52129,-1.95927 0.87137,-2.56581c0.52037,0.71764 1.51006,1.27487 2.94754,1.6585c1.29881,0.34674 3.26191,0.87091 6.62732,0.90059l0.21934,0.00099c0.09601,0 8.94959,-0.0326 10.49844,-2.67094c0.50263,0.81677 0.72387,2.46091 0.74614,3.50139c-1.5797,6.98937 -9.49245,7.34424 -11.06642,7.34424c0.00023,0 0,0 0,0z" fill="#65cbeb" stroke="none" stroke-width="0.63025" stroke-linecap="butt"/><path d="M250.00925,178.35442c-2.24567,2.28112 -9.48717,2.3568 -10.42587,2.3568c-0.07591,0 -0.14989,-0.00049 -0.22246,-0.00099c-3.41089,-0.03017 -5.40032,-0.56129 -6.71687,-0.91282c-1.24064,-0.33139 -2.17287,-0.7945 -2.78371,-1.3819c-0.27588,0.55218 -0.55077,1.2653 -0.58382,1.959c-0.01676,0.3508 -0.02276,2.19514 1.50333,4.04905c1.71933,2.08906 4.6671,3.34717 8.76186,3.74038c0.03116,0.00122 0.10657,0.00312 0.21961,0.00312c1.52176,0 9.16319,-0.33933 10.70627,-7.02098c-0.02299,-0.84291 -0.17527,-2.01147 -0.45833,-2.79165M250.00925,178.35442l-20.10415,-1.36659v0c-0.03617,0.12979 -0.02538,0.26725 0.0565,0.40996c0.47296,0.82733 1.59292,1.36518 2.86757,1.70543c1.27464,0.34028 3.21788,0.85894 6.53777,0.88843c0.07063,0.00072 0.14248,0.00095 0.21623,0.00095c3.39649,0 10.07985,-0.67311 10.36025,-2.99112c1.18988,0.81179 1.24425,4.21691 1.24425,4.21691c-1.6202,7.30978 -9.83536,7.66708 -11.42634,7.66708c-0.17242,0 -0.26725,-0.00433 -0.26725,-0.00433c-10.05736,-0.95784 -11.0152,-6.8646 -10.93545,-8.54084c0.07975,-1.67621 1.31704,-3.35245 1.31704,-3.35245h0.02945c0,0.00023 0,0 0,0z" fill="#000000" stroke="none" stroke-width="0.63025" stroke-linecap="butt"/><g stroke="none" stroke-linecap="butt"><path d="M240.02134,188.65339c-0.3228,0 -0.50932,-0.01075 -0.51338,-0.01098c-10.92899,-1.0412 -10.72401,-7.9949 -10.70988,-8.29061c0.05171,-1.08691 0.62664,-2.19373 0.98512,-2.78493c0.46718,0.76912 1.47077,1.3637 2.98417,1.7677c1.29307,0.34529 3.24732,0.86707 6.59738,0.89652l0.21839,0.00095c0.09768,0 9.34591,-0.03374 10.49293,-2.80263c0.85727,0.9078 0.96787,2.87091 0.87353,3.76386c-0.73227,6.92159 -8.54897,7.46012 -10.92827,7.46012c0.00027,0 0.00027,0 0,0z" fill="#cc7700" stroke-width="0.63025"/><path d="M250.10936,177.86281c-1.75934,2.5766 -10.13756,2.60894 -10.52648,2.60894c-0.07519,0 -0.14844,-0.00046 -0.22029,-0.00095c-3.38045,-0.02994 -5.35218,-0.55628 -6.65699,-0.90469c-1.36758,-0.36517 -2.3405,-0.88862 -2.90058,-1.55937c-0.3307,0.60035 -0.72653,1.48851 -0.76795,2.35654c-0.01752,0.36638 -0.0242,2.29092 1.55766,4.21261c1.76291,2.14172 4.76912,3.42954 8.935,3.82776c0.03735,0.0019 0.21311,0.01007 0.49161,0.01007c2.32804,0 9.97882,-0.5225 10.69001,-7.24538c0.09962,-0.94181 -0.04643,-2.44681 -0.60199,-3.30553M250.10936,177.86281l-20.20427,-0.87498v0c-0.03617,0.12979 -0.02538,0.26725 0.0565,0.40996c0.47296,0.82733 1.59292,1.36518 2.86757,1.70543c1.27464,0.34028 3.21788,0.85894 6.53777,0.88843c0.07063,0.00072 0.14248,0.00095 0.21623,0.00095c3.39649,0 10.07985,-0.67311 10.36025,-2.99112c1.18988,0.81179 1.35967,3.12376 1.24425,4.21691c-0.76099,7.19462 -8.98671,7.674 -11.16631,7.674c-0.335,0 -0.52729,-0.01125 -0.52729,-0.01125c-10.05736,-0.95784 -11.0152,-6.8646 -10.93545,-8.54084c0.07975,-1.67621 1.31704,-3.35245 1.31704,-3.35245h0.02945c0,0.00023 0,0 0,0z" fill="#b30000" stroke-width="0.63025"/><path d="M250.12624,177.8541c0.55556,0.85872 0.70342,2.36903 0.60379,3.31084c-0.71118,6.72288 -8.38017,7.26777 -10.70821,7.26777c-0.2785,0 -0.45603,-0.00821 -0.49338,-0.01011c-4.16588,-0.39822 -7.18958,-1.7021 -8.95249,-3.84381c-1.58187,-1.92169 -1.57481,-3.85384 -1.5573,-4.22022c0.04141,-0.86802 0.43872,-1.7601 0.76942,-2.36045c0.56008,0.67076 1.53293,1.19436 2.9005,1.55953c1.30481,0.34841 3.28988,0.86457 6.67034,0.89451c0.07185,0.00049 0.14661,0.00071 0.2218,0.00071c0.38891,0 8.78617,-0.02217 10.54551,-2.59877" data-paper-data="{&quot;noHover&quot;:false,&quot;origItem&quot;:[&quot;Path&quot;,{&quot;applyMatrix&quot;:true,&quot;segments&quot;:[[[266.8813,173.6543],[0,0],[-4.6305,6.7815]],[[239.1761,180.5209],[1.0236,0],[-0.1979,0]],[[238.5963,180.5184],[0.1891,0.0013],[-8.8972,-0.0788]],[[221.0754,178.1373],[3.4342,0.917],[-3.5994,-0.9611]],[[213.4412,174.0331],[1.4741,1.7654],[-0.8704,1.5801]],[[211.42,180.2354],[0.109,-2.2846],[-0.0461,0.9643]],[[215.5197,191.3228],[-4.1634,-5.0578],[4.6399,5.6369]],[[239.0362,201.3973],[-10.9644,-1.0481],[0.0983,0.005]],[[240.3301,201.4238],[-0.733,0],[6.1273,0]],[[268.4657,182.3543],[-1.8718,17.6943],[0.2622,-2.4788]],[[266.8813,173.6543],[1.4622,2.2601],[0,0]]],&quot;fillColor&quot;:[0,0,0,1],&quot;strokeWidth&quot;:0.63025}]}" fill="#ff0000" stroke-width="0.31513"/></g><text transform="translate(236.5486,186.59644) scale(0.18997,0.18997)" font-size="40" xml:space="preserve" fill="#980000" fill-rule="nonzero" stroke="none" stroke-width="1" stroke-linecap="butt" stroke-linejoin="miter" stroke-miterlimit="10" stroke-dasharray="" stroke-dashoffset="0" font-family="Sans Serif" font-weight="normal" text-anchor="start" style="mix-blend-mode: normal"><tspan x="0" dy="0">IA</tspan></text><path d="M239.36628,180.01826c-3.31801,-0.03096 -5.25364,-0.57976 -6.53453,-0.94284c-1.38688,-0.39315 -2.31744,-0.96795 -2.69141,-1.66244c-0.03502,-0.06504 -0.04305,-0.11969 -0.02623,-0.18286c0.08088,-0.30915 0.67816,-0.67606 1.19903,-0.88658l0.05915,-0.02319c2.50901,-0.88819 5.33384,-1.34143 8.38076,-1.34143c4.56151,0 8.24617,1.0188 9.00266,1.36984c0.74722,0.34702 0.92959,0.71532 0.96862,0.82413c-0.334,1.96284 -6.10449,2.84657 -10.1416,2.84657z" fill="#660000" stroke="none" stroke-width="0.63025" stroke-linecap="butt"/><path d="M239.75306,175.3335c-2.99396,0 -5.7679,0.44284 -8.24594,1.31591l-0.04046,0.0149l-0.00616,0.00263l-0.01156,0.00495l-0.01351,0.00495c-0.51636,0.21029 -0.86597,0.4717 -0.95916,0.60959c0.34462,0.59041 1.19074,1.09 2.45248,1.44764c1.26242,0.3579 3.17039,0.89889 6.44088,0.9294c0.06928,0.00071 0.14026,0.00094 0.21288,0.00094c1.64517,0 4.15819,-0.17246 6.27811,-0.65643c1.98367,-0.45275 3.26313,-1.11458 3.4881,-1.79297c-0.07379,-0.10978 -0.2673,-0.32386 -0.74253,-0.54455c-0.63511,-0.29474 -4.31054,-1.33696 -8.85313,-1.33696M239.75306,175.3335v-0.70962v0c4.6895,0 8.43826,1.0718 9.15189,1.40272c1.11841,0.51944 1.17989,1.12783 1.17989,1.12783c-0.2843,2.49508 -7.05918,3.2196 -10.50255,3.2196c-0.07476,0 -0.1481,-0.00023 -0.21952,-0.00094c-3.36578,-0.03145 -5.33576,-0.58993 -6.62798,-0.95635c-1.29226,-0.36639 -2.42767,-0.94498 -2.90714,-1.83557c-0.0828,-0.15377 -0.09368,-0.30161 -0.05701,-0.44141c0.15306,-0.58497 1.15812,-1.02376 1.40936,-1.12524c0.00116,-0.00045 0.00259,-0.00094 0.00353,-0.00139c0.01681,-0.00664 0.02935,-0.01186 0.03855,-0.01516c0.00143,-0.00071 0.00263,-0.00094 0.00379,-0.00143c0.00687,-0.00281 0.01182,-0.00473 0.01182,-0.00473c2.8868,-1.02256 5.85261,-1.36792 8.51538,-1.36792z" fill="#000000" stroke="none" stroke-width="0.63025" stroke-linecap="butt"/><g stroke="none" stroke-linecap="butt"><path d="M228.43091,188.77406v-17.60033h23.13821v17.60033z" fill-opacity="0.0207" fill="#ffffff" stroke-width="0"/><path d="M239.75968,188.4631c-0.15937,0 -0.24881,-0.00381 -0.25317,-0.00404c-10.88108,-1.02203 -10.67879,-7.81541 -10.66479,-8.10417c0.04652,-0.96215 0.52485,-1.9447 0.87733,-2.54674c0.52393,0.71231 1.52039,1.2654 2.96772,1.64617c1.3077,0.34416 3.28424,0.86443 6.67269,0.89389l0.22084,0.00098c0.09667,0 9.01085,-0.03236 10.5703,-2.65108c0.50607,0.81069 0.72882,2.44261 0.75124,3.47536c-1.59052,6.9374 -9.55744,7.28963 -11.14218,7.28963c0.00023,0 0,0 0,0z" fill="#65cbeb" stroke-width="0.63025"/><path d="M250.07777,178.36667c-2.26104,2.26416 -9.55212,2.33928 -10.49724,2.33928c-0.07643,0 -0.15091,-0.00049 -0.22398,-0.00098c-3.43424,-0.02994 -5.43729,-0.55712 -6.76286,-0.90603c-1.24913,-0.32893 -2.18775,-0.7886 -2.80277,-1.37163c-0.27777,0.54807 -0.55454,1.25589 -0.58782,1.94444c-0.01687,0.3482 -0.02291,2.17881 1.51362,4.01894c1.7311,2.07352 4.69905,3.32229 8.82184,3.71257c0.03137,0.0012 0.1073,0.00309 0.22111,0.00309c1.53218,0 9.22592,-0.33681 10.77956,-6.96878c-0.02315,-0.83664 -0.17647,-1.99652 -0.46146,-2.7709M250.07777,178.36667l-20.24178,-1.35642v0c-0.03642,0.12882 -0.02556,0.26526 0.05688,0.40691c0.47619,0.82118 1.60383,1.35503 2.8872,1.69275c1.28337,0.33775 3.23991,0.85256 6.58252,0.88182c0.07111,0.00072 0.14346,0.00094 0.21771,0.00094c3.41974,0 10.14885,-0.6681 10.43117,-2.96888c1.19802,0.80576 1.25276,4.18555 1.25276,4.18555c-1.63129,7.25543 -9.90268,7.61007 -11.50456,7.61007c-0.1736,0 -0.26908,-0.0043 -0.26908,-0.0043c-10.12621,-0.95072 -11.0906,-6.81355 -11.01031,-8.47734c0.0803,-1.66374 1.32606,-3.32753 1.32606,-3.32753h0.02965c0,0.00023 0,0 0,0z" fill="#000000" stroke-width="0.63025"/><g><path d="M240.0215,188.58906c-0.32501,0 -0.5128,-0.01067 -0.5169,-0.0109c-11.00381,-1.03346 -10.79742,-7.93545 -10.78319,-8.22897c0.05207,-1.07883 0.63093,-2.17742 0.99186,-2.76422c0.47038,0.76341 1.48084,1.35356 3.0046,1.75456c1.30192,0.34273 3.26955,0.86063 6.64254,0.88985l0.21989,0.00095c0.09835,0 9.40989,-0.03349 10.56476,-2.7818c0.86314,0.90105 0.9745,2.84957 0.87951,3.73588c-0.73728,6.87012 -8.60749,7.40466 -11.00308,7.40466c0.00027,0 0.00027,0 0,0z" fill="#cc7700" stroke-width="0.63025"/><path d="M250.17858,177.87871c-1.77138,2.55745 -10.20696,2.58954 -10.59853,2.58954c-0.07571,0 -0.14946,-0.00045 -0.2218,-0.00094c-3.4036,-0.02972 -5.38882,-0.55214 -6.70256,-0.89796c-1.37694,-0.36245 -2.35653,-0.88201 -2.92044,-1.54778c-0.33297,0.59589 -0.73151,1.47745 -0.7732,2.33902c-0.01764,0.36366 -0.02437,2.27389 1.56833,4.18129c1.77498,2.12579 4.80176,3.40404 8.99616,3.7993c0.03761,0.00189 0.21457,0.01 0.49498,0.01c2.34398,0 10.04713,-0.51862 10.76318,-7.19151c0.1003,-0.93481 -0.04675,-2.42862 -0.60611,-3.28095M250.17858,177.87871l-20.34258,-0.86847v0c-0.03642,0.12882 -0.02556,0.26526 0.05688,0.40691c0.47619,0.82118 1.60383,1.35503 2.8872,1.69275c1.28337,0.33775 3.23991,0.85256 6.58252,0.88182c0.07111,0.00072 0.14346,0.00094 0.21771,0.00094c3.41974,0 10.14885,-0.6681 10.43117,-2.96888c1.19802,0.80576 1.36898,3.10053 1.25276,4.18555c-0.7662,7.14113 -9.04823,7.61694 -11.24274,7.61694c-0.33729,0 -0.5309,-0.01117 -0.5309,-0.01117c-10.12621,-0.95072 -11.0906,-6.81355 -11.01031,-8.47734c0.0803,-1.66374 1.32606,-3.32753 1.32606,-3.32753h0.02965c0,0.00023 0,0 0,0z" fill="#b36800" stroke-width="0.63025"/><path d="M250.19557,177.87007c0.55936,0.85233 0.70823,2.35142 0.60793,3.28623c-0.71605,6.67289 -8.43754,7.21373 -10.78151,7.21373c-0.28041,0 -0.45916,-0.00815 -0.49676,-0.01003c-4.19439,-0.39526 -7.23879,-1.68944 -9.01377,-3.81523c-1.5927,-1.9074 -1.58559,-3.82519 -1.56795,-4.18885c0.0417,-0.86157 0.44172,-1.74701 0.77468,-2.3429c0.56391,0.66577 1.54342,1.18548 2.92036,1.54793c1.31374,0.34582 3.3124,0.85814 6.716,0.88786c0.07234,0.00049 0.14762,0.00071 0.22332,0.00071c0.39158,0 8.84632,-0.022 10.6177,-2.57945" data-paper-data="{&quot;noHover&quot;:false,&quot;origItem&quot;:[&quot;Path&quot;,{&quot;applyMatrix&quot;:true,&quot;segments&quot;:[[[266.8813,173.6543],[0,0],[-4.6305,6.7815]],[[239.1761,180.5209],[1.0236,0],[-0.1979,0]],[[238.5963,180.5184],[0.1891,0.0013],[-8.8972,-0.0788]],[[221.0754,178.1373],[3.4342,0.917],[-3.5994,-0.9611]],[[213.4412,174.0331],[1.4741,1.7654],[-0.8704,1.5801]],[[211.42,180.2354],[0.109,-2.2846],[-0.0461,0.9643]],[[215.5197,191.3228],[-4.1634,-5.0578],[4.6399,5.6369]],[[239.0362,201.3973],[-10.9644,-1.0481],[0.0983,0.005]],[[240.3301,201.4238],[-0.733,0],[6.1273,0]],[[268.4657,182.3543],[-1.8718,17.6943],[0.2622,-2.4788]],[[266.8813,173.6543],[1.4622,2.2601],[0,0]]],&quot;fillColor&quot;:[0,0,0,1],&quot;strokeWidth&quot;:0.63025}]}" fill="#ff9500" stroke-width="0.31513"/></g><text transform="translate(236.52499,186.5474) scale(0.19128,0.18856)" font-size="40" xml:space="preserve" fill="#985900" fill-rule="nonzero" stroke="none" stroke-width="1" stroke-linecap="butt" stroke-linejoin="miter" stroke-miterlimit="10" stroke-dasharray="" stroke-dashoffset="0" font-family="Sans Serif" font-weight="normal" text-anchor="start" style="mix-blend-mode: normal"><tspan x="0" dy="0">IA</tspan></text></g></g></g></svg>