<svg version="1.1" xmlns="http://www.w3.org/2000/svg" xmlns:xlink="http://www.w3.org/1999/xlink" width="42.30059" height="34.73388" viewBox="0,0,42.30059,34.73388"><g transform="translate(-218.8503,-162.6897)"><g data-paper-data="{&quot;isPaintingLayer&quot;:true}" fill-rule="nonzero" stroke-linejoin="miter" stroke-miterlimit="10" stroke-dasharray="" stroke-dashoffset="0" style="mix-blend-mode: normal"><path d="M219.35602,196.92047v-26.89413h39.31452v26.89413z" fill="#cea800" stroke="#000000" stroke-width="1" stroke-linecap="butt"/><path d="M260.30886,195.82933c0.27076,1.13236 -4.30435,0.5181 -2.57914,-0.22843c0.04692,-0.09846 0.13384,-0.18077 0.24459,-0.23381c0.30677,-0.43557 2.28292,0.24633 2.33455,0.46223z" fill="#cea800" stroke="none" stroke-width="0.5" stroke-linecap="butt"/><path d="M227.18476,163.34393c0.63872,-0.00322 6.63517,-0.60626 11.05161,0.01988c0.85318,1.96376 2.20659,3.68495 4.08547,4.812c-0.72061,1.09663 -1.75358,1.07178 -3.34109,1.06008c-3.55149,-0.02616 -11.61059,2.12848 -16.00567,-0.0276c-1.10865,-0.54387 -1.57936,1.18546 -1.52144,0.10941c0.05364,-0.01516 -0.05615,-1.74846 -0.00332,-1.7767c1.62816,-0.87031 2.09426,-2.94226 3.53606,-4.13125c0.41177,0.00394 1.99166,-0.06477 2.1984,-0.06581z" fill="#cea800" stroke="none" stroke-width="0.5" stroke-linecap="butt"/><path d="M221.49565,168.39224l-0.1103,-0.8272l3.14338,-4.35662c0,0 4.65267,-0.00626 6.94859,-0.00935c2.25608,-0.00304 6.7095,-0.00903 6.7095,-0.00903l3.14338,4.35662l-0.11029,0.8272" fill="none" stroke="#000000" stroke-width="1" stroke-linecap="round"/><path d="M220.75981,168.63371c0.49392,0.19392 0.42069,2.36476 0.0791,2.55995c-0.08698,0.14737 -0.2474,0.24623 -0.43091,0.24623c-0.27614,0 -0.5,-0.22386 -0.5,-0.5c0,-0.04446 0.0058,-0.08757 0.01669,-0.1286c-0.3601,-0.96743 -0.00285,-2.50659 0.83512,-2.17759z" fill="#cea800" stroke="none" stroke-width="0.5" stroke-linecap="butt"/><path d="M221.33518,195.04547v-26.73387h39.31452v26.73387z" fill="#ffcf00" stroke="#000000" stroke-width="1" stroke-linecap="butt"/><path d="M221.40158,167.54246l-2.05128,2.24359" fill="none" stroke="#000000" stroke-width="1" stroke-linecap="round"/><path d="M219.56456,196.78316l1.83673,-1.83673" fill="none" stroke="#000000" stroke-width="1" stroke-linecap="round"/><path d="M259.00218,196.92358l1.64871,-1.5194" fill="none" stroke="#000000" stroke-width="1" stroke-linecap="round"/><path d="M230.08352,188.66259v-18.79167h19.18361v18.79167z" fill="#baeaf2" stroke="#000000" stroke-width="0.5" stroke-linecap="butt"/><g stroke="none" stroke-linecap="butt"><path d="M239.19768,181.3843c-2.54884,-0.02378 -4.03576,-0.44536 -5.01972,-0.72428c-1.06538,-0.30201 -1.78022,-0.74356 -2.0675,-1.27706c-0.0269,-0.04996 -0.03307,-0.09194 -0.02015,-0.14047c0.06213,-0.23748 0.52095,-0.51934 0.92108,-0.68106l0.04544,-0.01781c1.92738,-0.68229 4.09737,-1.03047 6.43797,-1.03047c3.50408,0 6.33458,0.78263 6.9157,1.05229c0.574,0.26658 0.7141,0.5495 0.74408,0.63308c-0.25657,1.50782 -4.68937,2.18669 -7.79062,2.18669z" fill="#660000" stroke-width="0.63025"/><path d="M239.49479,177.78554c-2.29991,0 -4.43081,0.34018 -6.3344,1.01086l-0.03108,0.01145l-0.00473,0.00202l-0.00888,0.0038l-0.01038,0.0038c-0.39666,0.16154 -0.66522,0.36235 -0.73681,0.46828c0.26473,0.45354 0.91471,0.83732 1.88396,1.11205c0.96977,0.27493 2.43544,0.69051 4.94778,0.71395c0.05322,0.00055 0.10775,0.00072 0.16353,0.00072c1.26379,0 3.19426,-0.13248 4.82275,-0.50426c1.52382,-0.3478 2.50669,-0.8562 2.6795,-1.37733c-0.05668,-0.08433 -0.20534,-0.24878 -0.5704,-0.41831c-0.48788,-0.22641 -3.31129,-1.02703 -6.80084,-1.02703M239.49479,177.78554v-0.54512v0c3.6024,0 6.48214,0.82334 7.03034,1.07755c0.85915,0.39903 0.90637,0.86638 0.90637,0.86638c-0.21839,1.91668 -5.42275,2.47325 -8.0679,2.47325c-0.05743,0 -0.11377,-0.00018 -0.16863,-0.00072c-2.58554,-0.02416 -4.09885,-0.45318 -5.09151,-0.73465c-0.99269,-0.28146 -1.8649,-0.72592 -2.23322,-1.41006c-0.06361,-0.11812 -0.07196,-0.23169 -0.04379,-0.33908c0.11758,-0.44936 0.88965,-0.78644 1.08265,-0.86439c0.00089,-0.00035 0.00199,-0.00072 0.00271,-0.00107c0.01291,-0.0051 0.02255,-0.00911 0.02961,-0.01165c0.0011,-0.00055 0.00202,-0.00072 0.00291,-0.0011c0.00528,-0.00216 0.00908,-0.00363 0.00908,-0.00363c2.21759,-0.78551 4.49588,-1.05081 6.54138,-1.05081z" fill="#000000" stroke-width="0.63025"/><g><path d="M230.92329,188.01697v-13.55611h17.56872v13.55611z" fill-opacity="0.0207" fill="#ffffff" stroke-width="0"/><path d="M239.52517,187.77745c-0.121,0 -0.18892,-0.00293 -0.19223,-0.00311c-8.26195,-0.78719 -8.10835,-6.01959 -8.09772,-6.24199c0.03532,-0.74107 0.39852,-1.49784 0.66615,-1.96154c0.39782,0.54863 1.15443,0.97463 2.25338,1.26791c0.99292,0.26508 2.4937,0.66581 5.06654,0.68849l0.16769,0.00075c0.0734,0 6.84189,-0.02492 8.02598,-2.04192c0.38425,0.62441 0.55339,1.88135 0.57042,2.67678c-1.20767,5.34332 -7.25691,5.61461 -8.46019,5.61461c0.00018,0 0,0 0,0z" fill="#65cbeb" stroke-width="0.63025"/><path d="M247.35964,180.001c-1.7168,1.7439 -7.25287,1.80176 -7.9705,1.80176c-0.05804,0 -0.11459,-0.00038 -0.17007,-0.00075c-2.60759,-0.02306 -4.12851,-0.42911 -5.135,-0.69784c-0.94845,-0.25335 -1.66115,-0.6074 -2.12812,-1.05645c-0.21091,0.42213 -0.42106,0.96731 -0.44633,1.49764c-0.01281,0.26819 -0.0174,1.67817 1.14929,3.09546c1.31442,1.59707 3.56796,2.55888 6.69837,2.85949c0.02382,0.00093 0.08147,0.00238 0.16789,0.00238c1.16338,0 7.00519,-0.25942 8.18486,-5.36749c-0.01758,-0.6444 -0.13399,-1.53775 -0.35039,-2.13419M247.35964,180.001l-15.36947,-1.04475v0c-0.02765,0.09923 -0.0194,0.20431 0.0432,0.31341c0.36157,0.63249 1.21778,1.04367 2.19223,1.30379c0.97446,0.26014 2.46004,0.65666 4.99807,0.6792c0.054,0.00055 0.10892,0.00073 0.16531,0.00073c2.59659,0 7.70597,-0.51459 7.92033,-2.28669c0.90965,0.62061 0.95122,3.22379 0.95122,3.22379c-1.23864,5.58827 -7.51905,5.86142 -8.73535,5.86142c-0.13181,0 -0.20431,-0.00331 -0.20431,-0.00331c-7.68877,-0.73226 -8.42104,-5.24793 -8.36007,-6.52941c0.06097,-1.28145 1.00687,-2.56292 1.00687,-2.56292h0.02251c0,0.00018 0,0 0,0z" fill="#000000" stroke-width="0.63025"/><g stroke-width="0.63025"><path d="M239.72397,187.87448c-0.24678,0 -0.38937,-0.00822 -0.39248,-0.0084c-8.35513,-0.79599 -8.19843,-6.11204 -8.18762,-6.33811c0.03953,-0.83094 0.47906,-1.67709 0.75312,-2.12905c0.35716,0.58799 1.12439,1.04254 2.28138,1.35139c0.98854,0.26398 2.48255,0.66287 5.04365,0.68538l0.16696,0.00073c0.07468,0 7.14488,-0.0258 8.02177,-2.14259c0.65538,0.69401 0.73993,2.19479 0.66781,2.87744c-0.55981,5.2915 -6.53562,5.70321 -8.35457,5.70321c0.0002,0 0.0002,0 0,0z" fill="#cc7700"/><path d="M247.43618,179.62516c-1.345,1.96979 -7.75009,1.99451 -8.04741,1.99451c-0.05748,0 -0.11348,-0.00035 -0.16841,-0.00073c-2.58433,-0.02289 -4.0917,-0.42527 -5.08922,-0.69163c-1.0455,-0.27917 -1.7893,-0.67934 -2.21747,-1.19213c-0.25282,0.45897 -0.55543,1.13796 -0.58709,1.80155c-0.01339,0.2801 -0.01851,1.75139 1.19082,3.22051c1.34773,1.63732 3.64596,2.62186 6.83073,2.9263c0.02855,0.00145 0.16292,0.0077 0.37583,0.0077c1.77977,0 7.62873,-0.39945 8.17243,-5.53903c0.07616,-0.72 -0.0355,-1.87057 -0.46021,-2.52705M247.43618,179.62516l-15.44601,-0.66891v0c-0.02765,0.09923 -0.0194,0.20431 0.0432,0.31341c0.36157,0.63249 1.21778,1.04367 2.19223,1.30379c0.97446,0.26014 2.46004,0.65666 4.99807,0.6792c0.054,0.00055 0.10892,0.00073 0.16531,0.00073c2.59659,0 7.70597,-0.51459 7.92033,-2.28669c0.90965,0.62061 1.03946,2.38809 0.95122,3.22379c-0.58178,5.50023 -6.87027,5.86671 -8.53656,5.86671c-0.25611,0 -0.4031,-0.0086 -0.4031,-0.0086c-7.68877,-0.73226 -8.42104,-5.24793 -8.36007,-6.52941c0.06097,-1.28145 1.00687,-2.56292 1.00687,-2.56292h0.02251c0,0.00018 0,0 0,0z" fill="#b16700"/></g><text transform="translate(237.06907,186.30195) scale(0.14523,0.14523)" font-size="40" xml:space="preserve" fill="#995900" fill-rule="nonzero" stroke="none" stroke-width="1" stroke-linecap="butt" stroke-linejoin="miter" stroke-miterlimit="10" stroke-dasharray="" stroke-dashoffset="0" font-family="Sans Serif" font-weight="normal" text-anchor="start" style="mix-blend-mode: normal"><tspan x="0" dy="0">IA</tspan></text></g></g></g></g></svg>