<svg version="1.1" xmlns="http://www.w3.org/2000/svg" xmlns:xlink="http://www.w3.org/1999/xlink" width="54.17845" height="15.3207" viewBox="0,0,54.17845,15.3207"><g transform="translate(-212.89566,-165.8298)"><g data-paper-data="{&quot;isPaintingLayer&quot;:true}" fill-rule="nonzero" stroke="none" stroke-width="0.63025" stroke-linecap="butt" stroke-linejoin="miter" stroke-miterlimit="10" stroke-dasharray="" stroke-dashoffset="0" style="mix-blend-mode: normal"><path d="M238.5156,180.2026c-8.8405,-0.0825 -13.9978,-1.5447 -17.4106,-2.5121c-3.6952,-1.0475 -6.1746,-2.579 -7.171,-4.4294c-0.0933,-0.1733 -0.1147,-0.3189 -0.0699,-0.4872c0.2155,-0.8237 1.8069,-1.8013 3.1947,-2.3622l0.1576,-0.0618c6.685,-2.3665 14.2115,-3.5741 22.3297,-3.5741c12.1537,0 21.9711,2.7145 23.9867,3.6498c1.9909,0.9246 2.4768,1.9059 2.5808,2.1958c-0.8899,5.2298 -16.2648,7.5844 -27.0213,7.5844z" fill="#660000"/><path d="M239.5461,167.7205c-7.9771,0 -15.368,1.1799 -21.9705,3.5061l-0.1078,0.0397l-0.0164,0.007l-0.0308,0.0132l-0.036,0.0132c-1.3758,0.5603 -2.3073,1.2568 -2.5556,1.6242c0.9182,1.5731 3.1726,2.9042 6.5344,3.8571c3.3636,0.9536 8.4472,2.395 17.1611,2.4763c0.1846,0.0019 0.3737,0.0025 0.5672,0.0025c4.3834,0 11.0791,-0.4595 16.7274,-1.749c5.2853,-1.2063 8.6943,-2.9697 9.2937,-4.7772c-0.1966,-0.2925 -0.7122,-0.8629 -1.9784,-1.4509c-1.6922,-0.7853 -11.485,-3.5622 -23.5883,-3.5622M239.5461,167.7205v-1.8907v0c12.4947,0 22.4829,2.8557 24.3843,3.7374c2.9799,1.384 3.1437,3.005 3.1437,3.005c-0.7575,6.6479 -18.8085,8.5783 -27.983,8.5783c-0.1992,0 -0.3946,-0.0006 -0.5849,-0.0025c-8.9678,-0.0838 -14.2166,-1.5718 -17.6596,-2.5481c-3.4431,-0.9762 -6.4683,-2.5178 -7.7458,-4.8907c-0.2206,-0.4097 -0.2496,-0.8036 -0.1519,-1.1761c0.4078,-1.5586 3.0857,-2.7277 3.7551,-2.9981c0.0031,-0.0012 0.0069,-0.0025 0.0094,-0.0037c0.0448,-0.0177 0.0782,-0.0316 0.1027,-0.0404c0.0038,-0.0019 0.007,-0.0025 0.0101,-0.0038c0.0183,-0.0075 0.0315,-0.0126 0.0315,-0.0126c7.6916,-2.7245 15.5937,-3.6447 22.6884,-3.6447z" fill="#000000"/></g></g></svg>