<svg version="1.1" xmlns="http://www.w3.org/2000/svg" xmlns:xlink="http://www.w3.org/1999/xlink" width="533.54518" height="248.33412" viewBox="0,0,533.54518,248.33412"><g transform="translate(26.77259,-55.83294)"><g data-paper-data="{&quot;isPaintingLayer&quot;:true}" fill-rule="nonzero" stroke="none" stroke-width="1" stroke-linecap="butt" stroke-linejoin="miter" stroke-miterlimit="10" stroke-dasharray="" stroke-dashoffset="0" style="mix-blend-mode: normal"><path d="M255.72742,303.87146c-67.9,0 -119.4,0 -170.8,0c-23.1,0 -44.5,-5.6 -62.6,-20.3c-17.1,-13.9 -30,-31.2 -38.3,-51.7c-6.5,-16 -10.8,-32.6 -10.8,-49.7c0,-29.4 8.3,-56.7 25.7,-80.7c11.3,-15.6 24.8,-29 42.8,-37c12.2,-5.4 25.3,-8.3 38.6,-8.4c106.5,-0.2 213.1,-0.5 319.6,0.2c25,0.2 47.5,9.1 66.1,27.2c20.2,19.7 32.4,43.3 38.1,70.3c4.2,20.1 3.3,40.3 -2,60.3c-8.7,32.6 -26.7,58.7 -55.3,77c-11,7 -23.6,11.1 -36.6,11.7c-57,2.8 -114,0.4 -154.5,1.1zM240.22742,62.87147c-47.8,0 -95.6,0 -143.3,0c-9.5,0 -19,0.3 -28.5,2c-18.1,3.2 -33.9,10.8 -47.4,23.3c-18.2,17 -29.5,38.2 -35.8,62c-4,15.1 -6.3,30.5 -3.1,46c3.6,18 9.1,35.3 18.9,51c10.7,17.1 24.4,31.1 42.8,40.2c12.7,6.2 26.3,9.2 40.2,9.4c34.5,0.5 68.9,0.4 103.4,0.1c72.7,-0.5 145.3,1.5 218,-1.1c10.1,-0.4 19.9,-3.3 29.3,-7.4c12.8,-5.6 23.2,-14.4 32.7,-24.6c7.8,-8.4 13.7,-18 18.7,-28.1c5.1,-10.3 8.9,-21.2 11,-32.6c1.4,-7.6 3.2,-15.3 3.2,-23c0,-6.7 -1.3,-13.5 -2.6,-20.2c-5.3,-27 -16.7,-50.5 -36.4,-70.1c-18.3,-18.2 -40.7,-26.4 -65.7,-26.8c-51.8,-0.7 -103.5,-0.2 -155.3,-0.2z" fill="#333840" opacity="0.5"/><path d="M480.12192,147.15c7.6,20.5 8.6,41.1 0.9,61.8c-2.3,0.2 -2.7,2.2 -3.6,3.7c-11.6,20.6 -27.2,37 -49.2,46.7c-4.7,2 -9.3,4.6 -14.4,5.4c-15.4,2.3 -31,2.2 -46.5,3c-6.8,0.4 -13.6,0.6 -20.3,0.7c-23.7,0.4 -47.3,3.1 -71,3.2c-45.2,0.2 -90.5,0 -135.7,0.1c-17.1,0 -34.2,0 -51,-3.1c-9.1,-1.7 -18.5,-1.9 -27,-6.2c-24.1,-12.3 -42.8,-30.2 -57.3,-52.9c-3.1,-4.8 -4.3,-10.7 -8.9,-14.6c-2.4,-6.6 -2.9,-13.5 -2.1,-20.3c1.6,-14.1 5.1,-27.8 10.9,-40.8c0.3,-0.6 0.7,-1.1 1,-1.7c1.4,0 1.9,-1.2 2.6,-2c7.9,-9 16.2,-17.5 27.5,-22.4c2,-0.9 3.7,-3 6.6,-1.9c-1.6,3.7 -5.1,5.6 -6.9,9.1c-2,4 -0.5,7.2 1.6,10.2c1.8,2.6 4.1,3.9 8,3.3c13.3,-2 25.1,-7.5 35.8,-15.3c3.8,-2.8 8.1,-5.9 9.3,-10.8c1.1,-4.6 1.1,-9.5 -2.6,-14.1c4,0 7.1,0 10.3,0c26.6,0.4 53.2,0 79.8,0.9c29.3,1 58.5,0 87.8,1c31.9,1.1 63.9,-0.1 95.8,1.1c12.8,0.5 25.6,0.1 38.4,0.2c2,0 3.9,0.1 5.9,0.7c28.7,7.7 52.1,22.7 68.8,47.6c1.2,1.7 1.6,4.6 4.7,4.5v0c0.3,1.1 0.4,2.1 0.8,2.9zM29.82192,135.25c0,-4.2 -1.5,-6 -4.9,-5.9c-3.9,0.1 -9.2,5.3 -9.2,9c0,3 1.5,5.3 4.4,5.6c5.5,0.5 9.7,-3.5 9.6,-8.7z" fill="#2da500"/><path d="M479.52742,144.47147c-3.1,0.1 -3.6,-2.7 -4.7,-4.5c-16.7,-24.9 -40.1,-40 -68.8,-47.6c-2,-0.5 -3.9,-0.7 -5.9,-0.7c-12.8,0 -25.6,0.3 -38.4,-0.2c-31.9,-1.2 -63.9,0 -95.8,-1.1c-29.3,-1 -58.6,0 -87.8,-1c-26.6,-0.9 -53.2,-0.5 -79.8,-0.9c-3.1,0 -6.3,0 -10.3,0c3.7,4.7 3.7,9.6 2.6,14.1c-1.2,4.9 -5.4,8 -9.3,10.8c-10.7,7.7 -22.4,13.3 -35.8,15.3c-3.8,0.6 -6.1,-0.7 -8,-3.3c-2.1,-3 -3.5,-6.2 -1.6,-10.2c1.7,-3.5 5.3,-5.4 6.9,-9.1c-2.9,-1 -4.6,1.1 -6.6,1.9c-11.3,4.8 -19.6,13.3 -27.5,22.4c-0.7,0.8 -1.2,2.1 -2.6,2c2.7,-8.5 8,-15.5 13.2,-22.5c6.8,-9.1 14.8,-17.2 25.2,-22.3c11.5,-5.6 23.2,-11 36.4,-11c90.9,0 181.7,0.1 272.6,0.2c2.3,0 4.7,0 7,0c0.4,0.6 0.8,0.5 1.1,0c13.6,0 27.4,-1.2 40.9,0.1c18,1.8 34.5,8.3 48.1,21.2c13.7,13 23.1,28.5 29,46.2z" fill="#4abc1b"/><path d="M-3.77258,195.27147c4.6,3.8 5.8,9.8 8.9,14.6c14.5,22.7 33.3,40.7 57.3,52.9c8.4,4.3 17.9,4.5 27,6.2c16.9,3.1 33.9,3.1 51,3.1c45.2,-0.1 90.5,0 135.7,-0.1c23.7,0 47.3,-2.7 71,-3.2c6.7,-0.1 13.6,-0.4 20.3,-0.7c15.5,-0.8 31.1,-0.8 46.5,-3c5.1,-0.7 9.7,-3.3 14.4,-5.4c22,-9.6 37.6,-26.1 49.2,-46.7c0.9,-1.5 1.3,-3.5 3.6,-3.7c-0.7,7.7 -4.5,14.3 -7.8,21.1c-7.6,15.8 -17.8,29.8 -32.9,39.1c-13.3,8.2 -27.6,13.7 -43.7,13.6c-106.2,-0.1 -212.3,0 -318.5,-0.2c-12.9,0 -24.8,-5.3 -35.7,-11.8c-19.6,-11.6 -31.3,-29.7 -39.6,-50.3c-3.3,-8.2 -6.1,-16.6 -6.8,-25.5z" fill="#279100"/><path d="M361.62742,76.97147c-0.3,0.5 -0.7,0.7 -1.1,0c0.4,0 0.8,0 1.1,0z" fill="#5e697e"/><path d="M30.02742,135.47147c0,5.2 -4.1,9.2 -9.6,8.7c-2.9,-0.3 -4.4,-2.5 -4.4,-5.6c0,-3.7 5.3,-8.9 9.2,-9c3.4,-0.1 4.8,1.7 4.9,5.9z" fill="#4abc1b"/><path d="M240.22742,62.87147c51.8,0 103.5,-0.5 155.3,0.2c25,0.3 47.4,8.6 65.7,26.8c19.7,19.6 31.1,43.1 36.4,70.1c1.3,6.7 2.6,13.5 2.6,20.2c0,7.7 -1.8,15.4 -3.2,23c-2.1,11.4 -5.9,22.3 -11,32.6c-5,10.1 -10.9,19.7 -18.7,28.1c-9.5,10.2 -19.9,18.9 -32.7,24.6c-9.4,4.1 -19.2,7.1 -29.3,7.4c-72.6,2.6 -145.3,0.6 -218,1.1c-34.5,0.2 -68.9,0.4 -103.4,-0.1c-13.9,-0.2 -27.5,-3.2 -40.2,-9.4c-18.4,-9 -32,-23 -42.8,-40.2c-9.8,-15.7 -15.3,-33.1 -18.9,-51c-3.1,-15.6 -0.9,-31 3.1,-46c6.4,-23.8 17.6,-44.9 35.8,-62c13.4,-12.5 29.3,-20.1 47.4,-23.3c9.4,-1.7 18.9,-2 28.5,-2c47.8,0 95.6,0 143.3,0zM479.52742,144.47147v0c-5.9,-17.7 -15.3,-33.2 -29,-46.2c-13.6,-12.9 -30.1,-19.4 -48.1,-21.2c-13.5,-1.4 -27.2,-0.2 -40.9,-0.1c-0.4,0 -0.8,0 -1.1,0c-2.3,0 -4.7,0 -7,0c-90.9,0 -181.7,-0.1 -272.6,-0.2c-13.3,0 -24.9,5.3 -36.4,11c-10.4,5.1 -18.4,13.1 -25.2,22.3c-5.2,7 -10.5,14 -13.2,22.5c-0.3,0.6 -0.8,1.1 -1,1.7c-5.9,13 -9.3,26.7 -10.9,40.8c-0.8,6.8 -0.3,13.7 2.1,20.3c0.6,8.9 3.5,17.3 6.8,25.5c8.3,20.6 20,38.6 39.6,50.3c10.9,6.5 22.8,11.8 35.7,11.8c106.2,0.2 212.3,0 318.5,0.2c16.1,0 30.4,-5.4 43.7,-13.6c15.2,-9.4 25.3,-23.3 32.9,-39.1c3.3,-6.8 7.1,-13.4 7.8,-21.1c7.7,-20.7 6.7,-41.3 -0.9,-61.8c-0.6,-0.7 -0.2,-1.7 -0.8,-2.9z" fill="#000000"/></g></g></svg>