<svg version="1.1" xmlns="http://www.w3.org/2000/svg" xmlns:xlink="http://www.w3.org/1999/xlink" width="85.72003" height="186.5579" viewBox="0,0,85.72003,186.5579"><g transform="translate(-197.16509,-86.66607)"><g data-paper-data="{&quot;isPaintingLayer&quot;:true}" fill-rule="nonzero" stroke-linecap="round" stroke-linejoin="miter" stroke-miterlimit="10" stroke-dasharray="" stroke-dashoffset="0" style="mix-blend-mode: normal"><path d="M233.83243,125.94306l-2.53958,7.98156l36.27982,123.35141l-1.81399,5.44197l-4.71638,5.07918l-7.61877,2.17679h-6.89317l-7.25596,-3.62799l-38.81942,-129.51898l1.4512,-17.41432l7.25597,-12.69794l13.06073,-11.60954l16.68872,-5.07917l19.22831,4.35358l14.87473,12.33514l6.53037,14.14913l-1.08839,8.70716l-6.53037,7.61876h-7.98156l-7.98156,-5.07918l-6.16757,-10.15835l-5.44197,-1.08839z" fill="#e7302c" stroke="#000000" stroke-width="6.5"/><path d="M206.19603,120.09189l21.85068,8.28605" fill="none" stroke="#e0e0e0" stroke-width="13.5"/><path d="M238.38926,117.31004l-4.97946,-20.61803" fill="none" stroke="#e0e0e0" stroke-width="13.5"/><path d="M255.3998,124.76023l10.56632,-21.3811" fill="none" stroke="#e0e0e0" stroke-width="13.5"/><path d="M235.97679,164.18605l-25.82727,-6.88039" fill="none" stroke="#e0e0e0" stroke-width="13.5"/><path d="M223.063,197.45403l25.42561,7.6837" fill="none" stroke="#e0e0e0" stroke-width="13.5"/><path d="M234.93195,236.35718l25.02395,8.08536" fill="none" stroke="#e0e0e0" stroke-width="13.5"/><path d="M233.83243,125.94306l-2.53958,7.98156l36.27982,123.35141l-1.81399,5.44197l-4.71638,5.07918l-7.61877,2.17679h-6.89317l-7.25596,-3.62799l-38.81942,-129.51898l1.4512,-17.41432l7.25597,-12.69794l13.06073,-11.60954l16.68872,-5.07917l19.22831,4.35358l14.87473,12.33514l6.53037,14.14913l-1.08839,8.70716l-6.53037,7.61876h-7.98156l-7.98156,-5.07918l-6.16757,-10.15835l-5.44197,-1.08839z" fill="none" stroke="#b32422" stroke-width="6.5"/></g></g></svg>