<svg version="1.1" xmlns="http://www.w3.org/2000/svg" xmlns:xlink="http://www.w3.org/1999/xlink" width="82.85687" height="124.00884" viewBox="0,0,82.85687,124.00884"><g transform="translate(-198.57999,-118.11801)"><g data-paper-data="{&quot;isPaintingLayer&quot;:true}" fill-rule="nonzero" stroke-linejoin="miter" stroke-miterlimit="10" stroke-dasharray="" stroke-dashoffset="0" style="mix-blend-mode: normal"><g><path d="M238.77707,123.20619c1.54036,-1.46817 4.03683,-2.37736 6.07571,-2.96437c1.70343,-0.49043 9.51707,-1.80438 10.79283,0.10926c1.34327,2.0149 -0.5908,6.58115 -2.03039,8.26067c-2.96764,3.46225 -7.58077,3.84528 -11.83609,3.29951c-0.90841,-0.11651 -5.32254,-0.17825 -5.20452,-1.88952c-0.15961,-0.32923 -0.24912,-0.69877 -0.24912,-1.08921c0,-0.94567 0.52507,-1.76871 1.29958,-2.19348c0.53741,-1.54735 0.05987,-2.49191 1.15201,-3.53286z" fill="#87f235" stroke="none" stroke-width="0.5" stroke-linecap="butt"/><path d="M261.56182,163.19135l0.8293,12.9134l4.26497,6.2395l6.75288,6.51593l4.73886,8.05607l2.01401,8.52994l-2.13249,12.43951l-6.27899,9.83313l-9.1223,7.70065l-15.28283,5.44969l-16.70449,-0.59235l-11.84715,-4.1465l-10.78091,-8.64842l-5.8051,-9.00383l-2.36944,-7.46371l0.47389,-11.29429l3.55414,-7.81912l8.17454,-8.76689l5.21274,-5.56817l1.18472,-13.62422l4.1465,-10.70192l5.92358,-5.8051l9.24078,-3.19873l5.44969,0.11847l8.05606,3.19873l7.10829,7.70065z" fill="#d1e232" stroke="#889323" stroke-width="2.5" stroke-linecap="round"/><path d="M268.79901,184.61806l6.67025,6.81258l4.65555,13.40708l-1.74774,8.47418l-4.00007,11.10404l-9.76254,9.25124l-15.6252,6.61038l-18.66251,-0.25718l-13.38449,-5.79974l-6.77531,-6.20902l21.81651,6.4436l14.14625,-1.06477l13.68992,-5.01964l9.12661,-8.36606l4.86753,-7.60551l1.5211,-12.62514l-4.86753,-12.01671l-7.4534,-8.06185l-5.78019,-8.21395v-9.43083l-3.95486,-10.03928l-10.58492,-6.63006l3.89208,0.85636l8.06185,4.10049l5.01963,7.75762l1.53087,15.94408" fill="#bacd39" stroke="#bacd39" stroke-width="2" stroke-linecap="round"/><path d="M261.56182,163.19135l0.8293,12.9134l4.26497,6.2395l6.75288,6.51593l4.73886,8.05607l2.01401,8.52994l-2.13249,12.43951l-6.27899,9.83313l-9.1223,7.70065l-15.28283,5.44969l-16.70449,-0.59235l-11.84715,-4.1465l-10.78091,-8.64842l-5.8051,-9.00383l-2.36944,-7.46371l0.47389,-11.29429l3.55414,-7.81912l8.17454,-8.76689l5.21274,-5.56817l1.18472,-13.62422l4.1465,-10.70192l5.92358,-5.8051l9.24078,-3.19873l5.44969,0.11847l8.05606,3.19873l7.10829,7.70065z" fill="none" stroke="#889323" stroke-width="2.5" stroke-linecap="round"/><path d="M254.93274,208.23876c0,11.06309 -9.97609,20.03149 -22.28222,20.03149c-12.30613,0 -22.28222,-8.9684 -22.28222,-20.03149c0,-11.06308 9.97609,-20.03149 22.28222,-20.03149c12.30613,0 22.28222,8.9684 22.28222,20.03149z" fill="#d7e64f" stroke="#d7e64f" stroke-width="2" stroke-linecap="butt"/><path d="M265.96469,206.93672c0,9.82004 -6.91273,17.78076 -15.44,17.78076c-8.52728,0 -15.44,-7.96071 -15.44,-17.78075c0,-9.82004 6.91272,-17.78076 15.44,-17.78076c8.52728,0 15.44,7.96072 15.44,17.78076z" fill="#d7e64f" stroke="#d7e64f" stroke-width="2" stroke-linecap="butt"/><path d="M263.94242,210.58628c0,9.82004 -11.24577,17.78076 -25.11813,17.78076c-13.87236,0 -25.11813,-7.96071 -25.11813,-17.78075c0,-9.82004 11.24578,-17.78075 25.11813,-17.78075c13.87236,0 25.11813,7.96071 25.11813,17.78076z" fill="#d7e64f" stroke="#d7e64f" stroke-width="2" stroke-linecap="butt"/><path d="M225.50988,165.66025c-0.62391,0.30867 0.08274,-0.00028 -0.21751,-0.18482c-1.53519,-0.94352 0.26595,-6.6012 0.26595,-6.6012l1.80459,-3.92764l4.35225,-4.13994l4.61763,-1.43305l0.74307,0.2123l-6.47529,6.79375c0,0 -0.88155,0.07001 -2.35447,2.85534c-0.02837,0.05364 -1.90996,2.62135 -1.93076,2.67772c-0.56098,1.52063 0.48212,3.11052 -0.80545,3.74753z" fill="#e4ec9f" stroke="#e4ec9f" stroke-width="2" stroke-linecap="round"/><path d="M237.3691,130.39321c0,-0.00851 0.00011,-0.017 0.00032,-0.02547l-0.02638,-0.01407l-0.10959,-0.38964l-0.19312,-0.33797l0.06572,-0.11501l-0.03587,-0.12752l0.26933,-0.28104l0.20082,-0.35143l0.17881,-0.0447l0.04834,-0.05044h0.15342l0.11943,-0.02986h0.40184l0.15595,0.03899l0.16028,0.01233l0.06523,0.02174h0.59136l0.17282,-0.0432h0.12311l0.11943,-0.02986h0.13642l0.13755,-0.02292l0.08331,0.00667l0.08108,-0.02027h1.35363l0.18536,-0.02648l0.00897,0.00093l0.00841,-0.00326l0.16446,-0.02056l0.06308,-0.02523l0.18765,-0.02559l0.18374,-0.04593h0.16914l0.02669,-0.00667h0.12311l0.11943,-0.02986h0.08363l0.08556,-0.01711l0.04974,0.00237l0.04687,-0.01683l0.33272,-0.03327l0.40606,-0.06768l0.01191,0.00095l0.01107,-0.00451l0.51143,-0.07306l0.07159,0.00741l0.06983,-0.01746h0.47813l0.38674,-0.02578l0.09748,-0.03249l0.16028,-0.01233l0.15595,-0.03899h0.30282l0.08556,-0.01711l0.09949,0.00474l0.09663,-0.02416h0.60751l0.17282,-0.0432h0.12311l0.11943,-0.02986h0.14612l0.14612,-0.03653h0.01491l0.03417,-0.02174l0.10959,-0.03653l0.03909,-0.00301l0.0346,-0.01845l0.10886,-0.02722l0.27079,-0.09026l0.4537,-0.1745l0.07068,-0.00868l0.06344,-0.03237l0.37437,-0.08639l0.38123,-0.17595l0.05532,-0.01049l0.04751,-0.03023l0.48054,-0.16018l0.12127,-0.06063l0.14972,-0.08983l0.07746,-0.02358l0.06564,-0.04741l0.30084,-0.12034l0.1862,-0.1064l0.31195,-0.18717l0.10485,-0.07864l0.02619,-0.01103l0.01911,-0.02102l0.0272,-0.01814l0.40488,-0.40488l0.08541,-0.05124l0.067,-0.0737l0.0865,-0.05767l0.00963,-0.00722l0.02388,-0.03184l0.11034,-0.08966l0.08966,-0.11034l0.03344,-0.02508l0.03297,-0.04946l0.00913,-0.01522l0.00304,-0.00304l0.01814,-0.0272l0.0737,-0.067l0.05124,-0.08541l0.24199,-0.24199l0.15989,-0.21319l0.05767,-0.0865l0.02102,-0.01911l0.01103,-0.02619l0.05549,-0.07399l0.12373,-0.24745l0.05761,-0.14403l0.05538,-0.07668l0.01254,-0.05018l0.02524,-0.04733l0.00326,-0.00912l0.00803,-0.01205l0.01529,-0.02868l0.02389,-0.10751l0.03653,-0.07306l0.01012,-0.01181l0.00383,-0.01508l0.2044,-0.3796l0.04333,-0.15164l0.02053,-0.03559l0.00466,-0.04082l0.0812,-0.21653l0.02067,-0.10336l0.05718,-0.12071l0.02897,-0.13039l0.04128,-0.08256l0.01543,-0.04628l0.10885,-0.43538l0.875,-0.5l0.875,0.5l0.1117,0.44679l0.00151,0.00169l-0.00026,0.00334l0.01205,0.04818v0.51143l-0.03899,0.15595l-0.01233,0.16028l-0.0159,0.04769l0.00296,0.01084l-0.01478,0.02463l-0.00881,0.02643l-0.03065,0.04816l-0.0065,0.02602l-0.0158,0.00903l-0.04806,0.07553l-0.02631,0.11838l-0.01246,0.02492l-0.00697,0.02786l-0.00975,0.00557l-0.03132,0.06264l-0.04644,0.18575l-0.01845,0.0346l-0.00301,0.03909l-0.07306,0.21918l-0.03864,0.06072l-0.01561,0.07026l-0.01793,0.03586l-0.13068,0.32669l-0.04741,0.06564l-0.02358,0.07746l-0.08983,0.14972l-0.15532,0.31064l-0.1369,0.30802l-0.01433,0.01835l-0.00505,0.02273l-0.36531,0.73062l-0.02552,0.02977l-0.01142,0.03751l-0.03303,0.05506l-0.00044,0.00176l-0.03237,0.0607l-0.00929,0.06816l-0.0298,0.07449l0.00053,0.00194l-0.00391,0.00652l-0.03988,0.0997l-0.08708,0.12057l-0.00231,0.00692l-0.03864,0.06072l-0.01561,0.07026l-0.07306,0.14612l-0.05313,0.06199l-0.00277,0.04981l-0.1505,0.129l-0.05004,0.05838l-0.03621,0.06035l-0.04821,0.04821l-0.02841,0.06198l-0.14612,0.18265l-0.04479,0.03413l-0.02897,0.04829l-0.0876,0.0876l-0.13455,0.18837l-0.02124,0.01809l-0.01163,0.02536l-0.13636,0.17046l-0.10022,0.13363l-0.05586,0.04539l-0.03703,0.06172l-0.10959,0.10959l-0.13784,0.08271l-0.12205,0.10461l-0.05137,0.02568l-0.09993,0.07994l-0.09671,0.04433l-0.08077,0.06923l-0.06547,0.03274l-0.07399,0.05549l-0.07525,0.03168l-0.02475,0.04332l-0.19231,0.04808l-0.18269,0.07692l-0.0045,-0.00195l-0.00482,0.00348l-0.29091,0.11636l-0.2966,0.17796l-0.01046,0.00318l-0.0079,0.00757l-0.25572,0.14612l-0.02735,0.00769l-0.02157,0.01849l-0.18483,0.09242l-0.10549,0.06329l-0.10485,0.07864l-0.14815,0.06238l-0.13562,0.0863l-0.02643,0.00881l-0.00971,0.00583l-0.04539,0.05586l-0.29225,0.21918l-0.05824,0.02452l-0.04562,0.04372l-0.13944,0.07968l-0.0149,0.0149l-0.09133,0.0548l-0.12786,0.12786l-0.08541,0.05124l-0.067,0.0737l-0.10959,0.07306l-0.08712,0.03112l-0.07366,0.05598l-0.42704,0.18302l-0.14279,0.09519l-0.05951,0.02125l-0.04798,0.04112l-0.21918,0.10959l-0.04832,0.01074l-0.04405,0.03303l-0.0059,0.01415l-0.24125,0.09339l-0.23842,0.10039l-0.01407,-0.00608l-0.20261,0.02533l-0.18156,0.05187l-0.01709,0.00057l-0.01509,0.00805l-0.43837,0.10959h-0.03331l-0.03034,0.01373l-0.40184,0.07306l-0.01943,-0.00127l-0.01803,0.00735l-0.25572,0.03653l-0.07159,-0.00741l-0.06983,0.01746h-0.65755l-0.03804,-0.00951l-0.03866,0.00656l-0.43661,-0.03359h-0.58262l-0.02917,-0.00729l-0.02955,0.00557l-1.24205,-0.07306l-0.04567,-0.01432l-0.04766,0.00441l-0.4749,-0.07306l-0.00593,-0.00249l-0.00641,0.00051l-0.41149,-0.06858l-0.57542,-0.06394h-0.1638l-0.08108,-0.02027l-0.08331,0.00667l-0.21918,-0.03653l-0.03738,-0.01625h-0.04076l-0.02669,-0.00667h-0.02302l-0.11943,-0.02986h-0.12311l-0.14612,-0.03653l-0.0607,-0.03237l-0.06816,-0.00929l-0.15537,-0.06215l-0.3009,-0.1003l-0.04751,-0.03023l-0.05532,-0.01049l-0.37236,-0.17186l-0.48169,-0.10141h-0.11506c-0.17045,0 -0.33093,-0.04264 -0.47137,-0.11784l-0.02863,-0.00716l-0.00753,-0.01318c-0.29474,-0.17395 -0.49247,-0.49479 -0.49247,-0.86182z" fill="#73cd2d" stroke="none" stroke-width="0.5" stroke-linecap="butt"/><path d="M240.8667,129.05524c-0.84601,0.0243 -2.62964,0.59999 -3.13905,-0.29149c-1.21546,-2.12706 4.05589,-1.88135 5.42698,-1.89117c0.96212,-0.00689 5.09221,-1.87781 5.47828,-1.71086c0.03642,-0.00402 0.07344,-0.00608 0.11093,-0.00608c0.55228,0 1,0.44772 1,1c0,0.46317 -0.31489,0.8528 -0.74227,0.96647c-1.45931,1.46455 -6.8089,1.89505 -8.13487,1.93313z" fill="#87f235" stroke="none" stroke-width="0.5" stroke-linecap="butt"/><path d="M236.17927,128.67474l1.76739,-4.12391l4.00609,-3.71152l5.59673,-1.70848l4.59521,0.39276l3.94717,2.00304l-1.06043,4.65413l-3.12239,3.5937l-4.065,2.23869l-4.77196,0.64804l-3.71152,-0.64804l-1.88522,-0.29457z" fill="none" stroke="#539421" stroke-width="2" stroke-linecap="round"/><path d="M240.421,126.65206l-3.6526,2.71" fill="none" stroke="#539421" stroke-width="1.5" stroke-linecap="round"/><path d="M245.31079,124.76684l-4.30065,1.59066" fill="none" stroke="#539421" stroke-width="1" stroke-linecap="round"/><path d="M248.72774,124.29554l-3.06347,0.29457" fill="none" stroke="#539421" stroke-width="0.5" stroke-linecap="round"/><path d="M252.57958,122.57562l-4.3837,-0.43837l-4.34716,1.05939l-2.63021,1.02287l2.22837,-1.82654l4.63941,-1.24204l3.47042,0.40183z" fill="#bdf295" stroke="#bdf295" stroke-width="0.5" stroke-linecap="round"/><path d="M231.65398,127.53059l4.59521,3.12239l3.06348,5.12543l0.53021,7.7176" fill="none" stroke="#814c00" stroke-width="2" stroke-linecap="round"/></g></g></g></svg>