<svg version="1.1" xmlns="http://www.w3.org/2000/svg" xmlns:xlink="http://www.w3.org/1999/xlink" width="37.61535" height="45.88142" viewBox="0,0,37.61535,45.88142"><g transform="translate(-221.19233,-157.05929)"><g data-paper-data="{&quot;isPaintingLayer&quot;:true}" fill-rule="nonzero" stroke-linejoin="miter" stroke-miterlimit="10" stroke-dasharray="" stroke-dashoffset="0" style="mix-blend-mode: normal"><path d="M224.35428,196.79719v-32.69632c0,0 0.55984,-3.41616 13.44081,-3.48761c15.00713,-0.08325 16.47584,3.48761 16.47584,3.48761v32.69632c0,0 -0.61476,2.61571 -15.17512,3.05166c-14.91506,0.44657 -14.74154,-3.05166 -14.74154,-3.05166z" fill="#969696" stroke="#000000" stroke-width="1.5" stroke-linecap="butt"/><text transform="translate(228.45841,196.23222) scale(0.23998,0.23998)" font-size="40" xml:space="preserve" fill="#000000" fill-rule="nonzero" stroke="none" stroke-width="1" stroke-linecap="butt" stroke-linejoin="miter" stroke-miterlimit="10" stroke-dasharray="" stroke-dashoffset="0" font-family="Sans Serif" font-weight="normal" text-anchor="start" style="mix-blend-mode: normal"><tspan x="0" dy="0">Load</tspan></text><path d="M242.65262,187.01523c0,0 -1.48434,-10.44131 -3.10767,-11.79016c-1.07924,-0.89676 -5.66571,-1.80818 -5.66571,-1.80818l-2.45757,3.63567l-1.16742,-10.27645l9.85907,-0.99639l-2.62382,3.21379c0,0 4.84858,0.98297 6.17123,2.06283c1.58243,1.29194 4.14249,16.28764 4.14249,16.28764z" fill="#9cff4a" stroke="#000000" stroke-width="1.5" stroke-linecap="butt"/><path d="M222.44234,180.51091c0,-7.16104 1.88416,-19.19972 1.88416,-19.19972c0,0 9.9543,-3.0019 15.83324,-3.0019c5.82569,0 15.81482,3.0019 15.81482,3.0019c0,0 1.58313,12.29226 1.58313,19.49529c0,6.6559 -1.57006,18.30848 -1.57006,18.30848c0,0 -9.00554,2.57575 -15.82788,2.57575c-6.82234,0 -16.43281,-2.12529 -16.43281,-2.12529c0,0 -1.28459,-12.34243 -1.28459,-19.0545z" fill="#969696" stroke="#2b2b2b" stroke-width="2.5" stroke-linecap="butt"/><path d="M238.99251,187.10382l-3.13964,-0.5533l-2.08209,-1.10659l-2.04904,-1.38324l-1.71855,-1.96726l-1.02452,-1.7521l-0.69403,-2.12096l-0.03305,-2.55129l3.47014,0.03074l0.03305,1.75209l0.85927,2.3976l1.71855,1.93652l2.34647,1.56767l2.71001,0.52255l3.30489,-0.36886l2.44563,-1.332l1.98294,-2.12096l0.85927,-2.36686l-0.1322,-3.1968l-0.95842,-2.15169l-1.6855,-1.87504l-2.24733,-1.29102l-2.51172,-0.47133l0.62374,1.91116l-6.90305,-0.71603l2.86665,-6.88756l2.36277,2.50809l4.15649,0.38713l2.14819,0.9529l1.94989,1.3525l1.78465,1.69062l1.09062,1.75209l0.85927,2.48982l-0.0661,3.54518l-0.72708,2.95089l-2.01599,2.88942l-3.17271,2.43859l-3.93283,1.16806z" fill="#9bff4a" stroke="#76c138" stroke-width="1.5" stroke-linecap="round"/><text transform="translate(225.50012,196.07769) scale(0.30781,0.33826)" font-size="40" xml:space="preserve" fill="#9cff4a" fill-rule="nonzero" stroke="#558b28" stroke-width="2" stroke-linecap="butt" stroke-linejoin="miter" stroke-miterlimit="10" stroke-dasharray="" stroke-dashoffset="0" font-family="Sans Serif" font-weight="normal" text-anchor="start" style="mix-blend-mode: normal"><tspan x="0" dy="0">Load</tspan></text><path d="M239.00063,186.8782l-3.13964,-0.5533l-2.08209,-1.10659l-2.04904,-1.38324l-1.71855,-1.96726l-1.02452,-1.7521l-0.69403,-2.12096l-0.03305,-2.55129l4.63437,-0.04163l0.4356,2.28852l0.83937,1.67572l1.5123,1.67871l2.08866,1.1036l2.71001,0.36786l2.27364,-0.57511l2.29094,-1.38356l1.51888,-1.76002l0.44677,-2.36686l-0.08064,-2.62961l-1.42248,-2.30638l-1.78863,-1.46254l-1.78327,-0.56914l-1.84141,-0.16195l0.88155,2.6846l-6.79992,-2.31447l2.86665,-6.88756l1.89871,2.50809l4.62055,0.38713l2.14819,0.9529l1.94989,1.3525l1.78465,1.69062l1.09062,1.75209l0.85927,2.48982l-0.0661,3.54518l-0.72708,2.95089l-2.01599,2.88942l-3.17271,2.43859l-3.93283,1.16806z" fill="#9bff4a" stroke="#76c138" stroke-width="1.5" stroke-linecap="round"/></g></g></svg>