<svg version="1.1" xmlns="http://www.w3.org/2000/svg" xmlns:xlink="http://www.w3.org/1999/xlink" width="36.20481" height="34.74432" viewBox="0,0,36.20481,34.74432"><g transform="translate(-221.8976,-162.62784)"><g data-paper-data="{&quot;isPaintingLayer&quot;:true}" fill-rule="nonzero" stroke-linecap="butt" stroke-linejoin="miter" stroke-miterlimit="10" stroke-dasharray="" stroke-dashoffset="0" style="mix-blend-mode: normal"><path d="M228.13879,191.22487c-6.96961,-6.66763 -6.33262,-16.52239 0,-22.58061c6.33262,-6.05822 16.65688,-6.64545 23.6033,0c6.94643,6.64545 6.67977,16.19027 0,22.58061c-6.67977,6.39034 -16.63369,6.66763 -23.6033,0z" fill="#ffffff" stroke="#ff0000" stroke-width="2.5"/><g stroke="none" stroke-width="1"><path d="M234.77923,188.01017c0.02201,0.11534 0.00454,0.22275 -0.0477,0.33959c-0.08709,0.22897 -0.22473,0.44369 -0.27867,0.69165c-0.01426,0.05054 -0.03959,0.09474 -0.06489,0.13895c-0.13291,0.23209 -0.20895,0.4674 -0.29133,0.71376c-0.0222,0.09002 -0.046,0.20848 -0.18344,0.21783c-0.17211,-0.08388 -0.31418,-0.19459 -0.42621,-0.33213c0.05545,-0.17372 0.09985,-0.35376 0.21056,-0.49582c0.01266,-0.02211 0.02059,-0.06159 0.03325,-0.0837c0.09343,-0.24003 0.19318,-0.4911 0.29765,-0.7248c0.04591,-0.10579 0.09654,-0.19421 0.1314,-0.30634c0.03647,-0.14056 0.10136,-0.27951 0.22624,-0.36943c0.06158,0.0206 0.10579,0.04591 0.15633,0.06017c0.07737,0.04431 0.15944,0.10598 0.23681,0.15029z" fill="#959595"/><path d="M234.53137,187.85356c-0.05054,-0.01426 -0.09475,-0.03958 -0.15633,-0.06017c-0.12488,0.08993 -0.18977,0.22888 -0.22624,0.36944c-0.03486,0.11213 -0.08548,0.20054 -0.1314,0.30634c-0.10447,0.2337 -0.20423,0.48478 -0.29766,0.7248c-0.01266,0.02211 -0.0206,0.06158 -0.03325,0.08369c-0.10598,0.15945 -0.14406,0.32844 -0.21056,0.49582c-0.07576,-0.07273 -0.14046,-0.13915 -0.19091,-0.25609c0.14405,-0.32845 0.27234,-0.68059 0.43377,-1.01376c0.14405,-0.32845 0.2439,-0.6822 0.43377,-1.01376c0.17051,0.11231 0.27781,0.23248 0.37879,0.36368z" fill="#585858"/><g><path d="M238.57995,176.06807c-0.10259,-0.10277 -0.08511,-0.21018 -0.04393,-0.33336c0.07916,-0.1895 0.19148,-0.35999 0.28169,-0.54315c-0.01417,-0.05214 -0.02833,-0.10429 -0.04884,-0.14538c-0.39408,-0.90079 -0.3648,-1.82329 -0.18069,-2.75989c0.03967,-0.19742 0.0683,-0.40118 0.16956,-0.57801c0.01899,-0.03316 0.03325,-0.08369 0.0238,-0.11846c-0.05195,-0.19119 0.03033,-0.33487 0.10788,-0.49592c0.06489,-0.13896 0.15189,-0.26525 0.22785,-0.39787c0.04431,-0.07737 0.11071,-0.14207 0.20867,-0.15936c0.09796,-0.01729 0.18175,-0.08672 0.2592,-0.14509c0.40949,-0.38191 0.87736,-0.68635 1.39256,-0.91968c0.29236,-0.12611 0.59256,-0.18901 0.90381,-0.2456c0.91637,-0.16502 1.80563,-0.05204 2.66628,0.26469c0.38531,0.14727 0.75002,0.35612 1.08942,0.60919c0.25731,0.19138 0.44822,0.44746 0.62175,0.70828c0.55212,0.82985 0.76768,1.76049 0.72886,2.75092c-0.00491,0.18798 -0.05564,0.37907 -0.10636,0.57017c-0.03014,0.1295 -0.04289,0.25429 0.02966,0.38389c0.06782,0.11222 0.05507,0.237 0.01388,0.36018c-0.07916,0.1895 -0.18042,0.36632 -0.28169,0.54315c-0.03164,0.05526 -0.07907,0.08681 -0.12649,0.11836c-0.18808,0.09777 -0.31616,0.24456 -0.42848,0.41506c-0.22624,0.36944 -0.55034,0.65348 -0.86338,0.94386c-0.12015,0.10731 -0.25136,0.20829 -0.39835,0.28555c-0.47098,0.25863 -0.94036,0.48884 -1.47124,0.59576c-0.09494,0.16578 -0.20725,0.33629 -0.30851,0.51312c-0.03797,0.06632 -0.08228,0.14368 -0.1739,0.14992c-0.08057,0.01257 -0.1075,0.08521 -0.14547,0.15151c-0.26421,0.43575 -0.51737,0.87783 -0.78158,1.31358c-0.57432,0.9773 -1.15499,1.96565 -1.75143,2.93028c-0.58378,0.94254 -1.1344,1.90406 -1.69607,2.85925c-0.0886,0.15472 -0.19298,0.28575 -0.28159,0.44047c-0.43037,0.75154 -0.86074,1.50307 -1.30217,2.24827c-0.07595,0.13262 -0.12978,0.2779 -0.26571,0.36151c-0.04742,0.03155 -0.06801,0.09314 -0.09966,0.1484c-0.31645,0.5526 -0.65028,1.10992 -0.96673,1.66252c-0.01266,0.02211 -0.03164,0.05526 -0.04431,0.07737c-0.09021,0.18316 -0.21821,0.22728 -0.41724,0.21603c-0.66501,-0.04327 -1.24454,-0.28707 -1.73857,-0.73143c-0.12469,-0.11543 -0.23672,-0.25297 -0.32504,-0.40628c-0.06782,-0.11222 -0.0614,-0.22595 -0.00916,-0.3428c0.15672,-0.35055 0.30237,-0.70742 0.46542,-1.06902c0.11713,-0.25581 0.2627,-0.51 0.34668,-0.78478c0.18222,-0.60011 0.50339,-1.13534 0.71877,-1.71646c0.12668,-0.32373 0.22492,-0.64904 0.36264,-0.96644c0.15038,-0.33949 0.27233,-0.6806 0.40534,-1.01537c0.24541,-0.60795 0.51926,-1.21431 0.75363,-1.82858c0.29142,-0.81643 0.62704,-1.60754 0.96267,-2.39866c0.11241,-0.27318 0.22482,-0.54636 0.33723,-0.81954c0.18363,-0.42319 0.3736,-0.85743 0.55723,-1.28061c0.10447,-0.2337 0.18052,-0.469 0.285,-0.70269c0.09975,-0.25108 0.22,-0.46106 0.33714,-0.71686zM238.94486,176.07157c0.09465,0.14226 0.20196,0.26242 0.3393,0.35575c0.2304,0.26403 0.51614,0.45701 0.80188,0.64999c0.35678,0.24834 0.74993,0.45881 1.13203,0.66294c0.43735,0.23577 0.90484,0.34205 1.38972,0.4436c0.05686,0.00321 0.11373,0.00642 0.19902,0.01124c0.05063,-0.08842 0.10126,-0.17683 0.1519,-0.26525c0.01266,-0.02211 0.01427,-0.05054 0.0222,-0.09003c-0.07737,-0.04431 -0.16106,-0.07756 -0.25108,-0.09975c-0.15161,-0.04279 -0.27951,-0.10136 -0.43112,-0.14415c-0.36954,-0.12356 -0.69316,-0.35291 -1.04371,-0.50963c-0.18316,-0.09021 -0.37898,-0.15832 -0.54948,-0.27064c-0.36783,-0.25467 -0.76731,-0.45408 -1.10983,-0.75295c-0.08681,-0.07906 -0.18467,-0.16446 -0.27148,-0.24352c-0.00624,-0.09163 -0.10731,-0.12015 -0.14992,-0.1739c-0.04732,-0.07113 -0.09465,-0.14226 -0.22255,-0.20083c-0.00491,0.18798 -0.12035,0.31266 -0.15209,0.47061c0.04894,0.0427 0.05517,0.13433 0.14519,0.15652zM239.17175,176.70049c-0.19723,-0.24503 -0.25722,-0.29406 -0.41355,-0.35423c-0.06489,0.13896 -0.12346,0.26685 -0.18836,0.4058c-0.04431,0.07737 -0.03174,0.15794 0.01559,0.22907c0.03155,0.04742 0.08681,0.07906 0.11835,0.12649c0.12148,0.1723 0.29037,0.31305 0.47354,0.40326c0.04572,0.09956 0.13413,0.15019 0.22255,0.20083c0.49101,0.29586 0.96464,0.59643 1.48729,0.83703c0.2337,0.10447 0.47372,0.1979 0.70902,0.27394c0.1911,0.05073 0.39324,0.10779 0.60182,0.05111c0.08228,-0.14368 0.16456,-0.28736 0.24683,-0.43103c-0.10107,-0.02853 -0.1911,-0.05073 -0.27006,-0.0666c-0.36009,-0.0888 -0.70752,-0.1997 -1.02963,-0.35481c-0.41686,-0.19469 -0.80207,-0.44464 -1.19362,-0.68353c-0.18788,-0.10759 -0.32674,-0.27517 -0.52096,-0.37171c-0.05516,-0.13433 -0.15935,-0.20866 -0.25882,-0.26563zM233.49805,189.78614c0.11675,0.15492 0.26516,0.25457 0.42621,0.33213c0.00472,0.01738 0.02049,0.04109 0.03155,0.04742c0.27159,0.14084 0.55581,0.25958 0.85591,0.29935c0.17532,0.02702 0.34431,0.06509 0.52445,0.00681c0.35443,-0.61891 0.70884,-1.23783 1.08225,-1.8899c-0.33487,-0.03032 -0.63176,-0.12695 -0.92232,-0.23465c-0.25741,-0.08871 -0.45945,-0.24843 -0.70421,-0.35924c-0.08842,-0.05063 -0.15945,-0.10598 -0.24787,-0.15662c-0.10098,-0.13121 -0.22566,-0.24664 -0.38511,-0.35262c-0.18987,0.33157 -0.27867,0.69164 -0.43377,1.01376c-0.15038,0.33949 -0.28972,0.68532 -0.43377,1.01377c0.05516,0.13433 0.13092,0.20706 0.20668,0.27979zM234.49388,187.40647c0.04572,0.09956 0.1278,0.16124 0.21622,0.21187c0.0631,0.09484 0.1689,0.14075 0.26203,0.20876c0.30313,0.18826 0.6379,0.32127 0.97428,0.42584c0.20214,0.05705 0.41695,0.09201 0.63497,0.07009c0.02531,-0.04421 0.06169,-0.08209 0.087,-0.12629c0.31012,-0.54154 0.61391,-1.07204 0.93508,-1.60726c0.34016,-0.56838 0.67399,-1.1257 1.01415,-1.69407c0.49205,-0.83362 0.98884,-1.64986 1.48088,-2.48348c0.56006,-0.92675 1.08065,-1.86146 1.66282,-2.77555c0.09966,-0.1484 0.18354,-0.3205 0.27848,-0.48629c-0.14689,-0.02541 -0.29538,-0.02238 -0.42961,-0.0699c-0.44378,-0.12204 -0.86064,-0.31673 -1.26484,-0.53352c-0.35367,-0.20253 -0.701,-0.41611 -1.04833,-0.62969c-0.13102,-0.10438 -0.25732,-0.19138 -0.38833,-0.29576c-0.05044,-0.11694 -0.16257,-0.1518 -0.23833,-0.22454c-0.08681,-0.07906 -0.14991,-0.17391 -0.26676,-0.22614c-0.0854,0.09787 -0.11392,0.19894 -0.14718,0.28263c-0.25184,0.72169 -0.59842,1.40379 -0.88341,2.10649c-0.18524,0.45162 -0.37048,0.90324 -0.54467,1.36119c-0.24541,0.60795 -0.47345,1.21119 -0.71254,1.80809c-0.19318,0.4911 -0.38635,0.98221 -0.59058,1.46699c-0.21217,0.52426 -0.42905,1.03115 -0.65226,1.54907c-0.1979,0.47372 -0.40213,0.9585 -0.5953,1.44961c0.09314,0.06801 0.12148,0.1723 0.21622,0.21187zM246.66606,174.71069c-0.3001,-0.03977 -0.55751,-0.12848 -0.82125,-0.20612c-0.27479,-0.08397 -0.54486,-0.15057 -0.81331,-0.2456c-0.25741,-0.08871 -0.51321,-0.20583 -0.76429,-0.30559c-0.26213,-0.10608 -0.52426,-0.21217 -0.79111,-0.33563c-0.24475,-0.1108 -0.49422,-0.23899 -0.73898,-0.34979c-0.24948,-0.12818 -0.47363,-0.30058 -0.74842,-0.38456c-0.19412,-0.19923 -0.46258,-0.29425 -0.68834,-0.43821c-0.23048,-0.16134 -0.48468,-0.30691 -0.71517,-0.46825c-0.21943,-0.15501 -0.44359,-0.32742 -0.65669,-0.49347c-0.22416,-0.1724 -0.41195,-0.38267 -0.65509,-0.5219c-0.174,0.25259 -0.2183,0.32995 -0.2438,0.57952c0.10098,0.13121 0.20194,0.26241 0.33769,0.38418c0.16889,0.14075 0.3378,0.2815 0.51142,0.43963c0.33146,0.29255 0.6582,0.56772 1.04502,0.78923c0.26525,0.1519 0.53683,0.29274 0.77676,0.48885c0.04894,0.0427 0.11524,0.08068 0.19421,0.09654c0.15161,0.04279 0.28896,0.13612 0.42158,0.21206c0.48628,0.27847 1.01054,0.49064 1.53008,0.68542c0.6806,0.27233 1.38339,0.45465 2.10517,0.60381c0.14056,0.03647 0.28112,0.07292 0.4265,0.02408c0.11704,-0.15312 0.20092,-0.32523 0.28801,-0.55421zM242.95421,170.8386c-0.1707,0.09305 -0.29717,0.2114 -0.43472,0.32343c-0.12488,0.08993 -0.21187,0.21622 -0.24361,0.37416c-0.07926,0.29216 -0.19798,0.57641 -0.36094,0.83532c-0.01266,0.02211 -0.0206,0.06158 -0.02692,0.07264c0.03628,0.06481 0.08048,0.09012 0.15472,0.0886c0.01738,-0.00472 0.04109,-0.0205 0.04742,-0.03155c0.2167,-0.30152 0.45549,-0.59038 0.7164,-0.86659c0.03637,-0.03788 0.0854,-0.09787 0.0886,-0.15473c0.05705,-0.20214 0.11411,-0.40429 0.05904,-0.64129zM241.33542,172.12771c0.20403,-0.27942 0.42385,-0.53512 0.64839,-0.77345c0.07273,-0.07576 0.10598,-0.15945 0.12346,-0.26685c0.02068,-0.16427 0.00661,-0.31909 -0.00113,-0.48497c0.00321,-0.05686 0.01275,-0.12478 -0.06622,-0.14065c-0.16286,0.15624 -0.33043,0.29509 -0.47117,0.46399c-0.07794,0.57177 -0.07794,0.57178 -0.37068,1.1086c0.01417,0.05214 0.05205,0.08852 0.13734,0.09333zM243.42763,174.77878c-0.15813,0.17362 -0.3052,0.35357 -0.45228,0.53351c-0.03637,0.03788 -0.07274,0.07576 -0.087,0.1263c-0.0239,0.22113 -0.05885,0.43594 -0.0085,0.65556c0.20858,-0.05667 0.33666,-0.20347 0.49158,-0.32022c0.07745,-0.05838 0.10438,-0.13102 0.11553,-0.22737c0.01285,-0.22746 0.0478,-0.44227 0.10013,-0.66179c0.00633,-0.01105 -0.00945,-0.03476 -0.01889,-0.06952c-0.03948,-0.00793 -0.09002,-0.0222 -0.14056,-0.03647zM245.18359,172.07124c-0.24494,0.09456 -0.40618,0.22236 -0.57848,0.34384c-0.06008,0.05366 -0.08068,0.11524 -0.10127,0.17683c-0.08559,0.30322 -0.20432,0.58745 -0.3736,0.85743c-0.01899,0.03316 -0.02692,0.07265 -0.04591,0.1058c0.11524,0.08068 0.14368,0.08228 0.19431,-0.00614c0.16456,-0.28736 0.37803,-0.53201 0.63412,-0.72291c0.15492,-0.11675 0.21981,-0.25571 0.24683,-0.43103c0.00009,-0.10267 0.00491,-0.18798 0.02399,-0.32381zM242.63322,172.88558c0.05526,0.03164 0.09164,-0.00623 0.11695,-0.05044c0.17721,-0.30946 0.43651,-0.55723 0.6958,-0.805c0.20555,-0.20517 0.30691,-0.48468 0.28037,-0.82276c-0.13433,0.05516 -0.20867,0.15936 -0.32089,0.22718c-0.23077,0.1467 -0.35102,0.35668 -0.43339,0.60304c-0.09503,0.26846 -0.179,0.54325 -0.34035,0.77374c-0.00793,0.03948 -0.00321,0.05686 0.00151,0.07424zM244.40363,171.63925c-0.14226,0.09465 -0.24816,0.15142 -0.34299,0.21453c-0.15964,0.09937 -0.24664,0.22566 -0.29104,0.40571c-0.05393,0.24797 -0.15841,0.48165 -0.27395,0.70902c-0.03325,0.08369 -0.08388,0.17211 -0.12818,0.24947c0.04894,0.0427 0.07897,0.01587 0.09163,-0.00624c0.23881,-0.28887 0.48866,-0.5714 0.77638,-0.81756c0.0427,-0.04894 0.07907,-0.08681 0.09966,-0.1484c0.03334,-0.18637 0.07775,-0.36642 0.06849,-0.60654zM244.1872,175.06698c-0.07604,0.23531 -0.22313,0.41525 -0.35915,0.60152c-0.03164,0.05526 -0.09012,0.08049 -0.09966,0.1484c-0.01748,0.10739 0.01388,0.36018 0.07849,0.52927c0.14065,-0.06622 0.23871,-0.18619 0.35253,-0.28244c0.09012,-0.08049 0.1297,-0.17523 0.12507,-0.29529c0.00019,-0.20536 0.02248,-0.39806 0.09059,-0.59388c0.00633,-0.01105 -0.00312,-0.04581 -0.00784,-0.0632c-0.03788,-0.03637 -0.08209,-0.06168 -0.18005,-0.04439zM239.98971,173.63191c-0.02229,0.19271 -0.14095,0.37426 -0.12375,0.57489c0.08369,0.03325 0.14849,-0.00302 0.21802,-0.02192c0.128,-0.04411 0.25438,-0.05979 0.37926,-0.14972c0.04761,-0.23691 0.19629,-0.44529 0.26129,-0.68692c-0.03628,-0.06481 -0.09153,-0.09644 -0.15945,-0.10598c-0.17391,0.14991 -0.36358,0.2761 -0.57537,0.38965zM242.05549,174.12511c-0.0854,0.09787 -0.17079,0.19573 -0.27035,0.24145c-0.24022,0.11194 -0.33675,0.30614 -0.35593,0.54466c-0.00481,0.08529 -0.04279,0.15161 -0.01445,0.25589c0.17381,-0.04723 0.3208,-0.12449 0.46777,-0.20176c0.04109,-0.0205 0.06641,-0.0647 0.087,-0.1263c0.05073,-0.1911 0.10617,-0.36481 0.15691,-0.5559c0.01899,-0.03316 0.0222,-0.09002 -0.07094,-0.15803zM241.35922,173.72637c-0.18344,0.21783 -0.37634,0.40089 -0.62128,0.49545c-0.05214,0.01417 -0.06641,0.0647 -0.09172,0.10891c-0.04591,0.10579 -0.08076,0.21792 -0.07141,0.35536c0.24333,-0.06613 0.43141,-0.16389 0.62581,-0.27271c0.06481,-0.03628 0.1075,-0.08521 0.13442,-0.15784c0.04752,-0.13423 0.10608,-0.26213 0.1536,-0.39636c0.00633,-0.01105 -0.00312,-0.04581 -0.00785,-0.06319c-0.03316,-0.01899 -0.06631,-0.03798 -0.12157,-0.06961zM245.71342,173.09378c0.01908,-0.13584 0.04449,-0.28272 0.06357,-0.41856c-0.00472,-0.01738 -0.00945,-0.03476 -0.01889,-0.06953c-0.17854,0.02985 -0.32079,0.12451 -0.43461,0.22076c-0.11884,0.38691 -0.225,0.75172 -0.44019,1.12749c0.256,-0.08823 0.27989,-0.30936 0.39532,-0.43404c0.13442,-0.15784 0.28462,-0.29198 0.43481,-0.42612zM242.95138,170.48474c-0.03457,-0.19591 -0.04704,-0.37917 -0.15746,-0.54514c-0.08852,0.05205 -0.17542,0.07566 -0.24654,0.12299c-0.07113,0.04732 -0.15331,0.08833 -0.19762,0.16568c-0.0238,0.11846 0.01559,0.22907 0.02654,0.33808c0.01095,0.10901 -0.00652,0.21641 0.05025,0.3223c0.17863,-0.13253 0.33987,-0.26034 0.52483,-0.40392zM240.61543,171.74476c0.23408,-0.30624 0.42546,-0.56356 0.61684,-0.82087c0.01266,-0.02211 0.0427,-0.04893 0.03325,-0.08369c-0.00774,-0.16587 0.01927,-0.34119 -0.08011,-0.50084c-0.13281,0.12941 -0.25929,0.24777 -0.37473,0.37246c-0.00189,0.33647 -0.08275,0.65708 -0.19525,1.03294zM242.13785,175.59586c0.14377,-0.0204 0.22917,-0.11827 0.324,-0.18136c0.11222,-0.06782 0.19129,-0.15463 0.2167,-0.30152c0.03967,-0.19742 0.07935,-0.39485 0.20272,-0.55902c-0.0647,-0.06641 -0.11524,-0.08068 -0.15322,-0.01436c-0.10598,0.15945 -0.2183,0.32995 -0.36689,0.43566c-0.20867,0.15936 -0.21518,0.37577 -0.22331,0.62062zM241.18295,174.72616c-0.25127,0.1056 -0.45511,0.17967 -0.64792,0.26005c-0.04431,0.07737 -0.03646,0.14056 -0.03967,0.19742c0.00784,0.0632 -0.00803,0.14217 0.05667,0.20856c0.17221,-0.01879 0.34601,-0.06603 0.5151,-0.13064c0.04912,-0.16267 0.08087,-0.3206 0.11582,-0.5354zM242.60799,176.26135c-0.00453,-0.22274 -0.01067,-0.41705 -0.01048,-0.62241c-0.15964,0.09937 -0.31295,0.1877 -0.46627,0.27602c-0.00491,0.18798 -0.0256,0.35225 0.05006,0.52767c0.15643,-0.0425 0.28603,-0.11506 0.42669,-0.18128zM243.6844,170.43487c-0.1706,-0.00963 -0.28603,0.11505 -0.41564,0.1876c-0.04109,0.0205 -0.06168,0.08209 -0.05856,0.1279c0.00302,0.14849 0.00132,0.2796 0.01067,0.41705c-0.00633,0.01105 0.01578,0.02371 0.03788,0.03637c0.16597,-0.11043 0.32722,-0.23823 0.49318,-0.34865c0.00803,-0.14217 -0.02976,-0.28121 -0.06754,-0.42026zM245.17915,171.74582c0.02541,-0.14689 0.0445,-0.28273 -0.03278,-0.42971c-0.14537,0.04884 -0.31286,0.08502 -0.44407,0.18599c-0.01115,0.09635 -0.0444,0.18005 -0.03817,0.27168c-0.00481,0.08529 -0.0665,0.16739 0.01398,0.2575c0.1707,-0.09305 0.34138,-0.18608 0.50103,-0.28546zM242.94909,176.38331c-0.01276,0.12478 0.05507,0.237 0.11657,0.36028c0.16436,-0.08199 0.33184,-0.11817 0.46466,-0.24758c-0.03778,-0.13905 -0.02342,-0.29226 -0.09437,-0.4503c-0.16597,0.11043 -0.32089,0.22717 -0.48687,0.33761zM244.97369,175.28256c-0.12497,0.19261 -0.21207,0.42159 -0.35915,0.60153c-0.11704,0.15312 -0.09031,0.28584 -0.00831,0.4502c0.14698,-0.07727 0.2387,-0.18619 0.34781,-0.29982c-0.04242,-0.25911 0.02258,-0.50073 0.01965,-0.75192zM240.08512,171.23561c0.05054,0.01426 0.06953,-0.0189 0.08851,-0.05205c0.09332,-0.13734 0.18193,-0.29207 0.28632,-0.4231c0.16446,-0.18467 0.11724,-0.35848 0.04318,-0.56233c-0.06641,0.0647 -0.12016,0.10731 -0.16286,0.15624c-0.10911,0.11363 -0.18977,0.22888 -0.15992,0.40741c0.01095,0.10901 -0.0239,0.22113 -0.05243,0.32221c-0.03637,0.03788 -0.09012,0.08049 -0.04279,0.15161zM239.32942,173.60603c0.08057,-0.01257 0.13905,-0.03778 0.19119,-0.05195c0.16115,-0.02512 0.25127,-0.1056 0.30512,-0.25088c0.04119,-0.12318 0.12185,-0.23843 0.17409,-0.35527c0.01899,-0.03316 0.04902,-0.05998 -0.02201,-0.11534c-0.14386,0.12308 -0.30984,0.23351 -0.49158,0.32022c-0.04109,0.0205 -0.07274,0.07576 -0.09805,0.11997c-0.02853,0.10107 -0.05073,0.1911 -0.05876,0.33326zM241.83916,175.73303c0.01908,-0.13584 0.05554,-0.2764 0.03514,-0.42017c-0.18014,0.05828 -0.35867,0.08813 -0.51831,0.18751c0.00302,0.14849 -0.02711,0.278 0.05648,0.41393c0.14537,-0.04884 0.29549,-0.08029 0.42669,-0.18127zM243.974,171.56936c0.18014,-0.05828 0.3224,-0.15294 0.44255,-0.26025c-0.00302,-0.14849 -0.00133,-0.2796 -0.04383,-0.43603c-0.12639,0.01568 -0.23228,0.07244 -0.33345,0.1466c-0.01596,0.18165 -0.04298,0.35697 -0.06527,0.54967zM240.56441,175.67814c0.02201,0.11534 0.02352,0.18959 0.05346,0.26544c0.01417,0.05214 0.03468,0.09324 0.05517,0.13433c0.14217,0.00803 0.28594,-0.01238 0.41554,-0.08492c0.00803,-0.14217 0.01606,-0.28433 -0.05016,-0.42498c-0.15643,0.0425 -0.30019,0.06291 -0.47401,0.11013zM239.5311,172.45935c-0.19752,0.063 -0.33656,0.1008 -0.49932,0.15435c-0.03637,0.03788 -0.06962,0.12157 -0.07444,0.20687c-0.01587,0.07897 -0.08228,0.14367 -0.04761,0.23691c0.11846,0.0238 0.21641,0.00652 0.31597,-0.03919c0.09021,-0.18316 0.18515,-0.34895 0.3054,-0.55894zM243.05151,169.82294c0.02361,0.08691 0.04723,0.17381 0.07084,0.26072c0.02361,0.08691 0.05356,0.16276 0.07718,0.24966c0.14698,-0.07727 0.27498,-0.12138 0.3667,-0.23029c0.00481,-0.08529 -0.04883,-0.14538 -0.08511,-0.21018c-0.03628,-0.06481 -0.05356,-0.16276 -0.13725,-0.196c-0.11062,0.03939 -0.20858,0.05667 -0.29236,0.12611zM241.88582,176.52292c-0.02512,-0.16115 -0.00443,-0.32542 -0.08643,-0.48979c-0.128,0.04411 -0.24494,0.09455 -0.37294,0.13867c0.02512,0.16115 0.03448,0.2986 0.13546,0.4298c0.10901,-0.01095 0.20535,0.00018 0.3239,-0.07869zM241.53908,170.54188c0.18024,-0.16096 0.33676,-0.30615 0.49328,-0.45134c-0.00624,-0.09163 -0.00141,-0.17692 -0.06612,-0.24333c-0.19119,0.05195 -0.33506,0.17504 -0.48997,0.29178c0.00624,0.09163 0.01247,0.18326 0.03608,0.27016c-0.01426,0.05054 0.00151,0.07425 0.02673,0.13272zM240.24767,174.82166c0.0033,-0.15955 0.07925,-0.29217 0.04146,-0.43122c-0.18486,0.0409 -0.35234,0.07707 -0.5167,0.15907c0.03306,0.12166 -0.03023,0.23219 0.04232,0.36178c0.14217,0.00803 0.26544,-0.05346 0.43292,-0.08964zM245.82792,172.27877c0.00963,-0.1706 0.02399,-0.32381 -0.03118,-0.45814c-0.11534,0.02201 -0.22596,0.0614 -0.32079,0.1245c-0.00963,0.1706 -0.03032,0.33487 -0.05261,0.52757c0.13593,-0.0836 0.25288,-0.13404 0.40458,-0.19392zM239.24544,173.88081c-0.03807,0.16899 -0.07453,0.30955 -0.01463,0.46125c0.12006,-0.00463 0.22275,-0.00454 0.31757,-0.06763c0.03174,-0.15794 0.07453,-0.30954 0.10788,-0.49593c-0.14377,0.0204 -0.27649,0.04713 -0.41082,0.1023zM244.71365,171.20039c0.15331,-0.08832 0.31285,-0.08502 0.40458,-0.19393c-0.00302,-0.14849 -0.05347,-0.26544 -0.12129,-0.37766c-0.13272,0.02673 -0.25911,0.04241 -0.36188,0.145c0.02673,0.13272 0.04241,0.25911 0.07859,0.42659zM242.78595,176.84759c-0.03306,-0.12166 -0.04401,-0.23067 -0.11817,-0.33184c-0.14698,0.07727 -0.31285,0.08502 -0.43934,0.20337c0.02201,0.11534 0.06301,0.19752 0.15615,0.26553c0.13905,-0.03778 0.27337,-0.09295 0.40137,-0.13707zM241.1446,170.05182c-0.01568,-0.12639 -0.04562,-0.20224 -0.104,-0.27971c-0.128,0.04411 -0.2576,0.11666 -0.33355,0.24928c0.02834,0.10429 0.05668,0.20857 0.07869,0.32392c0.15803,-0.07094 0.24503,-0.19723 0.35886,-0.29349zM245.15892,176.54806c-0.03467,-0.09324 -0.06462,-0.16909 -0.12459,-0.21811c-0.1296,0.07254 -0.2371,0.15775 -0.32883,0.26667c0.01729,0.09796 0.04723,0.17381 0.11194,0.24022c0.14065,-0.06622 0.22766,-0.19251 0.34148,-0.28877zM240.80074,176.34182c-0.00963,0.1706 0.07245,0.23228 0.17825,0.27819c0.07737,0.04431 0.16739,0.0665 0.25117,-0.00292c-0.01568,-0.12639 -0.03769,-0.24173 -0.10551,-0.35394c-0.11534,0.02201 -0.21962,0.05035 -0.32392,0.07869zM246.22654,173.4023c0.0238,-0.11846 0.07444,-0.20687 0.02871,-0.30644c-0.32863,0.0613 -0.39362,0.30293 -0.41601,0.59832c0.13121,-0.10098 0.25608,-0.19091 0.38729,-0.29188zM239.91847,175.49904c0.12478,0.01276 0.22274,-0.00453 0.34601,-0.06603c-0.04572,-0.09956 0.00652,-0.21641 -0.05658,-0.31125c-0.07265,-0.02692 -0.12006,0.00463 -0.18326,0.01247c-0.06953,0.01889 -0.13745,0.00934 -0.18175,0.08672c0.00624,0.09163 0.01247,0.18326 0.07557,0.2781zM242.91273,172.98694c0.0836,0.13593 0.16256,0.1518 0.23058,0.05866c0.09332,-0.13734 0.16455,-0.28735 0.22945,-0.42631c0.02531,-0.04421 0.04591,-0.10579 -0.00774,-0.16587c-0.16918,0.16729 -0.31626,0.34724 -0.45229,0.53352zM243.40326,177.23043c-0.01587,0.07897 0.00935,0.13745 0.06934,0.18647c0.16748,-0.03618 0.35074,-0.04865 0.50566,-0.16541c-0.09465,-0.14226 -0.20677,-0.17711 -0.34743,-0.11089c-0.06953,0.01889 -0.15482,0.01406 -0.22755,0.08983zM244.45699,173.7245c0.15472,0.0886 0.20054,0.08548 0.25751,-0.01398c0.07756,-0.16106 0.16144,-0.33317 0.19478,-0.51954c-0.20234,0.1483 -0.38729,0.29188 -0.45228,0.53352zM245.4645,175.78376c-0.06169,0.08209 -0.10598,0.15945 -0.16134,0.23049c-0.09966,0.1484 -0.09966,0.1484 0.06763,0.31758c0.06641,-0.0647 0.15019,-0.13414 0.18656,-0.17201c-0.03778,-0.13905 -0.0598,-0.25438 -0.09285,-0.37605zM244.70364,170.06458c-0.09796,0.01729 -0.21008,-0.01757 -0.27971,0.104c0.03467,0.09324 0.08672,0.18175 0.12611,0.29236c0.11534,-0.02201 0.23539,-0.02665 0.31918,-0.09607c-0.04572,-0.09956 -0.07406,-0.20384 -0.1656,-0.30029zM244.29035,176.27081c-0.13753,0.11203 -0.28612,0.21773 -0.42366,0.32977c-0.00954,0.06792 -0.0017,0.13112 0.07727,0.14699c0.15643,-0.0425 0.30341,-0.11978 0.41885,-0.24447c-0.00624,-0.09163 -0.02513,-0.16115 -0.07246,-0.23229zM246.06813,172.16683c0.08369,0.03325 0.16427,0.02068 0.24645,-0.02031c0.00321,-0.05686 0.00642,-0.11373 0.00964,-0.17059c-0.00151,-0.07425 0.00802,-0.14217 -0.04563,-0.20224c-0.06632,-0.03797 -0.13422,-0.04751 -0.21008,-0.01757c-0.0017,0.13111 0.00132,0.27961 -0.00038,0.41071zM244.01747,170.69899c0.11534,-0.02201 0.20384,-0.07406 0.28764,-0.14349c-0.05044,-0.11694 -0.08984,-0.22755 -0.13555,-0.32712c-0.10739,-0.01748 -0.18958,0.02353 -0.23861,0.08351c0.02673,0.13272 0.05346,0.26544 0.08652,0.3871zM246.31401,172.76261c0.00481,-0.08529 0.00964,-0.1706 0.0034,-0.26223c-0.00472,-0.01738 -0.02683,-0.03004 -0.04261,-0.05374c-0.0632,0.00784 -0.14217,-0.00803 -0.22595,0.0614c-0.01748,0.10739 -0.05866,0.23058 -0.03193,0.3633c0.12006,-0.00463 0.20224,-0.04562 0.29708,-0.10872zM246.35548,174.04851c0.08068,-0.11524 0.21491,-0.06773 0.27819,-0.17824c0.00643,-0.11374 0.05233,-0.21952 0.01455,-0.35858c-0.10901,0.01095 -0.20696,0.02825 -0.23078,0.1467c-0.0238,0.11846 -0.09182,0.21159 -0.06196,0.39012zM244.31008,177.13333c0.08852,-0.05205 0.18808,-0.09777 0.27026,-0.13876c0.01738,-0.00472 0.01899,-0.03316 0.03164,-0.05526c-0.0426,-0.05375 -0.06622,-0.14065 -0.18467,-0.16446c-0.1059,0.05678 -0.21811,0.12459 -0.34138,0.18609c0.05205,0.08852 0.11203,0.13754 0.22416,0.1724zM244.01501,169.9344c-0.02834,-0.10429 -0.05035,-0.21962 -0.07396,-0.30653c-0.11846,-0.0238 -0.21642,-0.00652 -0.30332,0.01709c-0.03325,0.08369 0.03779,0.13905 0.063,0.19752c0.02522,0.05847 0.04411,0.12799 0.12781,0.16124c0.05686,0.00321 0.12006,-0.00462 0.18646,-0.06933zM239.21002,174.60901c0.01095,0.10901 0.02352,0.18959 0.03608,0.27016c-0.0016,0.02843 0.02523,0.05847 0.02994,0.07585c0.07737,0.04431 0.15794,0.03175 0.24012,-0.00926c-0.00463,-0.12006 0.00179,-0.2338 -0.03127,-0.35546c-0.08529,-0.00481 -0.16587,0.00774 -0.27488,0.0187zM245.76923,175.9436c0.12649,-0.11836 0.25296,-0.23672 0.30842,-0.41044c-0.11846,-0.0238 -0.2132,-0.06339 -0.31909,-0.00661c-0.05233,0.21953 -0.05233,0.21952 0.01067,0.41705zM240.01776,175.76136c0.06763,0.31758 0.07868,0.32391 0.34091,0.32731c-0.02201,-0.11534 -0.06141,-0.22595 -0.08341,-0.34129c-0.08369,-0.03325 -0.16427,-0.02068 -0.2575,0.01398zM245.76859,171.51099c-0.00463,-0.12006 -0.02192,-0.21802 -0.08501,-0.31285c-0.02843,-0.0016 -0.07425,0.00151 -0.12006,0.00463c-0.03476,0.00944 -0.07585,0.02994 -0.11061,0.03939c0.00463,0.12006 -0.00813,0.24485 0.04865,0.35074c0.08529,0.00481 0.17854,-0.02985 0.26704,-0.0819zM238.84436,173.70983c0.04581,-0.00312 0.10901,-0.01095 0.13905,-0.03778c0.10277,-0.10259 0.14396,-0.22576 0.13621,-0.39164c-0.09163,0.00624 -0.1927,-0.02229 -0.26384,0.02503c-0.01908,0.13584 -0.07764,0.26373 -0.01143,0.40439zM241.86696,169.5849c-0.00472,-0.01738 -0.00944,-0.03476 -0.01889,-0.06953c-0.19431,0.00614 -0.37445,0.06442 -0.55459,0.1227c-0.01115,0.09635 0.01407,0.15482 0.09616,0.21651c0.15331,-0.08832 0.31768,-0.17032 0.47732,-0.26969zM244.08018,172.92167c-0.16124,0.12781 -0.32722,0.23823 -0.42376,0.43244c-0.00633,0.01105 0.02522,0.05847 0.04732,0.07113c0.05526,0.03164 0.12479,0.01275 0.15643,-0.04251c0.11543,-0.12469 0.17561,-0.28102 0.22001,-0.46107zM245.6254,170.91531c-0.01729,-0.09796 -0.03457,-0.19591 -0.08662,-0.28442c-0.07737,-0.04431 -0.14528,-0.05385 -0.24485,-0.00812c0.03939,0.11062 0.07245,0.23228 0.11817,0.33184c0.07897,0.01587 0.14217,0.00804 0.21329,-0.03929zM241.59639,176.90019c0.1484,0.09966 0.27469,0.18666 0.45162,0.18524c0.0238,-0.11846 -0.02825,-0.20696 -0.09768,-0.29075c-0.12639,0.01568 -0.23539,0.02664 -0.35395,0.10551zM238.79506,172.36073c0.13745,-0.00935 0.15482,-0.01407 0.17381,-0.04723c0.07434,-0.10419 0.07605,-0.23531 0.07141,-0.35536c-0.00312,-0.04581 -0.05205,-0.08851 -0.12318,-0.04119c0.00935,0.13745 -0.11713,0.2558 -0.12205,0.44378zM242.26474,169.91542c0.16436,-0.08199 0.33345,-0.1466 0.4521,-0.32815c-0.19903,-0.01124 -0.35234,0.07707 -0.493,0.14329c-0.0206,0.06158 -0.00009,0.10267 0.0409,0.18486zM239.54119,175.2096c-0.07425,0.00151 -0.14217,-0.00803 -0.21642,-0.00652c-0.0017,0.13111 0.02031,0.24645 0.16087,0.28291c0.03948,0.00793 0.07897,0.01588 0.11534,-0.02201c0.01587,-0.07897 -0.01406,-0.15483 -0.05979,-0.25439zM245.26077,174.03802c0.09947,0.05697 0.15633,0.06017 0.19591,-0.03457c0.03325,-0.08369 0.0665,-0.16739 0.0887,-0.25741c0.00793,-0.03948 0.00481,-0.0853 -0.04572,-0.09956c-0.10911,0.11363 -0.17873,0.23521 -0.2389,0.39154zM241.18759,171.41197c-0.12649,0.11836 -0.23086,0.24938 -0.27998,0.41204c-0.00633,0.01105 0.02522,0.05847 0.03627,0.0648c0.02211,0.01266 0.06319,-0.00784 0.07585,-0.02994c0.07123,-0.15 0.16927,-0.26997 0.16786,-0.44689zM240.44191,171.48395c0.03014,-0.1295 0.09976,-0.25108 0.10306,-0.41062c-0.13753,0.11203 -0.22927,0.22095 -0.23409,0.30624c-0.01587,0.07897 0.02834,0.10429 0.13102,0.10438zM242.74439,177.38148c0.15161,0.04279 0.30634,0.1314 0.45965,0.04307c-0.1483,-0.20234 -0.30162,-0.11401 -0.45965,-0.04307zM243.74153,175.28142c0.02211,0.01266 0.03948,0.00793 0.06158,0.02059c0.05224,-0.11685 0.15341,-0.191 0.1551,-0.32211c-0.05998,-0.04902 -0.09947,-0.05697 -0.16427,-0.02068c-0.01115,0.09635 -0.02863,0.20376 -0.05242,0.32221zM242.56587,172.25996c-0.12176,0.13574 -0.21348,0.24466 -0.27838,0.38362c-0.01266,0.02211 -0.00321,0.05686 0.02994,0.07585c0.01105,0.00633 0.03948,0.00793 0.05686,0.00321c0.12649,-0.11836 0.20243,-0.25098 0.19157,-0.46268zM238.95631,173.95006c-0.07897,-0.01587 -0.12479,-0.01275 -0.12167,0.03306c-0.01115,0.09635 -0.01124,0.19903 -0.01134,0.3017c0.00784,0.0632 0.041,0.08219 0.09947,0.05697c0.03647,-0.14056 0.06027,-0.25901 0.03354,-0.39174zM245.17255,170.34778c0.0632,-0.00784 0.12006,-0.00463 0.18326,-0.01246c0.01738,-0.00472 0.03004,-0.02682 0.06008,-0.05366c-0.13262,-0.07595 -0.23521,-0.17872 -0.4042,-0.21679c0.03939,0.11062 0.06934,0.18646 0.16087,0.28291zM240.96134,173.49854c-0.05224,0.11685 -0.09814,0.22264 -0.16304,0.36159c0.17381,-0.04723 0.26392,-0.12771 0.31616,-0.24456c-0.03628,-0.06481 -0.0631,-0.09484 -0.15312,-0.11704zM244.58989,175.20953c-0.00009,0.10267 -0.09182,0.2116 -0.00822,0.34752c0.18505,-0.24626 0.21669,-0.30152 0.17409,-0.35527c-0.05526,-0.03164 -0.10107,-0.02853 -0.16587,0.00774zM241.8901,171.90232c-0.22755,0.08983 -0.3035,0.22245 -0.35423,0.41355c0.23067,-0.04401 0.23086,-0.24938 0.35423,-0.41355zM246.14558,173.82558c-0.21018,0.08511 -0.27979,0.20668 -0.33364,0.35196c-0.00633,0.01105 0.00944,0.03476 0.03155,0.04742c0.03316,0.01899 0.06792,0.00954 0.08057,-0.01257c0.07434,-0.10419 0.12657,-0.22104 0.22151,-0.38682zM245.21532,175.34754c-0.0238,0.11846 -0.07604,0.23531 -0.00983,0.37596c0.09644,-0.09153 0.14236,-0.19733 0.18193,-0.29207c-0.04732,-0.07113 -0.09786,-0.0854 -0.17211,-0.08388zM246.66106,173.28423c-0.0204,-0.14377 0.04921,-0.26534 -0.03598,-0.37284c-0.12176,0.13574 -0.12177,0.13574 -0.08879,0.36009c0.02843,0.0016 0.05686,0.00321 0.12478,0.01275zM243.19184,176.93326c0.17372,0.05545 0.30803,0.00028 0.43764,-0.07227c0.00481,-0.08529 -0.03939,-0.11062 -0.09153,-0.09644c-0.1059,0.05678 -0.22283,0.10721 -0.3461,0.16871zM246.01665,171.46225c0.07265,0.02692 0.13423,0.04752 0.20536,0.00019c-0.01257,-0.08057 -0.02512,-0.16115 -0.0851,-0.21018c-0.06158,-0.0206 -0.10741,-0.01748 -0.15483,0.01408c-0.00954,0.06792 0.00462,0.12006 0.03457,0.19591zM242.35361,174.60402c0.08379,-0.06943 0.14387,-0.12309 0.15974,-0.20205c0.0016,-0.02843 -0.01417,-0.05214 -0.02994,-0.07585c-0.03316,-0.01899 -0.09003,-0.0222 -0.09795,0.01728c-0.03797,0.06632 -0.08228,0.14368 -0.03183,0.26062zM244.49696,169.78479c-0.08049,-0.09012 -0.20054,-0.08549 -0.30162,-0.11401c0.05035,0.21962 0.07246,0.23229 0.30162,0.11401zM239.82932,171.11847c0.13914,-0.14046 0.13914,-0.14047 0.07764,-0.26374c-0.06008,0.05366 -0.12649,0.11835 -0.07764,0.26374zM243.19866,174.69168c-0.02522,-0.05847 -0.05838,-0.07745 -0.08209,-0.06169c-0.1059,0.05678 -0.11382,0.09626 -0.07132,0.25269c0.07745,-0.05838 0.11544,-0.12469 0.15341,-0.19101zM246.55914,174.17981c-0.08691,0.02361 -0.16276,0.05356 -0.18496,0.14359c0.19582,0.0681 0.21953,0.05233 0.18496,-0.14359zM239.81874,170.59874c-0.11062,0.03939 -0.1723,0.12148 -0.22766,0.19251c-0.02531,0.04421 -0.01115,0.09635 0.08048,0.09012c0.05536,-0.07104 0.11704,-0.15312 0.14718,-0.28264zM246.61128,172.44852c-0.0854,0.09787 -0.08388,0.17211 -0.00812,0.24484c0,0 0.02844,0.00161 0.03476,-0.00944c0.04902,-0.05998 0.00803,-0.14217 -0.02664,-0.2354zM241.66376,174.09156c0.07897,0.01587 0.12639,-0.01568 0.14065,-0.06622c0.01266,-0.02211 0.00321,-0.05686 -0.01257,-0.08057c-0.01578,-0.02371 -0.06159,-0.0206 -0.07425,0.00151c-0.03004,0.02683 -0.05535,0.07103 -0.05384,0.14528zM245.84662,170.83653c-0.00009,0.10267 0.02513,0.16115 0.13886,0.16758c-0.00463,-0.12006 -0.03618,-0.16748 -0.13886,-0.16758z" fill="#000000"/><path d="M239.30333,177.90592c0.34733,0.21358 0.69466,0.42716 1.04833,0.62969c0.39787,0.22785 0.82106,0.41148 1.26484,0.53352c0.14056,0.03647 0.27168,0.03817 0.42961,0.06991c-0.10126,0.17683 -0.17881,0.33789 -0.27847,0.48629c-0.57584,0.90305 -1.10276,1.8488 -1.66282,2.77555c-0.50311,0.82729 -0.98883,1.64986 -1.48089,2.48348c-0.34016,0.56838 -0.67399,1.1257 -1.01415,1.69407c-0.32118,0.53522 -0.61392,1.07203 -0.93508,1.60726c-0.02531,0.04421 -0.05063,0.08842 -0.087,0.1263c-0.22435,0.03297 -0.42178,-0.00671 -0.63497,-0.0701c-0.33637,-0.10457 -0.67115,-0.23757 -0.97427,-0.42584c-0.09947,-0.05697 -0.20527,-0.10287 -0.26204,-0.20876c0.11213,0.03486 0.20366,0.1313 0.35687,0.14566c0.0239,-0.22113 0.16465,-0.39003 0.25486,-0.5732c0.00633,-0.01105 0.01265,-0.02211 0.0016,-0.02843c0.08247,-0.34903 0.26601,-0.66954 0.38796,-1.01064c0.04119,-0.12318 0.04921,-0.26534 0.13461,-0.3632c0.14869,-0.20838 0.16946,-0.47533 0.31814,-0.6837c0.00633,-0.01105 0.00793,-0.03948 0.0206,-0.06159c0.08709,-0.22897 0.15681,-0.45322 0.266,-0.66955c0.13924,-0.24314 0.1774,-0.51482 0.33875,-0.7453c0.01596,-0.18165 0.12035,-0.31266 0.1979,-0.47372c0.01266,-0.02211 0.01899,-0.03316 0.03164,-0.05526c0.03817,-0.27168 0.21528,-0.47844 0.29765,-0.7248c0.08237,-0.24636 0.23739,-0.4658 0.33081,-0.70581c0.11241,-0.27318 0.18534,-0.5543 0.37039,-0.80056c0.01266,-0.02211 0.03164,-0.05526 0.03326,-0.08369c0.0033,-0.15955 0.11241,-0.27318 0.1773,-0.41214c0.03797,-0.06632 0.09332,-0.13735 0.1092,-0.21632c0.01276,-0.12478 0.07444,-0.20687 0.1314,-0.30634c0.03164,-0.05526 0.07434,-0.10419 0.07755,-0.16106c0.01596,-0.18165 0.12668,-0.32372 0.20895,-0.4674c0.03164,-0.05526 0.07434,-0.10419 0.07756,-0.16105c0.01436,-0.15321 0.09503,-0.26846 0.16465,-0.39003c0.11392,-0.19893 0.15048,-0.44217 0.27545,-0.63478c0.03004,-0.02683 0.01587,-0.07897 0.0238,-0.11846z" fill="#585858"/><path d="M239.30333,177.90592c-0.00793,0.03948 0.00624,0.09163 -0.01276,0.12478c-0.12497,0.19261 -0.17258,0.42952 -0.27545,0.63478c-0.06961,0.12158 -0.15029,0.23682 -0.16465,0.39003c-0.00321,0.05686 -0.04591,0.1058 -0.07756,0.16105c-0.08228,0.14368 -0.18193,0.29207 -0.20895,0.4674c-0.00321,0.05686 -0.05696,0.09947 -0.07756,0.16105c-0.05697,0.09947 -0.10759,0.18789 -0.1314,0.30634c-0.01587,0.07897 -0.07123,0.15 -0.1092,0.21632c-0.06489,0.13896 -0.17401,0.25259 -0.17731,0.41214c-0.0016,0.02843 -0.02059,0.06158 -0.03325,0.08369c-0.17872,0.23521 -0.25798,0.52738 -0.37039,0.80056c-0.09975,0.25108 -0.25477,0.47051 -0.33081,0.70581c-0.08237,0.24636 -0.25948,0.45313 -0.29764,0.72481c0.00472,0.01738 -0.01898,0.03315 -0.03164,0.05526c-0.08228,0.14368 -0.18194,0.29207 -0.1979,0.47372c-0.1724,0.22416 -0.21057,0.49582 -0.33875,0.7453c-0.12025,0.20999 -0.17891,0.44057 -0.26601,0.66955c-0.01266,0.02211 -0.00793,0.03948 -0.02059,0.06159c-0.14869,0.20838 -0.16947,0.47533 -0.31815,0.68371c-0.08068,0.11524 -0.08237,0.24635 -0.1346,0.3632c-0.13301,0.33477 -0.3055,0.66161 -0.38796,1.01065c-0.00633,0.01105 -0.00161,0.02844 -0.00161,0.02844c-0.09021,0.18316 -0.23096,0.35205 -0.25486,0.57319c-0.14217,-0.00803 -0.22737,-0.11553 -0.35688,-0.14566c-0.08842,-0.05063 -0.17683,-0.10126 -0.21622,-0.21187c0.03797,-0.06632 0.09332,-0.13735 0.1092,-0.21632c0.05554,-0.27639 0.1995,-0.50215 0.3103,-0.7469c0.1108,-0.24475 0.16635,-0.52115 0.33875,-0.7453c0.01596,-0.18165 0.12034,-0.31267 0.1979,-0.47372c0.01266,-0.02211 0.03164,-0.05526 0.03325,-0.08369c0.0017,-0.13111 0.08709,-0.22897 0.13301,-0.33477c0.03164,-0.05526 0.06329,-0.11052 0.07755,-0.16106c0.08397,-0.27479 0.18534,-0.5543 0.3309,-0.8085c0.01899,-0.03316 0.05535,-0.07103 0.04591,-0.10579c0.00803,-0.14217 0.08237,-0.24635 0.14566,-0.35687c0.08068,-0.11524 0.0666,-0.27007 0.15359,-0.39636c0.11231,-0.17051 0.15199,-0.36793 0.23115,-0.55742c0.11713,-0.25581 0.18373,-0.52587 0.32929,-0.78007c0.02531,-0.04421 0.06801,-0.09314 0.06489,-0.13895c0.00643,-0.11374 0.07444,-0.20687 0.12035,-0.31267c0.05063,-0.08842 0.0902,-0.18316 0.11241,-0.27318c0.03807,-0.16899 0.09825,-0.32532 0.18685,-0.48005c0.12185,-0.23843 0.1774,-0.51482 0.34979,-0.73898c0.01266,-0.02211 0.02059,-0.06158 0.03325,-0.08369c0.09975,-0.25108 0.18846,-0.50849 0.31031,-0.74691c0.13924,-0.24314 0.19006,-0.53692 0.3514,-0.76741c0.01899,-0.03316 0.01587,-0.07897 0.0238,-0.11845c0.06017,-0.15633 0.13772,-0.31739 0.25316,-0.44207c0.06158,0.0206 0.10579,0.04591 0.15633,0.06017c0.13574,0.12176 0.2557,0.21981 0.39305,0.31314z" fill="#959595"/><path d="M246.66606,174.71069c-0.08709,0.22897 -0.17097,0.40108 -0.31012,0.54154c-0.13905,0.03778 -0.27961,0.00132 -0.4265,-0.02409c-0.71545,-0.16021 -1.42457,-0.33147 -2.10517,-0.6038c-0.51321,-0.20583 -1.03747,-0.418 -1.53008,-0.68542c-0.13262,-0.07595 -0.26997,-0.16927 -0.42158,-0.21207c-0.06158,-0.0206 -0.1279,-0.05857 -0.19421,-0.09654c-0.23993,-0.19611 -0.51784,-0.32589 -0.77676,-0.48883c-0.36944,-0.22624 -0.71356,-0.49669 -1.04502,-0.78924c-0.16256,-0.1518 -0.33146,-0.29255 -0.51141,-0.43962c-0.14207,-0.1107 -0.23672,-0.25297 -0.3377,-0.38418c0.03655,-0.24324 0.06981,-0.32693 0.24381,-0.57952c0.23681,0.15029 0.43094,0.34951 0.65509,0.5219c0.2131,0.16606 0.43726,0.33846 0.6567,0.49347c0.23048,0.16134 0.47835,0.31796 0.71517,0.46825c0.21943,0.15501 0.4879,0.25003 0.68834,0.43821c0.27479,0.08397 0.49894,0.25637 0.74842,0.38455c0.23843,0.12185 0.49422,0.23899 0.73897,0.34979c0.25581,0.11713 0.51793,0.22322 0.79111,0.33563c0.25108,0.09975 0.50688,0.21688 0.76429,0.30558c0.26846,0.09503 0.53853,0.16163 0.81331,0.2456c0.28584,0.09031 0.54325,0.17901 0.84335,0.21878z" fill="#585858"/><path d="M238.915,177.61016c-0.05054,-0.01426 -0.09475,-0.03958 -0.15633,-0.06017c-0.11543,0.12469 -0.19771,0.26836 -0.25316,0.44207c-0.00793,0.03948 -0.00481,0.0853 -0.0238,0.11846c-0.16134,0.23048 -0.22322,0.51793 -0.3514,0.7674c-0.13291,0.23209 -0.21056,0.49582 -0.3103,0.7469c-0.01266,0.02211 -0.02059,0.06158 -0.03325,0.08369c-0.1724,0.22416 -0.21056,0.49583 -0.34979,0.73898c-0.08228,0.14368 -0.14878,0.31106 -0.18685,0.48005c-0.02853,0.10107 -0.0681,0.19582 -0.11241,0.27318c-0.05697,0.09947 -0.11865,0.18155 -0.12035,0.31266c0.00312,0.04581 -0.03958,0.09475 -0.06489,0.13895c-0.13924,0.24314 -0.21216,0.52426 -0.3293,0.78006c-0.07916,0.1895 -0.11884,0.38692 -0.23115,0.55742c-0.08068,0.11524 -0.0666,0.27006 -0.15359,0.39636c-0.07434,0.10419 -0.15502,0.21943 -0.14566,0.35687c-0.00793,0.03948 -0.02692,0.07264 -0.04591,0.10579c-0.14556,0.2542 -0.2406,0.52265 -0.3309,0.80849c-0.0206,0.06158 -0.06329,0.11053 -0.07756,0.16106c-0.05697,0.09947 -0.1313,0.20365 -0.133,0.33477c-0.0016,0.02843 -0.02059,0.06159 -0.03326,0.0837c-0.08228,0.14368 -0.18193,0.29207 -0.1979,0.47372c-0.1724,0.22416 -0.22793,0.50055 -0.33874,0.7453c-0.1108,0.24475 -0.2611,0.48156 -0.31031,0.7469c-0.01587,0.07897 -0.07122,0.15 -0.10919,0.21632c-0.10579,-0.04591 -0.13414,-0.15019 -0.20517,-0.20555c0.21056,-0.49582 0.3974,-0.97588 0.5953,-1.4496c0.21217,-0.52426 0.42905,-1.03114 0.65226,-1.54907c0.20423,-0.48478 0.39741,-0.97589 0.59058,-1.46699c0.24541,-0.60795 0.47345,-1.21118 0.71254,-1.80809c0.18524,-0.45162 0.37048,-0.90324 0.54467,-1.36118c0.285,-0.7027 0.62053,-1.39114 0.88341,-2.1065c0.03958,-0.09475 0.05705,-0.20216 0.14718,-0.28263c0.09947,0.05697 0.17995,0.14708 0.26676,0.22614c0.0426,0.05375 0.15472,0.0886 0.2115,0.1945z" fill="#585858"/><path d="M234.77923,188.01017c0.24475,0.1108 0.45313,0.25949 0.70421,0.35924c0.29056,0.10769 0.58745,0.20433 0.92232,0.23465c-0.36708,0.64101 -0.72783,1.27098 -1.08225,1.88989c-0.19119,0.05195 -0.36018,0.01388 -0.52445,-0.00681c-0.31116,-0.0461 -0.57801,-0.16956 -0.85592,-0.29935c-0.01105,-0.00633 -0.02683,-0.03004 -0.03155,-0.04742c0.13745,-0.00935 0.15491,-0.11675 0.18345,-0.21783c0.07132,-0.25269 0.15369,-0.49904 0.29132,-0.71375c0.02531,-0.04421 0.05063,-0.08842 0.06489,-0.13896c0.05393,-0.24797 0.19157,-0.46267 0.27867,-0.69165c0.04752,-0.13423 0.07604,-0.23531 0.04931,-0.36802z" fill="#585858"/><path d="M239.59097,176.04531c0.34884,0.28782 0.74199,0.49829 1.10983,0.75296c0.17051,0.11231 0.35999,0.19148 0.54948,0.27063c0.34422,0.16776 0.67417,0.38607 1.04371,0.50963c0.14528,0.05385 0.29056,0.10768 0.43112,0.14415c0.09002,0.0222 0.17371,0.05545 0.25108,0.09976c-0.00793,0.03948 -0.00954,0.06791 -0.0222,0.09002c-0.05063,0.08842 -0.10126,0.17683 -0.15189,0.26525c-0.07425,0.00151 -0.13112,-0.0017 -0.19903,-0.01124c-0.47382,-0.09522 -0.95869,-0.19676 -1.38972,-0.4436c-0.3821,-0.20413 -0.77525,-0.41459 -1.13202,-0.66293c-0.28574,-0.19299 -0.57782,-0.37492 -0.80188,-0.64999c0.06792,0.00954 0.11525,0.08068 0.19742,0.03967c0.09172,-0.10891 0.20715,-0.2336 0.11411,-0.40429z" fill="#1c1c1c"/><path d="M239.43218,176.93768c0.20054,0.08548 0.3394,0.25307 0.52095,0.37171c0.39154,0.2389 0.78308,0.47779 1.19362,0.68353c0.33317,0.16144 0.6806,0.27233 1.02963,0.3548c0.09002,0.0222 0.18004,0.04439 0.27006,0.0666c-0.0886,0.15472 -0.16455,0.28736 -0.24683,0.43103c-0.20858,0.05667 -0.406,0.017 -0.60182,-0.05111c-0.23531,-0.07604 -0.48166,-0.15841 -0.70903,-0.27395c-0.52266,-0.2406 -0.99629,-0.54117 -1.4873,-0.83703c-0.08842,-0.05063 -0.17683,-0.10126 -0.22255,-0.20083c0.03164,-0.05526 0.07434,-0.10419 0.07756,-0.16106c0.01908,-0.13584 0.10609,-0.26213 0.1757,-0.3837z" fill="#1c1c1c"/><path d="M242.95421,170.8386c0.04401,0.23067 -0.00199,0.43915 -0.05904,0.64129c-0.01426,0.05054 -0.05224,0.11685 -0.0886,0.15473c-0.27195,0.26987 -0.4997,0.56507 -0.7164,0.86659c-0.00633,0.01105 -0.03004,0.02683 -0.04742,0.03155c-0.0632,0.00784 -0.11845,-0.0238 -0.15472,-0.0886c0.01266,-0.02211 0.01426,-0.05053 0.02692,-0.07264c0.16295,-0.25892 0.29274,-0.53683 0.36094,-0.83532c0.04279,-0.15161 0.11241,-0.27319 0.24361,-0.37416c0.14859,-0.1057 0.26402,-0.23039 0.43472,-0.32343z" fill="#a9a9a9"/><path d="M241.33542,172.12771c-0.08529,-0.00481 -0.12318,-0.04119 -0.13734,-0.09333c0.28169,-0.54315 0.28169,-0.54315 0.37068,-1.1086c0.12969,-0.17523 0.31466,-0.31881 0.47117,-0.46399c0.09002,0.0222 0.0631,0.09484 0.06622,0.14065c0.00774,0.16587 0.02182,0.32069 0.00113,0.48497c-0.01748,0.10739 -0.05073,0.1911 -0.12346,0.26685c-0.22454,0.23833 -0.44435,0.49403 -0.64839,0.77345z" fill="#a9a9a9"/><path d="M243.42763,174.77878c0.05054,0.01426 0.09002,0.0222 0.14056,0.03647c0.00944,0.03476 0.01417,0.05214 0.01889,0.06952c-0.06339,0.2132 -0.08729,0.43433 -0.10013,0.66179c-0.01115,0.09635 -0.03807,0.16899 -0.11553,0.22737c-0.14386,0.12308 -0.27195,0.26987 -0.49158,0.32022c-0.05035,-0.21962 -0.02645,-0.44076 0.0085,-0.65556c0.00793,-0.03948 0.05063,-0.08842 0.087,-0.1263c0.14707,-0.17995 0.29415,-0.3599 0.45228,-0.53351z" fill="#a9a9a9"/><path d="M245.18359,172.07124c-0.01908,0.13584 -0.0239,0.22113 -0.03505,0.31749c-0.02702,0.17532 -0.09191,0.31428 -0.24683,0.43103c-0.25136,0.20829 -0.47589,0.44662 -0.63412,0.72291c-0.05063,0.08842 -0.06801,0.09314 -0.19431,0.00614c0.01899,-0.03316 0.02692,-0.07264 0.04591,-0.10579c0.16928,-0.26997 0.28802,-0.55421 0.3736,-0.85743c0.02692,-0.07265 0.04751,-0.13422 0.10126,-0.17683c0.18334,-0.11515 0.34459,-0.24295 0.58953,-0.33751z" fill="#a9a9a9"/><path d="M242.63322,172.88558c-0.00472,-0.01738 -0.00311,-0.04582 0.00321,-0.05686c0.16767,-0.24154 0.2627,-0.51 0.34035,-0.77373c0.08237,-0.24636 0.20262,-0.45634 0.43339,-0.60304c0.11222,-0.06782 0.19289,-0.18307 0.32089,-0.22718c0.04392,0.33336 -0.06377,0.62392 -0.28037,0.82276c-0.2593,0.24778 -0.52332,0.47817 -0.6958,0.805c-0.03004,0.02683 -0.05534,0.07103 -0.12166,0.03306z" fill="#a9a9a9"/><path d="M244.40363,171.63925c0.00926,0.24012 -0.03514,0.42016 -0.08587,0.61126c-0.0206,0.06158 -0.05224,0.11685 -0.09966,0.1484c-0.27668,0.25249 -0.53758,0.5287 -0.77638,0.81756c-0.01266,0.02211 -0.04269,0.04894 -0.09163,0.00624c0.04431,-0.07737 0.09493,-0.16578 0.12819,-0.24947c0.11553,-0.22737 0.22001,-0.46107 0.27394,-0.70904c0.0444,-0.18004 0.13772,-0.31739 0.29104,-0.40571c0.11222,-0.06782 0.21811,-0.12459 0.36037,-0.21925z" fill="#a9a9a9"/><path d="M244.1872,175.06698c0.09796,-0.01729 0.15321,0.01436 0.20847,0.04601c0.00472,0.01738 0.00312,0.04581 0.00785,0.06319c-0.07916,0.1895 -0.10779,0.39324 -0.0906,0.59387c0.00463,0.12006 -0.03495,0.2148 -0.12506,0.29529c-0.11382,0.09625 -0.22293,0.20989 -0.35254,0.28244c-0.06461,-0.16909 -0.10702,-0.42819 -0.07849,-0.52927c0.00954,-0.06792 0.05696,-0.09947 0.09966,-0.1484c0.09654,-0.19421 0.25467,-0.36783 0.33072,-0.60314z" fill="#a9a9a9"/><path d="M239.98971,173.63191c0.21178,-0.11355 0.39041,-0.24607 0.56431,-0.39598c0.07897,0.01587 0.12318,0.04119 0.15946,0.10598c-0.05866,0.23058 -0.21368,0.45001 -0.26129,0.68692c-0.12488,0.08993 -0.25127,0.1056 -0.37926,0.14972c-0.06953,0.01889 -0.13433,0.05517 -0.21802,0.02192c-0.00614,-0.19431 0.10617,-0.36482 0.1348,-0.56857z" fill="#a9a9a9"/><path d="M242.05549,174.12511c0.09314,0.06801 0.07887,0.11855 0.06461,0.16908c-0.05073,0.1911 -0.09512,0.37114 -0.15689,0.55591c-0.01426,0.05054 -0.03958,0.09475 -0.087,0.12629c-0.14698,0.07727 -0.30501,0.14821 -0.46778,0.20177c-0.01729,-0.09796 0.00964,-0.1706 0.01445,-0.25589c0.01445,-0.25589 0.11099,-0.4501 0.35593,-0.54467c0.11694,-0.05044 0.20233,-0.1483 0.27668,-0.25249z" fill="#a9a9a9"/><path d="M241.35922,173.72637c0.05526,0.03164 0.08841,0.05063 0.12157,0.06961c-0.0016,0.02843 0.01417,0.05214 0.00785,0.06319c-0.04752,0.13423 -0.10608,0.26213 -0.1536,0.39636c-0.02692,0.07265 -0.06962,0.12157 -0.13442,0.15784c-0.1944,0.10882 -0.39352,0.20026 -0.62581,0.27271c-0.0204,-0.14377 0.02551,-0.24957 0.07141,-0.35536c0.02531,-0.04421 0.05063,-0.08842 0.09172,-0.10891c0.24494,-0.09456 0.43783,-0.27762 0.62128,-0.49545z" fill="#a9a9a9"/><path d="M239.43218,176.93768c-0.06961,0.12158 -0.15662,0.24787 -0.17097,0.40108c-0.00321,0.05686 -0.04591,0.1058 -0.07755,0.16105c-0.19421,-0.09654 -0.35206,-0.23096 -0.47353,-0.40326c0.1107,-0.14207 0.1551,-0.32212 0.20895,-0.4674c0.10901,-0.01095 0.16739,0.0665 0.24635,0.08237c0.10579,0.04591 0.20999,0.12025 0.26677,0.22614z" fill="#959595"/><path d="M245.71342,173.09378c-0.15019,0.13414 -0.30039,0.26826 -0.44586,0.41979c-0.12176,0.13574 -0.1346,0.3632 -0.39533,0.43405c0.21519,-0.37577 0.32769,-0.75163 0.44019,-1.12749c0.12488,-0.08993 0.26714,-0.18458 0.43462,-0.22076c0.00944,0.03476 0.01417,0.05214 0.01889,0.06953c-0.00803,0.14217 -0.02711,0.278 -0.05252,0.42488z" fill="#a9a9a9"/><path d="M242.95138,170.48474c-0.18495,0.14358 -0.34621,0.27138 -0.53116,0.41497c-0.05044,-0.11694 -0.03297,-0.22435 -0.05025,-0.3223c-0.01095,-0.10901 -0.05035,-0.21962 -0.02654,-0.33808c0.04431,-0.07737 0.12649,-0.11835 0.19762,-0.16568c0.07113,-0.04732 0.15331,-0.08833 0.24654,-0.12299c0.11675,0.15492 0.12923,0.33817 0.16379,0.53409z" fill="#a9a9a9"/><path d="M240.61543,171.74476c0.11251,-0.37586 0.19337,-0.69647 0.20159,-1.04399c0.12649,-0.11836 0.24192,-0.24304 0.37473,-0.37245c0.09305,0.1707 0.07235,0.33496 0.0801,0.50084c-0.0016,0.02843 -0.02059,0.06158 -0.03325,0.08369c-0.19138,0.25731 -0.38276,0.51462 -0.62317,0.83193z" fill="#a9a9a9"/><path d="M242.13785,175.59586c-0.00926,-0.24012 -0.00274,-0.45653 0.22331,-0.62062c0.15492,-0.11675 0.26091,-0.27621 0.3669,-0.43566c0.03797,-0.06632 0.09956,-0.04572 0.15322,0.01436c-0.12337,0.16417 -0.16305,0.3616 -0.20272,0.55902c-0.02541,0.14689 -0.10448,0.23369 -0.2167,0.30152c-0.09484,0.0631 -0.1739,0.14991 -0.324,0.18136z" fill="#a9a9a9"/><path d="M239.59097,176.04531c0.08672,0.18174 -0.02239,0.29538 -0.10939,0.42168c-0.08219,0.041 -0.13584,-0.01908 -0.19743,-0.03968c-0.13734,-0.09332 -0.24465,-0.21349 -0.3393,-0.35575c0.08068,-0.11524 0.10608,-0.26213 0.22462,-0.341c0.06158,0.0206 0.09475,0.03958 0.13895,0.0649c0.09787,0.0854 0.19572,0.17078 0.28253,0.24984z" fill="#959595"/><path d="M241.18295,174.72616c-0.02863,0.20376 -0.06669,0.37274 -0.09371,0.54806c-0.16909,0.06461 -0.3429,0.11184 -0.51511,0.13064c-0.0647,-0.06641 -0.04883,-0.14538 -0.05667,-0.20857c-0.00784,-0.0632 -0.01568,-0.12639 0.03967,-0.19742c0.16436,-0.08199 0.37455,-0.1671 0.62581,-0.27271z" fill="#a9a9a9"/><path d="M242.60799,176.26135c-0.14065,0.06622 -0.27026,0.13876 -0.43774,0.17494c-0.07566,-0.17541 -0.05497,-0.33968 -0.05006,-0.52767c0.15331,-0.08832 0.30662,-0.17664 0.46626,-0.27602c0.02192,0.21802 0.017,0.40599 0.02153,0.62874z" fill="#a9a9a9"/><path d="M243.6844,170.43487c0.03778,0.13905 0.07557,0.2781 0.0612,0.43131c-0.15492,0.11675 -0.32089,0.22717 -0.49318,0.34865c-0.02211,-0.01266 -0.04421,-0.02531 -0.03788,-0.03636c-0.00935,-0.13745 -0.01238,-0.28594 -0.01067,-0.41705c0.00321,-0.05686 0.01748,-0.1074 0.05857,-0.1279c0.14226,-0.09465 0.25136,-0.20829 0.42196,-0.19866z" fill="#a9a9a9"/><path d="M245.17915,171.74582c-0.1707,0.09305 -0.33033,0.19242 -0.50103,0.28546c-0.06943,-0.08379 -0.01879,-0.17221 -0.01398,-0.2575c0.00481,-0.08529 0.02702,-0.17532 0.03816,-0.27168c0.13121,-0.10098 0.29236,-0.12611 0.44407,-0.18599c0.07727,0.14698 0.05818,0.28283 0.03278,0.42971z" fill="#a9a9a9"/><path d="M242.94909,176.38331c0.16597,-0.11043 0.31456,-0.21613 0.48687,-0.33761c0.05989,0.15171 0.04553,0.30493 0.09437,0.4503c-0.13281,0.12941 -0.30029,0.16559 -0.46466,0.24758c-0.07254,-0.1296 -0.12931,-0.2355 -0.11657,-0.36028z" fill="#a9a9a9"/><path d="M244.97369,175.28256c0.00292,0.25117 -0.06207,0.49281 -0.01333,0.74086c-0.10911,0.11363 -0.20083,0.22255 -0.34781,0.29982c-0.08832,-0.15331 -0.10872,-0.29709 0.00832,-0.4502c0.14707,-0.17995 0.23889,-0.39154 0.35282,-0.59048z" fill="#a9a9a9"/><path d="M240.08512,171.23561c-0.04732,-0.07113 0.01748,-0.1074 0.03174,-0.15794c0.03486,-0.11213 0.08076,-0.21792 0.05242,-0.32221c-0.01879,-0.17221 0.06187,-0.28745 0.15993,-0.40741c0.0427,-0.04894 0.09644,-0.09153 0.16286,-0.15624c0.07406,0.20384 0.12128,0.37766 -0.04317,0.56233c-0.11543,0.12469 -0.19299,0.28575 -0.28631,0.42309c-0.01899,0.03316 -0.03797,0.06631 -0.07746,0.05838z" fill="#a9a9a9"/><path d="M239.32942,173.60603c0.0017,-0.13111 0.03023,-0.23219 0.08086,-0.32061c0.02531,-0.04421 0.05697,-0.09946 0.09805,-0.11996c0.18174,-0.08672 0.33667,-0.20347 0.49158,-0.32022c0.07737,0.04431 0.04099,0.08218 0.02201,0.11534c-0.06329,0.11052 -0.13291,0.23209 -0.17409,0.35527c-0.06017,0.15633 -0.15028,0.23682 -0.30511,0.25089c-0.07425,0.00151 -0.12639,0.01568 -0.2133,0.0393z" fill="#a9a9a9"/><path d="M241.83916,175.73303c-0.13593,0.0836 -0.27499,0.12139 -0.42669,0.18127c-0.0836,-0.13593 -0.04713,-0.27648 -0.05648,-0.41393c0.15964,-0.09937 0.33817,-0.12923 0.51831,-0.18751c0.01408,0.15482 -0.01606,0.28433 -0.03514,0.42017z" fill="#a9a9a9"/><path d="M243.974,171.56936c0.02229,-0.19271 0.04931,-0.36802 0.06527,-0.54967c0.10117,-0.07416 0.196,-0.13725 0.33345,-0.1466c0.04884,0.14537 0.04081,0.28755 0.04383,0.43603c-0.12649,0.11836 -0.26242,0.20196 -0.44255,0.26025z" fill="#a9a9a9"/><path d="M240.56441,175.67814c0.16748,-0.03618 0.31757,-0.06764 0.46768,-0.09909c0.06622,0.14065 0.05818,0.28283 0.05016,0.42499c-0.13433,0.05516 -0.26704,0.0819 -0.41554,0.08492c-0.0205,-0.04109 -0.04572,-0.09956 -0.05516,-0.13433c-0.01729,-0.09796 -0.01879,-0.17221 -0.04714,-0.27649z" fill="#a9a9a9"/><path d="M239.5311,172.45935c-0.12025,0.20999 -0.21518,0.37577 -0.31645,0.5526c-0.09956,0.04572 -0.19752,0.063 -0.31597,0.0392c-0.03467,-0.09324 0.03174,-0.15794 0.04761,-0.23691c0.01587,-0.07897 0.0428,-0.15161 0.07444,-0.20687c0.17381,-0.04723 0.31285,-0.08502 0.51037,-0.14802z" fill="#a9a9a9"/><path d="M243.05151,169.82294c0.09484,-0.0631 0.18807,-0.09777 0.2797,-0.104c0.09475,0.03958 0.10098,0.13121 0.13726,0.19601c0.03628,0.06481 0.09626,0.11382 0.08511,0.21018c-0.0854,0.09787 -0.21972,0.15302 -0.3667,0.23029c-0.02361,-0.08691 -0.04723,-0.17381 -0.07718,-0.24966c-0.01729,-0.09796 -0.03457,-0.19592 -0.05819,-0.28282z" fill="#a9a9a9"/><path d="M241.88582,176.52292c-0.11855,0.07887 -0.22595,0.0614 -0.33024,0.08974c-0.08993,-0.12488 -0.11033,-0.26865 -0.13546,-0.4298c0.128,-0.04411 0.25599,-0.08822 0.37293,-0.13866c0.08832,0.15331 0.06763,0.31757 0.09275,0.47874z" fill="#a9a9a9"/><path d="M241.53908,170.54188c-0.02522,-0.05847 -0.03467,-0.09323 -0.04411,-0.12799c-0.01257,-0.08057 -0.01879,-0.17221 -0.03608,-0.27016c0.16597,-0.11043 0.29879,-0.23984 0.48997,-0.29179c0.0647,0.06641 0.06622,0.14065 0.06612,0.24333c-0.13914,0.14046 -0.302,0.2967 -0.4759,0.44661z" fill="#a9a9a9"/><path d="M240.24767,174.82166c-0.16115,0.02512 -0.29075,0.09767 -0.44397,0.08331c-0.06149,-0.12327 -0.00293,-0.25117 -0.04232,-0.36178c0.18174,-0.08672 0.3429,-0.11184 0.51671,-0.15906c0.05356,0.16276 -0.01606,0.28433 -0.03042,0.43755z" fill="#a9a9a9"/><path d="M239.17175,176.70049c-0.07897,-0.01587 -0.13734,-0.09333 -0.24635,-0.08237c-0.06017,0.15633 -0.11562,0.33005 -0.20895,0.4674c-0.03788,-0.03637 -0.08681,-0.07907 -0.11836,-0.12649c-0.04732,-0.07113 -0.05988,-0.1517 -0.01558,-0.22907c0.06489,-0.13896 0.12347,-0.26685 0.18836,-0.40581c0.14368,0.08228 0.20366,0.13131 0.40089,0.37634z" fill="#1c1c1c"/><path d="M245.82792,172.27877c-0.14065,0.06622 -0.2576,0.11666 -0.4093,0.17654c0.01596,-0.18165 0.0256,-0.35225 0.05262,-0.52756c0.1059,-0.05678 0.20545,-0.10248 0.32079,-0.1245c0.05356,0.16276 0.04553,0.30493 0.0359,0.47552z" fill="#a9a9a9"/><path d="M239.24544,173.88081c0.14065,-0.06622 0.26704,-0.0819 0.41714,-0.11336c-0.0444,0.18004 -0.07613,0.33799 -0.10788,0.49593c-0.10117,0.07416 -0.19752,0.063 -0.31757,0.06763c-0.05516,-0.13433 -0.0187,-0.27488 0.00831,-0.4502z" fill="#a9a9a9"/><path d="M244.71365,171.20039c-0.03618,-0.16748 -0.05185,-0.29387 -0.07859,-0.42659c0.09644,-0.09153 0.22916,-0.11827 0.36188,-0.145c0.06782,0.11222 0.11827,0.22916 0.12129,0.37766c-0.10911,0.11363 -0.25127,0.1056 -0.40458,0.19393z" fill="#a9a9a9"/><path d="M242.78595,176.84759c-0.13433,0.05516 -0.27337,0.09295 -0.40137,0.13707c-0.09314,-0.06801 -0.13414,-0.15019 -0.15615,-0.26553c0.12649,-0.11836 0.29237,-0.1261 0.43934,-0.20337c0.07416,0.10117 0.08511,0.21018 0.11817,0.33184z" fill="#a9a9a9"/><path d="M241.1446,170.05182c-0.11382,0.09625 -0.20082,0.22255 -0.36358,0.27611c-0.02201,-0.11534 -0.05035,-0.21962 -0.07869,-0.32392c0.07595,-0.13262 0.1945,-0.21149 0.33355,-0.24927c0.06943,0.08379 0.09305,0.1707 0.10872,0.29708z" fill="#a9a9a9"/><path d="M239.31949,175.80178c-0.04421,-0.02531 -0.09474,-0.03958 -0.13895,-0.06489c-0.11855,0.07887 -0.14396,0.22576 -0.22463,0.341c-0.08369,-0.03325 -0.08993,-0.12488 -0.16096,-0.18024c0.03807,-0.16899 0.14717,-0.28263 0.15208,-0.4706c0.11685,0.05224 0.16417,0.12337 0.22256,0.20083c0.0426,0.05375 0.13262,0.07594 0.1499,0.1739z" fill="#1c1c1c"/><path d="M245.15892,176.54806c-0.11382,0.09625 -0.20083,0.22256 -0.34621,0.27138c-0.0647,-0.06641 -0.0836,-0.13593 -0.11194,-0.24022c0.09172,-0.10891 0.20555,-0.20517 0.32883,-0.26666c0.0647,0.06641 0.08993,0.12488 0.12931,0.2355z" fill="#a9a9a9"/><path d="M240.80074,176.34182c0.11534,-0.02201 0.21962,-0.05034 0.32392,-0.07869c0.06782,0.11222 0.08983,0.22755 0.10551,0.35394c-0.08379,0.06943 -0.17381,0.04722 -0.25117,0.00292c-0.09947,-0.05697 -0.19894,-0.11392 -0.17825,-0.27819z" fill="#a9a9a9"/><path d="M246.22654,173.4023c-0.13121,0.10098 -0.25609,0.19091 -0.38729,0.29188c0.02239,-0.29538 0.08738,-0.53701 0.41601,-0.59831c0.03467,0.09324 -0.00491,0.18798 -0.02871,0.30643z" fill="#a9a9a9"/><path d="M239.91847,175.49904c-0.0631,-0.09484 -0.06934,-0.18647 -0.07557,-0.2781c0.04431,-0.07737 0.11222,-0.06782 0.18175,-0.08672c0.05214,-0.01417 0.11061,-0.0394 0.18326,-0.01247c0.0631,0.09484 -0.00019,0.20536 0.05658,0.31125c-0.12327,0.06149 -0.23228,0.07245 -0.34601,0.06603z" fill="#a9a9a9"/><path d="M242.91273,172.98694c0.13603,-0.18627 0.27205,-0.37255 0.45228,-0.53352c0.05998,0.04902 0.03939,0.11062 0.00775,0.16587c-0.07123,0.15 -0.1535,0.29368 -0.22945,0.42631c-0.05697,0.09947 -0.13593,0.0836 -0.23058,-0.05866z" fill="#a9a9a9"/><path d="M243.40326,177.23043c0.07273,-0.07576 0.15803,-0.07094 0.23389,-0.10088c0.14065,-0.06622 0.24645,-0.0203 0.34743,0.1109c-0.15492,0.11675 -0.3445,0.14028 -0.50565,0.16541c-0.07104,-0.05536 -0.09153,-0.09646 -0.07566,-0.17542z" fill="#a9a9a9"/><path d="M244.45699,173.7245c0.07604,-0.23531 0.26099,-0.37889 0.44123,-0.53985c-0.02229,0.19271 -0.11723,0.35849 -0.19478,0.51954c-0.04591,0.10579 -0.09172,0.10891 -0.24645,0.02031z" fill="#a9a9a9"/><path d="M245.4645,175.78376c0.02673,0.13272 0.06612,0.24333 0.09285,0.37605c-0.0427,0.04894 -0.12016,0.1073 -0.18657,0.17201c-0.16729,-0.16918 -0.16096,-0.18023 -0.06763,-0.31757c0.04431,-0.07737 0.09966,-0.1484 0.16134,-0.23048z" fill="#a9a9a9"/><path d="M244.70364,170.06458c0.09153,0.09644 0.12621,0.18968 0.16087,0.28291c-0.09012,0.08049 -0.20385,0.07406 -0.31919,0.09607c-0.04572,-0.09956 -0.08038,-0.1928 -0.12611,-0.29236c0.06801,-0.09314 0.18014,-0.05828 0.28443,-0.08662z" fill="#a9a9a9"/><path d="M244.29035,176.27081c0.05366,0.06008 0.06622,0.14065 0.07246,0.23229c-0.11543,0.12469 -0.26242,0.20196 -0.41885,0.24447c-0.08369,-0.03325 -0.08681,-0.07907 -0.07727,-0.14699c0.13753,-0.11203 0.27507,-0.22406 0.42366,-0.32977z" fill="#a9a9a9"/><path d="M246.06813,172.16683c-0.00935,-0.13745 -0.00132,-0.27961 -0.01067,-0.41705c0.07585,-0.02994 0.14377,-0.0204 0.21008,0.01757c0.05366,0.06008 0.04412,0.12799 0.04563,0.20224c-0.00321,0.05686 -0.00642,0.11373 -0.00964,0.17059c-0.07113,0.04732 -0.14065,0.06622 -0.2354,0.02663z" fill="#a9a9a9"/><path d="M244.01747,170.69899c-0.02673,-0.13272 -0.04873,-0.24805 -0.08652,-0.3871c0.04902,-0.05998 0.12015,-0.10731 0.23861,-0.08351c0.04572,0.09956 0.08511,0.21018 0.13555,0.32712c-0.09484,0.0631 -0.1723,0.12147 -0.28764,0.14349z" fill="#a9a9a9"/><path d="M246.31401,172.76261c-0.09484,0.0631 -0.17702,0.10409 -0.28603,0.11505c-0.02673,-0.13272 0.01445,-0.25589 0.03193,-0.3633c0.07273,-0.07576 0.15171,-0.05989 0.22595,-0.0614c0.02683,0.03004 0.04893,0.0427 0.0426,0.05374c-0.00481,0.08529 -0.00964,0.1706 -0.01446,0.25589z" fill="#a9a9a9"/><path d="M246.35548,174.04851c-0.01879,-0.17221 0.03817,-0.27167 0.07302,-0.3838c0.03014,-0.1295 0.12176,-0.13574 0.23077,-0.1467c0.02673,0.13272 -0.00812,0.24485 -0.01455,0.35858c-0.0854,0.09787 -0.2149,0.06773 -0.28925,0.17192z" fill="#a9a9a9"/><path d="M244.31008,177.13333c-0.10579,-0.04591 -0.17211,-0.08388 -0.21783,-0.18344c0.12327,-0.06149 0.2355,-0.12931 0.34138,-0.18609c0.11846,0.0238 0.12469,0.11543 0.18467,0.16446c-0.01266,0.02211 -0.01427,0.05054 -0.03164,0.05526c-0.1059,0.05678 -0.18808,0.09777 -0.27659,0.14981z" fill="#a9a9a9"/><path d="M244.01501,169.9344c-0.07745,0.05838 -0.1296,0.07254 -0.19752,0.063c-0.07265,-0.02692 -0.09153,-0.09644 -0.12781,-0.16124c-0.02522,-0.05847 -0.09626,-0.11382 -0.063,-0.19752c0.09324,-0.03467 0.19119,-0.05195 0.30332,-0.0171c0.03939,0.11062 0.05667,0.20858 0.08502,0.31285z" fill="#a9a9a9"/><path d="M239.21002,174.60901c0.10901,-0.01095 0.18958,-0.02352 0.28121,-0.02976c0.03306,0.12166 0.02663,0.2354 0.03126,0.35546c-0.08219,0.041 -0.16275,0.05355 -0.24012,0.00926c-0.01578,-0.02371 -0.03155,-0.04742 -0.02994,-0.07585c-0.01889,-0.06953 -0.03146,-0.1501 -0.04241,-0.25911z" fill="#a9a9a9"/><path d="M245.76923,175.9436c-0.063,-0.19752 -0.063,-0.19752 -0.01067,-0.41705c0.1059,-0.05678 0.20063,-0.01719 0.31909,0.00661c-0.05545,0.17372 -0.19299,0.28575 -0.30842,0.41044z" fill="#a9a9a9"/><path d="M240.01776,175.76136c0.08219,-0.041 0.17381,-0.04723 0.2575,-0.01398c0.03306,0.12166 0.06141,0.22595 0.08341,0.34129c-0.25117,0.00292 -0.26222,-0.0034 -0.34091,-0.32731z" fill="#a9a9a9"/><path d="M245.76859,171.51099c-0.09956,0.04572 -0.17542,0.07566 -0.28443,0.08662c-0.05678,-0.1059 -0.03297,-0.22435 -0.04865,-0.35074c0.04109,-0.0205 0.07585,-0.02994 0.11062,-0.03939c0.03476,-0.00944 0.07425,-0.00151 0.12006,-0.00462c0.08049,0.09012 0.09777,0.18808 0.1024,0.30813z" fill="#a9a9a9"/><path d="M238.84436,173.70983c-0.06622,-0.14065 -0.00132,-0.27961 -0.00595,-0.39967c0.08852,-0.05205 0.1722,-0.0188 0.26384,-0.02503c0.00774,0.16587 -0.03344,0.28904 -0.13621,0.39164c-0.01899,0.03316 -0.07585,0.02994 -0.12166,0.03306z" fill="#a9a9a9"/><path d="M241.86696,169.5849c-0.15964,0.09937 -0.324,0.18136 -0.47732,0.26969c-0.07104,-0.05536 -0.09625,-0.11382 -0.09616,-0.21651c0.18014,-0.05828 0.36028,-0.11656 0.55459,-0.1227c0.00944,0.03476 0.01417,0.05214 0.01889,0.06953z" fill="#a9a9a9"/><path d="M244.08018,172.92167c-0.04912,0.16267 -0.10929,0.319 -0.21368,0.45001c-0.0427,0.04894 -0.10117,0.07415 -0.15643,0.0425c-0.02211,-0.01266 -0.05365,-0.06008 -0.04732,-0.07113c0.08388,-0.17211 0.25619,-0.29359 0.41743,-0.42139z" fill="#a9a9a9"/><path d="M245.6254,170.91531c-0.06008,0.05366 -0.13433,0.05516 -0.21962,0.05035c-0.03939,-0.11062 -0.07878,-0.22123 -0.11817,-0.33184c0.09484,-0.0631 0.16748,-0.03618 0.24484,0.00812c0.04732,0.07113 0.07566,0.17541 0.09295,0.27338z" fill="#a9a9a9"/><path d="M241.59639,176.90019c0.11855,-0.07887 0.22756,-0.08984 0.34762,-0.09446c0.06943,0.08379 0.11042,0.16598 0.09767,0.29075c-0.1706,-0.00963 -0.29689,-0.09663 -0.44529,-0.1963z" fill="#a9a9a9"/><path d="M238.79506,172.36073c-0.00141,-0.17692 0.12507,-0.29528 0.1331,-0.43745c0.08219,-0.041 0.12006,-0.00463 0.12318,0.04119c0.00463,0.12006 -0.00812,0.24485 -0.07142,0.35536c-0.03004,0.02683 -0.03637,0.03788 -0.18486,0.0409z" fill="#a9a9a9"/><path d="M242.26474,169.91542c-0.04732,-0.07113 -0.06149,-0.12327 -0.05195,-0.19119c0.14065,-0.06622 0.28764,-0.14349 0.49299,-0.1433c-0.09654,0.19421 -0.2593,0.24776 -0.44104,0.33449z" fill="#a9a9a9"/><path d="M239.54119,175.2096c0.04572,0.09956 0.07566,0.17542 0.05979,0.25439c-0.03637,0.03788 -0.07585,0.02994 -0.11534,0.02201c-0.15794,-0.03174 -0.16889,-0.14074 -0.16087,-0.28291c0.06792,0.00954 0.14217,0.00803 0.21642,0.00652z" fill="#a9a9a9"/><path d="M245.26077,174.03802c0.07123,-0.15 0.14084,-0.27158 0.24995,-0.38522c0.06158,0.0206 0.0647,0.06641 0.04572,0.09956c-0.03325,0.08369 -0.05545,0.17372 -0.0887,0.25741c-0.05063,0.08842 -0.1075,0.08521 -0.20697,0.02824z" fill="#a9a9a9"/><path d="M241.18759,171.41197c0.00141,0.17692 -0.09191,0.31427 -0.16785,0.44689c-0.01266,0.02211 -0.04742,0.03155 -0.07585,0.02994c-0.02211,-0.01266 -0.0426,-0.05375 -0.03628,-0.0648c0.05545,-0.17372 0.15982,-0.30474 0.27998,-0.41204z" fill="#a9a9a9"/><path d="M240.44191,171.48395c-0.10267,-0.00009 -0.15794,-0.03174 -0.1484,-0.09966c0.0222,-0.09002 0.10759,-0.18788 0.23408,-0.30624c0.01408,0.15482 -0.05554,0.27639 -0.08568,0.40589z" fill="#a9a9a9"/><path d="M242.74439,177.38148c0.15803,-0.07094 0.31134,-0.15925 0.45965,0.04307c-0.16436,0.08199 -0.30804,-0.00028 -0.45965,-0.04307z" fill="#a9a9a9"/><path d="M243.74153,175.28142c0.01748,-0.10739 0.04128,-0.22586 0.05242,-0.32221c0.06481,-0.03628 0.10429,-0.02833 0.16427,0.02068c-0.0017,0.13111 -0.1092,0.21632 -0.1551,0.32211c-0.02211,-0.01266 -0.03315,-0.01899 -0.06158,-0.02059z" fill="#a9a9a9"/><path d="M242.56587,172.25996c0.01719,0.20064 -0.06508,0.34431 -0.19157,0.46267c-0.00633,0.01105 -0.03476,0.00945 -0.05686,-0.00321c-0.03948,-0.00793 -0.04261,-0.05374 -0.02994,-0.07585c0.05857,-0.1279 0.16767,-0.24154 0.27838,-0.38362z" fill="#a9a9a9"/><path d="M238.95631,173.95006c0.02673,0.13272 -0.0034,0.26223 -0.0272,0.38068c-0.06481,0.03628 -0.10267,-0.00009 -0.09947,-0.05696c0.00009,-0.10267 -0.00614,-0.19431 0.01134,-0.3017c-0.00944,-0.03476 0.0427,-0.04893 0.11534,-0.02201z" fill="#a9a9a9"/><path d="M245.17255,170.34778c-0.08049,-0.09012 -0.12147,-0.1723 -0.16087,-0.28291c0.16899,0.03807 0.27158,0.14084 0.4042,0.21678c-0.03004,0.02683 -0.0427,0.04894 -0.06008,0.05366c-0.0632,0.00784 -0.12006,0.00463 -0.18326,0.01246z" fill="#a9a9a9"/><path d="M240.96134,173.49854c0.09002,0.0222 0.1279,0.05857 0.15312,0.11704c-0.05224,0.11685 -0.14235,0.19733 -0.31616,0.24456c0.05385,-0.14528 0.11081,-0.24475 0.16304,-0.36159z" fill="#a9a9a9"/><path d="M244.58989,175.20953c0.06481,-0.03628 0.11534,-0.02201 0.16587,-0.00775c0.0426,0.05375 0.01096,0.10901 -0.17409,0.35527c-0.09465,-0.14226 0.00812,-0.24484 0.00822,-0.34752z" fill="#a9a9a9"/><path d="M241.8901,171.90232c-0.13442,0.15784 -0.12356,0.36954 -0.35423,0.41355c0.05073,-0.1911 0.13773,-0.31738 0.35423,-0.41355z" fill="#a9a9a9"/><path d="M246.14558,173.82558c-0.09494,0.16578 -0.15822,0.2763 -0.22151,0.38682c-0.01266,0.02211 -0.04742,0.03156 -0.08057,0.01257c-0.01105,-0.00633 -0.02683,-0.03004 -0.03155,-0.04742c0.05385,-0.14528 0.12346,-0.26685 0.33364,-0.35196z" fill="#a9a9a9"/><path d="M245.21532,175.34754c0.09163,-0.00624 0.13111,0.0017 0.16106,0.07756c-0.03958,0.09475 -0.08548,0.20054 -0.18193,0.29207c-0.06622,-0.14065 -0.00292,-0.25117 0.02087,-0.36963z" fill="#a9a9a9"/><path d="M246.66106,173.28423c-0.06792,-0.00954 -0.09635,-0.01115 -0.11845,-0.0238c-0.03297,-0.22435 -0.03297,-0.22435 0.08879,-0.36009c0.07254,0.1296 0.00926,0.24012 0.02966,0.38389z" fill="#a9a9a9"/><path d="M243.19184,176.93326c0.11694,-0.05044 0.22916,-0.11827 0.35716,-0.16238c0.05214,-0.01417 0.09635,0.01114 0.09153,0.09644c-0.14065,0.06622 -0.27498,0.12139 -0.44869,0.06593z" fill="#a9a9a9"/><path d="M246.01665,171.46225c-0.02994,-0.07585 -0.04411,-0.128 -0.03457,-0.19591c0.04742,-0.03155 0.09324,-0.03467 0.15483,-0.01408c0.05998,0.04902 0.07254,0.12961 0.0851,0.21018c-0.06008,0.05366 -0.13272,0.02673 -0.20536,-0.00019z" fill="#a9a9a9"/><path d="M242.35361,174.60402c-0.05678,-0.1059 -0.01247,-0.18326 0.02079,-0.26695c0.01899,-0.03316 0.06481,-0.03628 0.09795,-0.01729c0.02211,0.01266 0.04261,0.05374 0.02994,0.07585c-0.00481,0.08529 -0.06489,0.13896 -0.14869,0.20838z" fill="#a9a9a9"/><path d="M244.49696,169.78479c-0.22917,0.11826 -0.24655,0.12299 -0.30162,-0.11401c0.10107,0.02853 0.21008,0.01757 0.30162,0.11401z" fill="#a9a9a9"/><path d="M239.82932,171.11847c-0.04884,-0.14537 0.02229,-0.1927 0.07764,-0.26374c0.06782,0.11222 0.06782,0.11222 -0.07764,0.26374z" fill="#a9a9a9"/><path d="M243.19866,174.69168c-0.03164,0.05526 -0.07595,0.13262 -0.15341,0.19101c-0.0425,-0.15643 -0.01719,-0.20064 0.07132,-0.25269c0.02371,-0.01578 0.05687,0.00321 0.08209,0.06169z" fill="#a9a9a9"/><path d="M246.55914,174.17981c0.03457,0.19591 0.01086,0.2117 -0.18496,0.14359c0.0222,-0.09002 0.09806,-0.11998 0.18496,-0.14359z" fill="#a9a9a9"/><path d="M239.81874,170.59874c-0.03014,0.1295 -0.09182,0.2116 -0.1535,0.29368c-0.08529,-0.00481 -0.10579,-0.04591 -0.08048,-0.09012c0.05063,-0.08842 0.11231,-0.17051 0.23398,-0.20356z" fill="#a9a9a9"/><path d="M246.61128,172.44852c0.03467,0.09324 0.08199,0.16436 0.02031,0.24645c-0.00633,0.01105 -0.02371,0.01577 -0.03476,0.00944c-0.08681,-0.07906 -0.07094,-0.15804 0.01445,-0.25589z" fill="#a9a9a9"/><path d="M241.66376,174.09156c-0.00784,-0.0632 0.01748,-0.1074 0.05384,-0.14528c0.02371,-0.01578 0.05848,-0.02522 0.07425,-0.00151c0.01578,0.02371 0.02522,0.05847 0.01257,0.08057c-0.02531,0.04421 -0.06169,0.08209 -0.14065,0.06622z" fill="#a9a9a9"/><path d="M245.84662,170.83653c0.09635,0.01115 0.14528,0.05385 0.13886,0.16758c-0.11374,-0.00643 -0.13896,-0.06489 -0.13886,-0.16758z" fill="#a9a9a9"/></g></g></g></g></svg>