<svg version="1.1" xmlns="http://www.w3.org/2000/svg" xmlns:xlink="http://www.w3.org/1999/xlink" width="490.99099" height="361.86186" viewBox="0,0,490.99099,361.86186"><g transform="translate(1.98573,3.42717)"><g data-paper-data="{&quot;isPaintingLayer&quot;:true}" fill-rule="nonzero" stroke-linejoin="miter" stroke-miterlimit="10" stroke-dasharray="" stroke-dashoffset="0" style="mix-blend-mode: normal"><path d="M240.95968,169.31497c0,0 5.42505,-0.24385 10.1949,2.27122c3.88215,2.047 6.24794,7.27938 6.24288,11.29843c-0.22863,2.26755 -0.45124,4.3935 -1.45777,6.40934c-1.17384,2.35091 -2.90494,4.51069 -5.24241,5.93498c-2.16352,1.3183 -4.344,1.74385 -6.80702,2.1068c-10.06136,1.48264 -20.63231,-5.48902 -22.64193,-12.28499c-0.9405,-3.18052 -1.04817,-8.71318 1.7954,-11.45678c3.25894,-3.14438 9.60465,-3.28828 9.60465,-3.28828" fill="#ff0000" stroke="#000000" stroke-width="2" stroke-linecap="round"/><path d="M247.92687,179.07532c0.90241,-1.61272 2.94133,-2.18853 4.55405,-1.28612c1.61272,0.90241 2.18853,2.94133 1.28612,4.55405c-0.90241,1.61272 -2.94133,2.18853 -4.55405,1.28612c-1.61272,-0.90241 -2.18853,-2.94133 -1.28612,-4.55405z" fill="#ffffff" stroke="none" stroke-width="0" stroke-linecap="butt"/><path d="M243.92185,180.4042c0.60161,-1.07515 1.96089,-1.45902 3.03604,-0.85741c1.07515,0.60161 1.45902,1.96089 0.85741,3.03604c-0.60161,1.07515 -1.96089,1.45902 -3.03604,0.85741c-1.07515,-0.60161 -1.45902,-1.96089 -0.85741,-3.03604z" fill="#ffffff" stroke="none" stroke-width="0" stroke-linecap="butt"/><path d="M239.04715,174.15064c0,0 0.06527,-3.27711 0.68616,-5.02156c0.74353,-2.08899 3.47379,-6.66605 3.47379,-6.66605" fill="none" stroke="#000000" stroke-width="2" stroke-linecap="round"/><path d="M232.32735,170.36976c0,0 -2.75619,-2.22288 -3.70795,-3.50892c-0.96219,-1.30012 -2.05685,-4.33009 -2.05685,-4.33009c0,0 8.27883,-0.17212 10.54676,1.37547c1.887,1.28765 2.0169,7.23981 2.0169,7.23981" fill="#0ce52a" stroke="#000000" stroke-width="2" stroke-linecap="round"/><path d="M234.43627,167.71285c0.52351,-0.93558 1.70633,-1.26962 2.64191,-0.74611c0.93558,0.52351 1.26962,1.70633 0.74611,2.64191c-0.52351,0.93558 -1.70633,1.26962 -2.64191,0.74611c-0.93558,-0.52351 -1.26962,-1.70633 -0.74611,-2.64191z" fill="#e6e6e6" stroke="none" stroke-width="0" stroke-linecap="butt"/><path d="M222.39446,176.34339c3.83671,-6.98109 15.51655,-5.20327 15.51655,-5.20327c0,0 -8.7153,4.86399 -10.31502,8.312c-2.85649,6.15681 0.43076,12.67202 0.43076,12.67202c0,0 -10.43518,-7.04162 -5.63228,-15.78074z" fill="#ad0c30" stroke="none" stroke-width="0" stroke-linecap="butt"/><path d="M228.02143,163.51671c0,0 2.73012,-0.02036 4.0399,0.12693c1.35232,0.15208 4.21328,0.78388 4.21328,0.78388c0,0 -2.26019,0.60688 -3.64136,1.50093c-1.21874,0.78891 -1.95601,1.63582 -1.95601,1.63582c0,0 -0.97828,-0.6887 -1.67655,-1.73042c-0.61556,-0.91833 -0.97927,-2.31712 -0.97927,-2.31712z" fill="#097c3b" stroke="none" stroke-width="0" stroke-linecap="butt"/><path d="" fill="none" stroke="none" stroke-width="0" stroke-linecap="butt"/><path d="M-1.98572,358.4347v-361.86186h490.99099v361.86186z" fill="none" stroke="none" stroke-width="NaN" stroke-linecap="butt"/></g></g></svg>