<svg version="1.1" xmlns="http://www.w3.org/2000/svg" xmlns:xlink="http://www.w3.org/1999/xlink" width="53.4713" height="40.09146" viewBox="0,0,53.4713,40.09146"><g transform="translate(-297.35144,-278.24244)"><g data-paper-data="{&quot;isPaintingLayer&quot;:true}" fill-rule="nonzero" stroke-linejoin="miter" stroke-miterlimit="10" stroke-dasharray="" stroke-dashoffset="0" style="mix-blend-mode: normal"><path d="M323.98527,315.7265c-12.76288,0 -23.10924,-4.98843 -23.10924,-11.14196c0,-6.15354 10.34636,-11.14196 23.10924,-11.14196c12.76288,0 23.10924,4.98843 23.10924,11.14196c0,6.15354 -10.34636,11.14196 -23.10924,11.14196z" data-paper-data="{&quot;index&quot;:null}" fill="#c7c7c7" stroke="#000000" stroke-width="0.5" stroke-linecap="butt"/><path d="M317.265,289.84887c1.59208,-1.3051 1.54921,-4.61374 3.32781,-5.86873c0.20162,-0.04151 0.37173,-0.06563 0.50024,-0.06651c1.48732,-0.01015 2.67179,0.07552 3.8327,0.25218c0.0928,0.08029 0.18934,0.15638 0.28931,0.22797c1.12566,3.33672 3.70944,5.15345 7.1371,1.82602c0.64013,0.00251 1.28131,-0.00454 1.92162,-0.00355c0.9448,0.38401 1.60909,1.12764 2.28285,1.68489l0.19901,0.31273l0.04361,0.13083l0.11975,0.13971l0.2392,0.47841l0.00825,0.03711l0.19648,0.27205l0.01389,0.03472l0.08353,0.11137l0.02757,0.06547l0.05256,0.04778l0.1196,0.1794l0.05313,0.14877l0.10281,0.11994l0.03588,0.07176l0.14352,0.16744l0.0598,0.1196l0.02301,0.10356l0.06211,0.086l0.05514,0.13784l0.11036,0.19314l0.31104,0.46656l0.0296,0.08287l0.06089,0.06353l0.2392,0.4186l0.06742,0.2397l0.13368,0.21007l0.06342,0.19025l0.04015,0.08029l0.05973,0.26876l0.12956,0.24293l0.14649,0.58595c0.57351,-0.58274 1.2366,-1.02633 2.05987,-1.26498c0.7654,0.17102 1.43268,0.08709 1.99658,-0.17673c0.4885,0.03687 1.01968,0.12482 1.59999,0.2699c3.59305,0.89826 2.26078,7.203 2.13212,10.9044c-0.01492,0.42923 -0.0088,0.9463 -0.3125,1.25c-4.36853,4.36853 -4.58403,-2.5295 -4.6875,-4.75819c-0.01314,-0.28291 -0.25368,0.54674 -0.49958,0.68726c-0.63232,0.36133 -3.57857,0.76848 -4.03654,-0.03296l-0.47166,-0.8254l-0.45071,-0.02146l-0.58872,-0.01962l-0.03532,-0.01009l-0.0746,-0.00355l-0.02059,-0.02364l-0.7067,-0.20191l-0.39399,-0.2273l-0.41921,-0.17651l-0.69436,-0.52077l-0.16666,-0.11904l0.01628,0.76521l-0.49686,0.49686l-0.17469,0.64052l-0.64052,0.17469l-0.46946,0.46946l-0.64279,-0.16612l-0.67791,0.18489l-0.59939,-0.35963l-0.04383,0.00302l-0.09487,-0.08624l-0.31608,-0.18965l-0.06444,-0.01665l-0.03516,-0.06267l-0.13049,-0.13049l-0.12811,-0.21352l-0.18425,-0.1675l-0.47841,-0.71761l-0.00919,-0.02575l-0.01983,-0.01882l-0.83721,-1.31561l-0.03273,-0.0982l-0.06907,-0.07709l-0.27572,-0.52242l-0.02441,0.08055l-0.07228,0.1208l-0.02242,0.13898l-0.3588,0.83721l-0.21408,0.28169l-0.18391,0.38824l-0.14888,0.04963l-0.23277,0.30627l-1.04623,0.12006l-0.96229,0.32076l-0.21338,-0.18585l-0.28113,0.03226l-0.61124,-0.80948l-0.79412,-0.69166l-0.01605,-0.33704c-0.03337,0.08239 -0.07101,0.16259 -0.11265,0.24034l-0.01789,0.07157l-0.03296,0.01883c-0.43488,0.73685 -1.23698,1.23117 -2.15454,1.23117c-0.81883,0 -1.54572,-0.39367 -2.00173,-1.00206c-0.31538,0.20458 -0.7069,0.37782 -1.18522,0.51196c-0.12949,0.29072 -0.32789,0.57699 -0.60562,0.85472c-0.59384,0.59384 -1.34768,1.25 -2.1875,1.25c-1.38027,0 -1.60143,-2.35386 -2.7846,-3.06468c-2.19016,-1.3158 -3.47047,1.6984 -4.54767,2.87431c-0.08008,0.08741 -0.15157,0.1835 -0.21459,0.286c0.11594,0.28818 0.17975,0.60294 0.17975,0.9326c0,0.31328 -0.05762,0.6131 -0.16285,0.88944c0.21753,0.37072 0.34225,0.80249 0.34225,1.26338c0,1.37691 -1.11314,2.49384 -2.48861,2.49997c-2.61506,1.29582 -3.30715,-3.78061 -3.229,-7.10463c0.01411,-0.60026 0.14494,-1.06262 0.34946,-1.44181c0.0088,-0.17339 0.01279,-0.33202 0.00935,-0.47181c-0.1281,-5.19303 1.01567,-8.87947 7.278,-7.83574c1.14275,0.19046 1.82219,1.20856 2.88006,1.39179c1.40212,0.24287 2.71014,-0.30665 3.93126,-0.02409c0.07249,-0.02163 0.14636,-0.04006 0.22145,-0.05513c0.4197,-0.27892 0.91829,-0.59096 1.56862,-1.12406zM322.46062,295.52797l0.00491,-0.01206c-0.08414,0.03937 -0.17084,0.07419 -0.25977,0.10415l0.05064,0.22789c0.0285,0.07668 0.05334,0.15515 0.07431,0.23517l0.09659,-0.32196z" data-paper-data="{&quot;index&quot;:null}" fill="#c7c7c7" stroke="none" stroke-width="0.5" stroke-linecap="butt"/><path d="M311.77445,288.74368c0.30241,0 0.58623,0.1418 0.84187,0.33221c0.31868,-1.01362 1.10126,-2.19458 1.99012,-2.19529c0.45779,-1.72553 1.14143,-3.2256 2.55589,-4.23235c0.87193,-2.03196 2.40697,-3.57243 4.32479,-3.55028c0.87546,0.01011 1.54021,0.44747 1.98668,1.07952c1.25358,0.15859 2.44384,1.23672 4.01652,2.72981c0.63384,0.60177 1.73596,0.53686 2.35397,1.15488c0.15458,0.15458 0.31557,0.91509 0.41873,1.82577c0.76841,-0.17627 1.49777,-0.33997 2.03519,-0.31993c4.78839,0.17856 6.35925,3.66458 6.35925,8.07892c0,0.08384 0.00069,0.17814 0.0013,0.27979c0.04388,-0.01676 0.08837,-0.03232 0.1334,-0.04664c2.56187,-2.94401 6.75064,-5.93782 8.60249,-0.75264c0.64864,1.81619 0.31765,4.83365 0.16746,6.68916c-0.21985,2.71613 -2.93081,3.00669 -4.6875,1.25c-0.89549,-0.89549 -0.2863,-2.5202 -0.3125,-3.78634c-0.00964,-0.46592 -0.5205,0.79368 -0.88892,1.07907c-0.52434,0.40616 -2.91605,0.89044 -3.3916,0.05822c-0.33886,-0.19999 -0.62643,-0.47764 -0.83822,-0.80847c-0.94472,0.65425 -2.29443,0.39017 -3.56151,-0.74877c-1.46819,-1.31971 1.19265,-6.05903 -1.69253,-6.26923c-0.67443,-0.04913 0.20311,1.12572 -0.03139,1.74218c-0.11746,0.30877 -1.14687,1.61106 -1.22053,1.6934c-0.91728,1.02519 -3.56372,-0.12061 -5.15581,-0.92246c-0.25205,0.01265 -0.5032,-0.03238 -0.76153,-0.13511c-0.91136,1.06994 -2.89456,0.42049 -4.35745,0.56072c-1.3257,2.21514 -6.44371,4.56568 -7.37978,3.72814l-0.21645,-0.26763c-0.25903,0.48316 -0.66088,0.90393 -1.23374,1.23128c-1.24208,0.70976 -4.05417,-2.03174 -5.27272,-2.64101c-0.44329,0.40037 -1.03073,0.64416 -1.6751,0.64416c-1.38071,0 -2.5,-1.11929 -2.5,-2.5c0,-0.092 0.00497,-0.18285 0.01466,-0.27228c-0.4725,-1.08537 -0.5774,-2.27149 0.05752,-3.19312c0.21405,-0.71972 0.60906,-1.39343 0.95404,-1.58531c0.93833,-0.52191 1.61625,0.64106 2.20007,0.58636c1.25517,-0.1176 1.46227,-1.97848 3.18991,-1.53202c0.64529,0.16676 0.94973,0.85003 1.30077,1.47832c0.04462,0.03611 0.08917,0.073 0.1336,0.11067c0.26074,-0.34881 0.7475,-0.57367 1.53904,-0.57367zM321.3091,287.45662c-0.0055,0.10434 0.02672,0.62167 0.02047,1.193c0.41393,-0.01597 0.85676,-0.02586 1.29376,-0.00127c-0.24061,-0.79716 -0.48978,-1.52449 -0.87018,-1.97979c-0.20659,0.24622 -0.42881,0.49889 -0.44405,0.78806z" data-paper-data="{&quot;index&quot;:null}" fill="#c7c7c7" stroke="none" stroke-width="0.5" stroke-linecap="butt"/><path d="M306.05703,303.64315c0.87371,1.55323 -0.39769,3.3046 0.30709,4.78195c1.06375,2.22978 4.76447,-0.2836 6.12343,2.09458c1.78285,3.11999 -2.98508,4.03579 -4.99191,3.90812c-4.26961,-0.27161 -6.23525,-4.01366 -6.27115,-7.70353c-0.0039,-0.40146 0.04438,-1.42256 0.17021,-2.18718c0.00786,-0.05514 0.01752,-0.1097 0.02892,-0.16362c0.23918,-1.1313 1.2434,-1.98032 2.44592,-1.98032c0.81357,0 1.53638,0.38862 1.99291,0.99036c0.07451,0.07696 0.14011,0.16278 0.19459,0.25964z" data-paper-data="{&quot;index&quot;:null}" fill="#c7c7c7" stroke="none" stroke-width="0.5" stroke-linecap="butt"/><path d="M340.05809,290.55672c0.00793,0 0.01585,0.00006 0.02376,0.00019c0.02605,-0.80557 0.6873,-1.45063 1.49921,-1.45063c0.39582,0 0.75582,0.15331 1.02388,0.40379c0.40897,-0.07485 0.81548,-0.06981 1.19099,0.0358c0.33364,0.09384 0.60483,0.35358 0.81045,0.70838c0.26061,-0.21859 0.59663,-0.35023 0.96339,-0.35023c0.82842,0 1.5,0.67158 1.5,1.5c0,0.15155 -0.02247,0.29786 -0.06428,0.43576c0.3895,0.27094 0.64445,0.72182 0.64445,1.23225c0,0.82842 -0.67158,1.5 -1.5,1.5c-0.58652,0 -1.09442,-0.33663 -1.34103,-0.82723c-0.16397,0.36915 -0.40386,0.6439 -0.72291,0.75025c-0.62385,0.20795 -1.36651,-0.6979 -1.93746,-0.37164c-0.26092,0.44211 -0.74218,0.7387 -1.29272,0.7387c-0.44304,0 -0.84122,-0.19207 -1.11581,-0.4975c-0.06615,0.33222 -0.16967,0.60494 -0.32754,0.76281c-1,1 -1.625,1 -2.625,0c-1.15524,-1.15524 0.8359,-4.22779 0.17511,-5.47542c-0.68426,-1.29195 -3.77356,-1.71227 -5.19543,-1.63061c-0.08655,0.01553 -0.17568,0.02363 -0.2667,0.02363c-0.82842,0 -1.5,-0.67158 -1.5,-1.5c0,-0.19931 0.03887,-0.38954 0.10945,-0.56353c0.35776,-1.42817 1.43837,-3.59916 3.01082,-2.63455c0.09049,0.05551 1.06601,1.88648 1.16242,1.87021c0.83634,-0.1411 1.68583,-0.67456 2.5041,-0.4514c0.17023,0.04642 0.2589,0.18602 0.31122,0.35744c0.04325,-0.00375 0.08702,-0.00566 0.13124,-0.00566c0.50203,0 0.94645,0.24662 1.21873,0.62532c0.39038,-0.07365 0.80323,-0.08355 1.09465,0.11073c1.18381,0.7892 0.54988,3.24366 0.31199,4.71673c0.06639,-0.00898 0.13415,-0.01362 0.203,-0.01362z" data-paper-data="{&quot;index&quot;:null}" fill="#c7c7c7" stroke="none" stroke-width="0.5" stroke-linecap="butt"/><path d="M324.36404,283.16911c-0.4179,-0.16319 -0.83991,-0.3732 -1.23342,-0.61008c-0.5203,0.0145 -1.20087,-0.18372 -1.68863,-0.4869c-0.23564,0.15409 -0.51729,0.24366 -0.81985,0.24366c-0.3633,0 -0.69644,-0.12915 -0.95599,-0.34405c-0.11591,0.38734 -0.38412,0.70888 -0.73512,0.89514c-0.00889,0.66462 -0.45002,1.22488 -1.05507,1.41249c-0.08857,0.37613 -0.31871,0.69763 -0.6311,0.90518c-0.04575,0.29075 -0.17502,0.55377 -0.36248,0.76371c0.01196,0.0763 0.01817,0.15452 0.01817,0.23418c0,0.54949 -0.29547,1.02998 -0.7362,1.29124c0.09986,0.20087 0.15602,0.42731 0.15602,0.66686c0,0.82842 -0.67158,1.5 -1.5,1.5c-0.19587,0 -0.38297,-0.03754 -0.55449,-0.10582c-0.10181,0.02182 -0.20745,0.0333 -0.31578,0.0333c-0.82842,0 -1.5,-0.67158 -1.5,-1.5c0,-0.43304 0.18351,-0.82323 0.47701,-1.09704c-0.02737,-0.11332 -0.04187,-0.23167 -0.04187,-0.35341c0,-0.79065 0.61172,-1.43842 1.38769,-1.49586c-0.00646,-0.05649 -0.00977,-0.11393 -0.00977,-0.17215c0,-0.52193 0.26657,-0.98161 0.671,-1.2503c0.08944,-0.56849 0.4982,-1.03093 1.0369,-1.19797c0.0802,-0.34058 0.27647,-0.63637 0.54478,-0.84332c-0.00297,-0.03859 -0.0045,-0.0776 -0.0045,-0.11696c0,-0.82842 0.67158,-1.5 1.5,-1.5c0.00259,0 0.00518,0 0.00777,0.00002c0.17908,-0.62803 0.75718,-1.08785 1.44267,-1.08785c0.26305,0 0.51028,0.06771 0.72522,0.18665c0.21494,-0.11894 0.46218,-0.18665 0.72523,-0.18665c0.3304,0 0.63585,0.10682 0.88369,0.28781c0.97504,-0.43685 2.90357,0.12279 4.18502,1.20484c0.48269,0.11705 0.87413,0.4676 1.04797,0.92532c0.48534,0.18433 0.85018,0.61332 0.94393,1.13633c0.01546,-0.00047 0.03098,-0.00071 0.04656,-0.00071c0.82842,0 1.5,0.67158 1.5,1.5c0,0.82842 -0.67158,1.5 -1.5,1.5c-0.33862,0 -0.65105,-0.11221 -0.90211,-0.30147c-0.06086,0.00752 -0.12284,0.01139 -0.18572,0.01139c-0.24745,0 -0.48091,-0.05992 -0.68665,-0.16604c-0.17557,-0.02964 -0.34077,-0.08978 -0.48997,-0.17479c-0.53167,-0.23065 -0.90355,-0.76027 -0.90355,-1.37674c0,-0.05352 0.0028,-0.10639 0.00827,-0.15846c-0.16318,-0.0489 -0.32908,-0.1065 -0.49563,-0.17154z" data-paper-data="{&quot;index&quot;:null}" fill="#c7c7c7" stroke="none" stroke-width="0.5" stroke-linecap="butt"/><path d="M312.54044,311.46777c0.02708,0.0184 0.05243,0.04166 0.07627,0.06894c0.35591,0.27427 0.5852,0.70478 0.5852,1.18885c0,0.02197 -0.00047,0.04381 -0.00141,0.06555c0.02569,-0.00621 0.05351,-0.02572 0.08407,-0.06099c0.64412,-0.74361 0.76839,-1.58492 1.98226,-1.58642c1.64783,-0.00205 1.24656,2.34892 2.28672,2.62014c1.09679,0.28599 2.11779,-0.84 3.21364,-0.87027c1.11827,-0.03089 3.12941,-0.38845 4.30358,0.04246c0.28226,0.10359 0.61462,0.99079 0.73846,0.99479c2.09089,0.06757 4.79593,-1.57428 6.89508,-2.10467c1.95754,-0.49461 4.27819,-0.57045 6.03025,-1.09493c0.63829,-0.19107 2.26659,0.85154 1.98332,0.24849c-0.85068,-1.81098 2.90672,-2.48779 3.40136,-3.78656c0.64245,-1.68685 1.58872,-2.94977 2.26244,-4.50497c0.01027,-0.02369 -1.18701,-1.55847 -1.16091,-1.9401c0.17313,-2.53084 3.69432,-0.69472 4.08387,0.86347c0.78745,3.14979 -0.98253,11.07518 -4.62823,12.21664c-1.52817,0.47847 -3.73636,0.45871 -5.24835,-0.03598c-0.63665,-0.2083 -2.88504,1.47232 -3.74436,1.68103c-1.45022,0.35222 -3.42434,-0.31624 -4.58827,0.00795c-1.26936,0.35355 -4.40737,1.99785 -5.62563,1.72712c-0.63032,-0.14007 -1.70768,-1.34582 -2.03532,-1.37818c-3.0038,-0.29672 -5.91658,2.30959 -8.37284,-0.37043c-0.6909,-0.75385 -2.04738,0.73984 -3.03225,0.4648c-1.15121,-0.3215 -1.20922,-1.60833 -1.65562,-2.50113c-0.10974,-0.20844 -0.17185,-0.44588 -0.17185,-0.69781c0,-0.82842 0.67158,-1.5 1.5,-1.5c0.13334,0 0.26262,0.0174 0.38569,0.05005c0.15995,0.03442 0.31356,0.09754 0.45283,0.19216z" data-paper-data="{&quot;index&quot;:null}" fill="#c7c7c7" stroke="none" stroke-width="0.5" stroke-linecap="butt"/><path d="M300.41143,293.50718c0,-0.82842 0.67158,-1.5 1.5,-1.5c0.82842,0 1.5,0.67158 1.5,1.5c0,0.46522 -0.21179,0.88099 -0.54422,1.15612c0.2904,0.27355 0.4717,0.66163 0.4717,1.09206c0,0.66645 -0.43463,1.23138 -1.03591,1.42683c0.78148,1.72809 0.31005,5.31664 1.02242,6.56329c0.44211,0.26092 0.7387,0.74219 0.7387,1.29272c0,0.3877 -0.14709,0.74106 -0.38851,1.00729c-0.54944,2.5473 1.95069,4.86498 0.09177,5.28579c-4.9203,1.11383 -3.94314,-8.3203 -4.19857,-10.06642c-0.13592,-0.92912 -0.99689,-3.9424 -0.27528,-4.66402c0.23737,-0.23737 0.4536,-0.41839 0.65874,-0.54307c-0.12322,-0.2178 -0.19354,-0.46946 -0.19354,-0.73755c0,-0.55282 0.29906,-1.03579 0.74421,-1.29596c-0.05919,-0.1612 -0.09152,-0.33537 -0.09152,-0.51709z" data-paper-data="{&quot;index&quot;:null}" fill="#c7c7c7" stroke="none" stroke-width="0.5" stroke-linecap="butt"/><path d="M338.48738,304.74812v0.21756c0,2.23243 0.6055,3.99178 0.79506,6.17354c0.10089,1.16111 -0.10254,2.23275 0.49129,3.25782c0,0 0.06639,0.12173 0.08975,0.28906c0.16061,0.05897 0.3299,0.10502 0.50831,0.13703l-0.0236,-0.01921c0,0 0.66324,0 0.74232,0.6237c0.44923,-0.07684 0.866,-0.20157 1.23455,-0.3952c1.11689,-0.58679 2.25161,-2.05385 3.28556,-2.87234c2.65948,-1.22932 1.66982,-3.25675 2.68509,-5.547c0.54658,-1.23298 1.35025,-2.11396 0.916,-3.65219c-0.39634,-1.40398 -1.55059,-1.99507 -1.56301,-3.76821l-0.07086,-0.91405c0,0 -0.00345,-0.04481 0.00231,-0.11334l-0.13936,-0.83619l0.13484,-0.02247c0,-0.22934 0,-0.70456 0,-0.9339c-0.099,-1.56691 0.47011,-2.99407 0.02325,-4.85591c-0.30614,-1.27553 -1.97619,-0.91111 -2.90585,-1.03497c-1.5122,-0.20148 -1.56831,-0.70068 -2.48451,-1.6042c-0.24349,-0.24012 -1.0508,-0.12369 -1.7957,0.04626c-0.5306,0.95584 -0.84837,1.79409 -1.03386,2.60901c-0.05887,0.61065 -0.12115,1.22035 -0.22748,1.81614c-0.04222,1.04994 0.03076,2.17423 0.05718,3.56212c0.03519,1.84881 -0.94972,1.70118 -1.44098,2.99777c-0.03949,0.10422 -0.07533,0.21649 -0.10794,0.33544c0.2402,0.65956 0.47296,1.30327 0.67293,1.91783c0.0024,0.56633 0.0718,1.34786 -0.13036,1.97539c0.28509,0.21693 0.28509,0.6105 0.28509,0.6105zM336.33468,294.01482c0,-0.41422 0.33578,-0.75 0.75,-0.75c0.19458,0 0.37185,0.0741 0.50514,0.19562c0.03362,-0.92021 0.1491,-1.78363 0.40394,-2.67252c0.00905,-0.09546 0.01814,-0.19091 0.02742,-0.28628c-0.37246,-0.13936 -0.44539,-0.45661 -0.45078,-0.66172c-2.09859,1.67248 -1.84013,4.37703 -1.01625,7.17374c0.16847,-0.74501 0.38548,-1.49454 0.64395,-2.25736c-0.03699,0.00561 -0.07487,0.00852 -0.11342,0.00852c-0.41422,0 -0.75,-0.33578 -0.75,-0.75zM337.34999,287.48784c0,-0.41422 0.33578,-0.75 0.75,-0.75c0.35209,0 0.64751,0.24262 0.72821,0.56979c-0.06469,-1.04397 -0.21672,-2.10862 -0.93782,-2.49496c-1.53437,-0.82208 -2.92804,1.37324 -4.03551,1.08157c-1.14342,-0.30115 -1.16998,-3.35226 -2.76222,-3.45954c-1.53674,-0.10354 -0.18932,1.11015 0.10781,1.56416l-0.05193,0.22548h0.08663v0.87027c0,0.41422 -0.33578,0.75 -0.75,0.75c-0.19396,0 -0.37072,-0.07362 -0.50387,-0.19446l-0.72308,-0.65078l0.24679,-0.27422c-1.60609,-1.77048 -2.7229,-4.61186 -5.01191,-5.142c-1.43786,-0.33301 -2.4484,0.35867 -3.81603,0.31443c-2.0207,-0.06536 -2.50991,-0.62422 -3.91679,1.17305c-1.29789,2.54786 -2.43506,4.22608 -3.25216,6.99532l-0.03084,0.25358c0.02174,0.21171 -0.05779,0.37446 -0.15577,0.49133c-0.04372,0.06553 -0.10057,0.12978 -0.17417,0.1819c0.23856,0.25637 0.4041,0.60484 0.45699,1.06947c0.2529,2.22146 -0.7014,4.77389 -0.57368,7.09696c0.06209,1.12941 0.68428,1.63527 0.86343,2.76374c0.31854,2.00664 0.22586,4.03351 0.22586,6.05804c-0.00169,0.83164 -0.33294,1.93765 -0.16036,2.75009c0.3122,1.46976 1.74102,1.8908 1.82619,3.57468c0.074,1.46317 -1.35885,2.76599 -2.87123,3.41635c4.01972,0.82146 8.22386,0.22071 12.42768,0.02833c1.49768,-0.06854 2.08182,1.07743 3.28855,1.08475c1.65933,0.07783 4.08384,-1.07178 5.86487,-1.36836c0.01255,-0.00209 0.02513,-0.00414 0.03774,-0.00615c-0.07355,-0.11269 -0.13488,-0.235 -0.18138,-0.36818c-0.50597,-1.44906 1.15332,-2.47342 1.65561,-3.57135c-0.17179,-0.68381 -0.28654,-1.39948 -0.35712,-2.1201c-0.53283,-1.484 -1.03989,-3.28919 -0.42719,-4.77442c0.10079,-0.24433 0.30302,-0.40197 0.54449,-0.52638c0.06905,-1.0319 0.11449,-2.48773 0.32953,-3.67403c-1.33367,-3.38094 -3.17825,-8.21413 -0.88028,-10.82393c0.47449,-0.53888 1.40697,-1.09968 2.37722,-1.56062c-0.1501,-0.13714 -0.24425,-0.33449 -0.24425,-0.55383zM337.4669,315.42258c0,0 0.01999,0.00666 0.05217,0.02112c0.24797,0.01552 0.49717,0.03161 0.74584,0.04588l-0.07336,-0.13323c-0.70181,-0.57146 -1.2305,-1.32887 -1.62279,-2.19565c-0.70959,1.00639 -1.21909,1.5643 0.89814,2.26188zM336.99256,316.8456c-0.05833,-0.01963 -0.11824,-0.03949 -0.17943,-0.05971c-0.438,-0.01354 -0.86178,-0.01112 -1.26207,0.02312c-2.36545,0.2023 -4.73402,1.46683 -6.98264,1.52488c-1.33414,-0.16348 -1.84324,-1.18274 -3.15285,-1.08526c-4.6918,0.34926 -9.58941,0.88596 -14.04005,-0.35473c-1.20177,-0.33501 -2.06561,0.0222 -2.87032,-0.96792c-2.11963,2.743 -3.17301,-1.28603 -5.20996,-1.81076c-0.34436,-0.08871 -0.72132,0.32487 -1.04994,0.18899c-1.98205,-0.8196 -1.76338,-3.99385 -2.82578,-5.41606c-1.75615,-2.35091 -2.25046,-4.20638 -2.01196,-7.27349c1.27866,-3.46953 0.61356,-8.96222 4.01587,-9.45973c0.40418,-0.0591 0.16606,-0.80076 0.28002,-1.19302c0.44553,-1.53346 0.36468,-2.36339 1.87805,-2.95957c0,0 0.08215,-0.02465 0.19922,-0.02949c0.01993,-0.02416 0.04193,-0.04836 0.06614,-0.07256c0.41399,-0.41399 0.82799,-0.18163 0.9897,-0.05976c1.14292,0.263 2.29825,-1.57583 3.98398,-0.9633c0.59927,0.21776 0.48082,1.25707 0.99559,1.63331c0.12784,0.09344 0.1544,-0.31056 0.30267,-0.36617c0.68113,-0.25547 1.26808,-0.14018 1.92474,-0.3315l0.02786,-0.17794c0.88346,-2.88666 2.11333,-4.71992 3.41988,-7.36406c1.69853,-2.19433 2.70965,-2.01114 5.221,-1.87288c2.71629,0.14954 4.21698,-1.00248 6.40413,1.32497c0.45825,0.48765 1.3483,1.24822 2.06581,2.08049c0.27236,-0.53677 0.90156,-0.89609 2.00085,-0.86603c1.13984,0.03116 2.21663,1.39461 2.7613,2.22859c0.11678,0.1788 0.27317,0.54776 0.35922,0.84821c0.27744,-0.24162 0.81287,-0.48533 1.11436,-0.58056c0.93583,-0.29559 2.28271,-0.41188 3.18173,0.05729c0.79125,0.41292 1.84313,2.29424 1.74572,3.54323c0.13044,-0.01425 0.31908,-0.00862 0.48672,0.09609c1.13802,-0.19275 2.45549,1.39232 3.24138,1.70835c1.10225,0.44324 2.46127,-0.04192 3.56258,0.51192c1.79614,0.90326 1.50099,2.92997 1.28801,4.54504c-0.07112,0.53936 0.03142,1.24895 0.04083,1.8879c0.02594,0.0463 0.04581,0.09326 0.06102,0.13802c0.03208,0.0835 0.04967,0.17418 0.04967,0.26897c0,0.29009 0,0.58017 0,0.87026v1.01531c0,0.02501 -0.00122,0.04974 -0.00362,0.07413c0.00104,0.00867 0.0014,0.01339 0.0014,0.01339l0.07418,0.97153c-0.01409,1.68305 1.03625,1.92804 1.48293,3.33897c0.58089,1.83485 -0.27509,3.25079 -0.96958,4.76038c-1.18072,2.56651 -0.12448,4.75585 -3.26173,6.20159c-1.06608,0.86328 -2.20567,2.30734 -3.38648,2.92944c-1.51873,0.80014 -3.56031,0.56662 -5.44556,0.45576c-0.27513,0.12417 -0.57461,0.02434 -0.57461,0.02434zM310.44855,314.73717l0.6732,-0.07831c0.38838,0.01769 0.79805,-0.10379 1.12191,-0.31889c0.44248,-0.29388 1.86167,-0.95857 2.11831,-1.43167c0.59718,-1.10084 -1.659,-2.94358 -1.87176,-3.87564c-0.21443,-0.93935 0.13191,-2.09248 0.12973,-3.05169c0,-4.06802 -1.3122,-7.7029 -1.0868,-11.64285c0.0582,-1.01735 1.17875,-3.88912 0.15325,-4.4155c-0.11975,0.08098 -0.26415,0.12826 -0.41959,0.12826c-0.16841,0 -0.32385,-0.05551 -0.44904,-0.14923c-0.0863,0.005 -0.23462,0.00164 -0.38142,-0.05775c-0.49427,0.11324 -0.90352,0.17014 -1.05489,0.10227c-0.63011,-0.28253 -0.51148,-1.52993 -1.18007,-1.70271c-1.47178,-0.38033 -2.23985,1.3186 -3.86038,1.00158c-0.15182,0.14103 -0.32847,0.19402 -0.32847,0.19402c-0.90781,0.05127 -0.77351,2.28699 -1.20281,3.07756c-0.69809,1.2855 -1.46072,1.07293 -2.34955,1.45695c-0.40513,0.17504 0.20725,0.91103 0.04917,1.32308c-0.78764,2.05316 -0.79568,4.44215 -1.63632,6.63806c-0.17011,2.69245 0.32157,4.03694 1.7592,6.07059c0.50353,0.71227 1.20655,4.72211 2.10573,4.88208c0.28589,0.05086 0.55857,-0.3331 0.83563,-0.24615c1.20225,0.37732 1.69518,1.22969 2.58312,1.96888c0.35894,0.29881 0.66893,1.21188 1.04433,0.93405c0.51965,-0.38457 0.99076,-0.88841 1.60579,-1.08758c0.32144,0.27761 0.7062,0.44787 1.11742,0.57077c0.19286,-0.24878 0.52433,-0.29021 0.52433,-0.29021z" data-paper-data="{&quot;index&quot;:null}" fill="#000000" stroke="none" stroke-width="0.5" stroke-linecap="butt"/><path d="M313.1028,288.97005c0.0736,-0.05212 0.13074,-0.1169 0.17446,-0.18243c0.09798,-0.11687 0.17811,-0.28073 0.15636,-0.49244l0.03113,-0.25408c0.81709,-2.76925 1.96548,-4.46088 3.26337,-7.00874c1.40688,-1.79727 1.90343,-1.24354 3.92413,-1.17818c1.36764,0.04424 2.38618,-0.65112 3.82405,-0.31811c2.28901,0.53015 3.41665,3.36897 5.02274,5.13945l-0.24783,0.27435l0.72555,0.65049c0.13314,0.12083 0.31186,0.19432 0.50582,0.19432c0.41422,0 0.75302,-0.33585 0.75302,-0.75007l-0.00081,-0.77027h-0.08632l0.05175,-0.22548c-0.29713,-0.45401 -1.64439,-1.7677 -0.10764,-1.66415c1.59224,0.10728 1.62976,3.15958 2.77317,3.46073c1.10746,0.29167 2.51288,-1.89945 4.04726,-1.07736c1.24804,0.66867 0.80208,3.37644 1.13832,4.48501c0.28253,-0.05561 2.73782,-0.85892 3.19553,-0.40754c0.9162,0.90353 0.97749,1.41019 2.48969,1.61167c0.92967,0.12387 2.60257,-0.23463 2.90871,1.0409c0.44686,1.86184 -0.11892,3.3023 -0.01992,4.86921c0,0.22934 0.00023,0.70736 0.00023,0.9367l-0.13484,0.02252l0.13943,0.83875c-0.00576,0.06853 -0.00232,0.11368 -0.00232,0.11368l0.07077,0.91681c0.01242,1.77314 1.16509,2.37394 1.56143,3.77792c0.43424,1.53823 -0.37289,2.42847 -0.91947,3.66145c-1.01527,2.29026 -0.03451,4.33035 -2.69399,5.55966c-1.03395,0.81849 -2.17696,2.29246 -3.29386,2.87925c-2.02533,1.06405 -5.5251,0.05507 -7.84752,0.44182c-1.78103,0.29659 -4.22172,1.44668 -5.88106,1.36885c-1.20673,-0.00732 -1.79987,-1.15535 -3.29755,-1.08682c-4.20382,0.19238 -8.42834,0.78034 -12.44806,-0.04112c1.51238,-0.65037 2.94447,-1.954 2.87046,-3.41717c-0.08517,-1.68388 -1.5198,-2.11259 -1.832,-3.58236c-0.17257,-0.81244 0.15582,-1.92377 0.15751,-2.75541c0,-2.02453 0.08837,-4.06722 -0.23017,-6.07385c-0.17914,-1.12847 -0.80151,-1.64217 -0.8636,-2.77159c-0.12772,-2.32307 0.83111,-4.89371 0.57822,-7.11517c-0.05289,-0.46463 -0.21758,-0.81484 -0.45614,-1.07121z" data-paper-data="{&quot;noHover&quot;:false,&quot;origItem&quot;:[&quot;Path&quot;,{&quot;applyMatrix&quot;:true,&quot;segments&quot;:[[[627.20866,580.12448],[-0.10579,-0.92926],[0.50579,4.44292]],[[626.0613,594.31839],[-0.25544,-4.64614],[0.12419,2.25883]],[[627.78815,599.84588],[-0.35828,-2.25695],[0.63709,4.01327]],[[628.23987,611.96196],[0,-4.04906],[-0.00339,1.66328]],[[627.91915,617.46214],[-0.34515,-1.62488],[0.6244,2.93953]],[[631.57152,624.61149],[-0.17034,-3.36775],[0.14801,2.92635]],[[625.82905,631.44419],[3.02477,-1.30073],[8.03944,1.64292]],[[650.68441,631.50085],[-8.40763,0.38476],[2.99535,-0.13708]],[[657.26151,633.67035],[-2.41347,-0.01464],[3.31867,0.15566]],[[668.99126,630.93362],[-3.56206,0.59318],[4.64484,-0.77349]],[[684.6501,630.06482],[-4.05066,2.12809],[2.23379,-1.17357]],[[691.22122,624.32015],[-2.0679,1.63697],[5.31896,-2.45864]],[[696.59139,613.22615],[-2.03054,4.58051],[1.09316,-2.46596]],[[698.4234,605.92177],[0.86849,3.07646],[-0.79269,-2.80796]],[[695.29738,598.38536],[0.02484,3.54628],[0,0]],[695.15565,596.55726],[[695.16028,596.33058],[-0.01153,0.13706],[0,0]],[694.88155,594.6582],[[695.15123,594.61325],[0,0],[0,-0.45868]],[[695.15123,592.74546],[0,0.45868],[-0.198,-3.13383]],[[695.19774,583.03364],[0.89372,3.72368],[-0.61228,-2.55107]],[[689.38603,580.96369],[1.85933,0.24773],[-3.02441,-0.40297]],[[684.41701,577.75529],[1.8324,1.80705],[-0.91542,-0.90276]],[[678.03614,578.58087],[0.56506,-0.11123],[-0.67248,-2.21713]],[[675.78077,569.62532],[2.49607,1.33734],[-3.06874,-1.64416]],[[667.70975,571.78846],[2.21493,0.58335],[-2.28683,-0.60229]],[[662.18531,564.86939],[3.18447,0.21455],[-3.07349,-0.20708]],[[662.40093,567.9977],[-0.59426,-0.90802],[0,0]],[662.29707,568.44866],[662.47033,568.44866],[[662.47033,570.1892],[0,0],[0,0.82843]],[[660.97033,571.6892],[0.82843,0],[-0.38792,0]],[[659.9626,571.30029],[0.26628,0.24166],[0,0]],[658.51644,569.99874],[[659.01002,569.45031],[0,0],[-3.21217,-3.54096]],[[648.9862,559.1663],[4.57802,1.06029],[-2.87573,-0.66603]],[[641.35414,559.79515],[2.73527,0.08848],[-4.0414,-0.13073]],[[633.52056,562.14125],[2.81377,-3.59454],[-2.59578,5.09571]],[[627.01625,576.1319],[1.63419,-5.53849],[0,0]],[[626.95457,576.63907],[0,0],[0.04348,0.42342]],[[626.64303,577.62173],[0.19596,-0.23373],[-0.08744,0.13106]],[[626.29468,577.98553],[0.1472,-0.10425],[0.47713,0.51275]]],&quot;closed&quot;:true}],&quot;index&quot;:null}" fill="#c7c7c7" stroke="none" stroke-width="0.5" stroke-linecap="butt"/><path d="M309.93631,315.0759c-0.41122,-0.12291 -0.79962,-0.2924 -1.12106,-0.57001c-0.61503,0.19918 -1.09258,0.70369 -1.61223,1.08826c-0.37541,0.27783 -0.68934,-0.63524 -1.04828,-0.93405c-0.88795,-0.73919 -1.39269,-1.59344 -2.59494,-1.97077c-0.27706,-0.08695 -0.55275,0.29604 -0.83864,0.24518c-0.89918,-0.15997 -1.62051,-4.18129 -2.12403,-4.89356c-1.43763,-2.03366 -1.94423,-3.4135 -1.77411,-6.10594c0.84065,-2.19592 0.86461,-4.62176 1.65225,-6.67493c0.15807,-0.41205 -0.45103,-1.15084 -0.0459,-1.32588c0.88883,-0.38402 1.66331,-0.17833 2.3614,-1.46383c0.42931,-0.79056 0.3036,-3.02894 1.21141,-3.08021c0,0 0.17802,-0.05326 0.32984,-0.19429c1.62053,0.31703 2.40323,-1.38241 3.87501,-1.00207c0.66859,0.17278 0.55546,1.42111 1.18557,1.70364c0.15137,0.06787 0.56447,0.01202 1.05874,-0.10122c0.1468,0.05939 0.29655,0.06322 0.38285,0.05821c0.12518,0.09371 0.28237,0.14987 0.45078,0.14987c0.15544,0 0.30106,-0.04678 0.42082,-0.12776c1.0255,0.52638 -0.08729,3.40224 -0.14549,4.4196c-0.22539,3.93995 1.10091,7.64509 1.10091,11.71311c0.00218,0.95921 -0.35375,2.12278 -0.13932,3.06214c0.21276,0.93205 2.46596,2.77705 1.86878,3.8779c-0.25664,0.47309 -1.68401,1.14243 -2.12649,1.43631c-0.32385,0.2151 -0.73749,0.33817 -1.12587,0.32047l-0.67555,0.07907c0,0 -0.33355,0.042 -0.52641,0.29078z" data-paper-data="{&quot;noHover&quot;:false,&quot;origItem&quot;:[&quot;Path&quot;,{&quot;applyMatrix&quot;:true,&quot;segments&quot;:[[620.89709,629.47435],[[622.24349,629.31772],[0,0],[0.77676,0.03538]],[[624.4873,628.67994],[-0.64771,0.4302],[0.88496,-0.58777]],[[628.72393,625.81661],[-0.51328,0.94618],[1.19436,-2.20169]],[[624.98041,618.06533],[0.42552,1.86411],[-0.42886,-1.87871]],[[625.23987,611.96196],[0.00437,1.91842],[0,-8.13604]],[[623.06626,588.67625],[-0.45079,7.87991],[0.1164,-2.0347]],[[623.37276,579.84525],[2.051,1.05276],[-0.2395,0.16195]],[[622.53358,580.10177],[0.31088,0],[-0.33682,0]],[[621.63551,579.80332],[0.25037,0.18743],[-0.1726,0.01001]],[[620.87266,579.68783],[0.29361,0.11877],[-0.98854,0.22648]],[[618.76289,579.89236],[0.30274,0.13574],[-1.26022,-0.56506]],[[616.40274,576.48695],[1.33718,0.34555],[-2.94356,-0.76066]],[[608.68198,578.49011],[3.24106,0.63405],[-0.30365,0.28205]],[[608.02504,578.87815],[0,0],[-1.81562,0.10253]],[[605.61941,585.03326],[0.85862,-1.58112],[-1.39618,2.571]],[[600.92031,587.94717],[1.77767,-0.76804],[-0.81027,0.35008]],[[601.01866,590.59334],[0.31614,-0.8241],[-1.57528,4.10633]],[[597.74601,603.86947],[1.6813,-4.39183],[-0.34022,5.38489]],[[601.2644,616.01065],[-2.87526,-4.06731],[1.00705,1.42455]],[[605.47585,625.77482],[-1.79835,-0.31994],[0.57178,0.10172]],[[607.14711,625.28253],[-0.55411,-0.1739],[2.40451,0.75465]],[[612.31335,629.22029],[-1.77589,-1.47837],[0.71788,0.59761]],[[614.40202,631.08839],[-0.75081,0.55566],[1.03929,-0.76915]],[[617.61359,628.91322],[-1.23006,0.39835],[0.64289,0.55522]],[[619.84844,630.05477],[-0.82244,-0.24581],[0.38571,-0.49756]]],&quot;closed&quot;:true}],&quot;index&quot;:null}" fill="#c7c7c7" stroke="none" stroke-width="0.5" stroke-linecap="butt"/><path d="M338.53513,315.91652l-2.68332,-1.37792l-1.59549,-3.6261l-0.36261,-3.62611l0.36261,-3.69863l1.88558,-10.58824l3.69863,-4.35133" data-paper-data="{&quot;index&quot;:null}" fill="none" stroke="#000000" stroke-width="1.5" stroke-linecap="round"/><path d="M333.74866,286.83513l2.32071,4.42385" data-paper-data="{&quot;index&quot;:null}" fill="none" stroke="#000000" stroke-width="1.5" stroke-linecap="round"/><path d="M331.28291,285.81982l1.74053,0.79775" data-paper-data="{&quot;index&quot;:null}" fill="none" stroke="#000000" stroke-width="1.5" stroke-linecap="round"/><path d="M335.70676,294.37745v-2.82837" data-paper-data="{&quot;index&quot;:null}" fill="none" stroke="#000000" stroke-width="1.5" stroke-linecap="round"/><path d="M302.0317,299.96164c0,-0.41422 0.33578,-0.75 0.75,-0.75c0.41422,0 0.75,0.33578 0.75,0.75c0,0.41422 -0.33578,0.75 -0.75,0.75c-0.41422,0 -0.75,-0.33578 -0.75,-0.75z" data-paper-data="{&quot;index&quot;:null}" fill="#c7c7c7" stroke="none" stroke-width="0.5" stroke-linecap="butt"/><path d="M314.16562,311.57205c0.71837,0.21551 0.50286,0.93388 0.50286,0.93388l-0.22404,0.74572c-0.986,2.43764 -3.37682,1.94587 -5.60205,1.81874c-1.01906,-0.05822 -1.43337,0.45828 -2.52671,0.10721c-1.24529,-0.39986 -1.63237,-1.58827 -2.6264,-2.25138c-0.73361,-0.48939 -1.90431,-0.29884 -2.454,-0.98842c-0.8281,-1.03884 -0.74594,-2.57889 -0.89753,-3.81102c-0.50957,-0.91256 -1.17773,-0.42868 -1.78631,-1.60477c-0.53256,-1.02919 -0.65114,-3.35706 -0.50183,-4.48424c0.41032,-3.09751 2.56945,-4.48681 1.96356,-7.74372c0,0 -0.13416,-0.7379 0.60374,-0.87207c0.7379,-0.13416 0.87207,0.60374 0.87207,0.60374c0.76873,4.31254 -3.29185,7.47102 -1.5842,11.84939c0.19421,0.49795 1.45871,1.1607 1.8398,1.73125c0.17204,1.09787 0.08812,2.45561 0.69796,3.4412c0.36374,0.58784 1.43497,0.2529 2.04238,0.60707c0.8811,0.51376 1.30683,1.7418 2.3051,2.09995c0.65701,0.23571 1.38242,-0.20661 2.11471,-0.18288c1.25371,0.04062 3.67536,0.73249 4.11592,-0.79205l0.2111,-0.70472c0,0 0.21551,-0.71837 0.93388,-0.50286z" data-paper-data="{&quot;index&quot;:null}" fill="#939393" stroke="none" stroke-width="0.5" stroke-linecap="butt"/><path d="M336.45676,315.33635c0,0.75 -0.75,0.75 -0.75,0.75l-0.09427,-0.0102c-1.30097,0.21607 -2.86172,0.13289 -4.02234,0.74213c-2.40328,0.96318 -3.66229,0.06708 -6.00036,-0.23222c-3.675,-0.47044 -7.51117,0.56882 -11.20454,0.03922v0.11378h-0.87027c-0.41422,0 -0.75,-0.33578 -0.75,-0.75c0,-0.19046 0.071,-0.36434 0.18796,-0.49661l0.50526,-0.57744l0.03963,0.03467l0.06627,-0.1343c0.71836,-0.36719 1.14969,-0.71551 1.69921,-1.29314c-0.31475,-1.75144 -1.42275,-2.89511 -1.7605,-4.50344c-0.47039,-2.23998 0.87841,-4.68056 0.36742,-7.01085c-0.54839,-2.50085 -1.614,-4.00455 -1.61213,-6.7217c0.38083,-4.19039 1.0776,-7.8329 2.74231,-11.71789c0.82627,-1.92829 1.16862,-3.22031 3.23014,-4.09756c0,0 0.69231,-0.28846 0.98077,0.40385c0.28846,0.69231 -0.40384,0.98077 -0.40384,0.98077c-1.63815,0.66438 -1.76418,1.75432 -2.42659,3.2997c-1.59461,3.72013 -2.2592,7.18419 -2.62433,11.19912c0.00189,2.59238 1.05668,3.91455 1.57884,6.33229c0.51005,2.36165 -0.76853,4.81248 -0.3578,7.05845c0.33213,1.81615 1.63071,3.08179 1.72056,5.21453c-0.34323,0.46586 -0.63619,0.84847 -0.97246,1.17792c1.18089,-0.06977 2.69801,0.10164 3.30097,0.10164c2.17883,0 4.63598,-0.42088 6.78095,-0.13709c2.02994,0.26857 3.12309,1.16417 5.16805,0.34796c1.34783,-0.6491 2.91681,-0.60687 4.39023,-0.85336l0.34086,-0.0102c0,0 0.75,0 0.75,0.75z" data-paper-data="{&quot;index&quot;:null}" fill="#939393" stroke="none" stroke-width="0.5" stroke-linecap="butt"/><path d="M315.97569,302.46164c-0.61442,0.43009 -1.04452,-0.18433 -1.04452,-0.18433l-0.5125,-0.73223c-0.81499,-1.22233 -1.14155,-1.97015 -1.14604,-3.46902c0.00272,-4.38367 0.67934,-8.63504 2.22321,-12.7366c0.2982,-0.79221 0.96597,-2.38427 1.74585,-3.32527c0.0672,-0.3066 0.1421,-0.61303 0.22882,-0.92165l0.09482,-0.07272l-0.04168,-0.02652l0.50088,-0.78709c0.13193,-0.21476 0.369,-0.35799 0.63952,-0.35799c0.41422,0 0.75,0.33578 0.75,0.75c0,0.09467 -0.01754,0.18525 -0.04955,0.26865l-0.35676,0.99891l-0.19066,-0.06809c-0.18859,0.74906 -0.30228,1.50218 -0.42948,2.26529c-0.56282,3.09598 -2.39342,6.36598 -1.67694,9.56197c0.40026,1.78547 2.27758,3.54941 3.24759,5.07789c0.84336,1.32893 1.26747,3.08727 1.8058,4.56147c1.7311,5.01261 7.32829,10.24374 12.5539,11.18908c0,0 0.7379,0.13416 0.60373,0.87207c-0.13416,0.7379 -0.87207,0.60374 -0.87207,0.60374c-5.75371,-1.05183 -11.78113,-6.64273 -13.69913,-12.16305c-0.49501,-1.36774 -0.88506,-3.05984 -1.67527,-4.28623c-1.09208,-1.69491 -2.95562,-3.52104 -3.42444,-5.51034c-0.09165,-0.38886 -0.14931,-0.77673 -0.17862,-1.16367c-0.22156,1.77361 -0.30066,3.57098 -0.29954,5.27017c-0.00426,1.23228 0.21467,1.61785 0.88458,2.62284l0.50281,0.71821c0,0 0.43009,0.61442 -0.18433,1.04452z" data-paper-data="{&quot;index&quot;:null}" fill="#939393" stroke="none" stroke-width="0.5" stroke-linecap="butt"/><path d="M318.71274,314.36179c0.00165,0.00559 0.0033,0.01118 0.00496,0.01678c0.02874,-0.00261 0.05749,-0.00517 0.08625,-0.00768c-0.03141,-0.00292 -0.06185,-0.00595 -0.09121,-0.0091zM319.36449,316.30057c0.03201,0.08341 0.04955,0.17398 0.04955,0.26866c0,0.41421 -0.33579,0.75 -0.75,0.75c-0.15136,0 -0.29224,-0.04484 -0.4101,-0.12195l-1.25863,-0.79492l0.14172,-0.22439c-0.03478,-0.02206 -0.06945,-0.04442 -0.10394,-0.06705c-0.55482,0.10134 -1.10331,0.22713 -1.64407,0.38171c0,0 -0.72114,0.20604 -0.92718,-0.5151c-0.20604,-0.72114 0.5151,-0.92718 0.5151,-0.92718c0.14675,-0.04191 0.294,-0.08179 0.44173,-0.11975l-0.03269,-0.19617l0.0053,-0.00088l-0.00721,-0.01119c-0.05718,-0.43323 -0.09776,-0.8691 -0.12275,-1.30584c-0.23273,-0.72149 -0.27709,-1.56412 -0.38558,-2.32491c-0.26849,-1.88283 -0.25192,-3.6133 -0.17843,-5.35214c-0.48016,-3.83367 -1.04576,-7.77225 -0.59086,-11.36393l-0.19308,0.00772l-0.05976,-1.49412c-0.00052,-0.01149 -0.00079,-0.02304 -0.00079,-0.03465c0,-0.41421 0.33579,-0.75 0.75,-0.75c0.39392,0 0.71691,0.30369 0.74761,0.68971l0.06147,0.67612l0.11993,0.27017c1.66855,1.46121 3.2492,3.14181 3.91282,5.32119c1.02959,2.56992 1.06483,5.63955 2.79333,7.92043c0.80717,1.06512 2.12835,1.63198 3.01201,2.64124c1.37709,1.57282 2.47798,2.95669 3.91664,4.24292l0.67475,0.15571c0.20059,0.04185 0.37177,0.16384 0.47854,0.33096c0.4874,0.06602 0.96593,0.16034 1.44057,0.28851l0.03008,-0.00501v-0.12261h0.79774c0.41421,0 0.75,0.33579 0.75,0.75c0,0.37645 -0.27735,0.68812 -0.63886,0.74182l-0.8581,0.14302l-0.00454,-0.02725l-0.0569,0.0349c-4.0697,0.0091 -8.44544,-0.65673 -12.58261,-0.32393zM318.30051,302.77931c-0.01188,-0.05675 -0.0244,-0.11314 -0.0376,-0.16915l-0.04272,0.02718c0.02754,0.04705 0.0543,0.09438 0.08032,0.14197z" data-paper-data="{&quot;index&quot;:null}" fill="#939393" stroke="none" stroke-width="0.5" stroke-linecap="butt"/><path d="M301.74161,312.58051c0,-0.75 0.75,-0.75 0.75,-0.75h0.79774c0.11843,0.00049 0.25265,-0.01323 0.39773,-0.03573c-0.64613,-0.2985 -1.67555,-0.49695 -2.0706,-1.06569c-0.44335,-0.63828 -0.6465,-1.54894 -0.73928,-2.45581c-0.05017,-0.10063 -0.07839,-0.21411 -0.07839,-0.33419c0,-0.07793 0.01188,-0.15307 0.03394,-0.22373c-0.00718,-0.12154 -0.01282,-0.24196 -0.01723,-0.36056c-0.14901,-0.20339 -0.28361,-0.43453 -0.40294,-0.68556l-0.34044,0.81705c-0.10902,0.27953 -0.38088,0.47758 -0.69899,0.47758c-0.41421,0 -0.75,-0.33579 -0.75,-0.75v-0.79774c0,-1.29308 -0.69929,-6.03697 1.30803,-6.33388c0.17454,-0.02582 0.337,0.00719 0.48813,0.08829c-0.13833,-1.29332 -0.10711,-2.58899 0.01945,-4.0419c0.07654,-0.87873 -0.17604,-2.13117 0.5072,-2.8617c0.29739,-0.31797 1.62705,-0.33137 1.79699,-0.92057c0.42482,-1.47283 0.00524,-2.348 1.43577,-3.37942c0,0 0.62404,-0.41603 1.04006,0.20801c0.41603,0.62404 -0.20801,1.04006 -0.20801,1.04006c-1.0869,0.62266 -0.45074,1.69683 -0.88494,2.71244c-0.50466,1.18042 -1.39894,0.8249 -2.1192,1.40014c-0.21059,0.16819 -0.05237,1.68744 -0.07297,1.92476c-0.20949,2.41298 -0.16533,4.31494 0.60529,6.6311c0.54409,1.24363 0.69539,3.15101 1.3231,4.61434c0.44549,0.19205 0.83955,0.41255 1.0484,0.72432c0.1795,0.26795 0.31922,0.64554 0.43238,1.06004c1.17202,0.76929 2.73051,1.48787 4.04181,1.76544c0.80157,0.16967 3.08599,-0.00819 3.68289,0.55083c2.19472,2.05543 -0.97074,2.78336 -2.37441,2.81864c-0.48914,0.09481 -1.04362,0.09536 -1.5355,0.01206c-0.35955,0.00836 -0.71928,0.02318 -1.08137,0.04946l-0.7293,0.1989c-0.06779,0.02014 -0.13959,0.03095 -0.21391,0.03095c-0.32451,0 -0.60089,-0.2061 -0.70537,-0.49455c-0.329,0.10333 -0.73865,0.06092 -1.22181,-0.20388c-0.30367,-0.16643 -0.51281,-0.43049 -0.66111,-0.75459c-0.41833,0.04755 -0.83783,0.07363 -1.25539,0.0751h-0.79774c0,0 -0.75,0 -0.75,-0.75zM311.94726,312.9111c0.19218,-0.01042 0.1557,-0.02847 -0.01994,-0.05293c0.00706,0.0178 0.0137,0.03544 0.01994,0.05293z" data-paper-data="{&quot;index&quot;:null}" fill="#939393" stroke="none" stroke-width="0.5" stroke-linecap="butt"/><path d="M339.777,316.06908c-0.58565,0.46852 -1.05417,-0.11713 -1.05417,-0.11713l-0.24938,-0.31375c-1.13943,-1.26659 -3.41869,-2.25091 -4.09356,-3.82998c-0.97697,-2.28593 0.54397,-5.48909 0.71128,-7.83215c0.49883,-5.92971 0.94813,-10.73628 5.12165,-15.29859c0,0 0.50679,-0.55287 1.05966,-0.04607c0.55287,0.50679 0.04607,1.05966 0.04607,1.05966c-3.94704,4.29633 -4.2697,8.80511 -4.73186,14.40072c-0.14137,1.97855 -1.63755,5.24824 -0.81532,7.15629c0.54251,1.25893 2.87556,2.3411 3.81701,3.38667l0.30574,0.38016c0,0 0.46852,0.58565 -0.11713,1.05417z" fill="#939393" stroke="none" stroke-width="0.5" stroke-linecap="butt"/><path d="M337.69827,290.79985c-0.43593,0.6103 -1.04623,0.17437 -1.04623,0.17437l-0.75465,-0.70095c-0.89745,-2.47359 -0.7979,-3.2713 -3.38349,-4.27589c0,0 -0.1338,-0.05203 -0.26155,-0.1691c-0.24376,-0.07523 -0.39922,-0.26955 -0.39922,-0.26955l-0.19018,-0.25492c-0.73019,-0.66738 -1.031,-1.28287 -1.53266,-2.11763c0,0 -0.38587,-0.64312 0.25725,-1.02899c0.64312,-0.38587 1.02899,0.25725 1.02899,0.25725c0.41803,0.69776 0.62552,1.2406 1.24297,1.76826l0.32871,0.3954c0.04359,0.01125 0.06937,0.02128 0.06937,0.02128c2.97766,1.159 3.2451,2.40496 4.24951,5.16128l0.21682,-0.00704c0,0 0.6103,0.43593 0.17437,1.04623z" fill="#939393" stroke="none" stroke-width="0.5" stroke-linecap="butt"/></g></g></svg>