<svg version="1.1" xmlns="http://www.w3.org/2000/svg" xmlns:xlink="http://www.w3.org/1999/xlink" width="151.02605" height="161.44451" viewBox="0,0,151.02605,161.44451"><g transform="translate(-168.42868,-130.08459)"><g data-paper-data="{&quot;isPaintingLayer&quot;:true}" fill-rule="nonzero" stroke-linejoin="miter" stroke-miterlimit="10" stroke-dasharray="" stroke-dashoffset="0" style="mix-blend-mode: normal"><path d="M239.8815,206.2253c17.3034,0 32.9826,1.5517 44.336,4.0579c11.3534,2.507 18.381,5.9687 18.381,9.7887c0,3.8201 -7.0276,7.2817 -18.381,9.7888c-11.3534,2.5062 -27.0326,4.0578 -44.336,4.0578c-17.3034,0 -32.9826,-1.5516 -44.336,-4.0578c-11.3534,-2.5071 -18.381,-5.9687 -18.381,-9.7888c0,-3.82 7.0276,-7.2817 18.381,-9.7887c11.3534,-2.5062 27.0326,-4.0579 44.336,-4.0579z" fill="#b2b2b2" stroke="#b2b2b2" stroke-width="1.62901" stroke-linecap="butt"/><g stroke-linecap="round"><path d="M238.5002,169.7485c11.5505,0 20.124,2.9002 29.5959,7.8871c4.501,2.3753 8.4245,7.0217 11.2923,12.7013c2.2579,4.4786 3.9219,10.2242 3.6653,15.5683c-0.4895,6.0139 0.4651,14.3636 -5.7015,15.4413c-24.6633,4.3083 -49.7867,4.138 -74.5273,-0.7625c-6.1854,-1.2252 -4.8512,-10.3069 -5.7016,-15.8861c-0.6141,-4.5269 -0.9432,-9.9841 0.6516,-13.9162c2.5095,-6.066 6.5894,-10.6183 11.1294,-13.1461c9.4182,-5.2144 18.0454,-7.8871 29.5959,-7.8871z" fill="#660000" stroke="#703d00" stroke-width="2.12954"/><path d="M239.3121,169.1368c9.8955,-0.3091 19.8251,-0.1382 29.5259,1.3407c5.6005,1.1605 13.0549,1.5342 15.8828,6.4937c3.6743,6.4309 0.8944,14.5937 0.4073,22.4138c-0.2126,2.0822 -0.9554,6.3153 -2.8508,5.6977c-4.303,-2.0026 -5.8001,-11.1189 -10.1406,-12.5685c-2.2505,-0.7482 -0.3567,6.4385 -2.9322,7.7925c-3.5024,1.8216 -9.8099,-3.8275 -11.7696,-0.8798c-2.2204,3.3474 4.3429,8.8206 2.9322,12.9874c-0.6948,2.7048 -6.0005,4.3965 -7.5749,2.1786c-3.0006,-4.2314 0.4398,-11.0561 -2.1177,-15.5849c-1.3431,-2.3839 -5.581,-2.4928 -7.5749,-0.8798c-3.7476,3.0424 -3.3134,9.7506 -7.1269,12.5684c-2.0404,1.5058 -5.2797,0.4525 -7.1677,-0.8797c-4.773,-4.1493 -5.9679,-13.5656 -11.7696,-14.7052c-4.3772,-0.8655 -6.6961,10.8542 -9.6926,9.5102c-3.3859,-1.5351 0.4186,-14.9967 -2.525,-16.0039c-2.7636,-0.9208 -6.0217,13.4919 -8.4709,12.8199c-2.8043,-0.8572 -2.2659,-10.7846 -2.0362,-15.8782c0.1873,-4.182 -0.9717,-10.8307 2.8507,-12.2334c13.2977,-4.8489 28.0606,-3.7479 42.1507,-4.1895z" fill="#ff99e5" stroke="#ff00bf" stroke-width="1.65257"/><path d="M217.6896,178.7043l4.1947,-0.8145" fill="none" stroke="#9b4976" stroke-width="1.62504"/><path d="M236.1789,188.8042h-5.05" fill="none" stroke="#9b4976" stroke-width="1.62504"/><path d="M264.3608,180.4147v3.7875" fill="none" stroke="#9b4976" stroke-width="1.62504"/><path d="M247.9485,172.8398l4.2354,2.525" fill="none" stroke="#9b4976" stroke-width="1.62504"/><path d="M279.1034,191.7771v-4.6427" fill="none" stroke="#9b4976" stroke-width="1.62504"/><path d="M274.9087,177.4418h-3.3802" fill="none" stroke="#9b4976" stroke-width="1.62504"/><path d="M205.472,183.7542l3.7875,-3.7874" fill="none" stroke="#9b4976" stroke-width="1.62504"/><path d="M210.1147,188.8042l3.3395,-0.8145" fill="none" stroke="#ffffff" stroke-width="1.62504"/><path d="M229.4592,172.8398l3.3802,2.9323" fill="none" stroke="#ffffff" stroke-width="1.62504"/><path d="M231.5769,201.877l3.3395,-2.973" fill="none" stroke="#ffffff" stroke-width="1.62504"/><path d="M249.211,194.3021l3.3802,2.5249" fill="none" stroke="#ffffff" stroke-width="1.62504"/><path d="M260.1661,194.7093l-0.4073,2.525z" fill="none" stroke="#ffffff" stroke-width="1.62504"/><path d="M260.5733,174.1023h3.7875" fill="none" stroke="#ffffff" stroke-width="1.62504"/><path d="M271.1212,186.7272l3.3395,-0.8553" fill="none" stroke="#ffffff" stroke-width="1.62504"/><path d="M200.8293,177.8898l4.6427,-1.7105" fill="none" stroke="#ffffff" stroke-width="1.62504"/><path d="M213.4542,177.0345l-1.2625,-2.9322z" fill="none" stroke="#ffffff" stroke-width="1.62504"/><path d="M248.3965,186.2792l-0.448,-2.077z" fill="none" stroke="#ffffff" stroke-width="1.62504"/><path d="M221.0291,189.6594l2.5249,-5.4572" fill="none" stroke="#6148a4" stroke-width="1.62504"/><path d="M243.3465,171.9846h-5.0499" fill="none" stroke="#6148a4" stroke-width="1.62504"/><path d="M245.8715,193.4468l-5.0499,1.6698" fill="none" stroke="#6148a4" stroke-width="1.62504"/><path d="M260.1661,188.8042l-4.6427,-1.6698" fill="none" stroke="#6148a4" stroke-width="1.62504"/><path d="M214.7166,194.3021l-4.1947,1.6697" fill="none" stroke="#6148a4" stroke-width="1.62504"/><path d="M200.0148,185.8719v-3.3802" fill="none" stroke="#6148a4" stroke-width="1.62504"/><path d="M220.2146,171.5774l3.7874,-0.4073" fill="none" stroke="#6148a4" stroke-width="1.62504"/><path d="M284.1533,188.8042v4.6426" fill="none" stroke="#6148a4" stroke-width="1.62504"/><path d="M259.7588,180.822h-3.7874" fill="none" stroke="#6148a4" stroke-width="1.62504"/><path d="M255.1162,171.1701h2.5249z" fill="none" stroke="#6148a4" stroke-width="1.62504"/></g><path d="M210.0778,178.4204c-0.0629,-11.4935 -0.1388,-22.3653 -0.2328,-31.3316c0.6029,-1.0369 1.3709,-1.172 2.0094,-1.1448c0.4073,0.0194 0.8299,0.5607 1.2436,0.9584c0.1138,9.9815 0.2055,20.4259 0.2805,31.1761c-0.4379,-0.2321 -1.0705,-0.4908 -1.7308,-0.4893c-0.5852,0.0013 -1.1483,0.4147 -1.5699,0.8312z" fill="#ffffff" stroke="none" stroke-width="1.24326" stroke-linecap="butt"/><path d="M209.5402,160.3965c0.5251,-0.0134 1.2255,-0.0272 1.9514,-0.0288c0.819,-0.0018 1.6024,0.0041 2.1444,0.0098c0.2095,1.675 -0.2049,3.607 -0.1858,5.1696c-0.678,0.0238 -1.3446,0.0403 -2.1497,0.0438c-0.588,0.0026 -1.1711,-0.004 -1.735,-0.018c-0.0272,-0.0007 -0.0496,-0.0018 -0.0756,-0.0028c-0.1695,-1.0646 0.0765,-2.1555 0.0674,-3.2231c-0.004,-0.5267 0.0262,-1.2752 -0.0171,-1.9505z" fill="#42b5e8" stroke="none" stroke-width="0.42919" stroke-linecap="butt"/><path d="M209.7402,150.7965c0.5251,-0.0134 1.2255,-0.0272 1.9514,-0.0288c0.819,-0.0018 1.6024,0.0041 2.1444,0.0098c0.2095,1.675 -0.2049,3.607 -0.1858,5.1696c-0.678,0.0238 -1.3446,0.0403 -2.1497,0.0438c-0.588,0.0026 -1.1711,-0.004 -1.735,-0.018c-0.0272,-0.0007 -0.0496,-0.0018 -0.0756,-0.0028c-0.1695,-1.0646 0.0765,-2.1555 0.0674,-3.2231c-0.004,-0.5267 0.0262,-1.2752 -0.0171,-1.9505z" fill="#42b5e8" stroke="none" stroke-width="0.42919" stroke-linecap="butt"/><path d="M209.3902,170.7965c0.5251,-0.0134 1.2255,-0.0272 1.9514,-0.0288c0.819,-0.0018 1.6024,0.0041 2.1444,0.0098c0.2095,1.675 -0.2049,3.607 -0.1858,5.1696c-0.678,0.0238 -1.3446,0.0403 -2.1497,0.0438c-0.588,0.0026 -1.1711,-0.004 -1.735,-0.018c-0.0272,-0.0007 -0.0496,-0.0018 -0.0756,-0.0028c-0.1695,-1.0646 0.0765,-2.1555 0.0674,-3.2231c-0.004,-0.5267 0.0262,-1.2752 -0.0171,-1.9505z" fill="#42b5e8" stroke="none" stroke-width="0.42919" stroke-linecap="butt"/><path d="M214.3288,146.4111c0.1816,0.0857 0.208,0.1883 0.1452,0.277c-0.5113,9.5265 -0.2178,21.6482 -0.6168,31.1303c-0.0005,0.0106 -0.0069,0.0182 -0.0104,0.0276c0,0.0059 0.001,0.0142 0.001,0.0173c-0.0927,0.4843 -1.7504,0.5009 -2.359,0.5044c-0.8028,0.0043 -2.3772,-0.0706 -2.6905,-0.6018c-0.003,-0.0048 -0.0015,-0.0129 -0.0019,-0.0195c-0.0136,-0.0158 -0.0301,-0.0313 -0.0315,-0.0465c-0.2111,-5.5305 -0.435,-11.027 -0.4102,-16.5336c0.0193,-4.022 -0.0169,-10.59 0.1716,-14.6103c0.0112,-0.2236 0.2853,-0.3459 0.5843,-0.3703c0.5295,-0.2077 1.5368,-0.2555 2.0025,-0.2674c1.1023,-0.0277 2.379,0.0972 3.2157,0.4928zM209.8725,146.6415c-0.0793,1.4997 -0.1349,3.069 -0.1727,4.6844c-0.198,8.5022 0.102,18.3034 0.06,26.2343c0.5462,0.1144 1.0833,0.1915 1.7324,0.2019c0.4745,0.0074 0.9448,-0.0314 1.3991,-0.1078c0.022,-0.0043 0.04,-0.0101 0.061,-0.0154c0.1551,-5.4045 -0.0242,-10.9385 0.0017,-16.3565c0.0119,-2.6731 0.0005,-6.4715 0.0476,-9.8991c0.0231,-1.7273 0.0615,-3.3607 0.125,-4.7081c-0.6065,-0.1567 -1.375,-0.1785 -2.0134,-0.1759c-0.4077,0.0027 -0.8284,0.0832 -1.2407,0.1422z" fill="#231f20" stroke="none" stroke-width="0.38875" stroke-linecap="butt"/><path d="M210.8872,133.0091c0.0164,-0.2608 -0.2484,-0.7032 0.1172,0c1.4822,2.8301 3.1719,5.762 4.101,8.779c0.2484,0.7979 -0.1746,1.7236 -0.703,2.5207c-0.5261,0.6928 -1.1694,1.761 -2.3435,1.7819c-1.2326,0.0209 -2.1806,-1.0439 -2.6364,-1.8688c-0.744,-1.03 -0.9983,-2.2704 -0.7616,-3.3899c0.307,-1.4542 1.7143,-2.8128 2.1091,-4.1288c0.3633,-1.2056 0.0598,-2.6589 0.1172,-3.6941z" fill="#ff9400" stroke="#ff9400" stroke-width="2.06324" stroke-linecap="round"/><path d="M211.5215,142.1491c0.1197,-0.1329 0.1295,-0.2048 0.2036,-0.1209c0.3193,0.6067 0.6549,1.2278 0.7331,1.7674c0.0521,0.3734 -0.1906,0.7365 -0.2867,1.0996c-0.1092,0.4375 0.0684,1.4471 -0.2427,1.4834c-0.3487,-0.0363 -0.8765,-1.0151 -1.1387,-1.4834c-0.1931,-0.3419 -0.3682,-0.728 -0.2867,-1.0996c0.1254,-0.5348 0.5921,-1.1438 1.0181,-1.6465z" fill="#ffff99" stroke="none" stroke-width="0.71711" stroke-linecap="round"/><path d="M226.5722,176.7204c-0.4216,-0.4165 -0.9847,-0.8299 -1.5699,-0.8312c-0.6603,-0.0015 -1.2929,0.2572 -1.7308,0.4893c0.075,-10.7502 0.1667,-21.1946 0.2805,-31.1761c0.4137,-0.3977 0.8363,-0.939 1.2436,-0.9584c0.6385,-0.0272 1.4065,0.1079 2.0094,1.1448c-0.094,8.9663 -0.1699,19.8381 -0.2328,31.3316z" fill="#ffffff" stroke="none" stroke-width="1.24326" stroke-linecap="butt"/><path d="M227.1598,158.6465c-0.0433,0.6753 -0.0131,1.4238 -0.0171,1.9505c-0.0091,1.0676 0.2369,2.1585 0.0674,3.2231c-0.026,0.001 -0.0484,0.0021 -0.0756,0.0028c-0.5639,0.014 -1.147,0.0206 -1.735,0.018c-0.8051,-0.0035 -1.4717,-0.02 -2.1497,-0.0438c0.0191,-1.5626 -0.3953,-3.4946 -0.1858,-5.1696c0.542,-0.0057 1.3254,-0.0116 2.1444,-0.0098c0.7259,0.0016 1.4263,0.0154 1.9514,0.0288z" fill="#42b5e8" stroke="none" stroke-width="0.42919" stroke-linecap="butt"/><path d="M226.9098,149.1965c-0.0433,0.6753 -0.0131,1.4238 -0.0171,1.9505c-0.0091,1.0676 0.2369,2.1585 0.0674,3.2231c-0.026,0.001 -0.0484,0.0021 -0.0756,0.0028c-0.5639,0.014 -1.147,0.0206 -1.735,0.018c-0.8051,-0.0035 -1.4717,-0.02 -2.1497,-0.0438c0.0191,-1.5626 -0.3953,-3.4946 -0.1858,-5.1696c0.542,-0.0057 1.3254,-0.0116 2.1444,-0.0098c0.7259,0.0016 1.4263,0.0154 1.9514,0.0288z" fill="#42b5e8" stroke="none" stroke-width="0.42919" stroke-linecap="butt"/><path d="M227.1598,169.0465c-0.0433,0.6753 -0.0131,1.4238 -0.0171,1.9505c-0.0091,1.0676 0.2369,2.1585 0.0674,3.2231c-0.026,0.001 -0.0484,0.0021 -0.0756,0.0028c-0.5639,0.014 -1.147,0.0206 -1.735,0.018c-0.8051,-0.0035 -1.4717,-0.02 -2.1497,-0.0438c0.0191,-1.5626 -0.3953,-3.4946 -0.1858,-5.1696c0.542,-0.0057 1.3254,-0.0116 2.1444,-0.0098c0.7259,0.0016 1.4263,0.0154 1.9514,0.0288z" fill="#42b5e8" stroke="none" stroke-width="0.42919" stroke-linecap="butt"/><path d="M228.0788,144.7611c0.1816,0.0857 0.208,0.1883 0.1452,0.277c-0.5113,9.5265 -0.2178,21.6482 -0.6168,31.1303c-0.0005,0.0106 -0.0069,0.0182 -0.0104,0.0276c0,0.0059 0.001,0.0142 0.001,0.0173c-0.0927,0.4843 -1.7504,0.5009 -2.359,0.5044c-0.8028,0.0043 -2.3772,-0.0706 -2.6905,-0.6018c-0.003,-0.0048 -0.0015,-0.0129 -0.0019,-0.0195c-0.0136,-0.0158 -0.0301,-0.0313 -0.0315,-0.0465c-0.2111,-5.5305 -0.435,-11.027 -0.4102,-16.5336c0.0193,-4.022 -0.0169,-10.59 0.1716,-14.6103c0.0112,-0.2236 0.2853,-0.3459 0.5843,-0.3703c0.5295,-0.2077 1.5368,-0.2555 2.0025,-0.2674c1.1023,-0.0277 2.379,0.0972 3.2157,0.4928zM223.6225,144.9915c-0.0793,1.4997 -0.1349,3.069 -0.1727,4.6844c-0.198,8.5022 0.102,18.3034 0.06,26.2343c0.5462,0.1144 1.0833,0.1915 1.7324,0.2019c0.4745,0.0074 0.9448,-0.0314 1.3991,-0.1078c0.022,-0.0043 0.04,-0.0101 0.061,-0.0154c0.1551,-5.4045 -0.0242,-10.9385 0.0017,-16.3565c0.0119,-2.6731 0.0005,-6.4715 0.0476,-9.8991c0.0231,-1.7273 0.0615,-3.3607 0.125,-4.7081c-0.6065,-0.1567 -1.375,-0.1785 -2.0134,-0.1759c-0.4077,0.0027 -0.8284,0.0832 -1.2407,0.1422z" fill="#231f20" stroke="none" stroke-width="0.38875" stroke-linecap="butt"/><path d="M226.0305,134.9584c0.4058,1.3523 1.8518,2.7484 2.1673,4.2427c0.2432,1.1504 -0.0181,2.425 -0.7826,3.4834c-0.4684,0.8476 -1.4425,1.9418 -2.7092,1.9203c-1.2064,-0.0214 -1.8674,-1.1191 -2.4081,-1.831c-0.543,-0.819 -0.9777,-1.7703 -0.7224,-2.5902c0.9548,-3.1003 2.6911,-6.113 4.2142,-9.0212c0.3757,-0.7226 0.1035,-0.268 0.1204,0c0.059,1.0638 -0.2529,2.5572 0.1204,3.796z" fill="#ff9400" stroke="none" stroke-width="1.06008" stroke-linecap="round"/><path d="M226.1966,142.1456c0.0815,0.3716 -0.0936,0.7577 -0.2867,1.0996c-0.2622,0.4683 -0.79,1.4471 -1.1387,1.4834c-0.3111,-0.0363 -0.1335,-1.0459 -0.2427,-1.4834c-0.0961,-0.3631 -0.3388,-0.7262 -0.2867,-1.0996c0.0782,-0.5396 0.4138,-1.1607 0.7331,-1.7674c0.0741,-0.0839 0.0839,-0.012 0.2036,0.1209c0.426,0.5027 0.8927,1.1117 1.0181,1.6465z" fill="#ffff99" stroke="none" stroke-width="0.71711" stroke-linecap="round"/><path d="M238.3278,176.0704c-0.0629,-11.4935 -0.1388,-22.3653 -0.2328,-31.3316c0.6029,-1.0369 1.3709,-1.172 2.0094,-1.1448c0.4073,0.0194 0.8299,0.5607 1.2436,0.9584c0.1138,9.9815 0.2055,20.4259 0.2805,31.1761c-0.4379,-0.2321 -1.0705,-0.4908 -1.7308,-0.4893c-0.5852,0.0013 -1.1483,0.4147 -1.5699,0.8312z" fill="#ffffff" stroke="none" stroke-width="1.24326" stroke-linecap="butt"/><path d="M237.7902,158.0465c0.5251,-0.0134 1.2255,-0.0272 1.9514,-0.0288c0.819,-0.0018 1.6024,0.0041 2.1444,0.0098c0.2095,1.675 -0.2049,3.607 -0.1858,5.1696c-0.678,0.0238 -1.3446,0.0403 -2.1497,0.0438c-0.588,0.0026 -1.1711,-0.004 -1.735,-0.018c-0.0272,-0.0007 -0.0496,-0.0018 -0.0756,-0.0028c-0.1695,-1.0646 0.0765,-2.1555 0.0674,-3.2231c-0.004,-0.5267 0.0262,-1.2752 -0.0171,-1.9505z" fill="#42b5e8" stroke="none" stroke-width="0.42919" stroke-linecap="butt"/><path d="M238.0402,148.4465c0.5251,-0.0134 1.2255,-0.0272 1.9514,-0.0288c0.819,-0.0018 1.6024,0.0041 2.1444,0.0098c0.2095,1.675 -0.2049,3.607 -0.1858,5.1696c-0.678,0.0238 -1.3446,0.0403 -2.1497,0.0438c-0.588,0.0026 -1.1711,-0.004 -1.735,-0.018c-0.0272,-0.0007 -0.0496,-0.0018 -0.0756,-0.0028c-0.1695,-1.0646 0.0765,-2.1555 0.0674,-3.2231c-0.004,-0.5267 0.0262,-1.2752 -0.0171,-1.9505z" fill="#42b5e8" stroke="none" stroke-width="0.42919" stroke-linecap="butt"/><path d="M237.7402,168.4465c0.5251,-0.0134 1.2255,-0.0272 1.9514,-0.0288c0.819,-0.0018 1.6024,0.0041 2.1444,0.0098c0.2095,1.675 -0.2049,3.607 -0.1858,5.1696c-0.678,0.0238 -1.3446,0.0403 -2.1497,0.0438c-0.588,0.0026 -1.1711,-0.004 -1.735,-0.018c-0.0272,-0.0007 -0.0496,-0.0018 -0.0756,-0.0028c-0.1695,-1.0646 0.0765,-2.1555 0.0674,-3.2231c-0.004,-0.5267 0.0262,-1.2752 -0.0171,-1.9505z" fill="#42b5e8" stroke="none" stroke-width="0.42919" stroke-linecap="butt"/><path d="M242.6788,144.0611c0.1816,0.0857 0.208,0.1883 0.1452,0.277c-0.5113,9.5265 -0.2178,21.6482 -0.6168,31.1303c-0.0005,0.0106 -0.0069,0.0182 -0.0104,0.0276c0,0.0059 0.001,0.0142 0.001,0.0173c-0.0927,0.4843 -1.7504,0.5009 -2.359,0.5044c-0.8028,0.0043 -2.3772,-0.0706 -2.6905,-0.6018c-0.003,-0.0048 -0.0015,-0.0129 -0.0019,-0.0195c-0.0136,-0.0158 -0.0301,-0.0313 -0.0315,-0.0465c-0.2111,-5.5305 -0.435,-11.027 -0.4102,-16.5336c0.0193,-4.022 -0.0169,-10.59 0.1716,-14.6103c0.0112,-0.2236 0.2853,-0.3459 0.5843,-0.3703c0.5295,-0.2077 1.5368,-0.2555 2.0025,-0.2674c1.1023,-0.0277 2.379,0.0972 3.2157,0.4928zM238.2225,144.2915c-0.0793,1.4997 -0.1349,3.069 -0.1727,4.6844c-0.198,8.5022 0.102,18.3034 0.06,26.2343c0.5462,0.1144 1.0833,0.1915 1.7324,0.2019c0.4745,0.0074 0.9448,-0.0314 1.3991,-0.1078c0.022,-0.0043 0.04,-0.0101 0.061,-0.0154c0.1551,-5.4045 -0.0242,-10.9385 0.0017,-16.3565c0.0119,-2.6731 0.0005,-6.4715 0.0476,-9.8991c0.0231,-1.7273 0.0615,-3.3607 0.125,-4.7081c-0.6065,-0.1567 -1.375,-0.1785 -2.0134,-0.1759c-0.4077,0.0027 -0.8284,0.0832 -1.2407,0.1422z" fill="#231f20" stroke="none" stroke-width="0.38875" stroke-linecap="butt"/><path d="M239.0869,130.4846c0.0173,-0.2753 -0.2623,-0.7424 0.1237,0c1.5649,2.9879 3.3487,6.0832 4.3296,9.2684c0.2623,0.8424 -0.1843,1.8197 -0.7422,2.6612c-0.5554,0.7314 -1.2345,1.8592 -2.4741,1.8812c-1.3013,0.022 -2.3021,-1.1021 -2.7833,-1.973c-0.7855,-1.0874 -1.054,-2.3969 -0.8041,-3.5788c0.3241,-1.5353 1.8098,-2.9696 2.2267,-4.3589c0.3835,-1.2728 0.0631,-2.8071 0.1237,-3.9001z" fill="#ff9400" stroke="none" stroke-width="1.08912" stroke-linecap="round"/><path d="M239.7215,139.8991c0.1197,-0.1329 0.1295,-0.2048 0.2036,-0.1209c0.3193,0.6067 0.6549,1.2278 0.7331,1.7674c0.0521,0.3734 -0.1906,0.7365 -0.2867,1.0996c-0.1092,0.4375 0.0684,1.4471 -0.2427,1.4834c-0.3487,-0.0363 -0.8765,-1.0151 -1.1387,-1.4834c-0.1931,-0.3419 -0.3682,-0.728 -0.2867,-1.0996c0.1254,-0.5348 0.5921,-1.1438 1.0181,-1.6465z" fill="#ffff99" stroke="none" stroke-width="0.71711" stroke-linecap="round"/><path d="M253.2778,177.1204c-0.0629,-11.4935 -0.1388,-22.3653 -0.2328,-31.3316c0.6029,-1.0369 1.3709,-1.172 2.0094,-1.1448c0.4073,0.0194 0.8299,0.5607 1.2436,0.9584c0.1138,9.9815 0.2055,20.4259 0.2805,31.1761c-0.4379,-0.2321 -1.0705,-0.4908 -1.7308,-0.4893c-0.5852,0.0013 -1.1483,0.4147 -1.5699,0.8312z" fill="#ffffff" stroke="none" stroke-width="1.24326" stroke-linecap="butt"/><path d="M252.6402,159.0465c0.5251,-0.0134 1.2255,-0.0272 1.9514,-0.0288c0.819,-0.0018 1.6024,0.0041 2.1444,0.0098c0.2095,1.675 -0.2049,3.607 -0.1858,5.1696c-0.678,0.0238 -1.3446,0.0403 -2.1497,0.0438c-0.588,0.0026 -1.1711,-0.004 -1.735,-0.018c-0.0272,-0.0007 -0.0496,-0.0018 -0.0756,-0.0028c-0.1695,-1.0646 0.0765,-2.1555 0.0674,-3.2231c-0.004,-0.5267 0.0262,-1.2752 -0.0171,-1.9505z" fill="#42b5e8" stroke="none" stroke-width="0.42919" stroke-linecap="butt"/><path d="M252.8902,149.5465c0.5251,-0.0134 1.2255,-0.0272 1.9514,-0.0288c0.819,-0.0018 1.6024,0.0041 2.1444,0.0098c0.2095,1.675 -0.2049,3.607 -0.1858,5.1696c-0.678,0.0238 -1.3446,0.0403 -2.1497,0.0438c-0.588,0.0026 -1.1711,-0.004 -1.735,-0.018c-0.0272,-0.0007 -0.0496,-0.0018 -0.0756,-0.0028c-0.1695,-1.0646 0.0765,-2.1555 0.0674,-3.2231c-0.004,-0.5267 0.0262,-1.2752 -0.0171,-1.9505z" fill="#42b5e8" stroke="none" stroke-width="0.42919" stroke-linecap="butt"/><path d="M252.6402,169.4465c0.5251,-0.0134 1.2255,-0.0272 1.9514,-0.0288c0.819,-0.0018 1.6024,0.0041 2.1444,0.0098c0.2095,1.675 -0.2049,3.607 -0.1858,5.1696c-0.678,0.0238 -1.3446,0.0403 -2.1497,0.0438c-0.588,0.0026 -1.1711,-0.004 -1.735,-0.018c-0.0272,-0.0007 -0.0496,-0.0018 -0.0756,-0.0028c-0.1695,-1.0646 0.0765,-2.1555 0.0674,-3.2231c-0.004,-0.5267 0.0262,-1.2752 -0.0171,-1.9505z" fill="#42b5e8" stroke="none" stroke-width="0.42919" stroke-linecap="butt"/><path d="M257.5788,145.1611c0.1816,0.0857 0.208,0.1883 0.1452,0.277c-0.5113,9.5265 -0.2178,21.6482 -0.6168,31.1303c-0.0005,0.0106 -0.0069,0.0182 -0.0104,0.0276c0,0.0059 0.001,0.0142 0.001,0.0173c-0.0927,0.4843 -1.7504,0.5009 -2.359,0.5044c-0.8028,0.0043 -2.3772,-0.0706 -2.6905,-0.6018c-0.003,-0.0048 -0.0015,-0.0129 -0.0019,-0.0195c-0.0136,-0.0158 -0.0301,-0.0313 -0.0315,-0.0465c-0.2111,-5.5305 -0.435,-11.027 -0.4102,-16.5336c0.0193,-4.022 -0.0169,-10.59 0.1716,-14.6103c0.0112,-0.2236 0.2853,-0.3459 0.5843,-0.3703c0.5295,-0.2077 1.5368,-0.2555 2.0025,-0.2674c1.1023,-0.0277 2.379,0.0972 3.2157,0.4928zM253.1225,145.3915c-0.0793,1.4997 -0.1349,3.069 -0.1727,4.6844c-0.198,8.5022 0.102,18.3034 0.06,26.2343c0.5462,0.1144 1.0833,0.1915 1.7324,0.2019c0.4745,0.0074 0.9448,-0.0314 1.3991,-0.1078c0.022,-0.0043 0.04,-0.0101 0.061,-0.0154c0.1551,-5.4045 -0.0242,-10.9385 0.0017,-16.3565c0.0119,-2.6731 0.0005,-6.4715 0.0476,-9.8991c0.0231,-1.7273 0.0615,-3.3607 0.125,-4.7081c-0.6065,-0.1567 -1.375,-0.1785 -2.0134,-0.1759c-0.4077,0.0027 -0.8284,0.0832 -1.2407,0.1422z" fill="#231f20" stroke="none" stroke-width="0.38875" stroke-linecap="butt"/><path d="M253.7979,132.3142c0.0163,-0.2602 -0.2478,-0.7015 0.1169,0c1.4786,2.8233 3.1641,5.748 4.0911,8.7577c0.2478,0.796 -0.1742,1.7195 -0.7014,2.5146c-0.5248,0.6911 -1.1665,1.7567 -2.3377,1.7775c-1.2297,0.0209 -2.1753,-1.0413 -2.63,-1.8642c-0.7423,-1.0275 -0.9959,-2.2649 -0.7598,-3.3817c0.3062,-1.4507 1.7101,-2.806 2.104,-4.1187c0.3623,-1.2027 0.0596,-2.6525 0.1169,-3.6852z" fill="#ff9400" stroke="none" stroke-width="1.02912" stroke-linecap="round"/><path d="M254.5715,140.8991c0.1197,-0.1329 0.1295,-0.2048 0.2036,-0.1209c0.3193,0.6067 0.6549,1.2278 0.7331,1.7674c0.0521,0.3734 -0.1906,0.7365 -0.2867,1.0996c-0.1092,0.4375 0.0684,1.4471 -0.2427,1.4834c-0.3487,-0.0363 -0.8765,-1.0151 -1.1387,-1.4834c-0.1931,-0.3419 -0.3682,-0.728 -0.2867,-1.0996c0.1254,-0.5348 0.5921,-1.1438 1.0181,-1.6465z" fill="#ffff99" stroke="none" stroke-width="0.71711" stroke-linecap="round"/><path d="M269.8222,178.2204c-0.4216,-0.4165 -0.9847,-0.8299 -1.5699,-0.8312c-0.6603,-0.0015 -1.2929,0.2572 -1.7308,0.4893c0.075,-10.7502 0.1667,-21.1946 0.2805,-31.1761c0.4137,-0.3977 0.8363,-0.939 1.2436,-0.9584c0.6385,-0.0272 1.4065,0.1079 2.0094,1.1448c-0.094,8.9663 -0.1699,19.8381 -0.2328,31.3316z" fill="#ffffff" stroke="none" stroke-width="1.24326" stroke-linecap="butt"/><path d="M270.3598,160.1965c-0.0433,0.6753 -0.0131,1.4238 -0.0171,1.9505c-0.0091,1.0676 0.2369,2.1585 0.0674,3.2231c-0.026,0.001 -0.0484,0.0021 -0.0756,0.0028c-0.5639,0.014 -1.147,0.0206 -1.735,0.018c-0.8051,-0.0035 -1.4717,-0.02 -2.1497,-0.0438c0.0191,-1.5626 -0.3953,-3.4946 -0.1858,-5.1696c0.542,-0.0057 1.3254,-0.0116 2.1444,-0.0098c0.7259,0.0016 1.4263,0.0154 1.9514,0.0288z" fill="#42b5e8" stroke="none" stroke-width="0.42919" stroke-linecap="butt"/><path d="M270.1098,150.6465c-0.0433,0.6753 -0.0131,1.4238 -0.0171,1.9505c-0.0091,1.0676 0.2369,2.1585 0.0674,3.2231c-0.026,0.001 -0.0484,0.0021 -0.0756,0.0028c-0.5639,0.014 -1.147,0.0206 -1.735,0.018c-0.8051,-0.0035 -1.4717,-0.02 -2.1497,-0.0438c0.0191,-1.5626 -0.3953,-3.4946 -0.1858,-5.1696c0.542,-0.0057 1.3254,-0.0116 2.1444,-0.0098c0.7259,0.0016 1.4263,0.0154 1.9514,0.0288z" fill="#42b5e8" stroke="none" stroke-width="0.42919" stroke-linecap="butt"/><path d="M270.5098,170.5465c-0.0433,0.6753 -0.0131,1.4238 -0.0171,1.9505c-0.0091,1.0676 0.2369,2.1585 0.0674,3.2231c-0.026,0.001 -0.0484,0.0021 -0.0756,0.0028c-0.5639,0.014 -1.147,0.0206 -1.735,0.018c-0.8051,-0.0035 -1.4717,-0.02 -2.1497,-0.0438c0.0191,-1.5626 -0.3953,-3.4946 -0.1858,-5.1696c0.542,-0.0057 1.3254,-0.0116 2.1444,-0.0098c0.7259,0.0016 1.4263,0.0154 1.9514,0.0288z" fill="#42b5e8" stroke="none" stroke-width="0.42919" stroke-linecap="butt"/><path d="M271.3288,146.2611c0.1816,0.0857 0.208,0.1883 0.1452,0.277c-0.5113,9.5265 -0.2178,21.6482 -0.6168,31.1303c-0.0005,0.0106 -0.0069,0.0182 -0.0104,0.0276c0,0.0059 0.001,0.0142 0.001,0.0173c-0.0927,0.4843 -1.7504,0.5009 -2.359,0.5044c-0.8028,0.0043 -2.3772,-0.0706 -2.6905,-0.6018c-0.003,-0.0048 -0.0015,-0.0129 -0.0019,-0.0195c-0.0136,-0.0158 -0.0301,-0.0313 -0.0315,-0.0465c-0.2111,-5.5305 -0.435,-11.027 -0.4102,-16.5336c0.0193,-4.022 -0.0169,-10.59 0.1716,-14.6103c0.0112,-0.2236 0.2853,-0.3459 0.5843,-0.3703c0.5295,-0.2077 1.5368,-0.2555 2.0025,-0.2674c1.1023,-0.0277 2.379,0.0972 3.2157,0.4928zM266.8725,146.4915c-0.0793,1.4997 -0.1349,3.069 -0.1727,4.6844c-0.198,8.5022 0.102,18.3034 0.06,26.2343c0.5462,0.1144 1.0833,0.1915 1.7324,0.2019c0.4745,0.0074 0.9448,-0.0314 1.3991,-0.1078c0.022,-0.0043 0.04,-0.0101 0.061,-0.0154c0.1551,-5.4045 -0.0242,-10.9385 0.0017,-16.3565c0.0119,-2.6731 0.0005,-6.4715 0.0476,-9.8991c0.0231,-1.7273 0.0615,-3.3607 0.125,-4.7081c-0.6065,-0.1567 -1.375,-0.1785 -2.0134,-0.1759c-0.4077,0.0027 -0.8284,0.0832 -1.2407,0.1422z" fill="#231f20" stroke="none" stroke-width="0.38875" stroke-linecap="butt"/><path d="M267.8814,133.4885c0.0163,-0.2601 -0.2478,-0.7014 0.1168,0c1.4784,2.8227 3.1635,5.7468 4.0903,8.7558c0.2477,0.7959 -0.1741,1.7191 -0.7012,2.5141c-0.5247,0.6909 -1.1663,1.7564 -2.3373,1.7772c-1.2294,0.0208 -2.1748,-1.0412 -2.6294,-1.8639c-0.7421,-1.0273 -0.9957,-2.2644 -0.7596,-3.381c0.3061,-1.4503 1.7097,-2.8053 2.1035,-4.1178c0.3623,-1.2024 0.0596,-2.6519 0.1169,-3.6844z" fill="#ff9400" stroke="none" stroke-width="1.0289" stroke-linecap="round"/><path d="M268.5715,141.8991c0.1197,-0.1329 0.1295,-0.2048 0.2036,-0.1209c0.3193,0.6067 0.6549,1.2278 0.7331,1.7674c0.0521,0.3734 -0.1906,0.7365 -0.2867,1.0996c-0.1092,0.4375 0.0684,1.4471 -0.2427,1.4834c-0.3487,-0.0363 -0.8765,-1.0151 -1.1387,-1.4834c-0.1931,-0.3419 -0.3682,-0.728 -0.2867,-1.0996c0.1254,-0.5348 0.5921,-1.1438 1.0181,-1.6465z" fill="#ffff99" stroke="none" stroke-width="0.71711" stroke-linecap="round"/><text transform="translate(168.67868,267.08709) scale(0.5,0.5)" font-size="40" xml:space="preserve" fill="#000000" fill-rule="nonzero" stroke="none" stroke-width="1" stroke-linecap="butt" stroke-linejoin="miter" stroke-miterlimit="10" stroke-dasharray="" stroke-dashoffset="0" font-family="Sans Serif" font-weight="normal" text-anchor="start" style="mix-blend-mode: normal"><tspan x="0" dy="0">Costo: 1Qd puntos</tspan></text><text transform="translate(171.89388,287.36862) scale(0.34832,0.34832)" font-size="40" xml:space="preserve" fill="#000000" fill-rule="nonzero" stroke="none" stroke-width="1" stroke-linecap="butt" stroke-linejoin="miter" stroke-miterlimit="10" stroke-dasharray="" stroke-dashoffset="0" font-family="Sans Serif" font-weight="normal" text-anchor="start" style="mix-blend-mode: normal"><tspan x="0" dy="0">+50T puntos por segundo</tspan></text></g></g></svg>