<svg version="1.1" xmlns="http://www.w3.org/2000/svg" xmlns:xlink="http://www.w3.org/1999/xlink" width="42.30178" height="34.73697" viewBox="0,0,42.30178,34.73697"><g transform="translate(-218.84911,-162.6866)"><g data-paper-data="{&quot;isPaintingLayer&quot;:true}" fill-rule="nonzero" stroke-linejoin="miter" stroke-miterlimit="10" stroke-dasharray="" stroke-dashoffset="0" style="mix-blend-mode: normal"><path d="M219.35482,196.91738v-26.89413h39.31452v26.89413z" fill="#cea800" stroke="#000000" stroke-width="1" stroke-linecap="butt"/><path d="M260.30886,195.82933c0.27076,1.13236 -4.30435,0.5181 -2.57914,-0.22843c0.04692,-0.09846 0.13384,-0.18077 0.24459,-0.23381c0.30677,-0.43557 2.28292,0.24633 2.33455,0.46223z" fill="#cea800" stroke="none" stroke-width="0.5" stroke-linecap="butt"/><path d="M227.18357,163.34084c0.63872,-0.00322 6.63517,-0.60626 11.05161,0.01988c0.85318,1.96376 2.20659,3.68495 4.08547,4.812c-0.72061,1.09663 -1.75358,1.07178 -3.34109,1.06008c-3.55149,-0.02616 -11.61059,2.12848 -16.00567,-0.0276c-1.10865,-0.54387 -1.57936,1.18546 -1.52144,0.10941c0.05364,-0.01516 -0.05615,-1.74846 -0.00332,-1.7767c1.62816,-0.87031 2.09426,-2.94226 3.53606,-4.13125c0.41177,0.00394 1.99166,-0.06477 2.1984,-0.06581z" fill="#cea800" stroke="none" stroke-width="0.5" stroke-linecap="butt"/><path d="M221.49445,168.38915l-0.1103,-0.8272l3.14338,-4.35662c0,0 4.65267,-0.00626 6.94859,-0.00935c2.25608,-0.00304 6.7095,-0.00903 6.7095,-0.00903l3.14338,4.35662l-0.11029,0.8272" fill="none" stroke="#000000" stroke-width="1" stroke-linecap="round"/><path d="M220.75861,168.63062c0.49392,0.19392 0.42069,2.36476 0.0791,2.55995c-0.08698,0.14737 -0.2474,0.24623 -0.43091,0.24623c-0.27614,0 -0.5,-0.22386 -0.5,-0.5c0,-0.04446 0.0058,-0.08757 0.01669,-0.1286c-0.3601,-0.96743 -0.00285,-2.50659 0.83512,-2.17759z" fill="#cea800" stroke="none" stroke-width="0.5" stroke-linecap="butt"/><path d="M221.33398,195.04238v-26.73387h39.31452v26.73387z" fill="#ffcf00" stroke="#000000" stroke-width="1" stroke-linecap="butt"/><path d="M227.12566,190.30961v-18.79167h26.68361v18.79167z" fill="#baeaf2" stroke="#000000" stroke-width="0.5" stroke-linecap="butt"/><path d="M219.34911,169.78296l2.05128,-2.24359" fill="none" stroke="#000000" stroke-width="1" stroke-linecap="round"/><path d="M219.56336,196.78007l1.83673,-1.83673" fill="none" stroke="#000000" stroke-width="1" stroke-linecap="round"/><path d="M259.00218,196.92358l1.64871,-1.5194" fill="none" stroke="#000000" stroke-width="1" stroke-linecap="round"/><g stroke="none" stroke-linecap="butt"><path d="M239.33613,180.16309c-3.31801,-0.03096 -5.25364,-0.57976 -6.53453,-0.94284c-1.38688,-0.39315 -2.31744,-0.96795 -2.69141,-1.66244c-0.03502,-0.06504 -0.04305,-0.11969 -0.02623,-0.18286c0.08088,-0.30915 0.67816,-0.67606 1.19903,-0.88658l0.05915,-0.02319c2.50901,-0.88819 5.33384,-1.34143 8.38076,-1.34143c4.56151,0 8.24617,1.0188 9.00266,1.36984c0.74722,0.34702 0.92959,0.71532 0.96862,0.82413c-0.334,1.96284 -6.10449,2.84657 -10.1416,2.84657z" fill="#660000" stroke-width="0.63025"/><path d="M239.7229,175.47833c-2.99396,0 -5.7679,0.44284 -8.24594,1.31591l-0.04046,0.0149l-0.00616,0.00263l-0.01156,0.00495l-0.01351,0.00495c-0.51636,0.21029 -0.86597,0.4717 -0.95916,0.60959c0.34462,0.59041 1.19074,1.09 2.45248,1.44764c1.26242,0.3579 3.17039,0.89889 6.44088,0.9294c0.06928,0.00071 0.14026,0.00094 0.21288,0.00094c1.64517,0 4.15819,-0.17246 6.27811,-0.65643c1.98367,-0.45275 3.26313,-1.11458 3.4881,-1.79297c-0.07379,-0.10978 -0.2673,-0.32386 -0.74253,-0.54455c-0.63511,-0.29474 -4.31054,-1.33696 -8.85313,-1.33696M239.7229,175.47833v-0.70962v0c4.6895,0 8.43826,1.0718 9.15189,1.40272c1.11841,0.51944 1.17989,1.12783 1.17989,1.12783c-0.2843,2.49508 -7.05918,3.2196 -10.50255,3.2196c-0.07476,0 -0.1481,-0.00023 -0.21952,-0.00094c-3.36578,-0.03145 -5.33576,-0.58993 -6.62798,-0.95635c-1.29226,-0.36639 -2.42767,-0.94498 -2.90714,-1.83557c-0.0828,-0.15377 -0.09368,-0.30161 -0.05701,-0.44141c0.15306,-0.58497 1.15812,-1.02376 1.40936,-1.12524c0.00116,-0.00045 0.00259,-0.00094 0.00353,-0.00139c0.01681,-0.00664 0.02935,-0.01186 0.03855,-0.01516c0.00143,-0.00071 0.00263,-0.00094 0.00379,-0.00143c0.00687,-0.00281 0.01182,-0.00473 0.01182,-0.00473c2.8868,-1.02256 5.85261,-1.36792 8.51538,-1.36792z" fill="#000000" stroke-width="0.63025"/><g><path d="M228.56478,188.7973v-17.64695h22.87044v17.64695z" fill-opacity="0.0207" fill="#ffffff" stroke-width="0"/><path d="M239.76245,188.48551c-0.15752,0 -0.24593,-0.00382 -0.25024,-0.00405c-10.75516,-1.02474 -10.55521,-7.83612 -10.54137,-8.12564c0.04598,-0.9647 0.51878,-1.94985 0.86718,-2.55348c0.51787,0.71419 1.5028,1.26874 2.93338,1.65053c1.29256,0.34507 3.24623,0.86673 6.59547,0.89626l0.21829,0.00098c0.09555,0 8.90657,-0.03244 10.44798,-2.65811c0.50021,0.81284 0.72039,2.44908 0.74255,3.48456c-1.57211,6.95578 -9.44683,7.30894 -11.01323,7.30894c0.00023,0 0,0 0,0z" fill="#65cbeb" stroke-width="0.63025"/><path d="M249.96114,178.36234c-2.23488,2.27016 -9.44157,2.34548 -10.37576,2.34548c-0.07555,0 -0.14917,-0.00049 -0.22139,-0.00098c-3.39449,-0.03002 -5.37437,-0.5586 -6.68459,-0.90843c-1.23467,-0.3298 -2.16243,-0.79069 -2.77033,-1.37526c-0.27455,0.54952 -0.54812,1.25921 -0.58102,1.94959c-0.01668,0.34912 -0.02265,2.18459 1.49611,4.02958c1.71107,2.07902 4.64467,3.33108 8.71974,3.7224c0.03101,0.00121 0.10606,0.0031 0.21855,0.0031c1.51445,0 9.11915,-0.3377 10.65481,-6.98724c-0.02288,-0.83886 -0.17443,-2.0018 -0.45613,-2.77823M249.96114,178.36234l-20.00753,-1.36002v0c-0.036,0.12917 -0.02526,0.26597 0.05623,0.40799c0.47068,0.82336 1.58527,1.35862 2.85378,1.69723c1.26852,0.33864 3.20241,0.85482 6.50634,0.88416c0.07029,0.00072 0.14179,0.00095 0.21519,0.00095c3.38016,0 10.0314,-0.66988 10.31046,-2.97675c1.18416,0.80789 1.23827,4.19664 1.23827,4.19664c-1.61242,7.27465 -9.78808,7.63023 -11.37142,7.63023c-0.17159,0 -0.26597,-0.00431 -0.26597,-0.00431c-10.00902,-0.95324 -10.96226,-6.8316 -10.88289,-8.49979c0.07937,-1.66815 1.31071,-3.33634 1.31071,-3.33634h0.0293c0,0.00023 0,0 0,0z" fill="#000000" stroke-width="0.63025"/><g stroke-width="0.63025"><path d="M240.02124,188.61181c-0.32125,0 -0.50687,-0.0107 -0.51092,-0.01093c-10.87646,-1.0362 -10.67247,-7.95647 -10.6584,-8.25076c0.05146,-1.08169 0.62363,-2.18319 0.98039,-2.77154c0.46494,0.76543 1.4637,1.35715 2.96983,1.7592c1.28685,0.34364 3.23171,0.86291 6.56567,0.89221l0.21734,0.00095c0.09721,0 9.30099,-0.03358 10.4425,-2.78916c0.85315,0.90344 0.96322,2.85711 0.86934,3.74577c-0.72875,6.88832 -8.50788,7.42427 -10.87574,7.42427c0.00026,0 0.00026,0 0,0z" fill="#cc7700"/><path d="M250.06077,177.87309c-1.75088,2.56422 -10.08884,2.5964 -10.47588,2.5964c-0.07483,0 -0.14773,-0.00045 -0.21923,-0.00095c-3.36421,-0.0298 -5.32646,-0.55361 -6.625,-0.90034c-1.361,-0.36341 -2.32926,-0.88435 -2.88664,-1.55188c-0.32912,0.59747 -0.72304,1.48136 -0.76426,2.34521c-0.01743,0.36462 -0.02409,2.27991 1.55018,4.19236c1.75444,2.13142 4.7462,3.41306 8.89205,3.80937c0.03717,0.00189 0.21209,0.01002 0.48925,0.01002c2.31685,0 9.93086,-0.51999 10.63863,-7.21055c0.09914,-0.93728 -0.04621,-2.43505 -0.59909,-3.28964M250.06077,177.87309l-20.10716,-0.87077v0c-0.036,0.12917 -0.02526,0.26597 0.05623,0.40799c0.47068,0.82336 1.58527,1.35862 2.85378,1.69723c1.26852,0.33864 3.20241,0.85482 6.50634,0.88416c0.07029,0.00072 0.14179,0.00095 0.21519,0.00095c3.38016,0 10.0314,-0.66988 10.31046,-2.97675c1.18416,0.80789 1.35314,3.10875 1.23827,4.19664c-0.75734,7.16004 -8.94352,7.63711 -11.11264,7.63711c-0.33339,0 -0.52475,-0.01119 -0.52475,-0.01119c-10.00902,-0.95324 -10.96226,-6.8316 -10.88289,-8.49979c0.07937,-1.66815 1.31071,-3.33634 1.31071,-3.33634h0.0293c0,0.00023 0,0 0,0z" fill="#b16700"/></g><text transform="translate(236.56518,186.56474) scale(0.18906,0.18906)" font-size="40" xml:space="preserve" fill="#995900" fill-rule="nonzero" stroke="none" stroke-width="1" stroke-linecap="butt" stroke-linejoin="miter" stroke-miterlimit="10" stroke-dasharray="" stroke-dashoffset="0" font-family="Sans Serif" font-weight="normal" text-anchor="start" style="mix-blend-mode: normal"><tspan x="0" dy="0">IA</tspan></text></g></g><path d="M239.39567,180.1727c-3.31801,-0.03096 -5.25364,-0.57976 -6.53453,-0.94284c-1.38688,-0.39315 -2.31744,-0.96795 -2.69141,-1.66244c-0.03502,-0.06504 -0.04305,-0.11969 -0.02623,-0.18286c0.08088,-0.30915 0.67816,-0.67606 1.19903,-0.88658l0.05915,-0.02319c2.50901,-0.88819 5.33384,-1.34143 8.38076,-1.34143c4.56151,0 8.24617,1.0188 9.00266,1.36984c0.74722,0.34702 0.92959,0.71532 0.96862,0.82413c-0.334,1.96284 -6.10449,2.84657 -10.1416,2.84657z" fill="#660000" stroke="none" stroke-width="0.63025" stroke-linecap="butt"/><path d="M239.78244,175.48794c-2.99396,0 -5.7679,0.44284 -8.24594,1.31591l-0.04046,0.0149l-0.00616,0.00263l-0.01156,0.00495l-0.01351,0.00495c-0.51636,0.21029 -0.86597,0.4717 -0.95916,0.60959c0.34462,0.59041 1.19074,1.09 2.45248,1.44764c1.26242,0.3579 3.17039,0.89889 6.44088,0.9294c0.06928,0.00071 0.14026,0.00094 0.21288,0.00094c1.64517,0 4.15819,-0.17246 6.27811,-0.65643c1.98367,-0.45275 3.26313,-1.11458 3.4881,-1.79297c-0.07379,-0.10978 -0.2673,-0.32386 -0.74253,-0.54455c-0.63511,-0.29474 -4.31054,-1.33696 -8.85313,-1.33696M239.78244,175.48794v-0.70962v0c4.6895,0 8.43826,1.0718 9.15189,1.40272c1.11841,0.51944 1.17989,1.12783 1.17989,1.12783c-0.2843,2.49508 -7.05918,3.2196 -10.50255,3.2196c-0.07476,0 -0.1481,-0.00023 -0.21952,-0.00094c-3.36578,-0.03145 -5.33576,-0.58993 -6.62798,-0.95635c-1.29226,-0.36639 -2.42767,-0.94498 -2.90714,-1.83557c-0.0828,-0.15377 -0.09368,-0.30161 -0.05701,-0.44141c0.15306,-0.58497 1.15812,-1.02376 1.40936,-1.12524c0.00116,-0.00045 0.00259,-0.00094 0.00353,-0.00139c0.01681,-0.00664 0.02935,-0.01186 0.03855,-0.01516c0.00143,-0.00071 0.00263,-0.00094 0.00379,-0.00143c0.00687,-0.00281 0.01182,-0.00473 0.01182,-0.00473c2.8868,-1.02256 5.85261,-1.36792 8.51538,-1.36792z" fill="#000000" stroke="none" stroke-width="0.63025" stroke-linecap="butt"/><g stroke="none" stroke-linecap="butt"><path d="M228.59934,188.77071v-17.59361h22.80132v17.59361z" fill-opacity="0.0207" fill="#ffffff" stroke-width="0"/><path d="M239.76316,188.45987c-0.15705,0 -0.24519,-0.00381 -0.24948,-0.00403c-10.72266,-1.02165 -10.52331,-7.81243 -10.50951,-8.10108c0.04584,-0.96178 0.51721,-1.94396 0.86456,-2.54576c0.51631,0.71203 1.49826,1.26491 2.92451,1.64554c1.28866,0.34403 3.23642,0.86411 6.57553,0.89355l0.21763,0.00098c0.09526,0 8.87965,-0.03234 10.4164,-2.65007c0.4987,0.81039 0.71822,2.44168 0.74031,3.47403c-1.56736,6.93476 -9.41828,7.28685 -10.97994,7.28685c0.00023,0 0,0 0,0z" fill="#65cbeb" stroke-width="0.63025"/><path d="M249.93102,178.36729c-2.22812,2.26329 -9.41304,2.33839 -10.3444,2.33839c-0.07532,0 -0.14872,-0.00049 -0.22072,-0.00098c-3.38424,-0.02993 -5.35812,-0.55691 -6.66439,-0.90569c-1.23094,-0.3288 -2.15589,-0.7883 -2.76196,-1.3711c-0.27372,0.54786 -0.54647,1.25541 -0.57926,1.94369c-0.01662,0.34806 -0.02258,2.17798 1.49158,4.01741c1.7059,2.07273 4.63063,3.32102 8.69339,3.71115c0.03091,0.00121 0.10574,0.00309 0.21789,0.00309c1.50987,0 9.09159,-0.33668 10.62261,-6.96612c-0.02281,-0.83632 -0.1739,-1.99575 -0.45475,-2.76984M249.93102,178.36729l-19.94706,-1.35591v0c-0.03589,0.12878 -0.02518,0.26517 0.05606,0.40676c0.46926,0.82087 1.58048,1.35452 2.84516,1.6921c1.26468,0.33762 3.19273,0.85223 6.48668,0.88149c0.07008,0.00072 0.14137,0.00094 0.21454,0.00094c3.36995,0 10.00109,-0.66785 10.27929,-2.96775c1.18058,0.80545 1.23452,4.18395 1.23452,4.18395c-1.60754,7.25266 -9.7585,7.60717 -11.33705,7.60717c-0.17107,0 -0.26517,-0.0043 -0.26517,-0.0043c-9.97877,-0.95036 -10.92913,-6.81096 -10.85,-8.4741c0.07913,-1.66311 1.30675,-3.32626 1.30675,-3.32626h0.02922c0,0.00023 0,0 0,0z" fill="#000000" stroke-width="0.63025"/><g><path d="M240.02117,188.58578c-0.32028,0 -0.50534,-0.01067 -0.50937,-0.01089c-10.84359,-1.03307 -10.64021,-7.93242 -10.62619,-8.22583c0.05131,-1.07842 0.62175,-2.17659 0.97743,-2.76317c0.46353,0.76311 1.45928,1.35305 2.96085,1.75389c1.28297,0.3426 3.22195,0.8603 6.54583,0.88951l0.21669,0.00094c0.09692,0 9.27288,-0.03348 10.41094,-2.78073c0.85057,0.90071 0.96031,2.84848 0.86671,3.73445c-0.72655,6.8675 -8.48217,7.40183 -10.84288,7.40183c0.00026,0 0.00026,0 0,0z" fill="#cc7700" stroke-width="0.63025"/><path d="M250.03036,177.87952c-1.74559,2.55647 -10.05835,2.58855 -10.44422,2.58855c-0.0746,0 -0.14728,-0.00045 -0.21857,-0.00094c-3.35404,-0.02971 -5.31036,-0.55193 -6.60498,-0.89762c-1.35689,-0.36231 -2.32222,-0.88167 -2.87792,-1.54719c-0.32812,0.59566 -0.72086,1.47688 -0.76195,2.33812c-0.01738,0.36352 -0.02401,2.27302 1.54549,4.17969c1.74914,2.12498 4.73185,3.40274 8.86518,3.79785c0.03706,0.00188 0.21145,0.00999 0.48777,0.00999c2.30985,0 9.90085,-0.51842 10.60647,-7.18876c0.09884,-0.93445 -0.04607,-2.42769 -0.59728,-3.2797M250.03036,177.87952l-20.04639,-0.86814v0c-0.03589,0.12878 -0.02518,0.26517 0.05606,0.40676c0.46926,0.82087 1.58048,1.35452 2.84516,1.6921c1.26468,0.33762 3.19273,0.85223 6.48668,0.88149c0.07008,0.00072 0.14137,0.00094 0.21454,0.00094c3.36995,0 10.00109,-0.66785 10.27929,-2.96775c1.18058,0.80545 1.34905,3.09935 1.23452,4.18395c-0.75505,7.1384 -8.91649,7.61403 -11.07905,7.61403c-0.33238,0 -0.52317,-0.01116 -0.52317,-0.01116c-9.97877,-0.95036 -10.92913,-6.81096 -10.85,-8.4741c0.07913,-1.66311 1.30675,-3.32626 1.30675,-3.32626h0.02922c0,0.00023 0,0 0,0z" fill="#b3b3b3" stroke-width="0.63025"/><path d="M250.04711,177.87087c0.55122,0.85201 0.69792,2.35052 0.59908,3.28497c-0.70563,6.67034 -8.31469,7.21098 -10.62454,7.21098c-0.27632,0 -0.45247,-0.00814 -0.48953,-0.01003c-4.13333,-0.39511 -7.1334,-1.6888 -8.88253,-3.81378c-1.56951,-1.90667 -1.56251,-3.82373 -1.54513,-4.18725c0.04109,-0.86124 0.43529,-1.74634 0.76341,-2.342c0.5557,0.66552 1.52095,1.18503 2.87784,1.54734c1.29461,0.34569 3.26418,0.85781 6.61822,0.88752c0.07129,0.00049 0.14547,0.00071 0.22007,0.00071c0.38587,0 8.71752,-0.022 10.46311,-2.57847" data-paper-data="{&quot;noHover&quot;:false,&quot;origItem&quot;:[&quot;Path&quot;,{&quot;applyMatrix&quot;:true,&quot;segments&quot;:[[[266.8813,173.6543],[0,0],[-4.6305,6.7815]],[[239.1761,180.5209],[1.0236,0],[-0.1979,0]],[[238.5963,180.5184],[0.1891,0.0013],[-8.8972,-0.0788]],[[221.0754,178.1373],[3.4342,0.917],[-3.5994,-0.9611]],[[213.4412,174.0331],[1.4741,1.7654],[-0.8704,1.5801]],[[211.42,180.2354],[0.109,-2.2846],[-0.0461,0.9643]],[[215.5197,191.3228],[-4.1634,-5.0578],[4.6399,5.6369]],[[239.0362,201.3973],[-10.9644,-1.0481],[0.0983,0.005]],[[240.3301,201.4238],[-0.733,0],[6.1273,0]],[[268.4657,182.3543],[-1.8718,17.6943],[0.2622,-2.4788]],[[266.8813,173.6543],[1.4622,2.2601],[0,0]]],&quot;fillColor&quot;:[0,0,0,1],&quot;strokeWidth&quot;:0.63025}]}" fill="#ffffff" stroke-width="0.31513"/></g><text transform="translate(236.57556,186.5449) scale(0.18849,0.18849)" font-size="40" xml:space="preserve" fill="#989898" fill-rule="nonzero" stroke="none" stroke-width="1" stroke-linecap="butt" stroke-linejoin="miter" stroke-miterlimit="10" stroke-dasharray="" stroke-dashoffset="0" font-family="Sans Serif" font-weight="normal" text-anchor="start" style="mix-blend-mode: normal"><tspan x="0" dy="0">IA</tspan></text></g><path d="M239.36612,180.07573c-3.31801,-0.03096 -5.25364,-0.57976 -6.53453,-0.94284c-1.38688,-0.39315 -2.31744,-0.96795 -2.69141,-1.66244c-0.03502,-0.06504 -0.04305,-0.11969 -0.02623,-0.18286c0.08088,-0.30915 0.67816,-0.67606 1.19903,-0.88658l0.05915,-0.02319c2.50901,-0.88819 5.33384,-1.34143 8.38076,-1.34143c4.56151,0 8.24617,1.0188 9.00266,1.36984c0.74722,0.34702 0.92959,0.71532 0.96862,0.82413c-0.334,1.96284 -6.10449,2.84657 -10.1416,2.84657z" fill="#660000" stroke="none" stroke-width="0.63025" stroke-linecap="butt"/><path d="M239.75289,175.39097c-2.99396,0 -5.7679,0.44284 -8.24594,1.31591l-0.04046,0.0149l-0.00616,0.00263l-0.01156,0.00495l-0.01351,0.00495c-0.51636,0.21029 -0.86597,0.4717 -0.95916,0.60959c0.34462,0.59041 1.19074,1.09 2.45248,1.44764c1.26242,0.3579 3.17039,0.89889 6.44088,0.9294c0.06928,0.00071 0.14026,0.00094 0.21288,0.00094c1.64517,0 4.15819,-0.17246 6.27811,-0.65643c1.98367,-0.45275 3.26313,-1.11458 3.4881,-1.79297c-0.07379,-0.10978 -0.2673,-0.32386 -0.74253,-0.54455c-0.63511,-0.29474 -4.31054,-1.33696 -8.85313,-1.33696M239.75289,175.39097v-0.70962v0c4.6895,0 8.43826,1.0718 9.15189,1.40272c1.11841,0.51944 1.17989,1.12783 1.17989,1.12783c-0.2843,2.49508 -7.05918,3.2196 -10.50255,3.2196c-0.07476,0 -0.1481,-0.00023 -0.21952,-0.00094c-3.36578,-0.03145 -5.33576,-0.58993 -6.62798,-0.95635c-1.29226,-0.36639 -2.42767,-0.94498 -2.90714,-1.83557c-0.0828,-0.15377 -0.09368,-0.30161 -0.05701,-0.44141c0.15306,-0.58497 1.15812,-1.02376 1.40936,-1.12524c0.00116,-0.00045 0.00259,-0.00094 0.00353,-0.00139c0.01681,-0.00664 0.02935,-0.01186 0.03855,-0.01516c0.00143,-0.00071 0.00263,-0.00094 0.00379,-0.00143c0.00687,-0.00281 0.01182,-0.00473 0.01182,-0.00473c2.8868,-1.02256 5.85261,-1.36792 8.51538,-1.36792z" fill="#000000" stroke="none" stroke-width="0.63025" stroke-linecap="butt"/><path d="M228.50956,188.83978v-17.73217h22.98089v17.73217z" fill-opacity="0.0207" fill="#ffffff" stroke="none" stroke-width="0" stroke-linecap="butt"/><path d="M239.76131,188.52649c-0.15829,0 -0.24712,-0.00384 -0.25145,-0.00407c-10.80711,-1.02969 -10.60619,-7.87396 -10.59228,-8.16489c0.0462,-0.96936 0.52129,-1.95927 0.87137,-2.56581c0.52037,0.71764 1.51006,1.27487 2.94754,1.6585c1.29881,0.34674 3.26191,0.87091 6.62732,0.90059l0.21934,0.00099c0.09601,0 8.94959,-0.0326 10.49844,-2.67094c0.50263,0.81677 0.72387,2.46091 0.74614,3.50139c-1.5797,6.98937 -9.49245,7.34424 -11.06642,7.34424c0.00023,0 0,0 0,0z" fill="#65cbeb" stroke="none" stroke-width="0.63025" stroke-linecap="butt"/><path d="M250.00925,178.35442c-2.24567,2.28112 -9.48717,2.3568 -10.42587,2.3568c-0.07591,0 -0.14989,-0.00049 -0.22246,-0.00099c-3.41089,-0.03017 -5.40032,-0.56129 -6.71687,-0.91282c-1.24064,-0.33139 -2.17287,-0.7945 -2.78371,-1.3819c-0.27588,0.55218 -0.55077,1.2653 -0.58382,1.959c-0.01676,0.3508 -0.02276,2.19514 1.50333,4.04905c1.71933,2.08906 4.6671,3.34717 8.76186,3.74038c0.03116,0.00122 0.10657,0.00312 0.21961,0.00312c1.52176,0 9.16319,-0.33933 10.70627,-7.02098c-0.02299,-0.84291 -0.17527,-2.01147 -0.45833,-2.79165M250.00925,178.35442l-20.10415,-1.36659v0c-0.03617,0.12979 -0.02538,0.26725 0.0565,0.40996c0.47296,0.82733 1.59292,1.36518 2.86757,1.70543c1.27464,0.34028 3.21788,0.85894 6.53777,0.88843c0.07063,0.00072 0.14248,0.00095 0.21623,0.00095c3.39649,0 10.07985,-0.67311 10.36025,-2.99112c1.18988,0.81179 1.24425,4.21691 1.24425,4.21691c-1.6202,7.30978 -9.83536,7.66708 -11.42634,7.66708c-0.17242,0 -0.26725,-0.00433 -0.26725,-0.00433c-10.05736,-0.95784 -11.0152,-6.8646 -10.93545,-8.54084c0.07975,-1.67621 1.31704,-3.35245 1.31704,-3.35245h0.02945c0,0.00023 0,0 0,0z" fill="#000000" stroke="none" stroke-width="0.63025" stroke-linecap="butt"/><g stroke="none" stroke-linecap="butt"><path d="M240.02134,188.65339c-0.3228,0 -0.50932,-0.01075 -0.51338,-0.01098c-10.92899,-1.0412 -10.72401,-7.9949 -10.70988,-8.29061c0.05171,-1.08691 0.62664,-2.19373 0.98512,-2.78493c0.46718,0.76912 1.47077,1.3637 2.98417,1.7677c1.29307,0.34529 3.24732,0.86707 6.59738,0.89652l0.21839,0.00095c0.09768,0 9.34591,-0.03374 10.49293,-2.80263c0.85727,0.9078 0.96787,2.87091 0.87353,3.76386c-0.73227,6.92159 -8.54897,7.46012 -10.92827,7.46012c0.00027,0 0.00027,0 0,0z" fill="#cc7700" stroke-width="0.63025"/><path d="M250.10936,177.86281c-1.75934,2.5766 -10.13756,2.60894 -10.52648,2.60894c-0.07519,0 -0.14844,-0.00046 -0.22029,-0.00095c-3.38045,-0.02994 -5.35218,-0.55628 -6.65699,-0.90469c-1.36758,-0.36517 -2.3405,-0.88862 -2.90058,-1.55937c-0.3307,0.60035 -0.72653,1.48851 -0.76795,2.35654c-0.01752,0.36638 -0.0242,2.29092 1.55766,4.21261c1.76291,2.14172 4.76912,3.42954 8.935,3.82776c0.03735,0.0019 0.21311,0.01007 0.49161,0.01007c2.32804,0 9.97882,-0.5225 10.69001,-7.24538c0.09962,-0.94181 -0.04643,-2.44681 -0.60199,-3.30553M250.10936,177.86281l-20.20427,-0.87498v0c-0.03617,0.12979 -0.02538,0.26725 0.0565,0.40996c0.47296,0.82733 1.59292,1.36518 2.86757,1.70543c1.27464,0.34028 3.21788,0.85894 6.53777,0.88843c0.07063,0.00072 0.14248,0.00095 0.21623,0.00095c3.39649,0 10.07985,-0.67311 10.36025,-2.99112c1.18988,0.81179 1.35967,3.12376 1.24425,4.21691c-0.76099,7.19462 -8.98671,7.674 -11.16631,7.674c-0.335,0 -0.52729,-0.01125 -0.52729,-0.01125c-10.05736,-0.95784 -11.0152,-6.8646 -10.93545,-8.54084c0.07975,-1.67621 1.31704,-3.35245 1.31704,-3.35245h0.02945c0,0.00023 0,0 0,0z" fill="#b30000" stroke-width="0.63025"/><path d="M250.12624,177.8541c0.55556,0.85872 0.70342,2.36903 0.60379,3.31084c-0.71118,6.72288 -8.38017,7.26777 -10.70821,7.26777c-0.2785,0 -0.45603,-0.00821 -0.49338,-0.01011c-4.16588,-0.39822 -7.18958,-1.7021 -8.95249,-3.84381c-1.58187,-1.92169 -1.57481,-3.85384 -1.5573,-4.22022c0.04141,-0.86802 0.43872,-1.7601 0.76942,-2.36045c0.56008,0.67076 1.53293,1.19436 2.9005,1.55953c1.30481,0.34841 3.28988,0.86457 6.67034,0.89451c0.07185,0.00049 0.14661,0.00071 0.2218,0.00071c0.38891,0 8.78617,-0.02217 10.54551,-2.59877" data-paper-data="{&quot;noHover&quot;:false,&quot;origItem&quot;:[&quot;Path&quot;,{&quot;applyMatrix&quot;:true,&quot;segments&quot;:[[[266.8813,173.6543],[0,0],[-4.6305,6.7815]],[[239.1761,180.5209],[1.0236,0],[-0.1979,0]],[[238.5963,180.5184],[0.1891,0.0013],[-8.8972,-0.0788]],[[221.0754,178.1373],[3.4342,0.917],[-3.5994,-0.9611]],[[213.4412,174.0331],[1.4741,1.7654],[-0.8704,1.5801]],[[211.42,180.2354],[0.109,-2.2846],[-0.0461,0.9643]],[[215.5197,191.3228],[-4.1634,-5.0578],[4.6399,5.6369]],[[239.0362,201.3973],[-10.9644,-1.0481],[0.0983,0.005]],[[240.3301,201.4238],[-0.733,0],[6.1273,0]],[[268.4657,182.3543],[-1.8718,17.6943],[0.2622,-2.4788]],[[266.8813,173.6543],[1.4622,2.2601],[0,0]]],&quot;fillColor&quot;:[0,0,0,1],&quot;strokeWidth&quot;:0.63025}]}" fill="#ff0000" stroke-width="0.31513"/></g><text transform="translate(236.5486,186.59644) scale(0.18997,0.18997)" font-size="40" xml:space="preserve" fill="#980000" fill-rule="nonzero" stroke="none" stroke-width="1" stroke-linecap="butt" stroke-linejoin="miter" stroke-miterlimit="10" stroke-dasharray="" stroke-dashoffset="0" font-family="Sans Serif" font-weight="normal" text-anchor="start" style="mix-blend-mode: normal"><tspan x="0" dy="0">IA</tspan></text><path d="M239.37956,179.96765c-3.31801,-0.03096 -5.25364,-0.57976 -6.53453,-0.94284c-1.38688,-0.39315 -2.31744,-0.96795 -2.69141,-1.66244c-0.03502,-0.06504 -0.04305,-0.11969 -0.02623,-0.18286c0.08088,-0.30915 0.67816,-0.67606 1.19903,-0.88658l0.05915,-0.02319c2.50901,-0.88819 5.33384,-1.34143 8.38076,-1.34143c4.56151,0 8.24617,1.0188 9.00266,1.36984c0.74722,0.34702 0.92959,0.71532 0.96862,0.82413c-0.334,1.96284 -6.10449,2.84657 -10.1416,2.84657z" fill="#660000" stroke="none" stroke-width="0.63025" stroke-linecap="butt"/><path d="M239.76632,175.28289c-2.99396,0 -5.7679,0.44284 -8.24594,1.31591l-0.04046,0.0149l-0.00616,0.00263l-0.01156,0.00495l-0.01351,0.00495c-0.51636,0.21029 -0.86597,0.4717 -0.95916,0.60959c0.34462,0.59041 1.19074,1.09 2.45248,1.44764c1.26242,0.3579 3.17039,0.89889 6.44088,0.9294c0.06928,0.00071 0.14026,0.00094 0.21288,0.00094c1.64517,0 4.15819,-0.17246 6.27811,-0.65643c1.98367,-0.45275 3.26313,-1.11458 3.4881,-1.79297c-0.07379,-0.10978 -0.2673,-0.32386 -0.74253,-0.54455c-0.63511,-0.29474 -4.31054,-1.33696 -8.85313,-1.33696M239.76632,175.28289v-0.70962v0c4.6895,0 8.43826,1.0718 9.15189,1.40272c1.11841,0.51944 1.17989,1.12783 1.17989,1.12783c-0.2843,2.49508 -7.05918,3.2196 -10.50255,3.2196c-0.07476,0 -0.1481,-0.00023 -0.21952,-0.00094c-3.36578,-0.03145 -5.33576,-0.58993 -6.62798,-0.95635c-1.29226,-0.36639 -2.42767,-0.94498 -2.90714,-1.83557c-0.0828,-0.15377 -0.09368,-0.30161 -0.05701,-0.44141c0.15306,-0.58497 1.15812,-1.02376 1.40936,-1.12524c0.00116,-0.00045 0.00259,-0.00094 0.00353,-0.00139c0.01681,-0.00664 0.02935,-0.01186 0.03855,-0.01516c0.00143,-0.00071 0.00263,-0.00094 0.00379,-0.00143c0.00687,-0.00281 0.01182,-0.00473 0.01182,-0.00473c2.8868,-1.02256 5.85261,-1.36792 8.51538,-1.36792z" fill="#000000" stroke="none" stroke-width="0.63025" stroke-linecap="butt"/><path d="M228.47942,188.86297v-17.77868h23.04117v17.77868z" fill-opacity="0.0207" fill="#ffffff" stroke="none" stroke-width="0" stroke-linecap="butt"/><path d="M239.76067,188.54886c-0.1587,0 -0.24776,-0.00385 -0.25211,-0.00408c-10.83545,-1.03239 -10.63401,-7.89461 -10.62007,-8.1863c0.04632,-0.9719 0.52266,-1.96441 0.87366,-2.57255c0.52174,0.71953 1.51402,1.27821 2.95528,1.66285c1.30221,0.34765 3.27047,0.8732 6.6447,0.90295l0.21992,0.00099c0.09626,0 8.97306,-0.03268 10.52597,-2.67795c0.50395,0.81891 0.72577,2.46737 0.7481,3.51057c-1.58384,7.0077 -9.51736,7.36351 -11.09545,7.36351c0.00023,0 0,0 0,0z" fill="#65cbeb" stroke="none" stroke-width="0.63025" stroke-linecap="butt"/><path d="M250.03549,178.35011c-2.25156,2.2871 -9.51206,2.36299 -10.45321,2.36299c-0.07611,0 -0.15028,-0.0005 -0.22304,-0.00099c-3.41984,-0.03025 -5.41449,-0.56277 -6.7345,-0.91522c-1.24389,-0.33226 -2.17857,-0.79659 -2.79101,-1.38553c-0.2766,0.55363 -0.55221,1.26862 -0.58535,1.96414c-0.0168,0.35172 -0.02282,2.2009 1.50727,4.05966c1.72384,2.09454 4.67934,3.35595 8.78484,3.75019c0.03124,0.00122 0.10685,0.00313 0.22018,0.00313c1.52575,0 9.18723,-0.34022 10.73435,-7.0394c-0.02304,-0.84512 -0.17573,-2.01675 -0.45953,-2.79898M250.03549,178.35011l-20.15688,-1.37017v0c-0.03626,0.13013 -0.02545,0.26796 0.05665,0.41104c0.4742,0.8295 1.5971,1.36876 2.87508,1.7099c1.27799,0.34117 3.22631,0.8612 6.55491,0.89076c0.07082,0.00072 0.14286,0.00095 0.2168,0.00095c3.40539,0 10.10629,-0.67487 10.38742,-2.99896c1.19299,0.81392 1.24751,4.22796 1.24751,4.22796c-1.62446,7.32895 -9.86115,7.68719 -11.45631,7.68719c-0.17287,0 -0.26796,-0.00435 -0.26796,-0.00435c-10.08373,-0.96035 -11.04409,-6.8826 -10.96413,-8.56324c0.07996,-1.68061 1.3205,-3.36125 1.3205,-3.36125h0.02953c0,0.00023 0,0 0,0z" fill="#000000" stroke="none" stroke-width="0.63025" stroke-linecap="butt"/><g stroke="none" stroke-linecap="butt"><path d="M240.0214,188.67609c-0.32365,0 -0.51065,-0.01078 -0.51472,-0.01101c-10.95765,-1.04394 -10.75214,-8.01586 -10.73797,-8.31235c0.05184,-1.08976 0.62829,-2.19948 0.98771,-2.79223c0.4684,0.77114 1.47463,1.36728 2.992,1.77233c1.29646,0.3462 3.25584,0.86934 6.61469,0.89887l0.21896,0.00095c0.09794,0 9.37042,-0.03383 10.52045,-2.80998c0.85952,0.91019 0.97042,2.87844 0.87583,3.77373c-0.73419,6.93974 -8.5714,7.47969 -10.95694,7.47969c0.00027,0 0.00027,0 0,0z" fill="#cc7700" stroke-width="0.63025"/><path d="M250.13587,177.85721c-1.76396,2.58336 -10.16415,2.61578 -10.55409,2.61578c-0.07539,0 -0.14883,-0.00046 -0.22087,-0.00096c-3.38932,-0.03002 -5.36622,-0.55774 -6.67445,-0.90706c-1.37116,-0.36613 -2.34665,-0.89095 -2.90819,-1.56347c-0.33157,0.60192 -0.72843,1.49242 -0.76996,2.36272c-0.01756,0.36735 -0.02426,2.29693 1.56175,4.22366c1.76754,2.14733 4.78162,3.43854 8.95843,3.8378c0.03744,0.0019 0.21367,0.0101 0.4929,0.0101c2.33415,0 10.005,-0.52387 10.71805,-7.26438c0.09989,-0.94428 -0.04655,-2.45323 -0.60357,-3.3142M250.13587,177.85721l-20.25726,-0.87727v0c-0.03626,0.13013 -0.02545,0.26796 0.05665,0.41104c0.4742,0.8295 1.5971,1.36876 2.87508,1.7099c1.27799,0.34117 3.22631,0.8612 6.55491,0.89076c0.07082,0.00072 0.14286,0.00095 0.2168,0.00095c3.40539,0 10.10629,-0.67487 10.38742,-2.99896c1.19299,0.81392 1.36324,3.13195 1.24751,4.22796c-0.76299,7.21349 -9.01028,7.69412 -11.19559,7.69412c-0.33587,0 -0.52867,-0.01128 -0.52867,-0.01128c-10.08373,-0.96035 -11.04409,-6.8826 -10.96413,-8.56324c0.07996,-1.68061 1.3205,-3.36125 1.3205,-3.36125h0.02953c0,0.00023 0,0 0,0z" fill="#b100b1" stroke-width="0.63025"/><path d="M250.15279,177.84848c0.55702,0.86097 0.70526,2.37525 0.60538,3.31952c-0.71305,6.74051 -8.40215,7.28683 -10.7363,7.28683c-0.27923,0 -0.45723,-0.00823 -0.49468,-0.01013c-4.17681,-0.39927 -7.20843,-1.70656 -8.97597,-3.8539c-1.58602,-1.92673 -1.57894,-3.86394 -1.56138,-4.23129c0.04153,-0.8703 0.43987,-1.76472 0.77144,-2.36664c0.56154,0.67252 1.53695,1.1975 2.90811,1.56362c1.30823,0.34932 3.29852,0.86683 6.68784,0.89685c0.07203,0.0005 0.147,0.00072 0.22239,0.00072c0.38994,0 8.80922,-0.02223 10.57317,-2.60559" data-paper-data="{&quot;noHover&quot;:false,&quot;origItem&quot;:[&quot;Path&quot;,{&quot;applyMatrix&quot;:true,&quot;segments&quot;:[[[266.8813,173.6543],[0,0],[-4.6305,6.7815]],[[239.1761,180.5209],[1.0236,0],[-0.1979,0]],[[238.5963,180.5184],[0.1891,0.0013],[-8.8972,-0.0788]],[[221.0754,178.1373],[3.4342,0.917],[-3.5994,-0.9611]],[[213.4412,174.0331],[1.4741,1.7654],[-0.8704,1.5801]],[[211.42,180.2354],[0.109,-2.2846],[-0.0461,0.9643]],[[215.5197,191.3228],[-4.1634,-5.0578],[4.6399,5.6369]],[[239.0362,201.3973],[-10.9644,-1.0481],[0.0983,0.005]],[[240.3301,201.4238],[-0.733,0],[6.1273,0]],[[268.4657,182.3543],[-1.8718,17.6943],[0.2622,-2.4788]],[[266.8813,173.6543],[1.4622,2.2601],[0,0]]],&quot;fillColor&quot;:[0,0,0,1],&quot;strokeWidth&quot;:0.63025}]}" fill="#ff00ff" stroke-width="0.31513"/></g><text transform="translate(236.53954,186.61375) scale(0.19047,0.19047)" font-size="40" xml:space="preserve" fill="#950095" fill-rule="nonzero" stroke="none" stroke-width="1" stroke-linecap="butt" stroke-linejoin="miter" stroke-miterlimit="10" stroke-dasharray="" stroke-dashoffset="0" font-family="Sans Serif" font-weight="normal" text-anchor="start" style="mix-blend-mode: normal"><tspan x="0" dy="0">IA</tspan></text></g></g></svg>