<svg version="1.1" xmlns="http://www.w3.org/2000/svg" xmlns:xlink="http://www.w3.org/1999/xlink" width="49.41896" height="49.7548" viewBox="0,0,49.41896,49.7548"><defs><radialGradient cx="240.38509" cy="180.09627" r="24.70948" gradientUnits="userSpaceOnUse" id="color-1"><stop offset="0" stop-color="#ffd79a"/><stop offset="1" stop-color="#ffd79a" stop-opacity="0"/></radialGradient></defs><g transform="translate(-215.6756,-148.80071)"><g data-paper-data="{&quot;isPaintingLayer&quot;:true}" fill-rule="nonzero" stroke-linecap="butt" stroke-linejoin="miter" stroke-miterlimit="10" stroke-dasharray="" stroke-dashoffset="0" style="mix-blend-mode: normal"><path d="M233.23066,182.92823v-33.12752h13.34502v33.12752z" fill="#c1c1c1" stroke="#000000" stroke-width="2"/><path d="M240,164.11943c7.9253,0 14.35003,7.10997 14.35003,15.88057c0,8.7706 -6.42472,15.88057 -14.35003,15.88057c-7.9253,0 -14.35003,-7.10997 -14.35003,-15.88057c0,-8.7706 6.42472,-15.88057 14.35003,-15.88057z" fill="#eaff00" stroke="#000000" stroke-width="2"/><path d="M240.38508,161.63703c13.64667,0 24.70948,8.26449 24.70948,18.45924c0,10.19476 -11.06281,18.45924 -24.70948,18.45924c-13.64667,0 -24.70948,-8.26449 -24.70948,-18.45924c0,-10.19476 11.06281,-18.45924 24.70948,-18.45924z" fill="url(#color-1)" stroke="none" stroke-width="0"/></g></g></svg>