<svg version="1.1" xmlns="http://www.w3.org/2000/svg" xmlns:xlink="http://www.w3.org/1999/xlink" width="60.48465" height="47.01589" viewBox="0,0,60.48465,47.01589"><g transform="translate(-210.03162,-155.87491)"><g data-paper-data="{&quot;isPaintingLayer&quot;:true}" fill-rule="nonzero" stroke="none" stroke-linecap="butt" stroke-linejoin="miter" stroke-miterlimit="10" stroke-dasharray="" stroke-dashoffset="0" style="mix-blend-mode: normal"><path d="M210.03162,202.54517v-46.67026h60.48465v46.67026z" fill-opacity="0.0207" fill="#ffffff" stroke-width="0"/><path d="M239.6457,201.7206c-0.4166,0 -0.6504,-0.0101 -0.6618,-0.0107c-28.4438,-2.7101 -27.915,-20.7239 -27.8784,-21.4896c0.1216,-2.5513 1.372,-5.1567 2.2934,-6.7531c1.3696,1.8888 3.9744,3.3554 7.7578,4.3651c3.4184,0.9126 8.5852,2.2922 17.4428,2.3703l0.5773,0.0026c0.2527,0 23.5549,-0.0858 27.6314,-7.0298c1.3229,2.1497 1.9052,6.477 1.9638,9.2155c-4.1577,18.3957 -24.9837,19.3297 -29.1263,19.3297c0.0006,0 0,0 0,0z" fill="#65cbeb" stroke-width="0.63025"/><path d="M266.6178,174.9482c-5.9105,6.0038 -24.9698,6.203 -27.4404,6.203c-0.1998,0 -0.3945,-0.0013 -0.5855,-0.0026c-8.9773,-0.0794 -14.2134,-1.4773 -17.6785,-2.4025c-3.2653,-0.8722 -5.7189,-2.0911 -7.3266,-3.6371c-0.7261,1.4533 -1.4496,3.3302 -1.5366,5.156c-0.0441,0.9233 -0.0599,5.7775 3.9567,10.6569c4.5252,5.4983 12.2836,8.8096 23.0608,9.8445c0.082,0.0032 0.2805,0.0082 0.578,0.0082c4.0052,0 24.1171,-0.8931 28.1784,-18.4789c-0.0605,-2.2185 -0.4613,-5.2941 -1.2063,-7.3475M266.6178,174.9482l-52.9132,-3.5968v0c-0.0952,0.3416 -0.0668,0.7034 0.1487,1.079c1.2448,2.1775 4.1925,3.5931 7.5473,4.4886c3.3548,0.8956 8.4693,2.2607 17.2071,2.3383c0.1859,0.0019 0.375,0.0025 0.5691,0.0025c8.9394,0 26.5297,-1.7716 27.2677,-7.8725c3.1317,2.1366 3.2748,11.0987 3.2748,11.0987c-4.2643,19.239 -25.8862,20.1794 -30.0736,20.1794c-0.4538,0 -0.7034,-0.0114 -0.7034,-0.0114c-26.4705,-2.521 -28.9915,-18.0673 -28.7816,-22.4791c0.2099,-4.4117 3.4664,-8.8235 3.4664,-8.8235h0.0775c0,0.0006 0,0 0,0z" fill="#000000" stroke-width="0.63025"/><g><path d="M240.3301,202.0546c-0.8496,0 -1.3405,-0.0283 -1.3512,-0.0289c-28.7646,-2.7404 -28.2251,-21.0422 -28.1879,-21.8205c0.1361,-2.8607 1.6493,-5.7738 2.5928,-7.3298c1.2296,2.0243 3.871,3.5892 7.8542,4.6525c3.4033,0.9088 8.5468,2.2821 17.364,2.3596l0.5748,0.0025c0.2571,0 24.598,-0.0888 27.6169,-7.3764c2.2563,2.3893 2.5474,7.5561 2.2991,9.9063c-1.9273,18.2173 -22.5005,19.6347 -28.7627,19.6347c0.0007,0 0.0007,0 0,0z" fill="#cc7700" stroke-width="0.63025"/><path d="M266.8813,173.6543c-4.6305,6.7815 -26.6816,6.8666 -27.7052,6.8666c-0.1979,0 -0.3907,-0.0012 -0.5798,-0.0025c-8.8972,-0.0788 -14.0867,-1.4641 -17.5209,-2.3811c-3.5994,-0.9611 -6.1601,-2.3388 -7.6342,-4.1042c-0.8704,1.5801 -1.9122,3.9177 -2.0212,6.2023c-0.0461,0.9643 -0.0637,6.0296 4.0997,11.0874c4.6399,5.6369 12.5521,9.0264 23.5165,10.0745c0.0983,0.005 0.5609,0.0265 1.2939,0.0265c6.1273,0 26.2638,-1.3752 28.1356,-19.0695c0.2622,-2.4788 -0.1222,-6.4399 -1.5844,-8.7M266.8813,173.6543l-53.1767,-2.3029v0c-0.0952,0.3416 -0.0668,0.7034 0.1487,1.079c1.2448,2.1775 4.1925,3.5931 7.5473,4.4886c3.3548,0.8956 8.4693,2.2607 17.2071,2.3383c0.1859,0.0019 0.375,0.0025 0.5691,0.0025c8.9394,0 26.5297,-1.7716 27.2677,-7.8725c3.1317,2.1366 3.5786,8.2216 3.2748,11.0987c-2.0029,18.9359 -23.6526,20.1976 -29.3892,20.1976c-0.8817,0 -1.3878,-0.0296 -1.3878,-0.0296c-26.4705,-2.521 -28.9915,-18.0673 -28.7816,-22.4791c0.2099,-4.4117 3.4664,-8.8235 3.4664,-8.8235h0.0775c0,0.0006 0,0 0,0z" fill="#6b48b3" stroke-width="0.63025"/><path d="M266.92573,173.63137c1.4622,2.2601 1.85136,6.23518 1.58916,8.71398c-1.8718,17.6943 -22.05622,19.12844 -28.18352,19.12844c-0.733,0 -1.20026,-0.0216 -1.29856,-0.0266c-10.9644,-1.0481 -18.92263,-4.47984 -23.56253,-10.11674c-4.1634,-5.0578 -4.14483,-10.14313 -4.09873,-11.10743c0.109,-2.2846 1.15468,-4.63249 2.02508,-6.21259c1.4741,1.7654 4.03459,3.14351 7.63399,4.10461c3.4342,0.917 8.65882,2.27551 17.55602,2.35431c0.1891,0.0013 0.38588,0.00188 0.58378,0.00188c1.0236,0 23.1248,-0.05835 27.7553,-6.83985" data-paper-data="{&quot;noHover&quot;:false,&quot;origItem&quot;:[&quot;Path&quot;,{&quot;applyMatrix&quot;:true,&quot;segments&quot;:[[[266.8813,173.6543],[0,0],[-4.6305,6.7815]],[[239.1761,180.5209],[1.0236,0],[-0.1979,0]],[[238.5963,180.5184],[0.1891,0.0013],[-8.8972,-0.0788]],[[221.0754,178.1373],[3.4342,0.917],[-3.5994,-0.9611]],[[213.4412,174.0331],[1.4741,1.7654],[-0.8704,1.5801]],[[211.42,180.2354],[0.109,-2.2846],[-0.0461,0.9643]],[[215.5197,191.3228],[-4.1634,-5.0578],[4.6399,5.6369]],[[239.0362,201.3973],[-10.9644,-1.0481],[0.0983,0.005]],[[240.3301,201.4238],[-0.733,0],[6.1273,0]],[[268.4657,182.3543],[-1.8718,17.6943],[0.2622,-2.4788]],[[266.8813,173.6543],[1.4622,2.2601],[0,0]]],&quot;fillColor&quot;:[0,0,0,1],&quot;strokeWidth&quot;:0.63025}]}" fill="#9966ff" stroke-width="0.31513"/></g><text transform="translate(231.19,196.6408) scale(0.5,0.5)" font-size="40" xml:space="preserve" fill="#5c3e9a" fill-rule="nonzero" stroke="none" stroke-width="1" stroke-linecap="butt" stroke-linejoin="miter" stroke-miterlimit="10" stroke-dasharray="" stroke-dashoffset="0" font-family="Sans Serif" font-weight="normal" text-anchor="start" style="mix-blend-mode: normal"><tspan x="0" dy="0">IA</tspan></text></g></g></svg>