<svg version="1.1" xmlns="http://www.w3.org/2000/svg" xmlns:xlink="http://www.w3.org/1999/xlink" width="37.61535" height="45.88141" viewBox="0,0,37.61535,45.88141"><g transform="translate(-221.19232,-157.05929)"><g data-paper-data="{&quot;isPaintingLayer&quot;:true}" fill-rule="nonzero" stroke-linejoin="miter" stroke-miterlimit="10" stroke-dasharray="" stroke-dashoffset="0" style="mix-blend-mode: normal"><path d="M222.44233,180.51092c0,-7.16103 1.88416,-19.19972 1.88416,-19.19972c0,0 9.9543,-3.0019 15.83324,-3.0019c5.82569,0 15.81482,3.0019 15.81482,3.0019c0,0 1.58313,12.29226 1.58313,19.49528c0,6.6559 -1.57006,18.30848 -1.57006,18.30848c0,0 -9.00554,2.57575 -15.82788,2.57575c-6.82234,0 -16.43281,-2.12529 -16.43281,-2.12529c0,0 -1.28459,-12.34243 -1.28459,-19.0545z" fill="#969696" stroke="#2b2b2b" stroke-width="2.5" stroke-linecap="butt"/><text transform="translate(225.08338,197.20094) scale(0.33113,0.33113)" font-size="40" xml:space="preserve" fill="#71c8fa" fill-rule="nonzero" stroke="#3f6f8b" stroke-width="2" stroke-linecap="butt" stroke-linejoin="miter" stroke-miterlimit="10" stroke-dasharray="" stroke-dashoffset="0" font-family="Sans Serif" font-weight="normal" text-anchor="start" style="mix-blend-mode: normal"><tspan x="0" dy="0">Save</tspan></text><g stroke-width="1.5" stroke-linecap="round"><path d="M228.31471,162.74183h19.90158l3.96664,4.10342l-0.13678,19.14929h-23.73143z" fill="#71c8fa" stroke="#3f708d"/><path d="M245.94231,162.86152l0.06839,7.11259l-11.69474,0.06839l-0.13678,-7.18098z" fill="#ffffff" stroke="#3f708d"/><path d="M231.09319,172.87517l18.17839,0.07939v10.7959h-18.09901z" fill="#ffffff" stroke="#3f708d"/><path d="M243.71486,164.61949l0.07939,3.73093" fill="none" stroke="#000000"/><path d="M233.31588,175.65353l13.57425,0.07939" fill="none" stroke="#000000"/><path d="M233.30625,178.2635l13.57425,0.07939" fill="none" stroke="#000000"/><path d="M233.37601,181.03223l13.57425,0.07939" fill="none" stroke="#000000"/></g></g></g></svg>