<svg version="1.1" xmlns="http://www.w3.org/2000/svg" xmlns:xlink="http://www.w3.org/1999/xlink" width="19.14036" height="29.69846" viewBox="0,0,19.14036,29.69846"><g transform="translate(-264.10343,-170.90985)"><g data-paper-data="{&quot;isPaintingLayer&quot;:true}" fill-rule="nonzero" stroke="none" stroke-width="1" stroke-linecap="butt" stroke-linejoin="miter" stroke-miterlimit="10" stroke-dasharray="" stroke-dashoffset="0" style="mix-blend-mode: normal"><g><path d="M271.72999,180.37748c-0.14041,-0.14066 -0.11649,-0.28767 -0.06012,-0.45627c0.10835,-0.25936 0.26207,-0.49271 0.38554,-0.74341c-0.01939,-0.07137 -0.03878,-0.14274 -0.06684,-0.19898c-0.53938,-1.2329 -0.4993,-2.49552 -0.24731,-3.77743c0.05429,-0.27021 0.09348,-0.54909 0.23207,-0.79111c0.02599,-0.04538 0.04551,-0.11455 0.03258,-0.16213c-0.0711,-0.26168 0.04151,-0.45833 0.14766,-0.67876c0.08882,-0.19019 0.20789,-0.36304 0.31185,-0.54456c0.06064,-0.10589 0.15153,-0.19445 0.2856,-0.21811c0.13408,-0.02366 0.24876,-0.11869 0.35477,-0.19859c0.56047,-0.52271 1.20084,-0.9394 1.90598,-1.25875c0.40015,-0.1726 0.81103,-0.2587 1.23703,-0.33615c1.25423,-0.22586 2.47135,-0.07123 3.64931,0.36228c0.52737,0.20157 1.02655,0.48742 1.49108,0.83379c0.35218,0.26194 0.61347,0.61244 0.85098,0.96941c0.75568,1.13581 1.05072,2.40956 0.99758,3.76515c-0.00672,0.25729 -0.07615,0.51883 -0.14558,0.78038c-0.04125,0.17725 -0.0587,0.34805 0.0406,0.52543c0.09283,0.1536 0.07537,0.32438 0.019,0.49297c-0.10835,0.25936 -0.24694,0.50138 -0.38554,0.74341c-0.04331,0.07563 -0.10822,0.11882 -0.17312,0.162c-0.25742,0.13381 -0.43273,0.33473 -0.58646,0.56809c-0.30965,0.50565 -0.75324,0.89441 -1.1817,1.29185c-0.16445,0.14687 -0.34404,0.28508 -0.54522,0.39083c-0.64463,0.35399 -1.28706,0.66907 -2.01367,0.81541c-0.12994,0.2269 -0.28366,0.46027 -0.42226,0.7023c-0.05197,0.09077 -0.11261,0.19665 -0.23802,0.20519c-0.11028,0.0172 -0.14713,0.11662 -0.1991,0.20737c-0.36162,0.59641 -0.70812,1.20148 -1.06974,1.79789c-0.78607,1.33762 -1.58082,2.69036 -2.39716,4.01065c-0.79901,1.29004 -1.55264,2.60607 -2.3214,3.91343c-0.12127,0.21177 -0.26413,0.3911 -0.38541,0.60287c-0.58904,1.02862 -1.17809,2.05723 -1.78226,3.07719c-0.10395,0.18152 -0.17763,0.38036 -0.36368,0.49479c-0.0649,0.04318 -0.09309,0.12748 -0.1364,0.20312c-0.43312,0.75634 -0.89003,1.51914 -1.32315,2.27547c-0.01733,0.03026 -0.04331,0.07563 -0.06064,0.10589c-0.12347,0.25069 -0.29866,0.31107 -0.57107,0.29568c-0.91019,-0.05922 -1.70339,-0.39291 -2.37956,-1.0011c-0.17066,-0.15799 -0.324,-0.34624 -0.44488,-0.55607c-0.09283,-0.1536 -0.08404,-0.30925 -0.01254,-0.46919c0.2145,-0.47979 0.41385,-0.96824 0.63701,-1.46316c0.16032,-0.35012 0.35956,-0.69803 0.4745,-1.07412c0.2494,-0.82137 0.68899,-1.55393 0.98377,-2.3493c0.17338,-0.44308 0.30784,-0.88834 0.49634,-1.32275c0.20583,-0.46466 0.37274,-0.93153 0.55479,-1.38972c0.33589,-0.8321 0.71071,-1.66201 1.03148,-2.50276c0.39886,-1.11744 0.85822,-2.20023 1.31759,-3.28302c0.15386,-0.3739 0.30771,-0.7478 0.46157,-1.1217c0.25133,-0.57921 0.51134,-1.17355 0.76268,-1.75276c0.14299,-0.31986 0.24708,-0.64191 0.39007,-0.96177c0.13653,-0.34365 0.30111,-0.63105 0.46144,-0.98116zM272.22944,180.38226c0.12955,0.19471 0.27642,0.35917 0.4644,0.48691c0.31534,0.36137 0.70644,0.6255 1.09753,0.88964c0.48832,0.3399 1.02642,0.62797 1.5494,0.90736c0.5986,0.3227 1.23845,0.46816 1.90209,0.60715c0.07783,0.0044 0.15566,0.00879 0.2724,0.01539c0.0693,-0.12102 0.1386,-0.24202 0.2079,-0.36304c0.01733,-0.03026 0.01953,-0.06917 0.03038,-0.12322c-0.10589,-0.06064 -0.22044,-0.10616 -0.34365,-0.13653c-0.20751,-0.05857 -0.38256,-0.13873 -0.59007,-0.19729c-0.50578,-0.16911 -0.94872,-0.48303 -1.42851,-0.69752c-0.25069,-0.12347 -0.5187,-0.21669 -0.75207,-0.37042c-0.50344,-0.34857 -1.05021,-0.62149 -1.51901,-1.03056c-0.11881,-0.10821 -0.25276,-0.22509 -0.37157,-0.3333c-0.00854,-0.12541 -0.14688,-0.16445 -0.20519,-0.23802c-0.06477,-0.09735 -0.12955,-0.19471 -0.3046,-0.27487c-0.00672,0.25729 -0.16472,0.42794 -0.20816,0.64412c0.06698,0.05844 0.07551,0.18386 0.19872,0.21423zM272.53999,181.24306c-0.26995,-0.33537 -0.35205,-0.40248 -0.56602,-0.48483c-0.08882,0.19019 -0.16898,0.36524 -0.2578,0.55542c-0.06064,0.10589 -0.04344,0.21617 0.02134,0.31352c0.04318,0.0649 0.11881,0.10821 0.16199,0.17312c0.16627,0.23583 0.39743,0.42847 0.64813,0.55194c0.06258,0.13626 0.18358,0.20557 0.3046,0.27487c0.67204,0.40494 1.32029,0.81633 2.03564,1.14564c0.31986,0.14299 0.64838,0.27086 0.97043,0.37494c0.26155,0.06943 0.53823,0.14753 0.8237,0.06995c0.11261,-0.19665 0.22523,-0.3933 0.33784,-0.58995c-0.13834,-0.03905 -0.26155,-0.06943 -0.36963,-0.09115c-0.49285,-0.12154 -0.96838,-0.27333 -1.40925,-0.48562c-0.57055,-0.26647 -1.09778,-0.60857 -1.63369,-0.93554c-0.25715,-0.14726 -0.44721,-0.37662 -0.71303,-0.50876c-0.0755,-0.18385 -0.2181,-0.28559 -0.35425,-0.36356zM264.77444,199.15326c0.15979,0.21204 0.36292,0.34843 0.58335,0.45458c0.00646,0.02379 0.02805,0.05624 0.04318,0.0649c0.37172,0.19277 0.76073,0.35529 1.17148,0.40972c0.23996,0.03698 0.47125,0.08909 0.71781,0.00932c0.4851,-0.84709 0.97018,-1.6942 1.48127,-2.58668c-0.45833,-0.0415 -0.86468,-0.17376 -1.26237,-0.32116c-0.35231,-0.12141 -0.62885,-0.34003 -0.96384,-0.49169c-0.12102,-0.0693 -0.21824,-0.14506 -0.33926,-0.21436c-0.13821,-0.17958 -0.30886,-0.33757 -0.5271,-0.48263c-0.25987,0.45381 -0.38141,0.94664 -0.5937,1.38752c-0.20583,0.46466 -0.39653,0.93799 -0.5937,1.38753c0.0755,0.18385 0.17919,0.2834 0.28288,0.38295zM266.13742,195.89623c0.06258,0.13626 0.17492,0.22069 0.29594,0.28999c0.08636,0.1298 0.23117,0.19264 0.35864,0.28573c0.41489,0.25767 0.87309,0.43972 1.33349,0.58284c0.27667,0.07809 0.57068,0.12593 0.86908,0.09593c0.03464,-0.06051 0.08443,-0.11235 0.11907,-0.17285c0.42446,-0.7412 0.84025,-1.46729 1.27984,-2.19984c0.46557,-0.77793 0.92249,-1.54073 1.38806,-2.31866c0.67346,-1.14097 1.35341,-2.25815 2.02687,-3.39912c0.76655,-1.26844 1.47907,-2.54776 2.27588,-3.79887c0.1364,-0.20312 0.25121,-0.43867 0.38115,-0.66558c-0.20105,-0.03478 -0.40428,-0.03063 -0.588,-0.09567c-0.6074,-0.16704 -1.17795,-0.43351 -1.73118,-0.73022c-0.48406,-0.2772 -0.95945,-0.56952 -1.43484,-0.86185c-0.17932,-0.14287 -0.35219,-0.26194 -0.5315,-0.4048c-0.06904,-0.16006 -0.22251,-0.20777 -0.3262,-0.30732c-0.11881,-0.10821 -0.20518,-0.23803 -0.36511,-0.30952c-0.11688,0.13395 -0.15592,0.27229 -0.20144,0.38683c-0.34469,0.98777 -0.81905,1.92135 -1.20912,2.88313c-0.25354,0.61813 -0.50707,1.23625 -0.74548,1.86305c-0.33589,0.8321 -0.648,1.65774 -0.97524,2.47471c-0.2644,0.67217 -0.5288,1.34434 -0.80832,2.00785c-0.29039,0.71755 -0.58723,1.41132 -0.89274,2.12019c-0.27086,0.64838 -0.55039,1.31189 -0.81478,1.98406c0.12748,0.09308 0.16627,0.23582 0.29594,0.28999zM282.79736,178.51964c-0.41075,-0.05443 -0.76306,-0.17585 -1.12403,-0.28211c-0.3761,-0.11493 -0.74574,-0.20608 -1.11317,-0.33615c-0.35231,-0.12141 -0.70243,-0.28172 -1.04608,-0.41826c-0.35878,-0.14519 -0.71755,-0.29039 -1.08279,-0.45937c-0.33499,-0.15165 -0.67644,-0.32711 -1.01143,-0.47876c-0.34146,-0.17544 -0.64825,-0.4114 -1.02435,-0.52634c-0.26569,-0.27268 -0.63313,-0.40274 -0.94212,-0.59977c-0.31546,-0.22083 -0.66338,-0.42006 -0.97884,-0.64089c-0.30033,-0.21216 -0.60714,-0.44813 -0.89881,-0.67541c-0.3068,-0.23596 -0.56383,-0.52375 -0.89661,-0.71432c-0.23815,0.34572 -0.29879,0.4516 -0.33369,0.79318c0.13821,0.17958 0.2764,0.35916 0.46219,0.52582c0.23116,0.19264 0.46234,0.38529 0.69998,0.60172c0.45367,0.40041 0.90087,0.77703 1.43031,1.08021c0.36304,0.2079 0.73475,0.40067 1.06315,0.66908c0.06698,0.05844 0.15773,0.11042 0.26582,0.13214c0.20751,0.05857 0.3955,0.18631 0.57701,0.29025c0.66557,0.38114 1.38312,0.67153 2.09421,0.93813c0.93153,0.37274 1.89343,0.62228 2.88133,0.82643c0.19238,0.04991 0.38476,0.09981 0.58374,0.03296c0.16019,-0.20957 0.275,-0.44514 0.3942,-0.75854zM277.71699,173.21995c-0.23363,0.12735 -0.40674,0.28934 -0.59499,0.44268c-0.17092,0.12308 -0.28999,0.29594 -0.33343,0.51211c-0.10848,0.39988 -0.27098,0.78892 -0.49402,1.1433c-0.01733,0.03026 -0.02819,0.08429 -0.03685,0.09942c0.04965,0.0887 0.11015,0.12335 0.21177,0.12127c0.02379,-0.00646 0.05624,-0.02806 0.06491,-0.04318c0.29659,-0.41269 0.62343,-0.80805 0.98053,-1.18609c0.04978,-0.05184 0.11688,-0.13395 0.12127,-0.21178c0.07809,-0.27667 0.15618,-0.55335 0.08081,-0.87773zM275.50137,174.98434c0.27926,-0.38244 0.58012,-0.73242 0.88744,-1.05861c0.09955,-0.10369 0.14506,-0.21824 0.16898,-0.36524c0.02831,-0.22484 0.00905,-0.43674 -0.00155,-0.66377c0.0044,-0.07783 0.01745,-0.17078 -0.09063,-0.19251c-0.2229,0.21385 -0.45225,0.40389 -0.64489,0.63506c-0.10667,0.78258 -0.10667,0.78259 -0.50734,1.51733c0.01939,0.07137 0.07124,0.12115 0.18798,0.12774zM278.36496,178.61283c-0.21643,0.23763 -0.41773,0.48393 -0.61903,0.73021c-0.04978,0.05184 -0.09956,0.10369 -0.11908,0.17287c-0.03271,0.30266 -0.08055,0.59667 -0.01164,0.89726c0.28548,-0.07757 0.46078,-0.27849 0.67282,-0.43828c0.10601,-0.0799 0.14286,-0.17932 0.15812,-0.3112c0.01759,-0.31132 0.06542,-0.60533 0.13705,-0.90579c0.00866,-0.01512 -0.01293,-0.04757 -0.02586,-0.09515c-0.05404,-0.01085 -0.12321,-0.03038 -0.19238,-0.04991zM280.76833,174.90705c-0.33525,0.12942 -0.55594,0.30434 -0.79176,0.47061c-0.08223,0.07344 -0.11042,0.15773 -0.13861,0.24203c-0.11714,0.41502 -0.27965,0.80404 -0.51134,1.17355c-0.02599,0.04538 -0.03685,0.09943 -0.06283,0.14481c0.15773,0.11042 0.19665,0.11261 0.26595,-0.00841c0.22523,-0.3933 0.51741,-0.72815 0.86792,-0.98944c0.21204,-0.15979 0.30085,-0.34999 0.33784,-0.58995c0.00013,-0.14053 0.00672,-0.25729 0.03283,-0.4432zM277.27765,176.02163c0.07563,0.04331 0.12542,-0.00853 0.16007,-0.06904c0.24255,-0.42355 0.59745,-0.76267 0.95234,-1.1018c0.28133,-0.28081 0.42007,-0.66337 0.38374,-1.1261c-0.18385,0.0755 -0.2856,0.21811 -0.4392,0.31094c-0.31585,0.20079 -0.48044,0.48819 -0.59318,0.82537c-0.13007,0.36744 -0.245,0.74354 -0.46583,1.05901c-0.01085,0.05404 -0.00439,0.07783 0.00207,0.10161zM279.7008,174.3158c-0.19471,0.12955 -0.33965,0.20725 -0.46945,0.29362c-0.2185,0.13601 -0.33758,0.30886 -0.39834,0.55529c-0.07382,0.33939 -0.21682,0.65923 -0.37495,0.97043c-0.04551,0.11454 -0.1148,0.23556 -0.17544,0.34145c0.06698,0.05844 0.10808,0.02172 0.12541,-0.00854c0.32685,-0.39537 0.66882,-0.78207 1.06263,-1.11899c0.05844,-0.06698 0.10822,-0.11882 0.1364,-0.20311c0.04563,-0.25508 0.10641,-0.50151 0.09374,-0.83017zM279.40457,179.0073c-0.10408,0.32206 -0.30539,0.56835 -0.49156,0.8233c-0.04331,0.07563 -0.12334,0.11016 -0.1364,0.20311c-0.02392,0.14699 0.019,0.49298 0.10743,0.72441c0.19251,-0.09063 0.32672,-0.25483 0.48251,-0.38657c0.12334,-0.11016 0.17752,-0.23983 0.17118,-0.40416c0.00026,-0.28107 0.03077,-0.54482 0.12399,-0.81284c0.00866,-0.01512 -0.00427,-0.0627 -0.01073,-0.0865c-0.05184,-0.04978 -0.11235,-0.08442 -0.24643,-0.06076zM273.65951,177.04313c-0.03051,0.26376 -0.19291,0.51224 -0.16937,0.78685c0.11454,0.04551 0.20324,-0.00414 0.2984,-0.03c0.17519,-0.06037 0.34817,-0.08184 0.51909,-0.20492c0.06516,-0.32425 0.26866,-0.60947 0.35762,-0.94018c-0.04965,-0.0887 -0.12528,-0.132 -0.21824,-0.14506c-0.23803,0.20518 -0.49763,0.3779 -0.7875,0.53331zM276.48692,177.71816c-0.11688,0.13395 -0.23376,0.26789 -0.37003,0.33047c-0.32878,0.15321 -0.46091,0.41901 -0.48716,0.74547c-0.00659,0.11674 -0.05857,0.20751 -0.01978,0.35024c0.23789,-0.06464 0.43907,-0.17039 0.64023,-0.27615c0.05624,-0.02806 0.09089,-0.08856 0.11907,-0.17287c0.06943,-0.26155 0.14532,-0.49931 0.21476,-0.76086c0.02599,-0.04538 0.03038,-0.12321 -0.0971,-0.2163zM275.53394,177.17242c-0.25107,0.29814 -0.51509,0.5487 -0.85034,0.67812c-0.07137,0.01939 -0.09089,0.08856 -0.12554,0.14906c-0.06283,0.1448 -0.11054,0.29827 -0.09774,0.48638c0.33304,-0.09051 0.59046,-0.22432 0.85654,-0.37325c0.0887,-0.04965 0.14713,-0.11662 0.18398,-0.21604c0.06504,-0.18372 0.14519,-0.35877 0.21023,-0.5425c0.00866,-0.01512 -0.00427,-0.0627 -0.01074,-0.08649c-0.04538,-0.02599 -0.09076,-0.05198 -0.16639,-0.09528zM281.4935,176.3066c0.02612,-0.18592 0.06089,-0.38696 0.08701,-0.57288c-0.00646,-0.02379 -0.01293,-0.04758 -0.02586,-0.09516c-0.24436,0.04086 -0.43906,0.17041 -0.59485,0.30215c-0.16265,0.52956 -0.30796,1.02887 -0.60249,1.54318c0.35038,-0.12076 0.38308,-0.42342 0.54107,-0.59407c0.18398,-0.21604 0.38955,-0.39963 0.59512,-0.58322zM277.71312,172.73563c-0.04731,-0.26814 -0.06438,-0.51897 -0.21552,-0.74613c-0.12115,0.07124 -0.24009,0.10356 -0.33744,0.16833c-0.09735,0.06477 -0.20984,0.12089 -0.27048,0.22677c-0.03258,0.16213 0.02134,0.31352 0.03633,0.46272c0.01499,0.1492 -0.00893,0.2962 0.06878,0.44113c0.24449,-0.18139 0.46518,-0.35632 0.71833,-0.55284zM274.51593,174.4602c0.32038,-0.41915 0.58232,-0.77134 0.84426,-1.12352c0.01733,-0.03026 0.05844,-0.06697 0.04551,-0.11455c-0.0106,-0.22703 0.02638,-0.46699 -0.10964,-0.68549c-0.18178,0.17712 -0.35489,0.33912 -0.51289,0.50978c-0.00258,0.46052 -0.11326,0.89934 -0.26724,1.41377zM276.59965,179.73117c0.19678,-0.02792 0.31366,-0.16188 0.44346,-0.24823c0.1536,-0.09283 0.26181,-0.21164 0.29659,-0.41269c0.05429,-0.27021 0.10861,-0.54043 0.27746,-0.76513c-0.08856,-0.09089 -0.15773,-0.11042 -0.20971,-0.01965c-0.14506,0.21824 -0.29879,0.4516 -0.50216,0.59628c-0.2856,0.21812 -0.29452,0.51431 -0.30564,0.84943zM275.29268,178.54081c-0.34391,0.14454 -0.62291,0.24591 -0.8868,0.35593c-0.06064,0.10589 -0.0499,0.19238 -0.0543,0.27021c0.01073,0.0865 -0.01099,0.19458 0.07757,0.28546c0.2357,-0.02572 0.47358,-0.09037 0.70501,-0.17881c0.06723,-0.22264 0.11068,-0.4388 0.15852,-0.7328zM277.24312,180.64202c-0.0062,-0.30486 -0.0146,-0.57081 -0.01434,-0.85189c-0.2185,0.13601 -0.42833,0.2569 -0.63818,0.37778c-0.00672,0.25729 -0.03504,0.48212 0.06852,0.72221c0.21411,-0.05817 0.39149,-0.15748 0.584,-0.24811zM278.7164,172.66737c-0.2335,-0.01318 -0.39149,0.15747 -0.56888,0.25676c-0.05624,0.02806 -0.08442,0.11235 -0.08015,0.17505c0.00414,0.20324 0.00181,0.38269 0.0146,0.57081c-0.00866,0.01512 0.0216,0.03245 0.05184,0.04978c0.22716,-0.15114 0.44786,-0.32606 0.67501,-0.4772c0.01099,-0.19458 -0.04073,-0.38489 -0.09244,-0.57521zM280.76225,174.46165c0.03478,-0.20105 0.0609,-0.38697 -0.04486,-0.58814c-0.19897,0.06684 -0.42821,0.11636 -0.60779,0.25456c-0.01526,0.13188 -0.06077,0.24643 -0.05224,0.37184c-0.00659,0.11674 -0.09102,0.2291 0.01913,0.35244c0.23363,-0.12735 0.46725,-0.25469 0.68575,-0.3907zM277.70998,180.80894c-0.01746,0.17079 0.07538,0.32438 0.15955,0.49311c0.22496,-0.11222 0.45419,-0.16174 0.63598,-0.33886c-0.05171,-0.19031 -0.03206,-0.40002 -0.12916,-0.61632c-0.22716,0.15114 -0.4392,0.31093 -0.66637,0.46208zM280.48103,179.30235c-0.17105,0.26362 -0.29026,0.57702 -0.49156,0.82331c-0.16019,0.20957 -0.1236,0.39123 -0.01138,0.61619c0.20117,-0.10576 0.32671,-0.25484 0.47604,-0.41036c-0.05806,-0.35464 0.0309,-0.68535 0.02689,-1.02914zM273.7901,173.76333c0.06917,0.01952 0.09516,-0.02587 0.12114,-0.07124c0.12773,-0.18798 0.24901,-0.39976 0.39188,-0.57909c0.2251,-0.25276 0.16046,-0.49065 0.0591,-0.76966c-0.09089,0.08856 -0.16446,0.14687 -0.2229,0.21384c-0.14934,0.15553 -0.25974,0.31327 -0.21888,0.55762c0.01499,0.1492 -0.03271,0.30266 -0.07176,0.441c-0.04978,0.05184 -0.12335,0.11016 -0.05857,0.20751zM272.75578,177.0077c0.11028,-0.0172 0.19031,-0.05171 0.26168,-0.0711c0.22057,-0.03438 0.34391,-0.14454 0.41761,-0.34338c0.05637,-0.16859 0.16678,-0.32633 0.23828,-0.48626c0.02599,-0.04538 0.06709,-0.08209 -0.03013,-0.15786c-0.1969,0.16846 -0.42407,0.3196 -0.67282,0.43828c-0.05624,0.02806 -0.09956,0.10369 -0.1342,0.1642c-0.03905,0.13834 -0.06943,0.26156 -0.08043,0.45613zM276.19084,179.91891c0.02612,-0.18592 0.07602,-0.3783 0.04809,-0.57508c-0.24656,0.07977 -0.49091,0.12062 -0.70941,0.25664c0.00414,0.20324 -0.03711,0.38049 0.07731,0.56654c0.19897,-0.06684 0.40443,-0.10989 0.584,-0.2481zM279.11278,174.22013c0.24656,-0.07977 0.44127,-0.20933 0.60572,-0.3562c-0.00414,-0.20324 -0.00182,-0.38269 -0.05999,-0.59679c-0.17299,0.02146 -0.31792,0.09915 -0.45639,0.20065c-0.02185,0.24862 -0.05883,0.48858 -0.08934,0.75233zM274.44609,179.84378c0.03013,0.15786 0.03219,0.25949 0.07317,0.3633c0.01939,0.07137 0.04746,0.12761 0.07551,0.18385c0.19458,0.01099 0.39136,-0.01694 0.56874,-0.11623c0.01099,-0.19458 0.02198,-0.38916 -0.06865,-0.58167c-0.21411,0.05817 -0.41087,0.08611 -0.64877,0.15074zM273.03182,175.43826c-0.27035,0.08623 -0.46065,0.13796 -0.68342,0.21126c-0.04978,0.05184 -0.09529,0.16639 -0.10189,0.28314c-0.02172,0.10808 -0.11261,0.19664 -0.06516,0.32425c0.16213,0.03258 0.2962,0.00892 0.43247,-0.05364c0.12347,-0.25069 0.25341,-0.4776 0.418,-0.76501zM277.85017,171.82983c0.03232,0.11895 0.06464,0.23789 0.09696,0.35684c0.03232,0.11895 0.07331,0.22277 0.10564,0.34171c0.20117,-0.10576 0.37636,-0.16613 0.5019,-0.3152c0.00659,-0.11674 -0.06683,-0.19898 -0.11649,-0.28767c-0.04965,-0.0887 -0.07331,-0.22277 -0.18785,-0.26827c-0.1514,0.05391 -0.28548,0.07757 -0.40015,0.1726zM276.2547,181.00002c-0.03438,-0.22057 -0.00607,-0.4454 -0.11829,-0.67037c-0.17519,0.06037 -0.33525,0.12941 -0.51044,0.18979c0.03438,0.22057 0.04719,0.40869 0.1854,0.58826c0.1492,-0.01499 0.28106,0.00025 0.44332,-0.1077zM275.78012,172.81384c0.24669,-0.22031 0.46092,-0.41902 0.67515,-0.61774c-0.00854,-0.12541 -0.00193,-0.24215 -0.0905,-0.33305c-0.26168,0.0711 -0.45859,0.23957 -0.67062,0.39936c0.00854,0.12541 0.01707,0.25082 0.04938,0.36977c-0.01952,0.06917 0.00207,0.10162 0.03659,0.18165zM274.01259,178.67152c0.00452,-0.21837 0.10847,-0.39989 0.05675,-0.59021c-0.25302,0.05598 -0.48224,0.10549 -0.7072,0.21772c0.04525,0.16652 -0.04137,0.3178 0.05792,0.49517c0.19458,0.01099 0.3633,-0.07317 0.59253,-0.12269zM281.65021,175.1911c0.01318,-0.2335 0.03283,-0.4432 -0.04267,-0.62705c-0.15786,0.03013 -0.30927,0.08404 -0.43906,0.1704c-0.01318,0.2335 -0.0415,0.45833 -0.07201,0.72208c0.18605,-0.11442 0.34611,-0.18346 0.55374,-0.26542zM272.64084,177.38379c-0.05211,0.2313 -0.10201,0.42368 -0.02003,0.63131c0.16433,-0.00634 0.30487,-0.00621 0.43466,-0.09257c0.04344,-0.21617 0.10201,-0.42367 0.14766,-0.67877c-0.19678,0.02792 -0.37843,0.06451 -0.56228,0.14002zM280.12512,173.71513c0.20984,-0.12088 0.4282,-0.11636 0.55374,-0.26543c-0.00414,-0.20324 -0.07318,-0.3633 -0.16601,-0.5169c-0.18165,0.03659 -0.35464,0.05804 -0.4953,0.19846c0.03659,0.18165 0.05804,0.35464 0.10756,0.58387zM277.48669,181.44439c-0.04525,-0.16652 -0.06024,-0.31572 -0.16174,-0.45419c-0.20117,0.10576 -0.4282,0.11636 -0.60132,0.27835c0.03013,0.15786 0.08624,0.27035 0.21372,0.36343c0.19031,-0.05171 0.37416,-0.12722 0.54935,-0.1876zM275.24021,172.14309c-0.02146,-0.17299 -0.06244,-0.2768 -0.14235,-0.38283c-0.17519,0.06037 -0.35257,0.15967 -0.45652,0.34119c0.03879,0.14274 0.07758,0.28547 0.1077,0.44334c0.2163,-0.09709 0.33537,-0.26995 0.49117,-0.40169zM280.73456,181.03443c-0.04745,-0.12761 -0.08844,-0.23143 -0.17053,-0.29853c-0.17738,0.09929 -0.32452,0.21591 -0.45006,0.36499c0.02366,0.13408 0.06464,0.23789 0.15321,0.32878c0.19251,-0.09063 0.31159,-0.26349 0.46738,-0.39523zM274.76957,180.75216c-0.01318,0.2335 0.09916,0.31792 0.24397,0.38076c0.10589,0.06064 0.2291,0.09102 0.34378,-0.004c-0.02146,-0.17299 -0.05159,-0.33085 -0.14441,-0.48444c-0.15786,0.03013 -0.30059,0.06891 -0.44334,0.1077zM282.1958,176.72886c0.03258,-0.16213 0.10189,-0.28314 0.0393,-0.41942c-0.44979,0.0839 -0.53875,0.41462 -0.56939,0.81891c0.17958,-0.13821 0.3505,-0.26129 0.53008,-0.3995zM273.56201,179.59865c0.17079,0.01746 0.30486,-0.0062 0.47358,-0.09037c-0.06258,-0.13626 0.00892,-0.2962 -0.07744,-0.42601c-0.09943,-0.03685 -0.16432,0.00634 -0.25082,0.01707c-0.09516,0.02585 -0.18812,0.01279 -0.24876,0.11869c0.00854,0.12541 0.01707,0.25082 0.10343,0.38063zM277.66022,176.16036c0.11442,0.18605 0.2225,0.20777 0.31559,0.08029c0.12773,-0.18798 0.22522,-0.39329 0.31405,-0.58348c0.03464,-0.06051 0.06284,-0.1448 -0.0106,-0.22703c-0.23155,0.22897 -0.43286,0.47526 -0.61904,0.73022zM278.3316,181.96839c-0.02172,0.10808 0.0128,0.18812 0.0949,0.25522c0.22923,-0.04952 0.48005,-0.06659 0.69209,-0.22639c-0.12955,-0.19471 -0.28301,-0.24241 -0.47553,-0.15178c-0.09516,0.02585 -0.2119,0.01925 -0.31145,0.12295zM279.77383,177.16986c0.21177,0.12127 0.27448,0.117 0.35245,-0.01914c0.10615,-0.22044 0.22096,-0.456 0.2666,-0.71109c-0.27694,0.20298 -0.53008,0.3995 -0.61903,0.73023zM281.15281,179.98834c-0.08443,0.11235 -0.14506,0.21824 -0.22083,0.31547c-0.1364,0.20312 -0.1364,0.20311 0.09257,0.43467c0.09089,-0.08856 0.20557,-0.18359 0.25534,-0.23543c-0.05171,-0.19031 -0.08185,-0.34817 -0.12708,-0.5147zM280.11142,172.16056c-0.13408,0.02366 -0.28754,-0.02405 -0.38283,0.14234c0.04745,0.12761 0.11869,0.24876 0.1726,0.40015c0.15786,-0.03013 0.32218,-0.03647 0.43686,-0.13149c-0.06258,-0.13626 -0.10136,-0.279 -0.22665,-0.41101zM279.54575,180.65496c-0.18824,0.15334 -0.39161,0.29801 -0.57986,0.45135c-0.01306,0.09296 -0.00232,0.17946 0.10576,0.20118c0.21411,-0.05817 0.41528,-0.16394 0.57327,-0.3346c-0.00854,-0.12541 -0.03439,-0.22057 -0.09917,-0.31793zM281.97898,175.03789c0.11454,0.04551 0.22483,0.02831 0.33731,-0.0278c0.0044,-0.07783 0.00879,-0.15566 0.01319,-0.23349c-0.00207,-0.10162 0.01098,-0.19459 -0.06245,-0.27681c-0.09077,-0.05197 -0.18371,-0.06503 -0.28753,-0.02405c-0.00233,0.17945 0.00181,0.3827 -0.00052,0.56214zM279.17226,173.02887c0.15786,-0.03013 0.279,-0.10136 0.39369,-0.19639c-0.06904,-0.16006 -0.12296,-0.31145 -0.18553,-0.44773c-0.14699,-0.02392 -0.25948,0.0322 -0.32658,0.1143c0.03659,0.18165 0.07317,0.3633 0.11842,0.52982zM282.31552,175.85332c0.00659,-0.11674 0.01319,-0.2335 0.00466,-0.35891c-0.00646,-0.02379 -0.03672,-0.04111 -0.05832,-0.07356c-0.0865,0.01073 -0.19458,-0.01099 -0.30926,0.08404c-0.02392,0.14699 -0.08029,0.31559 -0.0437,0.49725c0.16433,-0.00634 0.2768,-0.06244 0.40661,-0.14881zM282.37227,177.61333c0.11042,-0.15773 0.29414,-0.0927 0.38076,-0.24396c0.0088,-0.15567 0.07163,-0.30046 0.01991,-0.49078c-0.1492,0.01499 -0.28327,0.03866 -0.31586,0.20078c-0.03258,0.16213 -0.12567,0.2896 -0.08481,0.53396zM279.57276,181.83549c0.12115,-0.07124 0.25742,-0.13381 0.3699,-0.18992c0.02379,-0.00646 0.02599,-0.04538 0.04331,-0.07563c-0.05831,-0.07357 -0.09063,-0.19251 -0.25276,-0.22509c-0.14494,0.07771 -0.29853,0.17053 -0.46725,0.2547c0.07124,0.12115 0.15333,0.18825 0.3068,0.23596zM279.1689,171.98239c-0.03879,-0.14274 -0.06891,-0.30059 -0.10123,-0.41954c-0.16213,-0.03258 -0.29621,-0.00892 -0.41515,0.02339c-0.04551,0.11454 0.05172,0.19032 0.08623,0.27035c0.03452,0.08003 0.06037,0.17518 0.17493,0.22069c0.07783,0.0044 0.16432,-0.00633 0.25521,-0.09489zM272.59236,178.38048c0.01499,0.1492 0.03219,0.25949 0.04938,0.36977c-0.00219,0.03891 0.03453,0.08003 0.04098,0.10382c0.10589,0.06064 0.21617,0.04345 0.32865,-0.01267c-0.00634,-0.16433 0.00245,-0.32 -0.0428,-0.48651c-0.11674,-0.00659 -0.22703,0.0106 -0.37623,0.0256zM281.56989,180.20711c0.17312,-0.162 0.34623,-0.32399 0.42213,-0.56176c-0.16213,-0.03258 -0.29181,-0.08676 -0.43673,-0.00905c-0.07163,0.30047 -0.07163,0.30046 0.0146,0.57081zM273.6979,179.95768c0.09257,0.43467 0.10769,0.44333 0.4666,0.44798c-0.03013,-0.15786 -0.08405,-0.30926 -0.11416,-0.46712c-0.11454,-0.04551 -0.22483,-0.02831 -0.35244,0.01914zM281.56901,174.14024c-0.00634,-0.16433 -0.03,-0.2984 -0.11635,-0.4282c-0.03891,-0.00219 -0.10163,0.00207 -0.16433,0.00634c-0.04758,0.01292 -0.10382,0.04098 -0.15139,0.05391c0.00634,0.16433 -0.01113,0.33512 0.06658,0.48005c0.11674,0.00659 0.24436,-0.04086 0.3655,-0.11209zM272.09188,177.14978c0.0627,-0.00427 0.1492,-0.01499 0.19031,-0.05171c0.14066,-0.14041 0.19703,-0.309 0.18643,-0.53603c-0.12541,0.00854 -0.26375,-0.03051 -0.36111,0.03426c-0.02612,0.18592 -0.10627,0.36097 -0.01564,0.55349zM276.22888,171.50402c-0.00646,-0.02379 -0.01292,-0.04758 -0.02585,-0.09516c-0.26595,0.00841 -0.51251,0.08817 -0.75906,0.16794c-0.01526,0.13188 0.01926,0.2119 0.13161,0.29633c0.20984,-0.12088 0.43481,-0.23311 0.6533,-0.36912zM279.2581,176.07103c-0.22069,0.17493 -0.44786,0.32606 -0.57999,0.59188c-0.00866,0.01512 0.03452,0.08003 0.06477,0.09736c0.07563,0.04331 0.1708,0.01745 0.2141,-0.05818c0.15799,-0.17066 0.24035,-0.38463 0.30112,-0.63106zM281.37302,173.32495c-0.02366,-0.13408 -0.04731,-0.26814 -0.11855,-0.38928c-0.10589,-0.06064 -0.19884,-0.0737 -0.33512,-0.01112c0.05391,0.1514 0.09916,0.31792 0.16174,0.45419c0.10808,0.02172 0.19458,0.011 0.29193,-0.05378zM275.85856,181.51639c0.20312,0.1364 0.37597,0.25548 0.61813,0.25354c0.03258,-0.16213 -0.03866,-0.28327 -0.13369,-0.39795c-0.17299,0.02146 -0.32218,0.03646 -0.48445,0.14441zM272.0244,175.30328c0.18812,-0.0128 0.2119,-0.01926 0.23789,-0.06464c0.10175,-0.14261 0.10409,-0.32206 0.09774,-0.48638c-0.00427,-0.0627 -0.07124,-0.12114 -0.16859,-0.05637c0.0128,0.18812 -0.16032,0.35011 -0.16705,0.6074zM276.77332,171.95641c0.22496,-0.11222 0.45639,-0.20065 0.61878,-0.44914c-0.27241,-0.01539 -0.48225,0.10549 -0.67476,0.19612c-0.02819,0.08429 -0.00013,0.14053 0.05598,0.25302zM273.04564,179.2025c-0.10162,0.00207 -0.19458,-0.01099 -0.29621,-0.00892c-0.00233,0.17945 0.0278,0.33731 0.22018,0.38722c0.05404,0.01085 0.10808,0.02173 0.15786,-0.03013c0.02172,-0.10808 -0.01925,-0.21191 -0.08184,-0.34818zM280.87395,177.59897c0.13615,0.07797 0.21397,0.08236 0.26814,-0.04731c0.04551,-0.11454 0.09102,-0.2291 0.1214,-0.35231c0.01085,-0.05404 0.00659,-0.11675 -0.06257,-0.13627c-0.14934,0.15553 -0.24462,0.32193 -0.32698,0.5359zM275.29903,174.00472c-0.17312,0.162 -0.31598,0.34132 -0.38321,0.56395c-0.00866,0.01512 0.03452,0.08003 0.04964,0.08869c0.03026,0.01733 0.08649,-0.01073 0.10382,-0.04098c0.09749,-0.20531 0.23168,-0.36951 0.22975,-0.61166zM274.27843,174.10323c0.04125,-0.17725 0.13654,-0.34365 0.14106,-0.56201c-0.18824,0.15334 -0.3138,0.30241 -0.32039,0.41915c-0.02172,0.10808 0.03879,0.14274 0.17933,0.14286zM277.42981,182.17512c0.20751,0.05857 0.41929,0.17984 0.62912,0.05895c-0.20298,-0.27694 -0.41282,-0.15605 -0.62912,-0.05895zM278.79459,179.30079c0.03026,0.01733 0.05404,0.01085 0.08429,0.02818c0.0715,-0.15993 0.20997,-0.26142 0.21229,-0.44087c-0.08209,-0.06709 -0.13614,-0.07797 -0.22483,-0.02831c-0.01526,0.13188 -0.03918,0.27888 -0.07175,0.44101zM277.18548,175.16535c-0.16665,0.18579 -0.29219,0.33486 -0.38101,0.52505c-0.01733,0.03026 -0.00439,0.07783 0.04098,0.10382c0.01512,0.00866 0.05404,0.01085 0.07783,0.0044c0.17312,-0.162 0.27706,-0.34352 0.2622,-0.63326zM272.2451,177.47857c-0.10808,-0.02172 -0.1708,-0.01745 -0.16653,0.04525c-0.01526,0.13188 -0.01538,0.27241 -0.01552,0.41294c0.01073,0.0865 0.05611,0.11249 0.13614,0.07797c0.04991,-0.19238 0.08249,-0.35451 0.04591,-0.53617zM280.75321,172.54817c0.0865,-0.01073 0.16433,-0.00634 0.25083,-0.01706c0.02379,-0.00646 0.04111,-0.03671 0.08223,-0.07344c-0.18152,-0.10395 -0.32193,-0.24461 -0.55323,-0.29672c0.05391,0.1514 0.0949,0.25521 0.22018,0.38721zM274.98937,176.86058c-0.0715,0.15993 -0.13433,0.30472 -0.22315,0.49491c0.23789,-0.06464 0.36123,-0.1748 0.43273,-0.33473c-0.04965,-0.0887 -0.08636,-0.12981 -0.20957,-0.16019zM279.95573,179.2024c-0.00013,0.14053 -0.12567,0.28961 -0.01125,0.47565c0.25328,-0.33705 0.29658,-0.41269 0.23828,-0.48626c-0.07563,-0.04331 -0.13833,-0.03905 -0.22703,0.0106zM276.26055,174.67585c-0.31145,0.12295 -0.4154,0.30447 -0.48483,0.56602c0.31572,-0.06024 0.31598,-0.34132 0.48483,-0.56602zM282.08499,177.3082c-0.28767,0.11649 -0.38295,0.28288 -0.45665,0.48173c-0.00866,0.01512 0.01292,0.04758 0.04318,0.0649c0.04538,0.02599 0.09296,0.01306 0.11028,-0.0172c0.10175,-0.14261 0.17324,-0.30254 0.30318,-0.52943zM280.81175,179.39129c-0.03258,0.16213 -0.10407,0.32206 -0.01345,0.51457c0.132,-0.12528 0.19484,-0.27008 0.24901,-0.39976c-0.06477,-0.09735 -0.13394,-0.11688 -0.23556,-0.11481zM282.79052,176.56726c-0.02792,-0.19678 0.06736,-0.36317 -0.04925,-0.5103c-0.16665,0.18579 -0.16666,0.18578 -0.12153,0.49285c0.03891,0.00219 0.07783,0.00439 0.17078,0.01745zM278.04224,181.56165c0.23777,0.0759 0.4216,0.00039 0.59899,-0.09891c0.00659,-0.11674 -0.05391,-0.1514 -0.12528,-0.132c-0.14494,0.07771 -0.30499,0.14674 -0.47371,0.23091zM281.90853,174.07353c0.09943,0.03685 0.18372,0.06504 0.28107,0.00026c-0.0172,-0.11028 -0.03438,-0.22057 -0.11648,-0.28767c-0.08429,-0.02819 -0.14701,-0.02392 -0.21191,0.01927c-0.01306,0.09296 0.00633,0.16433 0.04731,0.26814zM276.89496,178.37365c0.11468,-0.09503 0.19691,-0.16847 0.21863,-0.27655c0.00219,-0.03891 -0.01939,-0.07137 -0.04098,-0.10382c-0.04538,-0.02599 -0.12322,-0.03038 -0.13407,0.02365c-0.05197,0.09077 -0.11261,0.19665 -0.04357,0.35671zM279.82854,171.77762c-0.11016,-0.12334 -0.27448,-0.11701 -0.41282,-0.15605c0.06891,0.30059 0.09917,0.31793 0.41282,0.15605zM273.43999,173.60301c0.19044,-0.19224 0.19044,-0.19226 0.10627,-0.36098c-0.08223,0.07344 -0.17312,0.16199 -0.10627,0.36098zM278.05157,178.49363c-0.03452,-0.08003 -0.0799,-0.10601 -0.11235,-0.08443c-0.14494,0.07771 -0.15579,0.13175 -0.09762,0.34585c0.10601,-0.0799 0.158,-0.17066 0.20997,-0.26143zM282.65102,177.79303c-0.11895,0.03232 -0.22277,0.07331 -0.25315,0.19653c0.26802,0.09321 0.30047,0.07162 0.25315,-0.19653zM273.42551,172.89166c-0.1514,0.05391 -0.23582,0.16627 -0.31159,0.26349c-0.03464,0.06051 -0.01526,0.13188 0.11015,0.12335c0.07577,-0.09723 0.16019,-0.20958 0.20144,-0.38684zM282.7224,175.42343c-0.11688,0.13395 -0.11481,0.23556 -0.01112,0.33511c0,0 0.03892,0.0022 0.04758,-0.01292c0.06709,-0.08209 0.01099,-0.19458 -0.03646,-0.32219zM275.95076,177.67225c0.10808,0.02172 0.17299,-0.02146 0.19251,-0.09063c0.01733,-0.03026 0.0044,-0.07783 -0.0172,-0.11028c-0.0216,-0.03245 -0.0843,-0.02819 -0.10163,0.00206c-0.04111,0.03672 -0.07576,0.09722 -0.07369,0.19884zM281.6758,173.21712c-0.00013,0.14053 0.0344,0.22057 0.19006,0.22936c-0.00634,-0.16433 -0.04952,-0.22923 -0.19006,-0.22936z" fill="#000000"/><path d="M272.72007,182.89292c0.47539,0.29232 0.95078,0.58465 1.43484,0.86185c0.54456,0.31185 1.12377,0.56319 1.73117,0.73022c0.19238,0.04991 0.37184,0.05224 0.588,0.09568c-0.1386,0.24203 -0.24474,0.46246 -0.38114,0.66558c-0.78815,1.236 -1.50933,2.53043 -2.27589,3.79887c-0.6886,1.13231 -1.3534,2.25815 -2.02688,3.39912c-0.46557,0.77793 -0.92248,1.54074 -1.38805,2.31866c-0.43959,0.73255 -0.84026,1.46728 -1.27984,2.19984c-0.03464,0.06051 -0.0693,0.12102 -0.11907,0.17286c-0.30707,0.04513 -0.57728,-0.00918 -0.86908,-0.09594c-0.46039,-0.14312 -0.9186,-0.32516 -1.33348,-0.58284c-0.13615,-0.07797 -0.28095,-0.1408 -0.35865,-0.28573c0.15347,0.04771 0.27875,0.17971 0.48845,0.19936c0.03271,-0.30266 0.22535,-0.53383 0.34882,-0.78453c0.00866,-0.01512 0.01732,-0.03026 0.00219,-0.03891c0.11287,-0.47772 0.36408,-0.91639 0.531,-1.38325c0.05637,-0.16859 0.06736,-0.36317 0.18424,-0.49711c0.20351,-0.28521 0.23194,-0.65058 0.43544,-0.93578c0.00866,-0.01512 0.01086,-0.05404 0.02819,-0.0843c0.1192,-0.31339 0.21462,-0.62032 0.36407,-0.9164c0.19057,-0.33278 0.24281,-0.70463 0.46364,-1.02009c0.02185,-0.24862 0.16472,-0.42794 0.27086,-0.64838c0.01733,-0.03026 0.02599,-0.04538 0.04331,-0.07563c0.05224,-0.37184 0.29465,-0.65483 0.40739,-0.99203c0.11274,-0.33719 0.32491,-0.63753 0.45277,-0.96604c0.15386,-0.3739 0.25367,-0.75867 0.50695,-1.09572c0.01733,-0.03026 0.04331,-0.07563 0.04552,-0.11455c0.00452,-0.21837 0.15385,-0.3739 0.24267,-0.56409c0.05197,-0.09077 0.12773,-0.18799 0.14946,-0.29607c0.01746,-0.17079 0.10189,-0.28314 0.17985,-0.41928c0.04331,-0.07563 0.10175,-0.1426 0.10614,-0.22044c0.02185,-0.24862 0.17338,-0.44307 0.28599,-0.63972c0.04331,-0.07563 0.10175,-0.1426 0.10615,-0.22043c0.01965,-0.2097 0.13007,-0.36744 0.22535,-0.53383c0.15592,-0.27228 0.20596,-0.6052 0.37701,-0.86882c0.04111,-0.03672 0.02172,-0.10809 0.03258,-0.16213z" fill="#585858"/><path d="M272.72007,182.89292c-0.01085,0.05404 0.00854,0.12541 -0.01746,0.17079c-0.17105,0.26362 -0.23621,0.58788 -0.37701,0.86882c-0.09528,0.1664 -0.2057,0.32413 -0.22535,0.53383c-0.0044,0.07783 -0.06283,0.14481 -0.10615,0.22043c-0.11261,0.19665 -0.24901,0.39976 -0.28599,0.63972c-0.0044,0.07783 -0.07796,0.13614 -0.10615,0.22043c-0.07797,0.13615 -0.14726,0.25716 -0.17984,0.41928c-0.02172,0.10808 -0.09749,0.20531 -0.14946,0.29607c-0.08882,0.19019 -0.23816,0.34572 -0.24268,0.56409c-0.00219,0.03891 -0.02818,0.08429 -0.04551,0.11455c-0.24461,0.32193 -0.35309,0.72182 -0.50695,1.09572c-0.13653,0.34365 -0.3487,0.64398 -0.45278,0.96604c-0.11274,0.33719 -0.35515,0.6202 -0.40738,0.99204c0.00646,0.02379 -0.02598,0.04537 -0.04331,0.07563c-0.11261,0.19665 -0.24902,0.39976 -0.27086,0.64838c-0.23596,0.3068 -0.2882,0.67863 -0.46364,1.02008c-0.16459,0.28741 -0.24487,0.603 -0.36408,0.9164c-0.01733,0.03026 -0.01086,0.05404 -0.02818,0.0843c-0.20351,0.28521 -0.23195,0.65058 -0.43545,0.93579c-0.11042,0.15773 -0.11274,0.33718 -0.18423,0.49711c-0.18205,0.4582 -0.41813,0.90554 -0.531,1.38326c-0.00866,0.01512 -0.0022,0.03892 -0.0022,0.03892c-0.12347,0.25069 -0.31611,0.48185 -0.34882,0.78452c-0.19458,-0.01099 -0.3112,-0.15812 -0.48846,-0.19937c-0.12102,-0.0693 -0.24203,-0.1386 -0.29594,-0.28999c0.05197,-0.09077 0.12773,-0.18799 0.14946,-0.29607c0.07602,-0.37829 0.27306,-0.68729 0.42471,-1.02228c0.15165,-0.33499 0.22768,-0.71329 0.46364,-1.02009c0.02185,-0.24862 0.16471,-0.42795 0.27086,-0.64838c0.01733,-0.03026 0.04331,-0.07563 0.04551,-0.11454c0.00233,-0.17945 0.1192,-0.31339 0.18205,-0.4582c0.04331,-0.07563 0.08662,-0.15127 0.10614,-0.22044c0.11493,-0.3761 0.25367,-0.75866 0.4529,-1.10658c0.02599,-0.04538 0.07576,-0.09722 0.06283,-0.1448c0.01099,-0.19458 0.11274,-0.33718 0.19937,-0.48845c0.11042,-0.15773 0.09115,-0.36964 0.21022,-0.54249c0.15372,-0.23337 0.20803,-0.50358 0.31637,-0.76293c0.16032,-0.35012 0.25147,-0.71975 0.4507,-1.06767c0.03464,-0.06051 0.09309,-0.12748 0.08882,-0.19018c0.0088,-0.15567 0.10188,-0.28314 0.16472,-0.42795c0.0693,-0.12102 0.12346,-0.25069 0.15386,-0.3739c0.05211,-0.2313 0.13447,-0.44526 0.25574,-0.65704c0.16678,-0.32633 0.24281,-0.70463 0.47876,-1.01143c0.01733,-0.03026 0.02818,-0.08429 0.04551,-0.11455c0.13653,-0.34365 0.25794,-0.69596 0.42472,-1.02229c0.19057,-0.33278 0.26013,-0.73488 0.48096,-1.05035c0.02599,-0.04538 0.02172,-0.10808 0.03258,-0.16212c0.08236,-0.21397 0.1885,-0.43441 0.3465,-0.60506c0.08429,0.02819 0.1448,0.06283 0.21397,0.08236c0.18579,0.16665 0.34998,0.30085 0.53797,0.42859z" fill="#959595"/><path d="M282.79736,178.51964c-0.1192,0.31339 -0.23401,0.54896 -0.42446,0.7412c-0.19031,0.05171 -0.3827,0.00181 -0.58374,-0.03297c-0.97923,-0.21928 -1.9498,-0.45368 -2.88132,-0.82642c-0.70242,-0.28172 -1.41997,-0.57211 -2.09421,-0.93813c-0.18152,-0.10395 -0.3695,-0.23168 -0.57701,-0.29026c-0.08429,-0.02819 -0.17506,-0.08016 -0.26582,-0.13213c-0.32839,-0.26841 -0.70876,-0.44604 -1.06314,-0.66906c-0.50565,-0.30965 -0.97664,-0.67981 -1.43031,-1.08022c-0.2225,-0.20777 -0.45367,-0.40041 -0.69996,-0.60171c-0.19445,-0.15152 -0.32399,-0.34624 -0.46221,-0.52582c0.05003,-0.33292 0.09555,-0.44747 0.3337,-0.79318c0.32412,0.2057 0.58982,0.47837 0.89661,0.71432c0.29167,0.22729 0.59848,0.46325 0.89882,0.67541c0.31546,0.22083 0.65471,0.43519 0.97884,0.64089c0.30033,0.21216 0.66778,0.34222 0.94213,0.59978c0.3761,0.11493 0.6829,0.35089 1.02435,0.52633c0.32633,0.16678 0.67643,0.32711 1.01142,0.47876c0.35012,0.16032 0.70889,0.30552 1.08279,0.45937c0.34365,0.13653 0.69376,0.29684 1.04607,0.41825c0.36744,0.13007 0.73708,0.22122 1.11317,0.33615c0.39123,0.1236 0.74354,0.24501 1.15429,0.29944z" fill="#585858"/><path d="M272.18857,182.48812c-0.06917,-0.01952 -0.12968,-0.05417 -0.21397,-0.08236c-0.15799,0.17066 -0.2706,0.3673 -0.3465,0.60506c-0.01085,0.05404 -0.00659,0.11675 -0.03257,0.16213c-0.22083,0.31546 -0.30552,0.70889 -0.48096,1.05033c-0.18191,0.31766 -0.28819,0.67863 -0.42471,1.02228c-0.01733,0.03026 -0.02818,0.08429 -0.04551,0.11454c-0.23596,0.3068 -0.28819,0.67864 -0.47876,1.01143c-0.11261,0.19665 -0.20363,0.42575 -0.25574,0.65704c-0.03905,0.13834 -0.09321,0.26802 -0.15385,0.3739c-0.07797,0.13615 -0.16239,0.24849 -0.16472,0.42794c0.00427,0.0627 -0.05417,0.12968 -0.08882,0.19018c-0.19057,0.33278 -0.29038,0.71755 -0.45071,1.06766c-0.10835,0.25936 -0.16265,0.52957 -0.31637,0.76294c-0.11042,0.15773 -0.09115,0.36963 -0.21022,0.54249c-0.10175,0.14261 -0.21217,0.30033 -0.19937,0.48845c-0.01085,0.05404 -0.03684,0.09942 -0.06283,0.1448c-0.19923,0.34792 -0.3293,0.71535 -0.4529,1.10657c-0.02819,0.08429 -0.08663,0.15128 -0.10615,0.22044c-0.07797,0.13615 -0.17971,0.27874 -0.18204,0.45819c-0.00219,0.03891 -0.02818,0.0843 -0.04552,0.11456c-0.11261,0.19665 -0.24901,0.39976 -0.27086,0.64838c-0.23596,0.3068 -0.31197,0.6851 -0.46363,1.02009c-0.15165,0.33499 -0.35736,0.65911 -0.42472,1.02228c-0.02172,0.10808 -0.09748,0.20531 -0.14945,0.29607c-0.1448,-0.06283 -0.18359,-0.20557 -0.28082,-0.28133c0.28819,-0.67863 0.54392,-1.33568 0.81478,-1.98405c0.29039,-0.71755 0.58724,-1.41131 0.89274,-2.12019c0.27953,-0.66351 0.54393,-1.33569 0.80832,-2.00786c0.33589,-0.8321 0.648,-1.65773 0.97524,-2.47471c0.25354,-0.61813 0.50707,-1.23625 0.74549,-1.86304c0.39007,-0.96178 0.84931,-1.90404 1.20912,-2.88314c0.05417,-0.12968 0.07809,-0.27669 0.20144,-0.38683c0.13615,0.07797 0.2463,0.20131 0.36511,0.30952c0.05831,0.07357 0.21177,0.12127 0.28948,0.26621z" fill="#585858"/><path d="M266.52799,196.72251c0.33499,0.15165 0.6202,0.35516 0.96385,0.49169c0.39769,0.14739 0.80404,0.27966 1.26237,0.32116c-0.50242,0.87735 -0.99617,1.73958 -1.48127,2.58667c-0.26168,0.0711 -0.49298,0.019 -0.71781,-0.00932c-0.42588,-0.06309 -0.79112,-0.23208 -1.17149,-0.40972c-0.01512,-0.00866 -0.03672,-0.04111 -0.04318,-0.0649c0.18812,-0.0128 0.21203,-0.1598 0.25109,-0.29814c0.09762,-0.34585 0.21035,-0.68303 0.39873,-0.9769c0.03464,-0.06051 0.0693,-0.12102 0.08882,-0.19019c0.07382,-0.33939 0.2622,-0.63325 0.38141,-0.94665c0.06504,-0.18372 0.10408,-0.32206 0.06749,-0.50371z" fill="#585858"/><path d="M273.11377,180.34632c0.47746,0.39394 1.01556,0.682 1.51901,1.03057c0.23337,0.15372 0.49271,0.26207 0.75207,0.37041c0.47113,0.22961 0.92273,0.52841 1.42851,0.69752c0.19885,0.0737 0.39769,0.14738 0.59007,0.19729c0.12321,0.03038 0.23776,0.0759 0.34365,0.13654c-0.01085,0.05404 -0.01306,0.09295 -0.03038,0.12321c-0.0693,0.12102 -0.1386,0.24202 -0.20789,0.36304c-0.10162,0.00207 -0.17946,-0.00232 -0.27241,-0.01538c-0.64851,-0.13033 -1.31215,-0.26931 -1.90209,-0.60715c-0.52298,-0.27939 -1.06107,-0.56745 -1.54939,-0.90735c-0.39109,-0.26414 -0.79086,-0.51315 -1.09753,-0.88964c0.09296,0.01306 0.15774,0.11042 0.27021,0.0543c0.12554,-0.14906 0.28353,-0.31972 0.15618,-0.55335z" fill="#1c1c1c"/><path d="M272.89643,181.5677c0.27448,0.117 0.46453,0.34637 0.71302,0.50876c0.5359,0.32698 1.0718,0.65394 1.63369,0.93554c0.456,0.22096 0.93153,0.37274 1.40925,0.48561c0.12321,0.03038 0.24642,0.06076 0.36963,0.09115c-0.12127,0.21177 -0.22522,0.3933 -0.33783,0.58995c-0.28548,0.07757 -0.55569,0.02327 -0.8237,-0.06995c-0.32206,-0.10408 -0.65924,-0.21682 -0.97044,-0.37495c-0.71536,-0.3293 -1.36361,-0.7407 -2.03565,-1.14563c-0.12102,-0.0693 -0.24203,-0.1386 -0.3046,-0.27487c0.04331,-0.07563 0.10175,-0.1426 0.10615,-0.22044c0.02612,-0.18592 0.1452,-0.35878 0.24048,-0.52517z" fill="#1c1c1c"/><path d="M266.52799,196.72251c0.03013,0.15786 0.00621,0.30487 -0.06528,0.4648c-0.1192,0.31339 -0.30758,0.60727 -0.38141,0.94665c-0.01952,0.06917 -0.05418,0.12967 -0.08882,0.19018c-0.18191,0.31766 -0.28599,0.63972 -0.39874,0.97691c-0.03038,0.12321 -0.06296,0.28534 -0.25107,0.29814c-0.23556,-0.1148 -0.43001,-0.26634 -0.58335,-0.45458c0.0759,-0.23777 0.13666,-0.48419 0.28819,-0.67863c0.01733,-0.03026 0.02818,-0.0843 0.04551,-0.11456c0.12787,-0.32852 0.2644,-0.67217 0.40739,-0.99203c0.06283,-0.1448 0.13213,-0.26582 0.17985,-0.41929c0.04991,-0.19238 0.13873,-0.38256 0.30965,-0.50564c0.08429,0.02819 0.1448,0.06284 0.21397,0.08236c0.10589,0.06064 0.21823,0.14506 0.32412,0.2057z" fill="#959595"/><path d="M277.71699,173.21995c0.06024,0.31572 -0.00272,0.60106 -0.08081,0.87773c-0.01952,0.06917 -0.0715,0.15993 -0.12127,0.21178c-0.37222,0.36937 -0.68394,0.7734 -0.98053,1.18609c-0.00866,0.01512 -0.04112,0.03672 -0.06491,0.04318c-0.0865,0.01073 -0.16212,-0.03258 -0.21177,-0.12127c0.01733,-0.03026 0.01952,-0.06916 0.03685,-0.09942c0.22303,-0.35438 0.40067,-0.73475 0.49402,-1.1433c0.05857,-0.20751 0.15386,-0.37391 0.33343,-0.51211c0.20337,-0.14467 0.36136,-0.31533 0.59499,-0.44268z" fill="#a9a9a9"/><path d="M275.50137,174.98434c-0.11674,-0.00659 -0.16859,-0.05637 -0.18798,-0.12774c0.38554,-0.74341 0.38554,-0.74341 0.50734,-1.51733c0.17751,-0.23983 0.43067,-0.43635 0.64489,-0.63506c0.12321,0.03038 0.08636,0.12981 0.09063,0.19251c0.0106,0.22703 0.02987,0.43893 0.00155,0.66377c-0.02392,0.14699 -0.06943,0.26155 -0.16898,0.36524c-0.30732,0.3262 -0.60818,0.67618 -0.88744,1.05861z" fill="#a9a9a9"/><path d="M266.18874,196.50815c-0.06917,-0.01952 -0.12968,-0.05417 -0.21397,-0.08236c-0.17092,0.12308 -0.25974,0.31327 -0.30965,0.50565c-0.04771,0.15347 -0.117,0.27448 -0.17984,0.41928c-0.14299,0.31986 -0.27953,0.66351 -0.4074,0.99203c-0.01733,0.03026 -0.02819,0.08429 -0.04551,0.11454c-0.14506,0.21824 -0.19717,0.44953 -0.28819,0.67863c-0.10369,-0.09955 -0.19225,-0.19045 -0.26129,-0.35051c0.19716,-0.44954 0.37275,-0.93152 0.5937,-1.38752c0.19716,-0.44954 0.33383,-0.93372 0.5937,-1.38752c0.23337,0.15372 0.38023,0.31819 0.51844,0.49776z" fill="#585858"/><path d="M278.36496,178.61283c0.06917,0.01952 0.12321,0.03038 0.19238,0.04991c0.01292,0.04758 0.0194,0.07136 0.02586,0.09515c-0.08676,0.29181 -0.11947,0.59446 -0.13705,0.90579c-0.01526,0.13188 -0.0521,0.2313 -0.15812,0.3112c-0.1969,0.16846 -0.37222,0.36937 -0.67282,0.43828c-0.06891,-0.30059 -0.0362,-0.60326 0.01164,-0.89726c0.01085,-0.05404 0.0693,-0.12102 0.11908,-0.17287c0.2013,-0.2463 0.4026,-0.49259 0.61903,-0.73021z" fill="#a9a9a9"/><path d="M280.76833,174.90705c-0.02612,0.18592 -0.03271,0.30266 -0.04797,0.43455c-0.03698,0.23996 -0.1258,0.43015 -0.33784,0.58995c-0.34403,0.28508 -0.65135,0.61129 -0.86791,0.98944c-0.0693,0.12102 -0.09308,0.12748 -0.26595,0.00841c0.02599,-0.04538 0.03684,-0.09942 0.06283,-0.1448c0.23169,-0.36951 0.39421,-0.75854 0.51134,-1.17355c0.03685,-0.09943 0.06502,-0.18371 0.1386,-0.24203c0.25094,-0.1576 0.47164,-0.33253 0.80689,-0.46194z" fill="#a9a9a9"/><path d="M277.27765,176.02163c-0.00646,-0.02379 -0.00426,-0.06271 0.0044,-0.07783c0.22949,-0.33059 0.35956,-0.69803 0.46583,-1.059c0.11274,-0.33719 0.27733,-0.62459 0.59318,-0.82537c0.1536,-0.09283 0.264,-0.25056 0.4392,-0.31094c0.06011,0.45626 -0.08728,0.85395 -0.38374,1.1261c-0.3549,0.33913 -0.71626,0.65446 -0.95234,1.10179c-0.04111,0.03672 -0.07575,0.09722 -0.16652,0.04525z" fill="#a9a9a9"/><path d="M279.7008,174.3158c0.01267,0.32865 -0.0481,0.57507 -0.11753,0.83663c-0.02819,0.08429 -0.0715,0.15993 -0.1364,0.20311c-0.37869,0.34558 -0.73578,0.72362 -1.06263,1.11899c-0.01733,0.03026 -0.05843,0.06698 -0.12541,0.00854c0.06064,-0.10589 0.12993,-0.2269 0.17545,-0.34145c0.15812,-0.3112 0.30112,-0.63106 0.37494,-0.97045c0.06077,-0.24642 0.1885,-0.43441 0.39834,-0.55529c0.1536,-0.09283 0.29853,-0.17053 0.49324,-0.30008z" fill="#a9a9a9"/><path d="M279.40457,179.0073c0.13408,-0.02366 0.2097,0.01966 0.28533,0.06297c0.00646,0.02379 0.00427,0.0627 0.01074,0.08649c-0.10835,0.25936 -0.14753,0.53823 -0.124,0.81283c0.00634,0.16433 -0.04783,0.294 -0.17117,0.40416c-0.15579,0.13174 -0.30512,0.28728 -0.48252,0.38657c-0.08843,-0.23143 -0.14648,-0.58606 -0.10743,-0.7244c0.01306,-0.09296 0.07796,-0.13614 0.1364,-0.20312c0.13213,-0.26582 0.34857,-0.50345 0.45265,-0.82551z" fill="#a9a9a9"/><path d="M273.65951,177.04313c0.28986,-0.15541 0.53435,-0.33679 0.77237,-0.54198c0.10808,0.02172 0.1686,0.05637 0.21825,0.14506c-0.08029,0.31559 -0.29246,0.61593 -0.35762,0.94018c-0.17092,0.12308 -0.34391,0.14454 -0.51909,0.20492c-0.09516,0.02585 -0.18386,0.07551 -0.2984,0.03c-0.00841,-0.26595 0.14532,-0.49932 0.1845,-0.77819z" fill="#a9a9a9"/><path d="M276.48692,177.71816c0.12748,0.09308 0.10795,0.16226 0.08843,0.23142c-0.06943,0.26155 -0.13019,0.50798 -0.21474,0.76087c-0.01952,0.06917 -0.05417,0.12968 -0.11908,0.17285c-0.20117,0.10576 -0.41747,0.20286 -0.64024,0.27616c-0.02366,-0.13408 0.01319,-0.2335 0.01978,-0.35024c0.01978,-0.35024 0.15191,-0.61605 0.48716,-0.74548c0.16006,-0.06904 0.27693,-0.20298 0.37869,-0.34558z" fill="#a9a9a9"/><path d="M275.53394,177.17242c0.07563,0.04331 0.12101,0.0693 0.16639,0.09528c-0.00219,0.03891 0.0194,0.07137 0.01074,0.08649c-0.06504,0.18372 -0.14519,0.35877 -0.21023,0.5425c-0.03685,0.09943 -0.09529,0.16639 -0.18398,0.21604c-0.26607,0.14894 -0.53861,0.27409 -0.85654,0.37325c-0.02792,-0.19678 0.03491,-0.34158 0.09774,-0.48638c0.03464,-0.06051 0.0693,-0.12102 0.12554,-0.14906c0.33525,-0.12942 0.59926,-0.37997 0.85034,-0.67812z" fill="#a9a9a9"/><path d="M272.89643,181.5677c-0.09528,0.1664 -0.21436,0.33926 -0.23401,0.54896c-0.0044,0.07783 -0.06284,0.14481 -0.10614,0.22043c-0.26582,-0.13213 -0.48186,-0.31611 -0.64812,-0.55194c0.15152,-0.19445 0.21229,-0.44088 0.28599,-0.63973c0.1492,-0.01499 0.2291,0.09102 0.33718,0.11274c0.1448,0.06283 0.28741,0.16458 0.36512,0.30952z" fill="#959595"/><path d="M281.4935,176.3066c-0.20557,0.1836 -0.41114,0.36717 -0.61025,0.57456c-0.16665,0.18579 -0.18423,0.49711 -0.54108,0.59408c0.29453,-0.51431 0.4485,-1.02875 0.60249,-1.54319c0.17092,-0.12308 0.36563,-0.25263 0.59486,-0.30215c0.01292,0.04758 0.0194,0.07136 0.02585,0.09516c-0.01099,0.19458 -0.03711,0.3805 -0.07189,0.58153z" fill="#a9a9a9"/><path d="M277.71312,172.73563c-0.25314,0.19651 -0.47385,0.37144 -0.72699,0.56796c-0.06904,-0.16006 -0.04512,-0.30706 -0.06878,-0.44113c-0.01499,-0.1492 -0.06891,-0.30059 -0.03633,-0.46272c0.06064,-0.10589 0.17312,-0.16199 0.27048,-0.22677c0.09735,-0.06477 0.20983,-0.12089 0.33744,-0.16834c0.15979,0.21204 0.17687,0.46285 0.22418,0.731z" fill="#a9a9a9"/><path d="M274.51593,174.4602c0.15399,-0.51444 0.26466,-0.95325 0.27591,-1.4289c0.17312,-0.162 0.33111,-0.33265 0.51289,-0.50977c0.12735,0.23363 0.09903,0.45846 0.10963,0.68549c-0.00219,0.03891 -0.02818,0.08429 -0.04551,0.11455c-0.26194,0.35218 -0.52388,0.70436 -0.85292,1.13865z" fill="#a9a9a9"/><path d="M276.59965,179.73117c-0.01267,-0.32865 -0.00375,-0.62485 0.30564,-0.84943c0.21204,-0.15979 0.3571,-0.37804 0.50217,-0.59628c0.05197,-0.09077 0.13627,-0.06257 0.20971,0.01966c-0.16885,0.2247 -0.22316,0.49492 -0.27746,0.76513c-0.03478,0.20105 -0.143,0.31985 -0.29659,0.41269c-0.1298,0.08636 -0.23802,0.20518 -0.44346,0.24823z" fill="#a9a9a9"/><path d="M273.11377,180.34632c0.11869,0.24875 -0.03065,0.40429 -0.14972,0.57715c-0.11249,0.05611 -0.18592,-0.02612 -0.27022,-0.05431c-0.18798,-0.12773 -0.33485,-0.2922 -0.4644,-0.48691c0.11042,-0.15773 0.14519,-0.35877 0.30744,-0.46673c0.08429,0.02819 0.12968,0.05417 0.19018,0.08883c0.13395,0.11688 0.26788,0.23375 0.3867,0.34196z" fill="#959595"/><path d="M275.29268,178.54081c-0.03918,0.27888 -0.09128,0.51017 -0.12826,0.75013c-0.23143,0.08843 -0.46932,0.15308 -0.70502,0.17881c-0.08856,-0.09089 -0.06683,-0.19898 -0.07757,-0.28547c-0.01073,-0.0865 -0.02146,-0.17299 0.05429,-0.27021c0.22496,-0.11222 0.51264,-0.22871 0.85654,-0.37326z" fill="#a9a9a9"/><path d="M277.24312,180.64202c-0.19251,0.09063 -0.3699,0.18992 -0.59913,0.23944c-0.10356,-0.24008 -0.07524,-0.46492 -0.06852,-0.72221c0.20984,-0.12088 0.41967,-0.24177 0.63817,-0.37778c0.03,0.2984 0.02327,0.55568 0.02947,0.86055z" fill="#a9a9a9"/><path d="M278.7164,172.66737c0.05171,0.19031 0.10343,0.38063 0.08377,0.59033c-0.21204,0.15979 -0.4392,0.31093 -0.67501,0.4772c-0.03026,-0.01733 -0.06051,-0.03464 -0.05184,-0.04977c-0.0128,-0.18812 -0.01694,-0.39136 -0.0146,-0.57081c0.0044,-0.07783 0.02392,-0.147 0.08016,-0.17506c0.19471,-0.12955 0.34404,-0.28508 0.57753,-0.2719z" fill="#a9a9a9"/><path d="M280.76225,174.46165c-0.23363,0.12735 -0.45212,0.26336 -0.68575,0.3907c-0.09503,-0.11468 -0.02572,-0.2357 -0.01913,-0.35244c0.00659,-0.11674 0.03698,-0.23996 0.05223,-0.37184c0.17958,-0.13821 0.40015,-0.1726 0.60779,-0.25456c0.10576,0.20117 0.07963,0.3871 0.04486,0.58814z" fill="#a9a9a9"/><path d="M277.70998,180.80894c0.22716,-0.15114 0.43053,-0.29581 0.66637,-0.46208c0.08197,0.20764 0.06231,0.41735 0.12916,0.61632c-0.18178,0.17712 -0.41101,0.22664 -0.63598,0.33886c-0.09929,-0.17738 -0.17699,-0.32232 -0.15955,-0.49311z" fill="#a9a9a9"/><path d="M280.48103,179.30235c0.004,0.34378 -0.08495,0.6745 -0.01824,1.01401c-0.14934,0.15553 -0.27487,0.3046 -0.47604,0.41036c-0.12088,-0.20984 -0.1488,-0.40662 0.01139,-0.61619c0.2013,-0.2463 0.32697,-0.5359 0.4829,-0.80818z" fill="#a9a9a9"/><path d="M273.7901,173.76333c-0.06477,-0.09735 0.02393,-0.147 0.04344,-0.21617c0.04771,-0.15347 0.11054,-0.29827 0.07175,-0.44101c-0.02572,-0.2357 0.08468,-0.39343 0.21889,-0.55762c0.05844,-0.06698 0.132,-0.12528 0.2229,-0.21384c0.10136,0.279 0.166,0.5169 -0.05909,0.76965c-0.15799,0.17066 -0.26414,0.3911 -0.39187,0.57908c-0.02599,0.04538 -0.05197,0.09076 -0.10602,0.0799z" fill="#a9a9a9"/><path d="M272.75578,177.0077c0.00233,-0.17945 0.04137,-0.31779 0.11067,-0.43881c0.03464,-0.06051 0.07797,-0.13613 0.1342,-0.16419c0.24875,-0.11869 0.46079,-0.27849 0.67282,-0.43828c0.10589,0.06064 0.0561,0.11248 0.03012,0.15786c-0.08663,0.15127 -0.18191,0.31766 -0.23828,0.48626c-0.08236,0.21397 -0.20569,0.32413 -0.4176,0.34339c-0.10162,0.00207 -0.17299,0.02146 -0.29194,0.05379z" fill="#a9a9a9"/><path d="M276.19084,179.91891c-0.18605,0.11442 -0.37637,0.16614 -0.584,0.2481c-0.11442,-0.18605 -0.06451,-0.37842 -0.07731,-0.56654c0.2185,-0.13601 0.46285,-0.17687 0.70941,-0.25664c0.01927,0.2119 -0.02198,0.38916 -0.04809,0.57508z" fill="#a9a9a9"/><path d="M279.11278,174.22013c0.03051,-0.26376 0.06749,-0.50371 0.08934,-0.75233c0.13847,-0.1015 0.26827,-0.18785 0.45639,-0.20065c0.06684,0.19897 0.05585,0.39356 0.05999,0.59679c-0.17312,0.162 -0.35917,0.27642 -0.60572,0.3562z" fill="#a9a9a9"/><path d="M274.44609,179.84378c0.22923,-0.04952 0.43466,-0.09258 0.64011,-0.13562c0.09063,0.19251 0.07963,0.3871 0.06865,0.58168c-0.18385,0.0755 -0.3655,0.11209 -0.56874,0.11623c-0.02806,-0.05624 -0.06258,-0.13627 -0.0755,-0.18385c-0.02366,-0.13408 -0.02572,-0.2357 -0.06452,-0.37843z" fill="#a9a9a9"/><path d="M273.03182,175.43826c-0.16459,0.28741 -0.29452,0.51431 -0.43312,0.75634c-0.13626,0.06258 -0.27034,0.08623 -0.43247,0.05365c-0.04745,-0.12761 0.04344,-0.21617 0.06516,-0.32425c0.02172,-0.10808 0.05858,-0.20751 0.10189,-0.28314c0.23789,-0.06464 0.4282,-0.11636 0.69854,-0.2026z" fill="#a9a9a9"/><path d="M277.85017,171.82983c0.1298,-0.08636 0.25741,-0.13381 0.38282,-0.14235c0.12968,0.05417 0.13821,0.17958 0.18786,0.26828c0.04965,0.0887 0.13175,0.15579 0.11649,0.28767c-0.11688,0.13395 -0.30073,0.20944 -0.5019,0.3152c-0.03232,-0.11895 -0.06464,-0.23789 -0.10563,-0.34171c-0.02366,-0.13408 -0.04732,-0.26815 -0.07964,-0.38709z" fill="#a9a9a9"/><path d="M276.2547,181.00002c-0.16226,0.10795 -0.30926,0.08404 -0.45199,0.12282c-0.12308,-0.17092 -0.15101,-0.3677 -0.1854,-0.58826c0.17519,-0.06037 0.35037,-0.12075 0.51043,-0.18978c0.12088,0.20984 0.09257,0.43466 0.12695,0.65524z" fill="#a9a9a9"/><path d="M275.78012,172.81384c-0.03452,-0.08003 -0.04745,-0.1276 -0.06037,-0.17518c-0.0172,-0.11028 -0.02572,-0.2357 -0.04938,-0.36977c0.22716,-0.15114 0.40895,-0.32827 0.67062,-0.39937c0.08856,0.09089 0.09063,0.19251 0.0905,0.33305c-0.19044,0.19224 -0.41334,0.40609 -0.65136,0.61127z" fill="#a9a9a9"/><path d="M274.01259,178.67152c-0.22057,0.03438 -0.39795,0.13368 -0.60766,0.11403c-0.08416,-0.16872 -0.00401,-0.34377 -0.05792,-0.49517c0.24875,-0.11869 0.46932,-0.15307 0.70721,-0.21771c0.07331,0.22277 -0.02198,0.38916 -0.04163,0.59887z" fill="#a9a9a9"/><path d="M272.53999,181.24306c-0.10808,-0.02172 -0.18798,-0.12774 -0.33718,-0.11274c-0.08236,0.21397 -0.15825,0.45174 -0.28599,0.63972c-0.05184,-0.04978 -0.11882,-0.10822 -0.162,-0.17312c-0.06477,-0.09735 -0.08196,-0.20763 -0.02133,-0.31352c0.08882,-0.19019 0.16899,-0.36524 0.25781,-0.55543c0.19665,0.11261 0.27875,0.17972 0.5487,0.51509z" fill="#1c1c1c"/><path d="M281.65021,175.1911c-0.19251,0.09063 -0.35257,0.15967 -0.56021,0.24163c0.02185,-0.24862 0.03504,-0.48212 0.07202,-0.72207c0.14494,-0.07771 0.2812,-0.14027 0.43906,-0.1704c0.07331,0.22277 0.06231,0.41735 0.04913,0.65084z" fill="#a9a9a9"/><path d="M272.64084,177.38379c0.19251,-0.09063 0.3655,-0.11209 0.57094,-0.15515c-0.06077,0.24642 -0.1042,0.4626 -0.14765,0.67877c-0.13847,0.1015 -0.27034,0.08623 -0.43466,0.09257c-0.0755,-0.18385 -0.0256,-0.37623 0.01138,-0.61619z" fill="#a9a9a9"/><path d="M280.12512,173.71513c-0.04952,-0.22923 -0.07097,-0.40222 -0.10756,-0.58387c0.132,-0.12528 0.31365,-0.16187 0.4953,-0.19846c0.09283,0.1536 0.16187,0.31365 0.16601,0.5169c-0.14934,0.15553 -0.34391,0.14454 -0.55374,0.26543z" fill="#a9a9a9"/><path d="M277.48669,181.44439c-0.18385,0.0755 -0.37416,0.12722 -0.54935,0.1876c-0.12748,-0.09308 -0.1836,-0.20557 -0.21372,-0.36343c0.17312,-0.162 0.40016,-0.17259 0.60132,-0.27835c0.1015,0.13847 0.11649,0.28767 0.16174,0.45419z" fill="#a9a9a9"/><path d="M275.24021,172.14309c-0.15579,0.13174 -0.27486,0.3046 -0.49763,0.37791c-0.03013,-0.15786 -0.06892,-0.30059 -0.1077,-0.44334c0.10395,-0.18152 0.26621,-0.28947 0.45652,-0.34118c0.09503,0.11468 0.12735,0.23363 0.14881,0.40661z" fill="#a9a9a9"/><path d="M272.74219,180.01301c-0.06051,-0.03464 -0.12967,-0.05417 -0.19018,-0.08881c-0.16226,0.10795 -0.19704,0.309 -0.30745,0.46673c-0.11454,-0.04551 -0.12308,-0.17092 -0.22031,-0.24669c0.05211,-0.2313 0.20143,-0.38683 0.20815,-0.64411c0.15993,0.0715 0.2247,0.16885 0.30461,0.27488c0.05831,0.07357 0.18152,0.10394 0.20517,0.23801z" fill="#1c1c1c"/><path d="M280.73456,181.03443c-0.15579,0.13174 -0.27488,0.30461 -0.47385,0.37144c-0.08856,-0.09089 -0.11442,-0.18605 -0.15321,-0.32878c0.12554,-0.14906 0.28133,-0.28082 0.45006,-0.36498c0.08856,0.09089 0.12308,0.17092 0.17699,0.32232z" fill="#a9a9a9"/><path d="M274.76957,180.75216c0.15786,-0.03013 0.30059,-0.0689 0.44334,-0.1077c0.09283,0.1536 0.12295,0.31145 0.14441,0.48444c-0.11468,0.09503 -0.23789,0.06463 -0.34378,0.004c-0.13615,-0.07797 -0.27229,-0.15592 -0.24397,-0.38076z" fill="#a9a9a9"/><path d="M282.1958,176.72886c-0.17958,0.13821 -0.35051,0.26129 -0.53008,0.3995c0.03064,-0.40429 0.11959,-0.735 0.56939,-0.8189c0.04745,0.12761 -0.00672,0.25728 -0.0393,0.41941z" fill="#a9a9a9"/><path d="M273.56201,179.59865c-0.08636,-0.1298 -0.0949,-0.25522 -0.10343,-0.38063c0.06064,-0.10589 0.1536,-0.09283 0.24876,-0.11869c0.07137,-0.01939 0.15139,-0.05392 0.25082,-0.01707c0.08636,0.1298 -0.00026,0.28108 0.07744,0.42601c-0.16872,0.08416 -0.31792,0.09916 -0.47358,0.09037z" fill="#a9a9a9"/><path d="M277.66022,176.16036c0.18618,-0.25495 0.37235,-0.50991 0.61903,-0.73022c0.08209,0.06709 0.05391,0.1514 0.01061,0.22703c-0.09749,0.20531 -0.2101,0.40196 -0.31405,0.58348c-0.07797,0.13615 -0.18604,0.11442 -0.31559,-0.08029z" fill="#a9a9a9"/><path d="M278.3316,181.96839c0.09955,-0.10369 0.2163,-0.09709 0.32012,-0.13807c0.19251,-0.09063 0.33731,-0.02779 0.47552,0.15179c-0.21204,0.15979 -0.47151,0.192 -0.69208,0.22639c-0.09723,-0.07577 -0.12528,-0.13202 -0.10356,-0.2401z" fill="#a9a9a9"/><path d="M279.77383,177.16986c0.10408,-0.32206 0.35722,-0.51858 0.60391,-0.73889c-0.03051,0.26376 -0.16045,0.49066 -0.26659,0.71109c-0.06283,0.1448 -0.12554,0.14907 -0.33731,0.0278z" fill="#a9a9a9"/><path d="M281.15281,179.98834c0.03659,0.18165 0.0905,0.33305 0.12708,0.5147c-0.05844,0.06698 -0.16446,0.14686 -0.25535,0.23543c-0.22897,-0.23155 -0.2203,-0.24668 -0.09257,-0.43466c0.06064,-0.10589 0.13641,-0.20311 0.22083,-0.31546z" fill="#a9a9a9"/><path d="M280.11142,172.16056c0.12528,0.132 0.17274,0.25961 0.22018,0.38722c-0.12334,0.11016 -0.27901,0.10137 -0.43687,0.13149c-0.06258,-0.13626 -0.11002,-0.26388 -0.1726,-0.40015c0.09308,-0.12748 0.24656,-0.07977 0.38929,-0.11856z" fill="#a9a9a9"/><path d="M279.54575,180.65496c0.07344,0.08223 0.09063,0.19251 0.09917,0.31793c-0.15799,0.17066 -0.35917,0.27642 -0.57327,0.3346c-0.11454,-0.04551 -0.11882,-0.10822 -0.10576,-0.20118c0.18824,-0.15334 0.37648,-0.30667 0.57986,-0.45135z" fill="#a9a9a9"/><path d="M281.97898,175.03789c-0.0128,-0.18812 -0.00181,-0.3827 -0.01461,-0.57081c0.10382,-0.04098 0.19677,-0.02792 0.28754,0.02405c0.07344,0.08223 0.06038,0.17518 0.06245,0.27681c-0.0044,0.07783 -0.00879,0.15566 -0.01319,0.23349c-0.09735,0.06477 -0.19251,0.09063 -0.32219,0.03645z" fill="#a9a9a9"/><path d="M279.17226,173.02887c-0.03659,-0.18165 -0.0667,-0.3395 -0.11842,-0.52982c0.06709,-0.08209 0.16445,-0.14688 0.32658,-0.1143c0.06258,0.13626 0.11649,0.28767 0.18553,0.44773c-0.1298,0.08636 -0.23583,0.16626 -0.39369,0.19639z" fill="#a9a9a9"/><path d="M282.31552,175.85332c-0.1298,0.08636 -0.24228,0.14247 -0.39148,0.15747c-0.03659,-0.18165 0.01978,-0.35024 0.0437,-0.49724c0.09955,-0.10369 0.20764,-0.08197 0.30926,-0.08404c0.03672,0.04111 0.06697,0.05844 0.05831,0.07356c-0.00659,0.11674 -0.01319,0.2335 -0.01979,0.35024z" fill="#a9a9a9"/><path d="M282.37227,177.61333c-0.02572,-0.2357 0.05224,-0.37183 0.09994,-0.5253c0.04125,-0.17725 0.16665,-0.18578 0.31585,-0.20079c0.03659,0.18165 -0.01112,0.33512 -0.01991,0.49078c-0.11688,0.13395 -0.29413,0.0927 -0.39589,0.2353z" fill="#a9a9a9"/><path d="M279.57276,181.83549c-0.1448,-0.06283 -0.23557,-0.1148 -0.29814,-0.25107c0.16872,-0.08416 0.32232,-0.17699 0.46725,-0.2547c0.16213,0.03258 0.17066,0.15799 0.25275,0.22509c-0.01733,0.03026 -0.01953,0.06917 -0.04331,0.07563c-0.14494,0.07771 -0.25742,0.13381 -0.37856,0.20505z" fill="#a9a9a9"/><path d="M279.1689,171.98239c-0.10601,0.0799 -0.17738,0.09929 -0.27034,0.08623c-0.09943,-0.03685 -0.12528,-0.132 -0.17493,-0.22069c-0.03452,-0.08003 -0.13175,-0.15579 -0.08623,-0.27034c0.12761,-0.04745 0.26168,-0.07111 0.41515,-0.0234c0.05391,0.1514 0.07757,0.28548 0.11636,0.4282z" fill="#a9a9a9"/><path d="M272.59236,178.38048c0.1492,-0.01499 0.25948,-0.03219 0.38489,-0.04073c0.04525,0.16652 0.03645,0.32219 0.04279,0.48652c-0.11249,0.05611 -0.22276,0.0733 -0.32865,0.01267c-0.0216,-0.03245 -0.04318,-0.0649 -0.04098,-0.10382c-0.02585,-0.09516 -0.04306,-0.20544 -0.05805,-0.35464z" fill="#a9a9a9"/><path d="M281.56989,180.20711c-0.08623,-0.27035 -0.08623,-0.27034 -0.0146,-0.57081c0.14494,-0.07771 0.2746,-0.02353 0.43673,0.00905c-0.0759,0.23777 -0.26414,0.3911 -0.42213,0.56176z" fill="#a9a9a9"/><path d="M273.6979,179.95768c0.11249,-0.05611 0.23789,-0.06464 0.35244,-0.01914c0.04525,0.16652 0.08405,0.30926 0.11416,0.46712c-0.34378,0.004 -0.3589,-0.00465 -0.4666,-0.44798z" fill="#a9a9a9"/><path d="M281.56901,174.14024c-0.13626,0.06258 -0.24009,0.10356 -0.38929,0.11856c-0.07771,-0.14494 -0.04512,-0.30706 -0.06659,-0.48005c0.05624,-0.02806 0.10382,-0.04098 0.1514,-0.05391c0.04758,-0.01292 0.10163,-0.00206 0.16433,-0.00633c0.11016,0.12334 0.13381,0.25742 0.14015,0.42174z" fill="#a9a9a9"/><path d="M272.09188,177.14978c-0.09063,-0.19251 -0.00181,-0.3827 -0.00814,-0.54702c0.12115,-0.07124 0.23569,-0.02573 0.36111,-0.03426c0.0106,0.22703 -0.04577,0.39561 -0.18643,0.53603c-0.02599,0.04538 -0.10382,0.04098 -0.16652,0.04525z" fill="#a9a9a9"/><path d="M276.22888,171.50402c-0.2185,0.13601 -0.44346,0.24823 -0.6533,0.36912c-0.09723,-0.07577 -0.13174,-0.15579 -0.13161,-0.29633c0.24656,-0.07977 0.49311,-0.15954 0.75906,-0.16794c0.01292,0.04758 0.01939,0.07137 0.02585,0.09516z" fill="#a9a9a9"/><path d="M279.2581,176.07103c-0.06723,0.22264 -0.14959,0.43661 -0.29246,0.61593c-0.05844,0.06698 -0.13847,0.10149 -0.2141,0.05817c-0.03026,-0.01733 -0.07343,-0.08223 -0.06477,-0.09735c0.1148,-0.23556 0.35064,-0.40183 0.57133,-0.57675z" fill="#a9a9a9"/><path d="M281.37302,173.32495c-0.08223,0.07344 -0.18385,0.0755 -0.30059,0.06891c-0.05391,-0.1514 -0.10782,-0.3028 -0.16174,-0.45419c0.1298,-0.08636 0.22923,-0.04952 0.33511,0.01112c0.06477,0.09735 0.10356,0.24008 0.12722,0.37417z" fill="#a9a9a9"/><path d="M275.85856,181.51639c0.16226,-0.10795 0.31146,-0.12296 0.47578,-0.12929c0.09503,0.11468 0.15113,0.22717 0.13368,0.39795c-0.2335,-0.01318 -0.40635,-0.13226 -0.60946,-0.26867z" fill="#a9a9a9"/><path d="M272.0244,175.30328c-0.00193,-0.24215 0.17118,-0.40415 0.18217,-0.59874c0.11249,-0.05611 0.16432,-0.00634 0.16859,0.05637c0.00634,0.16433 -0.01112,0.33512 -0.09775,0.48638c-0.04111,0.03672 -0.04978,0.05184 -0.25302,0.05598z" fill="#a9a9a9"/><path d="M276.77332,171.95641c-0.06477,-0.09735 -0.08416,-0.16872 -0.0711,-0.26168c0.19251,-0.09063 0.39369,-0.19639 0.67475,-0.19613c-0.13213,0.26582 -0.3549,0.33911 -0.60365,0.45781z" fill="#a9a9a9"/><path d="M273.04564,179.2025c0.06258,0.13626 0.10356,0.2401 0.08184,0.34818c-0.04978,0.05184 -0.10381,0.04098 -0.15786,0.03013c-0.21617,-0.04344 -0.23116,-0.19263 -0.22018,-0.38722c0.09296,0.01306 0.19458,0.01099 0.29621,0.00892z" fill="#a9a9a9"/><path d="M280.87395,177.59897c0.09749,-0.20531 0.19277,-0.37171 0.3421,-0.52724c0.08429,0.02819 0.08856,0.09089 0.06258,0.13627c-0.04551,0.11454 -0.0759,0.23777 -0.1214,0.35231c-0.0693,0.12102 -0.14713,0.11662 -0.28328,0.03865z" fill="#a9a9a9"/><path d="M275.29903,174.00472c0.00193,0.24215 -0.12579,0.43014 -0.22974,0.61166c-0.01733,0.03026 -0.0649,0.04318 -0.10382,0.04098c-0.03026,-0.01733 -0.05831,-0.07357 -0.04965,-0.08869c0.0759,-0.23777 0.21875,-0.41709 0.38321,-0.56395z" fill="#a9a9a9"/><path d="M274.27843,174.10323c-0.14053,-0.00013 -0.21617,-0.04344 -0.20312,-0.1364c0.03038,-0.12321 0.14726,-0.25715 0.32038,-0.41915c0.01927,0.2119 -0.07602,0.37829 -0.11727,0.55554z" fill="#a9a9a9"/><path d="M277.42981,182.17512c0.2163,-0.09709 0.42613,-0.21797 0.62912,0.05895c-0.22496,0.11222 -0.42161,-0.00039 -0.62912,-0.05895z" fill="#a9a9a9"/><path d="M278.79459,179.30079c0.02392,-0.14699 0.0565,-0.30913 0.07175,-0.44101c0.0887,-0.04965 0.14274,-0.03878 0.22484,0.02831c-0.00233,0.17945 -0.14946,0.29607 -0.21229,0.44087c-0.03026,-0.01733 -0.04537,-0.02599 -0.08429,-0.02818z" fill="#a9a9a9"/><path d="M277.18548,175.16535c0.02353,0.27462 -0.08908,0.47125 -0.2622,0.63325c-0.00866,0.01512 -0.04757,0.01293 -0.07783,-0.0044c-0.05404,-0.01085 -0.05832,-0.07356 -0.04098,-0.10382c0.08016,-0.17505 0.22949,-0.33059 0.38101,-0.52505z" fill="#a9a9a9"/><path d="M272.2451,177.47857c0.03659,0.18165 -0.00466,0.35891 -0.03723,0.52103c-0.0887,0.04965 -0.14053,-0.00013 -0.13614,-0.07796c0.00013,-0.14053 -0.0084,-0.26595 0.01552,-0.41294c-0.01292,-0.04758 0.05844,-0.06697 0.15787,-0.03012z" fill="#a9a9a9"/><path d="M280.75321,172.54817c-0.11016,-0.12334 -0.16626,-0.23583 -0.22018,-0.38721c0.2313,0.05211 0.37171,0.19277 0.55322,0.29671c-0.04111,0.03672 -0.05844,0.06698 -0.08223,0.07344c-0.0865,0.01073 -0.16433,0.00634 -0.25083,0.01706z" fill="#a9a9a9"/><path d="M274.98937,176.86058c0.12321,0.03038 0.17506,0.08016 0.20957,0.16019c-0.0715,0.15993 -0.19483,0.27008 -0.43273,0.33473c0.0737,-0.19885 0.15166,-0.33498 0.22315,-0.49491z" fill="#a9a9a9"/><path d="M279.95573,179.2024c0.0887,-0.04965 0.15787,-0.03012 0.22703,-0.01061c0.05831,0.07357 0.015,0.1492 -0.23828,0.48626c-0.12955,-0.19471 0.01112,-0.33511 0.01125,-0.47565z" fill="#a9a9a9"/><path d="M276.26055,174.67585c-0.18398,0.21604 -0.16911,0.50578 -0.48483,0.56602c0.06943,-0.26155 0.18851,-0.4344 0.48483,-0.56602z" fill="#a9a9a9"/><path d="M282.08499,177.3082c-0.12994,0.2269 -0.21656,0.37817 -0.30318,0.52943c-0.01733,0.03026 -0.0649,0.04319 -0.11028,0.0172c-0.01512,-0.00866 -0.03672,-0.04111 -0.04318,-0.0649c0.0737,-0.19885 0.16898,-0.36524 0.45665,-0.48173z" fill="#a9a9a9"/><path d="M280.81175,179.39129c0.12541,-0.00854 0.17945,0.00233 0.22044,0.10615c-0.05417,0.12968 -0.117,0.27448 -0.24901,0.39976c-0.09063,-0.19251 -0.004,-0.34378 0.02857,-0.50591z" fill="#a9a9a9"/><path d="M282.79052,176.56726c-0.09296,-0.01306 -0.13187,-0.01526 -0.16212,-0.03258c-0.04513,-0.30707 -0.04512,-0.30706 0.12153,-0.49285c0.09929,0.17738 0.01267,0.32865 0.04059,0.52543z" fill="#a9a9a9"/><path d="M278.04224,181.56165c0.16006,-0.06904 0.31365,-0.16187 0.48884,-0.22225c0.07137,-0.01939 0.13188,0.01525 0.12528,0.132c-0.19251,0.09063 -0.37636,0.16614 -0.61412,0.09024z" fill="#a9a9a9"/><path d="M281.90853,174.07353c-0.04098,-0.10382 -0.06037,-0.17519 -0.04731,-0.26814c0.0649,-0.04318 0.12761,-0.04745 0.21191,-0.01927c0.08209,0.06709 0.09929,0.17739 0.11648,0.28767c-0.08223,0.07344 -0.18165,0.03659 -0.28107,-0.00026z" fill="#a9a9a9"/><path d="M276.89496,178.37365c-0.07771,-0.14494 -0.01707,-0.25082 0.02845,-0.36537c0.02599,-0.04538 0.0887,-0.04965 0.13407,-0.02366c0.03026,0.01733 0.05832,0.07356 0.04098,0.10382c-0.00659,0.11674 -0.08882,0.19019 -0.20351,0.28521z" fill="#a9a9a9"/><path d="M279.82854,171.77762c-0.31366,0.16186 -0.33745,0.16833 -0.41282,-0.15605c0.13834,0.03905 0.28754,0.02405 0.41282,0.15605z" fill="#a9a9a9"/><path d="M273.43999,173.60301c-0.06684,-0.19897 0.03051,-0.26375 0.10627,-0.36098c0.09283,0.1536 0.09283,0.1536 -0.10627,0.36098z" fill="#a9a9a9"/><path d="M278.05157,178.49363c-0.04331,0.07563 -0.10395,0.18152 -0.20997,0.26143c-0.05817,-0.21411 -0.02353,-0.27461 0.09762,-0.34585c0.03245,-0.0216 0.07784,0.0044 0.11235,0.08443z" fill="#a9a9a9"/><path d="M282.65102,177.79303c0.04731,0.26814 0.01486,0.28975 -0.25315,0.19653c0.03038,-0.12321 0.13421,-0.16421 0.25315,-0.19653z" fill="#a9a9a9"/><path d="M273.42551,172.89166c-0.04125,0.17725 -0.12567,0.28961 -0.2101,0.40196c-0.11674,-0.00659 -0.1448,-0.06284 -0.11015,-0.12334c0.0693,-0.12102 0.15372,-0.23337 0.32025,-0.27861z" fill="#a9a9a9"/><path d="M282.7224,175.42343c0.04745,0.12761 0.11222,0.22496 0.0278,0.33731c-0.00866,0.01512 -0.03245,0.02159 -0.04758,0.01292c-0.11881,-0.10821 -0.09709,-0.21631 0.01978,-0.35024z" fill="#a9a9a9"/><path d="M275.95076,177.67225c-0.01073,-0.0865 0.02392,-0.147 0.07369,-0.19884c0.03245,-0.0216 0.08004,-0.03452 0.10163,-0.00206c0.0216,0.03245 0.03452,0.08003 0.0172,0.11028c-0.03464,0.06051 -0.08443,0.11236 -0.19251,0.09063z" fill="#a9a9a9"/><path d="M281.6758,173.21712c0.13188,0.01526 0.19885,0.0737 0.19006,0.22936c-0.15567,-0.0088 -0.19019,-0.08881 -0.19006,-0.22936z" fill="#a9a9a9"/></g></g></g></svg>