<svg version="1.1" xmlns="http://www.w3.org/2000/svg" xmlns:xlink="http://www.w3.org/1999/xlink" width="490.99099" height="361.86186" viewBox="0,0,490.99099,361.86186"><g transform="translate(1.98572,3.42715)"><g data-paper-data="{&quot;isPaintingLayer&quot;:true}" fill-rule="nonzero" stroke-linejoin="miter" stroke-miterlimit="10" stroke-dasharray="" stroke-dashoffset="0" style="mix-blend-mode: normal"><path d="M-1.98572,358.43471v-361.86186h490.99099v361.86186z" fill="none" stroke="none" stroke-width="NaN" stroke-linecap="butt"/><path d="M240.95968,169.31497c0,0 5.42505,-0.24385 10.1949,2.27122c3.88215,2.047 6.24794,7.27938 6.24288,11.29843c-0.22863,2.26755 -0.45124,4.3935 -1.45777,6.40934c-1.17384,2.35091 -2.90494,4.51069 -5.24241,5.93498c-2.16352,1.3183 -4.344,1.74385 -6.80702,2.1068c-10.06136,1.48264 -20.63231,-5.48902 -22.64193,-12.28499c-0.9405,-3.18052 -1.04817,-8.71318 1.7954,-11.45678c3.25894,-3.14438 9.60465,-3.28828 9.60465,-3.28828" fill="#ff0000" stroke="#ff0000" stroke-width="2" stroke-linecap="round"/><path d="M239.04715,174.15065c0,0 0.06527,-3.27711 0.68616,-5.02156c0.74353,-2.08899 3.47379,-6.66605 3.47379,-6.66605" fill="none" stroke="#ff0000" stroke-width="2" stroke-linecap="round"/><path d="M232.32736,170.36977c0,0 -2.75619,-2.22288 -3.70795,-3.50892c-0.96219,-1.30012 -2.05685,-4.33009 -2.05685,-4.33009c0,0 8.27883,-0.17212 10.54676,1.37547c1.887,1.28765 2.0169,7.23981 2.0169,7.23981" fill="#ff0000" stroke="#ff0000" stroke-width="2" stroke-linecap="round"/><path d="" fill="none" stroke="none" stroke-width="0" stroke-linecap="butt"/></g></g></svg>