<svg version="1.1" xmlns="http://www.w3.org/2000/svg" xmlns:xlink="http://www.w3.org/1999/xlink" width="36.20481" height="34.74432" viewBox="0,0,36.20481,34.74432"><g transform="translate(-221.8976,-162.62784)"><g data-paper-data="{&quot;isPaintingLayer&quot;:true}" fill-rule="nonzero" stroke-linejoin="miter" stroke-miterlimit="10" stroke-dasharray="" stroke-dashoffset="0" style="mix-blend-mode: normal"><path d="M228.13879,191.22487c-6.96961,-6.66763 -6.33262,-16.52239 0,-22.58061c6.33262,-6.05822 16.65688,-6.64545 23.6033,0c6.94643,6.64545 6.67977,16.19027 0,22.58061c-6.67977,6.39034 -16.63369,6.66763 -23.6033,0z" fill="#ffffff" stroke="#ff0000" stroke-width="2.5" stroke-linecap="butt"/><g fill="none" stroke="#000000" stroke-width="1.5"><path d="M243.20523,176.46458l-6.42811,-0.05248" stroke-linecap="round"/><path d="M243.21612,180.34213c0,-1.3278 -0.01282,-3.87251 -0.01282,-3.87251c0,0 4.11043,0 6.21284,0c2.16728,0 6.60214,0 6.60214,0c0,0 0,2.685 0,4.0128c0,0.04272 -0.59718,2.71484 -1.58945,3.66472c-1.04866,1.00386 -9.17019,0.73028 -9.70031,0.19345c-0.95978,-0.97193 -1.51239,-3.88256 -1.51239,-3.99846z" stroke-linecap="butt"/><path d="M223.76275,180.33771c0,-1.3278 -0.01282,-3.87251 -0.01282,-3.87251c0,0 4.11043,0 6.21284,0c2.16728,0 6.60214,0 6.60214,0c0,0 0,2.685 0,4.0128c0,0.04272 -0.59718,2.71484 -1.58945,3.66472c-1.04866,1.00386 -9.17019,0.73028 -9.70031,0.19345c-0.95978,-0.97193 -1.51239,-3.88256 -1.51239,-3.99846z" stroke-linecap="butt"/></g></g></g></svg>