<svg version="1.1" xmlns="http://www.w3.org/2000/svg" xmlns:xlink="http://www.w3.org/1999/xlink" width="500.87869" height="136.3424" viewBox="0,0,500.87869,136.3424"><g transform="translate(10.47359,-223.12842)"><g data-paper-data="{&quot;isPaintingLayer&quot;:true}" fill-rule="nonzero" stroke="none" stroke-linecap="butt" stroke-linejoin="miter" stroke-miterlimit="10" stroke-dasharray="" stroke-dashoffset="0" style="mix-blend-mode: normal"><path d="M477.6551,223.12843c3.518,0 6.70501,7.6189 9.01344,19.9295c2.30756,12.3091 3.73656,29.3098 3.73656,48.0705c0,18.7606 -1.429,35.7614 -3.73656,48.0705c-2.30843,12.3105 -5.49544,19.9295 -9.01344,19.9295c-3.518,0 -6.70488,-7.619 -9.01344,-19.9295c-2.30756,-12.3091 -3.73656,-29.3099 -3.73656,-48.0705c0,-18.7607 1.429,-35.7614 3.73656,-48.0705c2.30856,-12.3106 5.49544,-19.9295 9.01344,-19.9295z" fill="#003c95" stroke-width="1.19621"/><path d="M1.9639,227.72083c3.43133,0 6.54106,7.38167 8.79207,19.30626c2.25172,11.92584 3.64544,28.39459 3.64544,46.56874c0,18.17426 -1.39372,34.64301 -3.64543,46.56874c-2.25101,11.92458 -5.36074,19.30626 -8.79207,19.30626c-3.43142,0 -6.54114,-7.38167 -8.79216,-19.30626c-2.25172,-11.92574 -3.64534,-28.39449 -3.64534,-46.56874c0,-18.17415 1.39362,-34.6429 3.64534,-46.56874c2.25101,-11.92458 5.36074,-19.30626 8.79216,-19.30626z" fill="#0065ff" stroke-width="0.98459"/></g></g></svg>