<svg version="1.1" xmlns="http://www.w3.org/2000/svg" xmlns:xlink="http://www.w3.org/1999/xlink" width="53.5159" height="94.00477" viewBox="0,0,53.5159,94.00477"><g transform="translate(-183.88206,-99.98671)"><g data-paper-data="{&quot;isPaintingLayer&quot;:true}" fill-rule="nonzero" stroke-linecap="butt" stroke-linejoin="miter" stroke-miterlimit="10" stroke-dasharray="" stroke-dashoffset="0" style="mix-blend-mode: normal"><path d="M184.88206,192.99148v-62.21404h51.5159v62.21404z" data-paper-data="{&quot;index&quot;:null}" fill="#955c07" stroke="#241602" stroke-width="2"/><path d="M184.92599,150.65424v-14.5363h36.5068v14.5363z" data-paper-data="{&quot;index&quot;:null}" fill="#db880b" stroke="#000000" stroke-width="2"/><path d="M187.89823,144.75858v-2.05489h11.78141v2.05489z" data-paper-data="{&quot;index&quot;:null}" fill="#d8d8d8" stroke="#000000" stroke-width="1"/><path d="M218.42055,150.58549v-14.53629h2.80651v14.53629z" data-paper-data="{&quot;index&quot;:null}" fill="#db880b" stroke="#000000" stroke-width="1.5"/><path d="M185.13124,169.07956v-14.5363h36.5068v14.5363z" data-paper-data="{&quot;index&quot;:null}" fill="#db880b" stroke="#000000" stroke-width="2"/><path d="M188.10348,163.1839v-2.05489h11.78141v2.05489z" data-paper-data="{&quot;index&quot;:null}" fill="#d8d8d8" stroke="#000000" stroke-width="1"/><path d="M218.6258,169.01082v-14.53629h2.8065v14.53629z" data-paper-data="{&quot;index&quot;:null}" fill="#db880b" stroke="#000000" stroke-width="1.5"/><path d="M184.9255,187.50488v-14.5363h36.5068v14.5363z" data-paper-data="{&quot;index&quot;:null}" fill="#db880b" stroke="#000000" stroke-width="2"/><path d="M187.89774,181.60922v-2.05489h11.78141v2.05489z" data-paper-data="{&quot;index&quot;:null}" fill="#d8d8d8" stroke="#000000" stroke-width="1"/><path d="M218.42006,187.43614v-14.53629h2.8065v14.53629z" data-paper-data="{&quot;index&quot;:null}" fill="#db880b" stroke="#000000" stroke-width="1.5"/><path d="M221.55764,192.99148v-62.10168h14.84032v62.10168z" data-paper-data="{&quot;index&quot;:null}" fill="#633d05" stroke="#241602" stroke-width="2"/><g><path d="M200.24873,129.86217v-1.43202h19.47468v1.43202z" fill="#d8d8d8" stroke="#979797" stroke-width="1"/><path d="M201.66843,128.41808v-1.43202h16.3966v1.43202z" fill="#d8d8d8" stroke="#979797" stroke-width="1"/><path d="M206.79957,126.96194v-3.43684h6.15768v3.43684z" fill="#d8d8d8" stroke="#979797" stroke-width="1"/><path d="M208.14792,124.22904v-5.34674h3.36524v5.34674z" fill="#d8d8d8" stroke="#979797" stroke-width="1"/><path d="M198.67326,118.64469l7.08849,-17.90022l9.45132,0.1432l5.87127,17.97183c0,0 -8.15655,0 -12.24375,0c-4.09913,0 -10.16733,-0.2148 -10.16733,-0.2148z" fill="#ffde00" stroke="#a08b00" stroke-width="1.5"/><path d="M207.08497,126.49044v-2.71888h5.43775v2.71888z" fill="#d8d8d8" stroke="none" stroke-width="0"/><path d="M201.88918,129.36433v-1.89041h15.94251v1.89041z" fill="#d8d8d8" stroke="none" stroke-width="0"/><path d="M207.04366,127.87036v-4.22577h5.51032v4.22577z" fill="#d8d8d8" stroke="none" stroke-width="0"/></g></g></g></svg>