<svg version="1.1" xmlns="http://www.w3.org/2000/svg" xmlns:xlink="http://www.w3.org/1999/xlink" width="42.30178" height="34.73697" viewBox="0,0,42.30178,34.73697"><g transform="translate(-218.84911,-162.68661)"><g data-paper-data="{&quot;isPaintingLayer&quot;:true}" fill-rule="nonzero" stroke-linejoin="miter" stroke-miterlimit="10" stroke-dasharray="" stroke-dashoffset="0" style="mix-blend-mode: normal"><path d="M219.35482,196.91738v-26.89413h39.31452v26.89413z" fill="#cea800" stroke="#000000" stroke-width="1" stroke-linecap="butt"/><path d="M260.30886,195.82933c0.27076,1.13236 -4.30435,0.5181 -2.57914,-0.22843c0.04692,-0.09846 0.13384,-0.18077 0.24459,-0.23381c0.30677,-0.43557 2.28292,0.24633 2.33455,0.46223z" fill="#cea800" stroke="none" stroke-width="0.5" stroke-linecap="butt"/><path d="M227.18357,163.34084c0.63872,-0.00322 6.63517,-0.60626 11.05161,0.01988c0.85318,1.96376 2.20659,3.68495 4.08547,4.812c-0.72061,1.09663 -1.75358,1.07178 -3.34109,1.06008c-3.55149,-0.02616 -11.61059,2.12848 -16.00567,-0.0276c-1.10865,-0.54387 -1.57936,1.18546 -1.52144,0.10941c0.05364,-0.01516 -0.05615,-1.74846 -0.00332,-1.7767c1.62816,-0.87031 2.09426,-2.94226 3.53606,-4.13125c0.41177,0.00394 1.99166,-0.06477 2.1984,-0.06581z" fill="#cea800" stroke="none" stroke-width="0.5" stroke-linecap="butt"/><path d="M221.49445,168.38915l-0.1103,-0.8272l3.14338,-4.35662c0,0 4.65267,-0.00626 6.94859,-0.00935c2.25608,-0.00304 6.7095,-0.00903 6.7095,-0.00903l3.14338,4.35662l-0.11029,0.8272" fill="none" stroke="#000000" stroke-width="1" stroke-linecap="round"/><path d="M220.75861,168.63062c0.49392,0.19392 0.42069,2.36476 0.0791,2.55995c-0.08698,0.14737 -0.2474,0.24623 -0.43091,0.24623c-0.27614,0 -0.5,-0.22386 -0.5,-0.5c0,-0.04446 0.0058,-0.08757 0.01669,-0.1286c-0.3601,-0.96743 -0.00285,-2.50659 0.83512,-2.17759z" fill="#cea800" stroke="none" stroke-width="0.5" stroke-linecap="butt"/><path d="M221.33398,195.04238v-26.73387h39.31452v26.73387z" fill="#ffcf00" stroke="#000000" stroke-width="1" stroke-linecap="butt"/><path d="M227.12566,190.30961v-18.79167h26.68361v18.79167z" fill="#baeaf2" stroke="#000000" stroke-width="0.5" stroke-linecap="butt"/><path d="M219.34911,169.78296l2.05128,-2.24359" fill="none" stroke="#000000" stroke-width="1" stroke-linecap="round"/><path d="M219.56336,196.78007l1.83673,-1.83673" fill="none" stroke="#000000" stroke-width="1" stroke-linecap="round"/><path d="M259.00218,196.92358l1.64871,-1.5194" fill="none" stroke="#000000" stroke-width="1" stroke-linecap="round"/><g stroke="none" stroke-linecap="butt"><path d="M239.30425,180.2222c-3.31801,-0.03096 -5.25364,-0.57976 -6.53453,-0.94284c-1.38688,-0.39315 -2.31744,-0.96795 -2.69141,-1.66244c-0.03502,-0.06504 -0.04305,-0.11969 -0.02623,-0.18286c0.08088,-0.30915 0.67816,-0.67606 1.19903,-0.88658l0.05915,-0.02319c2.50901,-0.88819 5.33384,-1.34143 8.38076,-1.34143c4.56151,0 8.24617,1.0188 9.00266,1.36984c0.74722,0.34702 0.92959,0.71532 0.96862,0.82413c-0.334,1.96284 -6.10449,2.84657 -10.1416,2.84657z" fill="#660000" stroke-width="0.63025"/><path d="M239.69102,175.53744c-2.99396,0 -5.7679,0.44284 -8.24594,1.31591l-0.04046,0.0149l-0.00616,0.00263l-0.01156,0.00495l-0.01351,0.00495c-0.51636,0.21029 -0.86597,0.4717 -0.95916,0.60959c0.34462,0.59041 1.19074,1.09 2.45248,1.44764c1.26242,0.3579 3.17039,0.89889 6.44088,0.9294c0.06928,0.00071 0.14026,0.00094 0.21288,0.00094c1.64517,0 4.15819,-0.17246 6.27811,-0.65643c1.98367,-0.45275 3.26313,-1.11458 3.4881,-1.79297c-0.07379,-0.10978 -0.2673,-0.32386 -0.74253,-0.54455c-0.63511,-0.29474 -4.31054,-1.33696 -8.85313,-1.33696M239.69102,175.53744v-0.70962v0c4.6895,0 8.43826,1.0718 9.15189,1.40272c1.11841,0.51944 1.17989,1.12783 1.17989,1.12783c-0.2843,2.49508 -7.05918,3.2196 -10.50255,3.2196c-0.07476,0 -0.1481,-0.00023 -0.21952,-0.00094c-3.36578,-0.03145 -5.33576,-0.58993 -6.62798,-0.95635c-1.29226,-0.36639 -2.42767,-0.94498 -2.90714,-1.83557c-0.0828,-0.15377 -0.09368,-0.30161 -0.05701,-0.44141c0.15306,-0.58497 1.15812,-1.02376 1.40936,-1.12524c0.00116,-0.00045 0.00259,-0.00094 0.00353,-0.00139c0.01681,-0.00664 0.02935,-0.01186 0.03855,-0.01516c0.00143,-0.00071 0.00263,-0.00094 0.00379,-0.00143c0.00687,-0.00281 0.01182,-0.00473 0.01182,-0.00473c2.8868,-1.02256 5.85261,-1.36792 8.51538,-1.36792z" fill="#000000" stroke-width="0.63025"/><g><path d="M228.63031,188.89065v-17.83419h22.73939v17.83419z" fill-opacity="0.0207" fill="#ffffff" stroke-width="0"/><path d="M239.76382,188.57555c-0.15662,0 -0.24452,-0.00386 -0.24881,-0.00409c-10.69353,-1.03562 -10.49473,-7.91926 -10.48097,-8.21186c0.04572,-0.97493 0.5158,-1.97053 0.86221,-2.58057c0.5149,0.72177 1.49419,1.2822 2.91657,1.66804c1.28516,0.34874 3.22763,0.87592 6.55767,0.90577l0.21704,0.00099c0.095,0 8.85554,-0.03278 10.38811,-2.68631c0.49735,0.82147 0.71626,2.47507 0.73829,3.52154c-1.5631,7.02958 -9.3927,7.38649 -10.95012,7.38649c0.00023,0 0,0 0,0z" fill="#65cbeb" stroke-width="0.63025"/><path d="M249.90405,178.34497c-2.22207,2.29424 -9.38747,2.37036 -10.3163,2.37036c-0.07512,0 -0.14831,-0.0005 -0.22012,-0.00099c-3.37504,-0.03034 -5.34357,-0.56452 -6.64628,-0.91807c-1.2276,-0.33329 -2.15004,-0.79908 -2.75446,-1.38986c-0.27298,0.55535 -0.54497,1.27258 -0.57768,1.97028c-0.01658,0.35282 -0.02253,2.20776 1.48753,4.07234c1.70127,2.10108 4.61806,3.36642 8.66978,3.76189c0.03083,0.00123 0.10546,0.00314 0.2173,0.00314c1.50576,0 9.06689,-0.34128 10.59375,-7.06137c-0.02274,-0.84776 -0.17342,-2.02304 -0.45351,-2.80772M249.90405,178.34497l-19.89288,-1.37445v0c-0.03579,0.13054 -0.02511,0.26879 0.0559,0.41232c0.46798,0.83209 1.57619,1.37304 2.83743,1.71524c1.26125,0.34223 3.18406,0.86389 6.46906,0.89354c0.06989,0.00072 0.14099,0.00095 0.21395,0.00095c3.36079,0 9.97392,-0.67699 10.25137,-3.00833c1.17737,0.81646 1.23117,4.24117 1.23117,4.24117c-1.60317,7.35183 -9.732,7.71119 -11.30626,7.71119c-0.1706,0 -0.26444,-0.00436 -0.26444,-0.00436c-9.95166,-0.96336 -10.89945,-6.90409 -10.82053,-8.58998c0.07891,-1.68585 1.30321,-3.37174 1.30321,-3.37174h0.02913c0,0.00023 0,0 0,0z" fill="#000000" stroke-width="0.63025"/><g><path d="M240.02112,188.70319c-0.31941,0 -0.50396,-0.01082 -0.50798,-0.01104c-10.81414,-1.04719 -10.61131,-8.0409 -10.59733,-8.33831c0.05116,-1.09316 0.62006,-2.20636 0.97477,-2.80095c0.46227,0.77355 1.45532,1.37155 2.95281,1.77787c1.27948,0.34728 3.2132,0.87206 6.52805,0.90168l0.21609,0.00096c0.09666,0 9.2477,-0.03393 10.38266,-2.81876c0.84826,0.91303 0.9577,2.88743 0.86435,3.78552c-0.72457,6.96141 -8.45913,7.50304 -10.81343,7.50304c0.00027,0 0.00027,0 0,0z" fill="#cc7700" stroke-width="0.63025"/><path d="M250.00311,177.85053c-1.74085,2.59142 -10.03103,2.62394 -10.41585,2.62394c-0.0744,0 -0.14688,-0.00046 -0.21798,-0.00096c-3.34493,-0.03011 -5.29593,-0.55948 -6.58703,-0.9099c-1.35321,-0.36727 -2.31591,-0.89373 -2.8701,-1.56834c-0.32723,0.6038 -0.7189,1.49707 -0.75988,2.37009c-0.01733,0.36849 -0.02395,2.3041 1.54129,4.23685c1.74438,2.15404 4.719,3.44928 8.8411,3.84979c0.03696,0.00191 0.21087,0.01012 0.48645,0.01012c2.30357,0 9.87395,-0.52551 10.57766,-7.28706c0.09858,-0.94723 -0.04594,-2.46089 -0.59566,-3.32455M250.00311,177.85053l-19.99194,-0.88001v0c-0.03579,0.13054 -0.02511,0.26879 0.0559,0.41232c0.46798,0.83209 1.57619,1.37304 2.83743,1.71524c1.26125,0.34223 3.18406,0.86389 6.46906,0.89354c0.06989,0.00072 0.14099,0.00095 0.21395,0.00095c3.36079,0 9.97392,-0.67699 10.25137,-3.00833c1.17737,0.81646 1.34539,3.14174 1.23117,4.24117c-0.75299,7.23601 -8.89227,7.71814 -11.04896,7.71814c-0.33148,0 -0.52174,-0.01131 -0.52174,-0.01131c-9.95166,-0.96336 -10.89945,-6.90409 -10.82053,-8.58998c0.07891,-1.68585 1.30321,-3.37174 1.30321,-3.37174h0.02913c0,0.00023 0,0 0,0z" fill="#2d2d2d" stroke-width="0.63025"/><path d="M250.01982,177.84176c0.54972,0.86365 0.69602,2.38266 0.59745,3.32989c-0.70371,6.76155 -8.2921,7.30959 -10.59568,7.30959c-0.27558,0 -0.45125,-0.00825 -0.4882,-0.01017c-4.1221,-0.40051 -7.11402,-1.71189 -8.85841,-3.86593c-1.56525,-1.93275 -1.55826,-3.87601 -1.54093,-4.24451c0.04098,-0.87302 0.43411,-1.77022 0.76134,-2.37402c0.55419,0.67461 1.51682,1.20123 2.87002,1.5685c1.2911,0.35041 3.25531,0.86954 6.60024,0.89965c0.0711,0.0005 0.14507,0.00072 0.21947,0.00072c0.38483,0 8.69384,-0.0223 10.43469,-2.61372" data-paper-data="{&quot;noHover&quot;:false,&quot;origItem&quot;:[&quot;Path&quot;,{&quot;applyMatrix&quot;:true,&quot;segments&quot;:[[[266.8813,173.6543],[0,0],[-4.6305,6.7815]],[[239.1761,180.5209],[1.0236,0],[-0.1979,0]],[[238.5963,180.5184],[0.1891,0.0013],[-8.8972,-0.0788]],[[221.0754,178.1373],[3.4342,0.917],[-3.5994,-0.9611]],[[213.4412,174.0331],[1.4741,1.7654],[-0.8704,1.5801]],[[211.42,180.2354],[0.109,-2.2846],[-0.0461,0.9643]],[[215.5197,191.3228],[-4.1634,-5.0578],[4.6399,5.6369]],[[239.0362,201.3973],[-10.9644,-1.0481],[0.0983,0.005]],[[240.3301,201.4238],[-0.733,0],[6.1273,0]],[[268.4657,182.3543],[-1.8718,17.6943],[0.2622,-2.4788]],[[266.8813,173.6543],[1.4622,2.2601],[0,0]]],&quot;fillColor&quot;:[0,0,0,1],&quot;strokeWidth&quot;:0.63025}]}" fill="#000000" stroke-width="0.31513"/></g><text transform="translate(236.58487,186.6344) scale(0.18798,0.19107)" font-size="40" xml:space="preserve" fill="#2d2d2d" fill-rule="nonzero" stroke="none" stroke-width="1" stroke-linecap="butt" stroke-linejoin="miter" stroke-miterlimit="10" stroke-dasharray="" stroke-dashoffset="0" font-family="Sans Serif" font-weight="normal" text-anchor="start" style="mix-blend-mode: normal"><tspan x="0" dy="0">IA</tspan></text></g></g></g></g></svg>