<svg version="1.1" xmlns="http://www.w3.org/2000/svg" xmlns:xlink="http://www.w3.org/1999/xlink" width="103.32596" height="40.15854" viewBox="0,0,103.32596,40.15854"><g transform="translate(-180.49206,-175.21628)"><g data-paper-data="{&quot;isPaintingLayer&quot;:true}" fill-rule="nonzero" stroke="none" stroke-width="1" stroke-linecap="butt" stroke-linejoin="miter" stroke-miterlimit="10" stroke-dasharray="" stroke-dashoffset="0" style="mix-blend-mode: normal"><g><g><path d="M181.15234,198.27005c-0.10432,-0.19733 -0.41339,-0.8759 -0.07186,-1.32021c0.3414,-0.44151 0.94824,-0.21794 1.14803,-0.14587c0.15931,0.10356 2.45224,2.15888 5.972,3.0725c-0.01498,-0.40342 -0.02285,-0.79107 -0.02475,-1.16721c-1.71405,-0.14561 -4.92314,-1.97291 -6.89147,-3.92444c-0.19034,-0.33906 -0.4642,-1.03331 -0.10414,-1.45565c0.36391,-0.42073 0.96205,-0.16329 1.15935,-0.07946c0.15368,0.11306 2.37696,2.34191 5.90372,3.44637c0.03611,-0.48268 0.08499,-0.94579 0.14369,-1.38107c-1.54439,-0.14164 -4.82102,-2.23157 -6.75665,-4.37396c-0.17097,-0.34996 -0.4123,-1.05861 -0.02783,-1.45937c0.38516,-0.40141 0.96726,-0.1056 1.1575,-0.00952c0.15189,0.12419 2.36156,2.61069 5.996,3.89585c0.09085,-0.36919 0.19431,-0.72931 0.30773,-1.0791c-1.45091,-0.33842 -4.20279,-2.36101 -5.98301,-4.47217c-0.1149,-0.13625 -0.22712,-0.27377 -0.33224,-0.4102c-0.14574,-0.36124 -0.33412,-1.08954 0.07759,-1.45946c0.40961,-0.36653 0.97021,-0.02702 1.15395,0.08342l0.31314,0.34338c0.53555,0.6351 2.48522,2.76912 5.52726,4.08771c0.19257,-0.37367 0.38133,-0.69152 0.5539,-0.9535c-1.55815,-0.52889 -4.04124,-2.40789 -5.68926,-4.36228c-0.11551,-0.13698 -0.22582,-0.27369 -0.33218,-0.4116c-0.14574,-0.36124 -0.33536,-1.09101 0.07699,-1.46018c0.40831,-0.3666 0.96891,-0.02709 1.15457,0.08414l0.30733,0.34238c0.54975,0.65195 2.59031,2.87754 5.76739,4.1885l0.08301,0.03515c0.47166,-0.19872 1.17158,0.08224 1.46473,0.21942l0.54861,0.25905l-0.40036,0.47904c-3.89576,4.66238 -3.05622,13.38299 -3.0485,13.47162l0.07981,0.78355l-2.08919,-0.93197l-0.00835,-0.27634c-1.68834,-0.06654 -4.97445,-1.7011 -7.02953,-3.53322l-0.06395,-0.05376z" fill="#1f1287"/><path d="M191.72567,188.60401c0,0 -0.01553,0.01249 -0.04202,0.03701c-0.06386,-0.15668 -0.17356,-0.29268 -0.18591,-0.30732c-0.00124,-0.00146 -0.00124,-0.00146 -0.00124,-0.00146c-3.23716,-1.3351 -5.30733,-3.56784 -5.93368,-4.31063c-0.1328,-0.15749 -0.19963,-0.24852 -0.19963,-0.24852c-1.11107,-0.67289 -0.68417,0.66799 -0.68417,0.66799c0.10265,0.13352 0.20926,0.26583 0.32044,0.39768c1.92969,2.28842 5.00458,4.42173 6.0821,4.3674c0.03278,-0.00529 0.04534,-0.00953 0.07544,-0.01356c-0.33043,0.40008 -0.75845,1.03033 -1.17329,1.93087c-0.03601,-0.053 -0.06725,-0.09596 -0.08084,-0.11206c-0.00494,-0.00586 -0.0068,-0.00806 -0.0068,-0.00806c-3.23259,-1.33556 -5.30028,-3.56538 -5.9291,-4.31109c-0.13527,-0.16042 -0.20273,-0.25219 -0.20273,-0.25219c-1.11441,-0.67096 -0.6869,0.67065 -0.6869,0.67065c0.10265,0.13352 0.20926,0.26583 0.31983,0.39695c1.9303,2.28915 5.00519,4.42246 6.0821,4.3674c0.08546,-0.00463 0.14224,-0.02267 0.20588,-0.03406c-0.23534,0.61441 -0.45362,1.32706 -0.63021,2.15392c-0.02742,-0.02664 -0.04472,-0.04716 -0.04472,-0.04716c-4.02764,-1.29659 -6.43614,-4.0498 -6.43614,-4.0498c-1.15296,-0.58124 -0.63451,0.72099 -0.63451,0.72099c2.0553,2.27397 5.584,4.38759 6.72003,4.23339c0.10216,-0.01426 0.17354,-0.03855 0.24282,-0.05943c-0.12823,0.75027 -0.21485,1.58813 -0.26266,2.50295c-3.98591,-1.08223 -6.46317,-3.60935 -6.46317,-3.60935c-1.1848,-0.51008 -0.60184,0.76123 -0.60184,0.76123c2.16708,2.14748 5.79973,4.04874 6.9252,3.82607c0.04855,-0.00866 0.0733,-0.02348 0.11349,-0.03468c-0.01193,0.69683 0.00485,1.43506 0.05102,2.22874c-3.99513,-0.86354 -6.5752,-3.21817 -6.5752,-3.21817c-1.20804,-0.44197 -0.55969,0.79353 -0.55969,0.79353c2.27187,2.01711 5.99488,3.70462 7.10692,3.41892c0.03098,-0.00888 0.04046,-0.01679 0.0668,-0.02382l0.01332,0.45447l1.15666,0.51351c0,0 -0.91997,-8.9573 3.15592,-13.83294c0,0 -1.23952,-0.58087 -1.30356,0.0306zM193.67609,189.19332c-3.76434,4.50469 -2.94893,13.02447 -2.94102,13.10891l0.16032,1.56642l-1.3537,-0.60295l-1.15264,-0.51611l-0.51939,-0.22882l-0.00253,-0.14577c-1.91039,-0.27981 -5.04397,-1.97783 -6.88772,-3.61823l-0.12394,-0.10871l-0.07846,-0.15045c-0.13853,-0.26143 -0.54911,-1.1708 -0.02867,-1.84454c0.23926,-0.31241 0.71703,-0.61725 1.62176,-0.28916l0.09087,0.03416c-0.54278,-0.41701 -1.04333,-0.84721 -1.4714,-1.26802l-0.1157,-0.11808l-0.07178,-0.15431c-0.12373,-0.27186 -0.48854,-1.20056 0.06242,-1.84398c0.25893,-0.30087 0.75113,-0.57976 1.63583,-0.1974l0.15249,0.0675l0.12091,0.11836c0.02311,0.02151 1.96578,1.9647 5.08752,3.07459c0.01359,-0.12813 0.02713,-0.25488 0.04121,-0.37947c-1.86478,-0.4539 -4.88324,-2.55414 -6.58215,-4.43346l-0.11355,-0.12287l-0.05897,-0.16414c-0.1092,-0.2767 -0.42347,-1.22936 0.159,-1.83542c0.27178,-0.2827 0.7796,-0.53275 1.64105,-0.09699l0.14951,0.07573l0.11391,0.12921c0.01977,0.02344 1.99138,2.23353 5.2552,3.5119c0.01346,-0.05322 0.03224,-0.10895 0.0451,-0.1629c-1.70275,-0.62678 -4.1873,-2.6179 -5.75069,-4.47193c-0.1186,-0.14066 -0.23324,-0.28248 -0.34398,-0.42412l-0.10265,-0.13352l-0.05179,-0.16446c-0.09188,-0.2856 -0.34084,-1.25794 0.2845,-1.81907c0.2903,-0.26072 0.81236,-0.46592 1.64557,0.03349l0.14239,0.08937l0.10369,0.13917c0.00803,0.00952 0.06708,0.08543 0.1727,0.2107c0.49972,0.59261 2.26462,2.5237 5.02033,3.81333c0.0213,-0.0395 0.0439,-0.07893 0.06366,-0.11291c-1.67096,-0.76867 -3.89428,-2.59278 -5.33476,-4.30104c-0.11921,-0.14138 -0.23386,-0.28322 -0.3446,-0.42486l-0.10265,-0.13352l-0.05117,-0.16373c-0.09188,-0.2856 -0.34145,-1.25868 0.2845,-1.81907c0.2903,-0.26072 0.81236,-0.46592 1.64347,0.03689l0.14369,0.08943l0.10512,0.13643c0.0068,0.00806 0.06188,0.08516 0.16689,0.2097c0.52998,0.6285 2.49041,2.76939 5.5467,4.04602c0.57,-0.14247 1.235,0.10446 1.62185,0.28504l1.10187,0.51626zM187.75156,199.26899c-0.00287,-0.03726 -0.00382,-0.07373 -0.00275,-0.11217c-1.37299,-0.26222 -3.37932,-1.34324 -5.06012,-2.58579c0.28886,0.24687 2.18554,1.82493 5.06286,2.69798z" fill="#000000"/></g><path d="M246.99702,209.44013l-4.60097,-4.07852c-3.66431,-4.28515 -15.35798,-7.67211 -26.48233,-2.24825c-11.12708,5.42652 -27.44466,-0.50732 -27.44466,-0.50732c-0.94749,-11.87945 3.93404,-14.65007 3.93404,-14.65007c18.576,7.57142 22.36766,-0.53671 33.58609,0.15818c11.2164,0.6969 17.73861,9.70191 17.73861,9.70191z" fill="#458ef9"/><g fill="#1f1287"><path d="M200.25898,190.56884c-2.92119,2.43401 -3.39759,14.12631 -3.39759,14.12631l-2.54605,-0.41246c-2.51037,-9.63632 3.04759,-14.46041 3.04759,-14.46041z"/><path d="M208.4044,191.13604c-3.46449,4.9118 -1.39759,14.25185 -1.39759,14.25185l-3.47518,-0.07029c-2.01714,-9.67846 1.70671,-14.05014 1.70671,-14.05014z"/><path d="M214.62059,189.95261c-1.68974,3.82814 2.16795,12.81014 2.16795,12.81014l-3.07814,1.32644c-4.18703,-8.08748 -1.31224,-13.57349 -1.31224,-13.57349z"/><path d="M223.32893,188.11237c-0.81642,2.18481 2.25319,12.36364 2.25319,12.36364l-3.13037,0.40778c-4.24408,-7.84748 -1.7332,-12.46531 -1.7332,-12.46531z"/><path d="M231.98037,189.33412c0.55907,0.33033 3.69283,11.59649 3.69283,11.59649l-3.85054,-0.46244l-3.2267,-12.03289c0,0 2.82535,0.56852 3.38441,0.89885z"/><path d="M237.82996,192.81197l3.65067,2.38188l1.67608,10.83285l-3.19916,-2.78262l-2.12758,-10.4321"/></g><path d="M188.06187,202.94749l-0.02608,-0.30177c-0.95736,-12.05012 3.95437,-14.98512 4.16601,-15.1036l0.1723,-0.09743l0.1821,0.07464c11.86255,4.83549 17.63027,3.20709 23.20488,1.6323c3.05262,-0.86211 6.20951,-1.75657 10.25298,-1.50251c9.55319,0.59245 15.80356,7.17161 17.49111,9.17289c0.37371,0.44317 0.5641,0.70873 0.5641,0.70873l3.75617,13.24958l-5.70534,-5.05846c-3.77389,-4.40922 -15.46698,-7.33329 -26.02834,-2.18531c-11.1543,5.4384 -27.08947,-0.24508 -27.76307,-0.48895zM192.45586,188.47342c-0.78788,0.60094 -4.294,3.85449 -3.57735,13.7836c2.16017,0.72912 16.78749,5.34149 26.85581,0.43314c11.34527,-5.53136 23.1543,-2.11946 26.98056,2.35481l3.45416,3.05855l-2.84361,-10.111c-0.02276,-0.00049 -0.19106,-0.22215 -0.46086,-0.54507c-1.63197,-1.93534 -7.6768,-8.29581 -16.89704,-8.86874c-3.90731,-0.24274 -6.85979,0.59239 -9.98354,1.47319c-5.67612,1.60309 -11.54404,3.25988 -23.52815,-1.57847z" fill="#000000"/></g><g><path d="M271.94174,191.79426c6.37944,2.71174 2.39208,9.24559 2.39208,9.24559c11.76078,3.82482 8.17266,9.24152 8.17266,9.24152c-6.58077,-3.03227 -12.36135,0.63837 -30.33748,3.66795c-17.97104,3.02956 -36.45132,-3.66795 -36.45132,-3.66795c31.69593,-26.30042 56.22066,-18.48711 56.22405,-18.48711z" fill="#458ef9"/><g fill="#1f1287"><path d="M240.08342,195.37024c0,0 9.37547,5.32744 5.76366,19.36757h-2.87084c0,0 2.63569,-11.91269 -5.52175,-18.16116z"/><path d="M254.39023,191.2357c7.77681,8.04864 6.02587,20.47391 6.02587,20.47391l-3.60165,0.73981c1.52762,-15.1289 -6.60951,-20.33596 -6.60951,-20.33596z"/><path d="M229.27508,200.56242c0,0 5.98189,6.05778 4.38661,13.66686l-2.05714,-0.25697c0,0 -1.6342,-10.38708 -4.52363,-11.93838z"/><path d="M276.62102,208.91537h-3.35297c0.63778,-5.11645 -4.8586,-9.00889 -4.8586,-9.00889c1.059,-5.83733 -3.5492,-9.19555 -3.5492,-9.19555l4.549,0.52747c2.05036,1.67301 2.31257,8.57204 2.52912,9.00484c4.88397,2.70902 4.68605,8.67212 4.68265,8.67212z"/></g><path d="M283.20855,210.58027l-0.38571,0.58427l-0.71898,-0.33c-3.90786,-1.79745 -7.87492,-0.98326 -15.2085,0.73304c-3.78098,0.88452 -8.48562,1.9841 -14.55887,3.00928c-3.15166,0.53018 -6.52831,0.79796 -10.04201,0.79796c-14.2882,0 -26.78148,-4.4659 -26.90498,-4.51189l-1.03026,-0.37193l0.78496,-0.65054c19.69153,-16.33666 36.6814,-19.76792 47.47282,-19.76792c6.0005,0 9.4702,1.08468 9.62077,1.13068c5.22569,2.21537 4.47288,6.87063 3.15166,9.50257c4.28173,1.4972 6.96647,3.39339 7.98826,5.64391c1.059,2.33304 -0.11842,4.15349 -0.16917,4.23056zM281.8687,206.75411c-0.87461,-1.8813 -3.39696,-3.55974 -7.23545,-4.89599c-6.96308,-2.30328 -13.65551,0.37464 -13.65551,0.37464c6.40822,-3.15671 11.02996,-2.57243 12.95682,-2.07878c0.75958,-1.58105 2.26183,-5.8319 -2.3667,-7.79843c-0.01184,0 -3.33268,-1.01031 -8.94746,-1.01031c-10.32958,0 -26.55989,3.2703 -45.51213,18.70892c3.25993,1.04412 13.62506,4.04257 25.18789,4.04257c3.40033,0 6.67381,-0.25969 9.71381,-0.77227c6.01742,-1.01301 10.68994,-2.10718 14.44214,-2.98358c7.26929,-1.70143 11.52394,-2.53591 15.61789,-0.96432c0.17763,-0.57886 0.30282,-1.52019 -0.20131,-2.62247z" fill="#000000"/></g><g><path d="M206.86459,188.974c0,0 -3.31377,-2.29166 -1.65758,-5.03672c1.65758,-2.74637 4.63955,-3.92652 4.63955,-3.64282c0,0.28369 28.66402,22.01235 60.97219,-0.98973v-3.12852c0,0 12.09377,5.16626 8.11782,15.54804c0,0 -7.25318,-2.1375 -13.97911,4.58072c-6.73157,6.71693 -12.69551,21.06795 -64.2255,7.47994c0,0 -4.14046,-1.22162 -1.98798,-4.88645c2.15248,-3.66354 8.61833,-7.17682 8.12062,-9.92447z" fill="#458ef9"/><g fill="#1f1287"><path d="M215.39857,184.0176c-3.56402,2.51836 -1.24424,6.18191 -1.46076,7.71442c-0.21791,1.53122 -0.61298,4.959 -2.76546,7.32319c-2.15248,2.3642 -2.40273,6.5835 -2.40273,6.5835l-5.30175,-1.16591c0.58065,-1.22162 0.49911,-3.50939 3.81287,-6.71693c3.31377,-3.20754 3.47826,-7.07188 3.47826,-7.07188c-2.31977,-6.76616 2.20027,-8.25204 2.20027,-8.25204z"/><path d="M225.08821,188.0646c0,0 -0.85622,1.1141 -0.85622,3.63504c0,2.52095 0.88292,5.00823 -0.70859,7.55379c-1.59009,2.54556 -3.42765,8.73525 -3.42765,8.73525l-3.86208,-0.68141c0,0 0.15043,-1.23456 1.23019,-4.09881c1.07835,-2.86554 3.89442,-5.0717 3.34189,-9.38816c-0.55113,-4.31645 1.09804,-7.60431 1.05023,-6.96954z"/><path d="M235.06325,189.64117c-0.79435,3.41222 -0.63828,4.83074 -0.08717,9.38685c0.55113,4.5561 -1.68289,9.73533 -1.68289,9.73533l-3.70181,-0.22541c0,0 2.95384,-5.62097 1.8516,-10.09806c-1.10365,-4.47838 0.77325,-8.95547 0.77325,-9.1485z"/><path d="M242.40782,189.66578h3.46139c3.2266,9.76513 -0.14763,12.52832 -0.14763,12.52832c0.82669,4.28276 -2.07655,6.57054 -2.07655,6.57054h-1.98516c2.98196,-3.57027 1.16129,-6.96436 1.16129,-6.96436c2.07233,-5.72591 -0.41334,-12.1371 -0.41334,-12.1371z"/><path d="M257.06458,186.77304c4.79421,10.00997 1.5437,13.97017 1.71803,14.46632c0.17574,0.49616 -0.49769,1.88359 -0.49769,1.88359l-2.87372,1.77995c1.16129,-2.08568 0.55393,-3.25548 0.55393,-3.25548c2.37039,-7.88802 -2.66142,-13.71626 -2.66142,-13.71626z"/><path d="M267.34331,181.79978c4.03219,2.5935 4.03219,10.27943 4.03219,10.27943l-2.92713,1.52604c1.15848,-7.3789 -3.5359,-10.4841 -3.5359,-10.4841z"/><path d="M270.82157,176.40553c13.31131,6.97212 7.81836,15.22157 7.81836,15.22157l-0.03796,-0.94309c0.65235,-8.82851 -7.11961,-11.08001 -7.11961,-11.08001z"/></g><path d="M279.5622,191.92764l-0.2123,0.55704l-0.61018,-0.17878c-0.00984,-0.0026 -1.03898,-0.29536 -2.6347,-0.29536c-2.71204,0 -6.76532,0.81743 -10.65973,4.70639c-0.64673,0.64254 -1.2836,1.35893 -1.95705,2.1116c-4.2206,4.731 -10.00456,11.21215 -27.36353,11.21215c-9.33817,0 -21.304,-1.9082 -35.57273,-5.6702c-0.10545,-0.0298 -2.11873,-0.63996 -2.83997,-2.29166c-0.44708,-1.02988 -0.29665,-2.19839 0.4513,-3.47053c0.96025,-1.62968 2.66142,-3.17127 4.30775,-4.66364c1.8263,-1.65299 3.70321,-3.3591 3.751,-4.61441c-0.02391,-0.01684 -0.04921,-0.02721 -0.0731,-0.04404l0.02109,-0.05312c-1.29486,-1.03118 -2.96228,-3.24253 -1.5409,-5.59636c1.56479,-2.59739 4.34853,-3.99907 5.13726,-3.99907h0.66359l0.04499,0.36403c1.233,0.94957 12.62662,9.24047 29.20951,9.24047c10.58381,0 20.83161,-3.4459 30.47485,-10.24185v-3.78402l0.94056,0.40288c0.12512,0.0557 12.59288,5.52511 8.46227,16.30847zM271.48236,177.18798v2.41344l-0.25587,0.18266c-9.95676,7.08613 -20.5715,10.67972 -31.54475,10.67972c-15.48487,0 -27.44648,-7.34003 -29.99403,-9.58246c-0.52722,0.16323 -2.62205,1.22809 -3.90004,3.35134c-1.3525,2.24243 1.35953,4.17265 1.47622,4.25298l0.2123,0.14638l0.01687,0.09456c1.10506,0.75265 3.47265,1.99369 8.15437,3.07153c0,0 -4.47225,0.11918 -8.22608,-1.78125c-0.44849,1.54419 -2.1848,3.1337 -4.02235,4.79965c-1.57745,1.42759 -3.20692,2.90441 -4.07156,4.37344c-0.54972,0.93532 -0.67906,1.75145 -0.38803,2.4251c0.48364,1.11928 1.98376,1.58303 1.99923,1.58823c14.12815,3.72444 25.97307,5.61579 35.1861,5.61579c12.53945,0 18.6735,-3.35134 22.75912,-7.04985c-3.44451,0.81354 -14.02973,2.76061 -22.4442,-1.6517c0,0 11.91381,3.79827 24.01322,0.12048c0.71561,-0.741 1.37921,-1.47552 2.01469,-2.18673c0.69031,-0.77209 1.34125,-1.50532 2.00485,-2.1647c5.69963,-5.69093 12.00661,-5.26603 14.03255,-4.89035c2.62346,-7.84397 -4.38086,-12.40656 -7.0226,-13.80823z" fill="#000000"/></g></g></g></svg>