<svg version="1.1" xmlns="http://www.w3.org/2000/svg" xmlns:xlink="http://www.w3.org/1999/xlink" width="99.08345" height="128.36788" viewBox="0,0,99.08345,128.36788"><g transform="translate(-190.99984,-131.45527)"><g data-paper-data="{&quot;isPaintingLayer&quot;:true}" fill-rule="nonzero" stroke-linejoin="miter" stroke-miterlimit="10" stroke-dasharray="" stroke-dashoffset="0" style="mix-blend-mode: normal"><path d="M288.64563,210.46111c0,26.51428 -21.77939,48.00835 -48.64563,48.00835c-26.86624,0 -48.64563,-21.49407 -48.64563,-48.00835c0,-26.51428 21.77939,-48.00835 48.64563,-48.00835c26.86624,0 48.64563,21.49407 48.64563,48.00835z" fill="#9966ff" stroke="none" stroke-width="0" stroke-linecap="butt"/><path d="M288.30412,210.40623c0,26.10904 -21.44652,47.2746 -47.90214,47.2746c-26.45562,0 -47.90214,-21.16556 -47.90214,-47.2746c0,-26.10904 21.44652,-47.2746 47.90214,-47.2746c26.45562,0 47.90214,21.16556 47.90214,47.2746z" fill="#302d2e" stroke="#000000" stroke-width="3" stroke-linecap="butt"/><path d="M198.68851,197.60196c0,0 4.98972,13.72126 6.6785,17.25863c1.68879,3.53737 2.4852,4.5746 5.88528,8.1392c3.40008,3.5646 6.23054,5.67675 9.64182,8.1392c3.41129,2.46245 4.77191,3.65903 9.26617,5.50961c4.49426,1.85058 7.48285,2.4436 12.02097,3.25568c4.53812,0.81208 7.24398,1.24642 11.77053,1.00174c4.52654,-0.24467 7.39137,-0.35804 11.68724,-1.52302c4.29586,-1.16498 9.36315,-3.2301 9.36315,-3.2301c0,0 -2.3052,3.8704 -5.39753,6.73566c-3.09232,2.86526 -4.99399,4.11456 -9.76759,6.28189c-4.7736,2.16733 -7.07162,2.94667 -12.8975,3.75655c-5.82588,0.80987 -9.25724,1.1696 -15.02622,0.12521c-5.76898,-1.04439 -10.02121,-3.25362 -14.02447,-5.38439c-4.00326,-2.13077 -6.03349,-3.57752 -9.26617,-7.01224c-3.23268,-3.43471 -5.21856,-5.97917 -7.34652,-10.01747c-2.12796,-4.0383 -2.78263,-6.68419 -3.67271,-10.89401c-0.89008,-4.20982 -1.09846,-6.67688 -0.81419,-11.45776c0.28427,-4.78088 1.89923,-10.68438 1.89923,-10.68438z" fill="#181717" stroke="#181717" stroke-width="3" stroke-linecap="round"/><path d="M288.58329,211.04855c0,26.10904 -21.44651,47.2746 -47.90214,47.2746c-26.45562,0 -47.90214,-21.16556 -47.90214,-47.2746c0,-26.10904 21.44652,-47.2746 47.90214,-47.2746c26.45562,0 47.90214,21.16556 47.90214,47.2746z" fill="none" stroke="#000000" stroke-width="3" stroke-linecap="butt"/><path d="M261.01153,189.12133c-1.21074,4.46006 -6.81649,6.82035 -12.52077,5.27185c-5.70429,-1.54851 -9.34703,-6.41941 -8.13628,-10.87948c1.21075,-4.46007 6.81649,-6.82035 12.52078,-5.27184c5.70429,1.54851 9.34702,6.41941 8.13628,10.87947z" fill="#efefef" stroke="#efefef" stroke-width="3" stroke-linecap="butt"/><path d="M269.49949,202.34192c-0.70824,2.30918 -3.76747,3.41893 -6.83297,2.47872c-3.0655,-0.94021 -4.97642,-3.57437 -4.26818,-5.88354c0.70825,-2.30918 3.76747,-3.41893 6.83297,-2.47872c3.0655,0.94021 4.97643,3.57437 4.26818,5.88354z" fill="#efefef" stroke="#efefef" stroke-width="3" stroke-linecap="butt"/><path d="M248.18873,164.54988c0,3.5613 0.27734,5.63383 -2.52635,7.92136c-2.66269,2.17249 -8.30258,5.17849 -12.28791,5.17849c-4.17951,0 -9.71314,-0.41385 -12.4065,-2.77649c-2.57908,-2.2624 -3.63861,-6.92685 -3.63861,-10.32335c0,-3.36071 0.32291,-5.35842 2.85406,-7.61401c2.69842,-2.40464 8.00226,-3.90331 12.22395,-3.90331c4.31714,0 10.40092,0.33634 13.10861,2.83694c2.42383,2.23845 2.67274,5.40067 2.67274,8.68038z" fill="#302d2e" stroke="#000000" stroke-width="3" stroke-linecap="butt"/><path d="M232.0882,168.76046c0,0.92539 0.29049,2.53435 0.28342,4.09595c-0.00422,0.93284 0.38317,3.53714 -0.02016,3.90215c-0.53285,0.48222 -3.08797,-0.0109 -3.52735,-0.0109c-1.64633,0 -5.31859,-0.86235 -6.41157,-1.81126c-1.13129,-0.98218 -3.1332,-2.9247 -3.1332,-4.44351c0,-0.82027 -0.571,-2.16997 -0.68986,-3.63851c-0.09013,-1.11354 -1.22956,-2.80958 -0.78426,-3.22767c1.10538,-1.0378 12.69725,1.42333 13.81005,2.60927c0.88069,0.93857 0.47295,1.20523 0.47295,2.52448z" fill="#1a1819" stroke="none" stroke-width="0" stroke-linecap="butt"/><path d="M240.9855,169.10554c0,0.57737 0.32269,2.73662 0.32246,2.87914c-0.00107,0.66716 0.19685,1.67577 0.09539,1.93683c-0.13404,0.34488 -1.12845,0.89639 -1.23898,0.89639c-0.41416,0 -2.24215,0.58884 -2.51711,-0.08982c-0.28459,-0.70244 -0.63751,-4.15124 -0.63751,-5.23748c0,-0.58665 -0.3948,-2.45611 -0.4247,-3.5064c-0.01933,-0.67893 2.88621,-1.31155 3.79112,-1.04193c0.15656,0.04665 0.60934,3.21976 0.60934,4.16327z" fill="#1a1819" stroke="none" stroke-width="0" stroke-linecap="butt"/><path d="M248.17434,164.42407c0,3.56131 0.27734,5.63382 -2.52635,7.92135c-2.66269,2.17249 -8.30258,5.17849 -12.2879,5.17849c-4.17951,0 -9.71314,-0.41385 -12.4065,-2.77649c-2.57908,-2.26239 -3.63861,-6.92685 -3.63861,-10.32335c0,-3.36071 0.32291,-5.35842 2.85406,-7.614c2.69842,-2.40465 8.00226,-3.90331 12.22395,-3.90331c4.31714,0 10.40092,0.33634 13.10861,2.83693c2.42383,2.23844 2.67274,5.40067 2.67274,8.68038z" fill="none" stroke="#000000" stroke-width="3" stroke-linecap="butt"/><path d="M227.95393,161.00668c0,0 -0.48186,-4.99015 -0.48186,-8.75728c0,-2.38418 0.53691,-4.42409 0.53691,-6.2632c0,-1.16451 1.15061,-4.26397 2.91412,-6.8424c0.67399,-0.98545 2.38577,-4.60287 4.4034,-5.41689c2.60441,-1.05077 6.54632,-0.65079 6.54632,-0.65079c0,0 4.77754,2.68119 4.3367,4.73878c-0.02705,0.12624 -5.13424,6.15845 -5.81329,7.52895c-0.58981,1.19039 -2.2147,6.31594 -2.2147,7.40581c0,3.71914 -0.48185,7.90939 -0.48185,7.90939c0,0 -3.07504,1.52957 -4.86861,1.52957c-1.67924,0 -4.87714,-1.18194 -4.87714,-1.18194z" fill="#ccab7f" stroke="#000000" stroke-width="3" stroke-linecap="butt"/><path d="M236.92047,157.29333c0,0 -3.04173,-0.36288 -4.52272,-0.81203c-1.31138,-0.39771 -4.12394,-3.20003 -4.12394,-3.20003" fill="none" stroke="#403628" stroke-width="1" stroke-linecap="round"/><path d="M237.07294,152.05027c0,0 -3.08694,-1.01166 -4.28538,-2.24467c-1.19956,-1.23417 -2.90864,-5.15687 -2.90864,-5.15687" fill="none" stroke="#403628" stroke-width="1" stroke-linecap="round"/><path d="M239.57732,146.53053c0,0 -3.08695,-1.01166 -4.28539,-2.24467c-1.19957,-1.23417 -2.90864,-5.15687 -2.90864,-5.15687" fill="none" stroke="#403628" stroke-width="1" stroke-linecap="round"/><path d="M242.70424,141.91006c0,0 -3.08694,-1.01167 -4.28538,-2.24468c-1.19956,-1.23416 -2.90864,-5.15686 -2.90864,-5.15686" fill="none" stroke="#403628" stroke-width="1" stroke-linecap="round"/><path d="M246.45372,138.81139c0,0 -2.76043,-0.90467 -3.83212,-2.00726c-1.07269,-1.10363 -2.60099,-4.61143 -2.60099,-4.61143" fill="none" stroke="#403628" stroke-width="1" stroke-linecap="round"/><path d="M227.92372,161.09071c0,0 -0.48553,-5.02812 -0.48553,-8.82392c0,-2.40233 0.541,-4.45775 0.541,-6.31086c0,-1.17337 1.15937,-4.29641 2.9363,-6.89447c0.67912,-0.99295 2.40392,-4.6379 4.43691,-5.45812c2.62423,-1.05877 6.59613,-0.65573 6.59613,-0.65573c0,0 4.8139,2.70159 4.3697,4.77484c-0.02725,0.1272 -5.1733,6.20531 -5.85752,7.58624c-0.5943,1.19945 -2.23155,6.364 -2.23155,7.46216c0,3.74744 -0.48552,7.96958 -0.48552,7.96958c0,0 -3.09844,1.54121 -4.90566,1.54121c-1.69202,0 -4.91425,-1.19093 -4.91425,-1.19093z" fill="none" stroke="#000000" stroke-width="3" stroke-linecap="butt"/></g></g></svg>