<svg version="1.1" xmlns="http://www.w3.org/2000/svg" xmlns:xlink="http://www.w3.org/1999/xlink" width="53.5159" height="85.75375" viewBox="0,0,53.5159,85.75375"><g transform="translate(-237.62682,-108.12361)"><g data-paper-data="{&quot;isPaintingLayer&quot;:true}" fill-rule="nonzero" stroke-linecap="butt" stroke-linejoin="miter" stroke-miterlimit="10" stroke-dasharray="" stroke-dashoffset="0" style="mix-blend-mode: normal"><path d="M238.62682,192.87735v-61.92087h51.5159v61.92087z" data-paper-data="{&quot;index&quot;:null}" fill="#955c07" stroke="#000000" stroke-width="2"/><path d="M253.59198,150.54011v-14.53629h36.5068v14.53629z" data-paper-data="{&quot;index&quot;:null}" fill="#db880b" stroke="#000000" stroke-width="2"/><path d="M275.34514,144.64445v-2.0549h11.7814v2.0549z" data-paper-data="{&quot;index&quot;:null}" fill="#d8d8d8" stroke="#000000" stroke-width="1"/><path d="M253.79771,150.47137v-14.53629h2.80651v14.53629z" data-paper-data="{&quot;index&quot;:null}" fill="#db880b" stroke="#000000" stroke-width="2"/><path d="M253.38674,168.96543v-14.53629h36.5068v14.53629z" data-paper-data="{&quot;index&quot;:null}" fill="#db880b" stroke="#000000" stroke-width="2"/><path d="M275.1399,163.06977v-2.0549h11.7814v2.0549z" data-paper-data="{&quot;index&quot;:null}" fill="#d8d8d8" stroke="#000000" stroke-width="1"/><path d="M253.59247,168.89669v-14.53629h2.80651v14.53629z" data-paper-data="{&quot;index&quot;:null}" fill="#db880b" stroke="#000000" stroke-width="2"/><path d="M253.59248,187.39076v-14.5363h36.5068v14.5363z" data-paper-data="{&quot;index&quot;:null}" fill="#db880b" stroke="#000000" stroke-width="2"/><path d="M275.34564,181.4951v-2.05489h11.7814v2.05489z" data-paper-data="{&quot;index&quot;:null}" fill="#d8d8d8" stroke="#000000" stroke-width="1"/><path d="M253.79821,187.32201v-14.53629h2.80651v14.53629z" data-paper-data="{&quot;index&quot;:null}" fill="#db880b" stroke="#000000" stroke-width="2"/><path d="M238.62682,192.87736v-61.80851h13.66764v61.8085z" data-paper-data="{&quot;index&quot;:null}" fill="#633d05" stroke="#000000" stroke-width="2"/><path d="M253.17426,129.5559c0,0 -0.18191,-3.85879 -0.11161,-9.09908c0.02075,-1.54654 -0.20612,-3.04524 0.3365,-4.7992c2.38123,-7.69706 6.16202,-6.74674 6.16202,-6.74674v20.64501z" fill="#ff0000" stroke="#b30000" stroke-width="1.5"/><path d="M262.76204,129.60829v-20.64501c0,0 3.91727,-0.47383 4.40787,1.48428c0.49059,1.95811 0.76463,19.16073 0.76463,19.16073z" fill="#ff0000" stroke="#b30000" stroke-width="1.5"/><path d="M259.62098,124.71308v-15.78736h3.19346v15.78736z" fill="#ff0000" stroke="#b30000" stroke-width="1.5"/><path d="M258.57165,123.30392v-12.45897c0,0 0.22539,-0.58472 0.58472,-0.58472c0.55052,0 3.16324,-0.0743 4.32115,0.09822c0.6474,0.09646 0.22165,0.4865 0.22165,0.4865v12.45897z" fill="#ff0000" stroke="#ff0000" stroke-width="1.5"/><path d="M273.05464,116.36977c0,1.92516 -2.7689,3.48581 -6.18451,3.48581c-3.41561,0 -6.18451,-1.56065 -6.18451,-3.48581c0,-1.92516 2.7689,-3.48581 6.18451,-3.48581c3.41561,0 6.18451,1.56065 6.18451,3.48581z" fill="#56bcff" stroke="#0082d8" stroke-width="1.5"/><path d="M249.48604,126.36244v-14.07819h4.138v14.07819z" fill="#ff0000" stroke="#b30000" stroke-width="1.5"/></g></g></svg>