<svg version="1.1" xmlns="http://www.w3.org/2000/svg" xmlns:xlink="http://www.w3.org/1999/xlink" width="490.99099" height="361.86186" viewBox="0,0,490.99099,361.86186"><g transform="translate(5.4955,0.93093)"><g data-paper-data="{&quot;isPaintingLayer&quot;:true}" fill-rule="nonzero" stroke-linejoin="miter" stroke-miterlimit="10" stroke-dasharray="" stroke-dashoffset="0" style="mix-blend-mode: normal"><path d="" fill="none" stroke="none" stroke-width="0" stroke-linecap="butt"/><path d="M-5.4955,360.93093v-361.86186h490.99099v361.86186z" fill="none" stroke="none" stroke-width="NaN" stroke-linecap="butt"/><path d="M252.3772,164.89611c0,0 8.08636,1.48188 11.51668,5.6863c1.9768,2.42289 0.22076,6.71743 0.09401,9.66949c-0.27741,6.46149 -10.71588,15.32904 -20.67377,15.16037c-5.63341,-0.09542 -12.72918,0.31145 -17.87731,-2.25236c-5.41246,-2.69546 -8.75909,-8.43771 -9.64734,-11.54236c-5.79095,-20.24076 31.07411,-16.81276 31.07411,-16.81276" fill="#c27a05" stroke="#000000" stroke-width="2" stroke-linecap="round"/><path d="M240.77482,168.27093c10.03284,0.53182 13.13497,6.47068 13.13497,6.47068c0,0 -7.13856,1.53046 -13.35932,1.43327c-6.22075,-0.0972 -12.74845,-3.52609 -12.74845,-3.52609c0,0 1.80519,-4.96984 12.9728,-4.37786z" fill="#5a3007" stroke="none" stroke-width="0" stroke-linecap="butt"/><path d="" fill="none" stroke="none" stroke-width="0" stroke-linecap="butt"/><path d="M258.97508,174.07167l1.09933,-5.20783c0,0 2.31137,1.16553 3.38805,3.77127c0.53188,1.28724 0.44444,2.96769 0.25294,4.95073c-0.77908,8.06726 -7.23537,12.02945 -7.23537,12.02945c0,0 2.39922,-11.33076 1.36094,-11.13879c-1.94034,0.35876 -3.67643,0.22905 -4.84659,-0.18068c-1.3381,-0.46854 -2.14495,-2.01645 -2.14495,-2.01645z" fill="#fa8f0c" stroke="none" stroke-width="0" stroke-linecap="butt"/><path d="M216.25798,180.60604c-0.21764,-3.02392 -0.20386,-5.45635 0.87677,-7.2939c2.19586,-3.73396 6.54545,-5.16245 6.54545,-5.16245c0,0 5.02054,3.8448 6.6461,6.01833c0.29645,0.39639 2.77361,1.60641 2.77361,1.60641c0,0 1.65752,5.95653 0.48788,10.96625c-0.61738,4.97419 -2.97867,7.0295 -2.97867,7.0295c0,0 -3.32593,-0.42622 -6.30974,-2.45607c-3.93087,-2.67411 -7.80556,-7.43133 -8.0414,-10.70808z" fill="#7d4417" stroke="none" stroke-width="0" stroke-linecap="butt"/><path d="M258.64709,173.85374c0,0 -4.37248,1.31763 -9.11252,1.96873c-3.10834,0.42696 -6.40473,0.33897 -8.62494,0.20368c-1.275,-0.0777 -4.29363,-0.05929 -5.88311,-0.43889c-5.06232,-1.20898 -9.24449,-3.73618 -9.24449,-3.73618" fill="none" stroke="#000000" stroke-width="2" stroke-linecap="round"/></g></g></svg>